<?xml version="1.0" encoding="UTF-8"?>
<svg id="Layer_2" data-name="Layer 2" xmlns="http://www.w3.org/2000/svg" viewBox="0 0 45.47 35.17">
  <defs>
    <style>
      .cls-1 {
        fill: #152a50;
      }
    </style>
  </defs>
  <g id="Address">
    <g>
      <path class="cls-1" d="M16.35,34.99c-3.15-.46-5.15-.67-6.89-3.25-.68-1-2.61-1.71-3.93-1.59-2.95.27-5.88-1.91-5.49-4.78.34-2.48,3.07-2.67,4.82-3.39,1.18-.49,2.2-.93,3.46-.99l17.71-.9-.39-10.06,9.1.49,1.24-3.7c2.44-2.54,7.09-2.13,8.96,1.12.83,1.44.62,4.29-.22,5.76-.94,1.65-3.19,2.07-4.94,2.61l-2.22,12.12c-.31,1.71-1,3.57-1.97,5.06l-6.77-.97c-.34-.05-.88-1.4-1.2-1.36-2.32.29-3.37,5.01-11.29,3.85ZM38.97,9.89l.04-2.44c-.49.44-.9.76-.76,1.04l.72,1.4ZM43.33,8.76l-2.24-1.17-.41,2.55,2.65-1.38ZM38.42,10.55l-1.31-1.08c-.22-.18-.72,1.11-.42,1.11l1.74-.03ZM33.35,21.22c2.01,2.99.04,5.13,1.16,8.06.53-1.87,1.07-3.73,1.45-5.67l2.07-10.57-9.88-.13.85,5.44c2.8,2.75,1.94,5.74,3.41,8.78.33-2.23.3-4.09.94-5.92ZM19.81,31.96c4.64-.84,7.46-4.86,7.88-9.28l-15.96,1.01c-1.42.09-3.15.45-4.04,1.43,1.69,5.5,7.56,7.67,12.12,6.84ZM3.39,26.96c.49.39,2.13.71,2.42.15s.15-2.21-.37-2.57c-1.05-.73-3.7,1.1-3.26,1.45l1.22.98ZM30.8,29.81l-1.06-3.65c-.39,1.36-.31,2.72,1.06,3.65Z"/>
      <path class="cls-1" d="M19.47,17.87c-.75.1-.23-2.17.4-2.57,5.5-3.56-3.59-8,.53-14.51.34-.54,1.81-.97,2.38-.69s1.24,1.97.68,2.31l-1.43.89c-1.39.86,2.07,3.79,1.96,8.34-.06,2.75-1.19,5.79-4.53,6.23Z"/>
      <path class="cls-1" d="M15.63,7.92c-1.39,4.55,1.9,4.36.92,7.92-.38,1.38-1.4,2.34-2.96,2.73-1.23-1.57,2.14-3.17.67-4.73-1.92-2.04-1.87-5.22-.6-7.15.25-.39,1.43-.55,1.75-.32s.38,1.04.22,1.55Z"/>
      <path class="cls-1" d="M36.3,17.89c-.55.25-9.24-.15-6.43-1.98.31-.2.96-.47,1.34-.5l5.11-.29c.28.37.3,2.09-.02,2.77Z"/>
    </g>
  </g>
</svg>