<?xml version="1.0" encoding="UTF-8"?>
<svg id="Layer_2" data-name="Layer 2" xmlns="http://www.w3.org/2000/svg" viewBox="0 0 442.41 15.45">
  <defs>
    <style>
      .cls-1 {
        fill: #9ec284;
      }
    </style>
  </defs>
  <g id="Address">
    <g>
      <path class="cls-1" d="M96.97,0c.68,2.3,1.68,4.76,3.29,6.83,2.43,3.11,10.5-2.14,11.35-6.83h2.53c.67,2.31,2.97,7.67,6.29,6.87,3.83-.93,6.21-3.56,7.35-6.87h3.54c.96,4.84,4.43,9.25,9.74,9.92,5.67.71,10.08-4.63,9.45-9.92h2.02c-.24,2.39-.21,8.77,2.94,9.65.95.26,2.91-.23,3.74-.86,2.88-2.18,3.44-5.55,3.42-8.79h2.02c.13,3.04,1.42,6.48,4.23,8.33s6.73.99,8.89-1.18,3.05-4.54,3.04-7.15h2.02c.15,3.02,1.19,6.32,3.89,8.23,5.16,3.63,12.28-3.32,12.78-8.23h2.02l1.45,5.76c.46,1.83,1.83,3.6,3.08,4.23,3.84,1.94,8.62-1.13,9.3-2.25,1.41-2.31,1.77-5.24,1.83-7.74h3.03c.1,2.7,1.39,5.66,3.43,7.63s4.91,2.59,7.53,1.27c3.44-1.73,5.1-5.28,5.2-8.9h2.02l1.28,3.93c.61,1.88,2.6,4.66,4.54,5.18,4.99,1.33,8.08-6.41,7.32-9.11h2.53l2.41,4.79c1.12,2.21,4.03,4.18,6.56,3.59,3.94-.93,6.45-4.74,6.68-8.37h3.54c.85,3.12,2.17,6.69,5.64,8.09,2.84,1.15,7.01.66,9.71-.87s4.38-4.51,4.85-7.22h3.03l.88,4.81c.31,1.67,1.76,3.51,3.04,4.29,1.45.88,4.31,1.23,5.7.01,2.68-2.35,4.03-5.87,4.02-9.11h2.02c1.13,3.72,3.48,7.76,7.64,9.03,4.5,1.37,9.34-1.98,11.07-5.85l.49-3.18h1.52c.53,3.76,2.32,7.82,5.94,9.77,2.85,1.53,6.08.67,9.05-.3,1.41-1.79,2.64-3.7,3.21-5.81l.99-3.65h3.03c.63,3.95,2.3,8.31,6.19,10.39s8.68-.75,10.18-4.54l2.31-5.85h.51l2.81,5.78c1.16,2.39,3.12,4.36,5.54,5.7,4.87,2.71,10.46-2.36,11.66-6.91l1.21-4.58h2.02c.39,4.15,2.39,8.17,5.23,11.44,2.08,2.39,5.37,2.56,7.8.56,6.98-5.72,3.51-8.15,5.66-12.01h1.52c-.98,3.46,2.71,14.45,7.48,11.65,6.54-3.84,3.3-10.37,6.48-9.39.36,2.05,1.05,6.1,3.76,6.01,3.21-.11,5.32-3.58,7.03-5.76v3.11l-4.95,4.18c-.76.64-3.17,1.07-4.02.55-.75-.46-1.69-1.58-2.53-2.55-1.89,2.82-4.31,6.5-8.25,6.3-3.11-.16-5.12-3.87-6.07-6.75-2.78,4.35-6.52,8.59-11.89,8.05-1.86-.18-4.3-2.67-5.16-4.19l-3.44-6.07c-2.5,5.24-7.8,10.98-13.72,8.81-4.7-1.72-5.94-5.17-8.61-9.04-1.33,3.39-3.52,5.81-6.55,7.34-3.72,1.88-7.52.92-10.17-2.21-1.95-2.3-3.06-4.89-3.77-8.15-.85,3.02-1.9,6.07-4.22,8.3-2.75,2.65-6.77,3.33-10.48,2.02-2.81-1-5.36-3.94-6.61-7.19-3.89,5.2-10.44,9.16-16,4.73-2-1.59-3.46-3.47-4.75-5.74-2.3,5.12-5.04,9.56-10.95,7.6-1.7-.56-3.74-2.41-4.31-4.6l-1.19-4.53c-1.43,2.27-2.71,4.9-5.08,6.33-3.75,2.25-8.56,3.13-12.46,1.14-2.98-1.52-4.35-4.87-5.7-8.07-1.23,2.37-2.43,4.52-4.22,6.38-2.99,3.1-8.15,3.55-10.9-.14l-3.44-4.62c-1.37,3.96-2.93,6.9-6.73,8.01-4.24,1.25-7.23-3.7-8.76-6.99-1.51,2.65-3.17,5.22-5.76,6.49-4.63,2.27-9.77-.27-11.69-4.9-.37-.89-.99-1.84-1.44-2.5-.59,3.83-2.12,6.46-5.4,8.2-3.08,1.62-7.3,1.85-9.84-1.17-1.59-1.88-2.13-4.71-3.15-7.15-1.9,3.42-3.9,6.29-7.31,7.49-5.11,1.8-9.37-.96-11.11-6.4-2.52,5.98-8.2,8.8-13.66,6.01-2.22-1.14-3.34-3.95-4.35-6.1-1.22,3.83-2.97,7.1-6.92,7.59-2.99.37-4.96-2.33-5.75-5.28-2.09,2.77-4.33,4.78-6.68,5.26-6.93,1.4-12.71-3.64-14.86-11.14-1.59,2.79-3.03,5.61-5.81,7.18-2.6,1.46-5.61,1.91-7.76-.54-1.17-1.33-2.09-3.22-3.12-5.18-1.74,3.01-3.79,5.43-6.8,6.87-3.34,1.6-6.92.6-8.46-2.97l-2.71-6.27h2.02Z"/>
      <path class="cls-1" d="M1.52,0c1.58,2.32,3.52,4.28,5.84,6.29,4.86,1.06,11.67-1.24,12.84-6.29h1.52c1.15,2.91,3.48,5.84,6.92,6.73,4.21,1.09,8.24-3.95,10.25-6.73h2.02c-.07,1.86,1.67,4.19,3.95,3.88,2.64-.35,4.98-2.11,6.66-3.88h5.05c.75,1.98,3.19,3.43,5.34,3.38,2.26-.06,4.88-1.32,5.77-3.38h3.03l-2.85,3.27c-1.56,1.79-4.29,2.76-6.72,2.32-3-.54-5.27-2.67-7.13-4.96-1.84,2.23-4.16,4.12-6.88,5.12-3.15,1.16-6.04.08-7.29-3.26-1.88,2.04-3.55,3.89-5.63,5.4-4.57,3.31-9.73.03-12.88-4.36-3.08,3.49-8.58,6.62-13.53,4.78C4.1,6.93,1.61,3.12,0,0h1.52Z"/>
      <path class="cls-1" d="M73.73,0c.49,1.68,1.91,3.52,3.2,4.25,3.44,1.93,12.5-1.1,13.97-4.25h2.53c-1.76,4.75-10.16,8.01-15.53,6.9-3.41-.7-5.26-4.07-6.18-6.9h2.02Z"/>
    </g>
  </g>
</svg>