<?xml version="1.0" encoding="UTF-8"?>
<svg id="Layer_2" data-name="Layer 2" xmlns="http://www.w3.org/2000/svg" viewBox="0 0 82.53 110.01">
  <defs>
    <style>
      .cls-1 {
        fill: #fff;
      }

      .cls-2 {
        fill: #f5f5dd;
      }

      .cls-3 {
        fill: #b74426;
      }

      .cls-4 {
        fill: #152a50;
      }
    </style>
  </defs>
  <g id="Address">
    <g>
      <polygon class="cls-1" points="80.32 43.77 8.33 41.05 11.4 23.62 79.46 28.58 80.32 43.77"/>
      <path class="cls-3" d="M54.51,82.35c-.07-.06-.48-.17-.44-.22l.36-.47-.86.11-1.79-1.64c-.05-.05.14-.34.16-.4.11-.27-1.05-.11-1.39-1.29l-2.61.56c-.38.08-.96.63-1.29.82l-4.28.91c-.03,1.24-.57,2.1-.87,3.12-.34,1.16-.37,2.53-.52,3.73l-.51,4.02c-.08.65-.2,1.44-.34,2.1l-.73,3.54c-.35,1.72-.48,3.47-1.07,5.14l-1.87,5.3c-.19.55-1.21,1.34-1.79,1.47l-1.85.43c-.45.1-.82.21-1.36.4-.34.04-1.11-.02-1.45-.09-.58-.3-1.18-.52-1.86-.77-.52-.34.06-1.97.8-2.02l1.33-.08c.39-.02,2.75-.03,3.15-.46.27-.3.46-1,.6-1.38.72-1.87,1.52-3.66,1.85-5.62.13-.74.26-1.38.49-2.08l.56-1.69c.12-.35.18-1.1.23-1.52l.48-3.45c.07-.52.34-.87.78-1.09-1-.43-.1-1.47.1-2.04l.16-1.45c.15-1.37.6-2.86,1.38-3.88-.12-.3-.18-.73-.18-1.12l-.42.26c-.11.07-.4-.12-.53-.15-1.84.37-3.72.71-5.6.75l-1.63-.49c-3.39.59-7.29-2.86-9.48-5.08-1.51-1.53-1.82-2.28-2.34-4.25-.24-.89-.91-1.76-.97-2.68-.26-3.84-.48-7.95,1.14-11.57,1.1-2.47,2.16-5.01,3.92-7.09.04-.05,2.73-2.49,3.07-2.78.88-.74,1.82-1.32,2.83-1.91,3.53-2.06,6.33-3.39,10.49-3.77,1.26-.11,2.44-.05,3.71-.06,1.05,0,2.09.33,2.92.48,1.64.29,3.17.48,4.82,1.24,1.42.65,2.93,1.17,4.2,1.97,3.26,2.07,5.8,5.64,7.47,8.99.33.67.71,1.3.96,2.12.37,1.25,1.02,2.48,1.1,3.76.16,2.61,1.2,2.78,1.11,8.81l-.06,4.25-.2,4.15c-.05,1.01-.21,4.5-1.11,4.73-.68.17-2.42-1.47-2.4-2.93l-2-1.98c-.59-.58-1.97-1.28-2.74-1.23l-3.49.21c-.49.03-1.41.56-1.89.68-.08-.07-.44-.43-.38-.35s-.35.49-.3.58c.19.32.71.74,1.12,1.04l2.65,1.91,1.84,1.17,3.23,2.18c.65.44,1.28,1.08,1.77,1.63l.31-.17c.1-.06.31.16.46.26l1.45,1.01,3.57,2.91,1.01.78,1.09.65c1.42.84,1.96,2.21,3.57,3.05l1.41-1.24c.83-.73,4.72-4.56,5.67-2.02.2.53-.62,1.32-1.09,1.1-.43.41-.67,1.22-1.22,1.05l-.9,1.41s-.25.24-.29.22l-.36-.19c-1.56,1.25-1.34,2.29-3.52,2.53-.32.03-.88.08-1.11-.13l-2.35-2.11-1.68-1.54c-.84-.77-1.7-1.43-2.6-2.12s-1.64-1.41-2.54-2.22c-.58-.52-1.8-1-2.06-1.89-.05-.16-.38-.58-.51-.54l-.55.2-2.18-1.48-3.79-3.03ZM48.49,75.67l1.85-.55,2.52-.75c1.18-.35,2.28-.46,3.44-.53,1.28-.08,2.12.1,3.23.61.5.23,1.46.14,2.02.76.14.16,1.87,2.26,1.89.98l.07-4.11-.14-4.28c-.03-1.06-.19-2.25-.36-3.25l-.36-2.1c-.26-1.52-.49-2.97-1.01-4.44-.19-.53-.57-1.65-.9-2.09-1.26-1.7-2.58-3.25-3.97-4.83-.78-.89-1.8-1.68-2.76-2.4-1.26-.94-2.65-1.11-3.45-2.32-.16,0-.65.08-.8,0s-.34-.34-.5-.38l-3.32-.68-1.41-.27c.29.15-4.11-.05-3.34-.32-.18.34-.7.44-1.32.58-1.69.37-3.48.78-5.1,1.4-.9.34-1.73.66-2.69.83-2.71,2.1-2.93,1.13-5.41,3.95-.34.38-.87.79-1.29,1.2-.81.8-1.25,2.16-1.87,3.21-.55.94-.89,1.84-1.22,2.9-1.16,3.75-1.64,6.4-.76,10.22.2.88.35,1.76.75,2.59,1.14,2.35,1.41,3.23,3.39,4.28,1.71.9,3.42,2.11,5.13,2.69.04.01,2.95.2,3.52.55,1.1-.26,2.26-.51,3.42-.68l4.35-.66c.18-.03.65-.38.78-.26l.49.42.29-.55c.05-.09.26.24.29.27-.02-.38,3.96-1.81,4.53-1.98Z"/>
      <path class="cls-2" d="M48.49,75.67c-.56.17-4.54,1.6-4.53,1.98-.03-.04-.25-.36-.29-.27l-.29.55-.49-.42c-.13-.11-.6.23-.78.26l-4.35.66c-1.16.18-2.32.42-3.42.68-.56-.35-3.47-.54-3.52-.55-1.71-.57-3.42-1.78-5.13-2.69-1.98-1.05-2.26-1.93-3.39-4.28-.4-.83-.55-1.71-.75-2.59-.88-3.83-.4-6.47.76-10.22.33-1.05.67-1.96,1.22-2.9.61-1.05,1.06-2.4,1.87-3.21.41-.41.95-.81,1.29-1.2,2.48-2.82,2.7-1.85,5.41-3.95.95-.16,1.79-.48,2.69-.83,1.62-.62,3.41-1.02,5.1-1.4.62-.14,1.14-.24,1.32-.58-.77.27,3.63.47,3.34.32l1.41.27,3.32.68c.17.03.36.31.5.38s.63,0,.8,0c.8,1.21,2.19,1.38,3.45,2.32.96.72,1.98,1.51,2.76,2.4,1.38,1.58,2.71,3.13,3.97,4.83.33.44.71,1.55.9,2.09.52,1.48.76,2.93,1.01,4.44l.36,2.1c.17,1,.33,2.19.36,3.25l.14,4.28-.07,4.11c-.02,1.28-1.75-.82-1.89-.98-.56-.62-1.51-.53-2.02-.76-1.1-.51-1.94-.69-3.23-.61-1.16.07-2.26.18-3.44.53l-2.52.75-1.85.55ZM36.24,58.5c.42-1.08.8-1.88,1.57-2.87,1.48,1.19,1.79,3.22,2.93,2.91,1.79-.48-.9-5.62-3.38-5.71-1.47-.05-2.13,1.41-2.61,2.35l-.47.92c-.16.31-.32.96-.47,1.4l.41.61c-.02.53.24,1.39.51,1.88.12.22,1.02.08,1.04-.18l.07-.89.41-.43ZM30.81,59.9l1.13,1.73c.13.2.82-.01.93-.21.5-.91-.02-1.84-.21-2.37-.08-.24.07-.89-.07-1.1s-.54-.41-.88-.64c-.38-.25-.97-.97-1.41-1.05-2.51-.49-2.98,2.89-3.01,4.46l-.36.54s.52,1.11,1.24.9c.23-.06.66-.48.74-.73l.58-1.74c.09-.26.54-.62.75-.67s.35.54.57.87Z"/>
      <path class="cls-3" d="M36.24,58.5l-.41.43-.07.89c-.02.26-.92.4-1.04.18-.26-.49-.53-1.35-.51-1.88l-.41-.61c.15-.43.31-1.09.47-1.4l.47-.92c.48-.94,1.14-2.41,2.61-2.35,2.48.09,5.18,5.23,3.38,5.71-1.14.3-1.45-1.72-2.93-2.91-.76.99-1.15,1.79-1.57,2.87Z"/>
      <path class="cls-3" d="M30.81,59.9c-.22-.34-.35-.92-.57-.87s-.67.41-.75.67l-.58,1.74c-.08.24-.51.66-.74.73-.71.2-1.21-.94-1.24-.9l.36-.54c.03-1.57.5-4.95,3.01-4.46.44.09,1.03.8,1.41,1.05.35.23.75.42.88.64s-.02.86.07,1.1c.18.53.71,1.46.21,2.37-.11.2-.8.42-.93.21l-1.13-1.73Z"/>
      <path class="cls-4" d="M31.49,40.32c1.11.1,2.42-.21,3.64-.33,5.89.12,11.76.51,17.53.76.79-.05,1.76.22,2.41.17,1.18-.26,2.63-.34,3.89-.02,2.47.33,4.5-.18,7.12.09.88-.03,2.07.26,2.8-.16.31-.22.43-.66.49-1.06.47-2.44.28-5.74,1.93-7.83.37-.35.66-.28.73.27.09,1.71.26,3.19-.23,4.74-.25,1.05-.12,2.11-.55,3-1.11,2.31,3.73,1,5.06,1.26,2.3.24,2.9-1.63,2.49-3.4-.14-.8.26-1.8.32-2.65.1-1.39-.15-3.19-.51-4.45-.14-.4-.5-1.06-.92-1.08-.37,0-.6.25-1.01.28-1.11.03-2.29-.72-3.17-.92-.44.03-.81.34-1.29.4-2.11.22-4.5-.15-6.59-.37-1.08-.04-2.63.38-3.62.07-1.74.08-3.7.07-5.48-.19-2-.28-3.65-.52-5.61-.4-1.85.36-4,0-5.81-.34-2.7-.46-5.3-.31-8.01-.64-5.51-.35-11.62.08-16.99-1.23-.45-.15-.79.02-1.46.16-.55.1-1.08-.05-1.65-.14-1.59.07-4.47-1.69-5.18.34-.29,2.66-1.26,5.13-1.72,7.75-.26,1.59-.47,2.82-1.17,4.23-.25.52-.61,1.28-.59,1.8.42.78,1.55-.19,2.19.15.4.37.1,1.19-.31,1.43-.35.2-.65-.02-.96,0-.34-.08-.91.13-1.42.11-1.93-.61-.62-3.5-.34-4.93.36-1.8.72-3.94,1.29-6.18.7-2.36.45-4.78,1.31-7.16.21-.71.45-1.18,1.18-1.26,2.14.06,3.44.7,5.61.78.45.02.98.13,1.24-.25.46-1.07.59-2.93.87-3.87.61-2.04.98-2.6-1.59-2.65-.85-.1-2.05.24-2.72-.32-.69-.62-.19-1.96-.13-2.84.12-1.67.11-4.21,2.38-3.97,5.44.47,11.1.17,16.48.7,1.04-.03,1.35.59,2.26.42,2.21-.71,4.73-.16,7.01-.24,2.84.27,5.7-.09,8.43.62,2.1.1,4.59-.23,6.54.65.77.34.68-.27,1.54-.31h.33c6.38.25,12.93-.53,19.23.81.74.1,1.49.03,2.1-.09,2.3-.34,1.73,1.79,1.19,3.34-.74,3.46-.83,4.92-4.8,5.02-.91.15-2.07.11-2.3,1.21-.33,1.16-.54,2.59-.68,3.86-.05.56.02.95.29,1.17,1.49.88,3.9.49,5.55.99,1.14.66.68,2.52,1.19,3.65.56,3.02-.04,6.09.04,9.17.09.95.69,1.74.78,2.66.18,3.02-5.29,1.33-7.25,1.44-1.36-.2-2.42-.07-3.84.05-3.61-.13-7.3-.43-10.91-.49-8.57-.39-17.41-.34-26.06-1.39-.99-.23-1.67.07-2.73.1-2.26.05-3.44-.39-5.68-.22-.92-.02-1.48-.57-2.36-.25-.19.06-.42.12-.61.17-.75.09-1.54-.18-2.13-.12-1.48.41-3.11.3-4.67.29-1.07-.01-2.72.04-3.53-.39-.45-.28-.48-.89-.65-1.32-.28-.75.08-.54.78-.61,1,.07,2.36-.23,3.42-.06.66.15,1.38.3,2.14.27,1.37.16,2.21-.03,3.4-.38,3.25.09,6.57-.32,9.91.15h.16ZM23.35,15.54c.04-.39.02-1.13.13-1.56.03-.47.37-.99.3-1.49-.21-.1-1.33-.21-1.74-.29-.33-.06-.55.07-1.05.08-1.19.08-3.04-.18-3.77-.28-.7.28-1.31,1.92-.74,2.47.29.23.58.45.89.69.2.12.44.45.68.36.51-.21,1.09-.57,1.72-.36,1.04.11,2.55.42,3.53.46l.06-.09ZM27.08,15.5c-.11-.8.27-1.75.38-2.49-.16-.56-1.52-.76-2-.38-.5.65-.26,2.34.08,3.03.31.3,1.18.3,1.52-.07l.02-.09ZM64.32,13.98c-2.73.03-5.57,0-8.19-.43-.36-.03-.74.07-1.07-.02-.38-.12-.66-.43-1.01-.46-.63,0-1.26.58-1.9.32-5.3-.03-10.96-.44-16.29-.53-1.58,0-3-.11-4.65-.35-.93-.14-2.3-.26-2.35,1.03.04,1.09-.09,2.8,1.19,2.55,1.98-.25,3.48.21,5.65.28,2.69.16,5.85.27,9.08.72,1.59.25,2.52.25,4.01.21,4.73.18,9.35.36,14.08.4,1.22.14,1.43-.68,1.8-1.94.26-.94.4-1.56-.21-1.75l-.13-.03ZM68.33,18c.12-.82.41-2.65.54-3.54.01-.11.04-.12-.07-.18-.23-.13-.94-.62-1-.61-.06,0-.61.53-.92.79-.21.19-.19.15-.2.31-.08.72-.24,2.22-.3,2.81-.02.23-.08.27.11.34.49.2,1.38.21,1.8.11l.05-.02ZM76.33,17.63c.28.04.92.28,1.27.21.88-.37,1.19-.4,1.94-.59.37-.19.35-.49.53-1.33.05-.41.28-1.05.22-1.42-1.11-.3-2.7,0-3.85-.36-.27-.11-.48-.44-.75-.47-.26-.07-.58.2-.84.34-.66.45-1.33-.06-2-.18-.43,0-1.38.35-2,.5-.39.09-.25.29-.35,1.02-.07.8-.19,1.97-.25,2.73-.04.26.21.2.84.27.51.04,1.13.13,1.41.12.35,0,.4-.47.76-.59,1.1-.31,2.16.16,2.95-.25h.12ZM72.28,21.61c-1.64-.81-3.38.09-4.94-.62-.9-.45-1.24.14-2.12.16-1.8.04-3.47-.79-5.25-.51-3.91.06-8.3-.41-12.14-.4-.93-.02-1.8-.4-2.64-.59-.7-.09-1.39-.06-1.83-.36-.36-.22-.62-.17-1.03.14-1.26.54-3.74-.49-5.09-.19-2.56.21-5.82-.43-8.43-.71-1.52.04-3.53-.07-5.11-.18-.79.03-1.82-.19-2.43.43-.72,1.17-1.6,3.11-1.68,4.54.36,1.11,1.83.29,2.73.76.5.12,1,.17,1.52.08,7.21.59,15.31.44,22.42,1.27,1.68.17,3.62.26,5.28.56,1.78-.26,3.59.03,5.18.09,1.59.1,3.25.13,4.69.3,1.4.22,2.7.44,3.96.27,1.4-.17,4.14,0,5.3.04,1.98.14,1.74-2.86,1.79-4.47-.02-.17-.03-.36-.11-.51l-.07-.08Z"/>
      <path class="cls-4" d="M5.72,2.43c-2.99.81-.85.76-3.26,1.67-.48.18-1.03.3-1.46.32-.39.01-.92-.46-.99-1.01C2.91,1.64,5.46.33,8.78,0c.54-.05,1.7.14,2.23.23.15.02.07.56.21.63l.99.51c-2.44.61-2.41-.48-5.22.63-.42.16-.74.29-1.26.44Z"/>
      <path class="cls-4" d="M8.02,8.49c-.59.27-1.57,1.27-1.99.78l-.32-1.39,2.25-1.21c.78-.42,1.44-.87,2.33-1.01s3.73-.8,3.36.56l-2.4.78-3.23,1.49Z"/>
      <path class="cls-1" d="M72.33,21.5c-.13,1.05.39,5.25-1.38,5.12-.92-.07-6.56-.41-6.65.18,0,0-.1-.31-.15-.43-1.93.5-1.13-.04-3.62-.17l-4.77-.25-2.87-.2c-.67-.05-1.14.06-1.81.4,0,.04-.04-.25-.06-.35-.03-.14-3.56-.28-4.56-.4l-3.71-.44c-.99-.12-4.16-.06-6.11-.19l-3.66-.24-5.24-.13c-2.47-.06-3.54-.79-4.62-.01-2.11-1.42-1.78.2-3.68-.68l.94-2.8c.25-.75.79-1.76,1.22-2.48h2.74c.8,0,1.77.28,2.61.23l1.47-.09c.78-.05,6.72,1.08,8.92.73.54-.09.82-.09,1.38-.01l3.62.5.63-1.02.55.98,1.5-.23c1.44.79,3.19,1,4.75.66.92.35,1.91.16,2.86.26.75.08,1.34.12,2.21.14l5.79.15c.14,0,.58-.28.66-.35.1-.09.18.11.39.44,1.12.15,2.25.28,3.44.38l.81.07c.2.02.29-.54.45-.9.91,1.23,2.13,1.14,3.2.81l2.77.33ZM36.48,23.09l2.71-.19-.46.61,3.15.27,2.36.29c.24-.48.64-1.29.76-1.7.06-.21-.7-.44-.85-.31l-.46.38c-1.13-.58-2.52-.82-3.69-.46-.69-1.11-2.07-.52-2.92-.5-.3,0-.87-.45-1.11-.34l-.85.37c-.74-.6-2.92-.14-3,.06l-.29.77c-1.24-1.84-3.98-2.41-3.82-1.59l.12.62-1.46-.45-.31-.15c-.07-.03-.26,0-.26.08v.7c.14-.14.52-.36.54-.19l.13.76c.02.11.2.38.27.46.05.05.13-.21.12-.28l-.06-.34c.79.17,1.84.59,2.12-.73-.05-.05.33.33.45.46.1.1,0,.51,0,.67l1.7.87,4.58-.22-1.01-.76,1.06.04c.18,0,.31.54.48.8ZM61.85,24.83c.91.1,1.59.44,2.2-.45.21-.31.49-.77.45-1.06-.21-1.41-4.49-.91-6.26-1.01-3.04-.16-1.16.39-2.79.74-.12.03-.01-.33.03-.61-.47-.32-1.35-.24-1.58.35-.21.53-.02,1.23.62,1.29l4.36.41,2.99.34Z"/>
      <path class="cls-1" d="M64.37,13.98c1.48-.37-.53,3.11-.4,3.71-2.35-.12-4.78-.25-7.09-.15-1.25.05-2.5-.04-3.79-.13l-2.49-.19c-1.27-.1-2.64.08-3.97.05-.26,0-4.19-.63-6.23-.71l-2.84-.11-3.35-.23-3.1-.28c-.64-.06-1.13.03-1.84.39l-.4-2.34c-.05-.28.04-1.06.19-1.27.18-.25.74-.34,1.11-.28,4.17.63,4.16.43,7.95.54l3.47.11c1.32.04,2.65.31,3.92.2.69-.06,1.14,0,1.92.04l3.83.19c.11,0,.58-.38.51-.46s.31.52.41.58c.43.29,1.42-.34,1.87-.98.31.4.54,1.15.86,1.12.35-.02,1.02-.26,1.38-.42l.58.55c.19.18,1.01-.25,1.3-.18,1.29.33,3.24.31,4.78.26.42-.02.84.12,1.4-.02Z"/>
      <path class="cls-1" d="M76.29,17.52l-.26-.05c-.08-.02-.12.12-.26.42-.4-.33-.94-.25-1.61-.21l-.92.05c-.18,0-.39.34-.48.64l-2.5-.23.36-3.65,2.32-.61c1.39.75,1.61.49,2.81-.32.39.92,1.03.8,1.79.84l2.79.13-.47,2.28c-.17.81-1.06.11-2.28,1.01l-1.28-.3Z"/>
      <path class="cls-1" d="M23.33,15.64l-2.41-.34-1.83-.25-1.17.51-1.51-1.15c-.45-.49.1-1.86.69-2.41.79.21,3.74.52,4.65.21l2.07.3c-.39,1.15-.55,1.72-.51,3.13Z"/>
      <path class="cls-1" d="M68.32,18c-.6.14-1.55.07-1.98-.16l.35-3.21,1.1-.98,1.09.69-.56,3.65Z"/>
      <path class="cls-1" d="M27.07,15.55c-.13.4-1.49.46-1.62-.02-.21-.76-.42-2.07-.09-2.79.27-.58,2.25-.31,2.11.42-.29.76-.46,1.49-.4,2.39Z"/>
      <path class="cls-4" d="M57.72,37.16c-5.18,3-11.01,2.86-16.93,2.11-3.12-.42-6.37-.67-9.19-2.12-3.43-1.66-3.47-4.63.21-6.17,3.46-.93,7.66-1.27,11.07-1.39,4.14,1.01,8.37.27,12.59,1.31,3.23.71,5.51,3.66,2.39,6.16l-.13.1ZM41.55,36.59c.08-.29-.18-1.22-.21-1.59-.04-.64-.65-1.55-1.29-1.47-.76.24-.7,1.39-.84,2.1-.05.39-.18.78-.05.91.11.15.5.06.86.05.42-.05,1.17.03,1.47.03l.07-.03ZM35.46,34.24c-.24-.52-1.46-.4-1.47.32-.15,1.6,1.2.42,1.48-.23l-.02-.09ZM55.6,35.59c-.11-.25-.09-.24,0-.35,1.57-1.23-.94-.41-1.62-.44-1.87-.06-3.84-.32-5.65-.58-.53.02-.61.37-.57.88.08.79.04,1.48.85,1.6,1.06.07,2.33.21,3.36-.01,1.03-.33,2.01-1.14,3.17-.88.2-.01.53.06.49-.15l-.02-.06Z"/>
      <path class="cls-4" d="M16.17,38.39c-.39.19-1.35-.16-1.51-.49l.28-2.54.33-2.24.41-1.62c.43-1.69.9-3.14,2.39-4.13.3.28.6.71.55.99-.42,2.18-.56-.66-1.08,3.67-.01.11-.38.37-.43.47-.36.66.53-.06.17,1.94-.23,1.28-.4,2.8-1.12,3.95Z"/>
      <path class="cls-4" d="M36.82,22.88c-1-.14-1.1-.12-2.17.19-.92.29-1.95.3-2.91.11-1.73-.37-2.5-1.31-4-1.25-.54-.02-1.36.06-1.67-.45-.13-.25.15-.57.58-.78,1.15-.59,2.92.1,4.18.43,1.39.4,2.76.08,4.17,0,3.21.02,6.37.37,9.38,1.25,1.31.8.14,1.69-1.55,1.76-1.96-.04-4.07-.77-5.88-1.24l-.13-.03Z"/>
      <path class="cls-4" d="M61.85,24.83l-2.99-.34-4.36-.41c-.64-.06-.83-.76-.62-1.29.24-.59,1.11-.67,1.58-.35-.04.28-.14.64-.03.61,1.63-.36-.25-.91,2.79-.74,2,.15,7.83-.69,5.81,2.07-.61.89-1.28.55-2.2.45Z"/>
      <path class="cls-1" d="M55.59,35.5l-.02.62c-1.13-1.08-2.3-.23-3.18.41-.53.38-.99.12-1.53.11l-2.75-.03c.11-.83.08-1.26-.09-1.82l-.16-.54c-.04-.14.52-.1.7-.03,1.25.45,2.68.43,4.1.55.81.07,2.14.39,2.58-.22.11-.15.63-.21.73-.12s.35.37.23.43l-.74.37c-.52,0-.85.09.14.27Z"/>
      <path class="cls-1" d="M41.53,36.6c-.67-.14-1.69-.12-2.47.04.43-.99.09-3.1,1.16-3.11.36,0,.94.79.99,1.04l.33,2.03Z"/>
      <path class="cls-1" d="M35.47,34.3c-.05.34-.76,1-1.17,1.09-.36.08-.43-.94-.19-1.2.29-.32,1.19-.44,1.35.11Z"/>
    </g>
  </g>
</svg>