<?xml version="1.0" encoding="UTF-8"?>
<svg id="Layer_2" data-name="Layer 2" xmlns="http://www.w3.org/2000/svg" viewBox="0 0 56.82 80.94">
  <defs>
    <style>
      .cls-1 {
        fill: #152a50;
      }
    </style>
  </defs>
  <g id="Address">
    <g>
      <path class="cls-1" d="M56.35,27.83c.15-.98.16-2.42-.08-3.29.02-.35.11-.59,0-.75l-.52-.75c-.04-.57-.25-1.5-.48-2.07l-.74-1.84c.17-.26.55-.68.64-.99.27-.95-1.43-1.15-1.46-2.78,0-.23-.17-.94-.39-.99l-.78-.19c.02-.41-.1-1.15-.4-1.36-.31-.22-.97-.24-1.23-.14.07-.28.19-.86.25-1.21.06-.32-.63-.83-.83-1.12-.5-.74-1.13-1.54-1.85-2.24l-.99-1.32c-2.28-.68-.6-2.79-4.29-3.2.81.17-2.28-1.22-2.44-1.29-1.37-.63-5.42-1.65-7-1.97-.18-.04-.63-.44-.75-.29l-.53.72-.76-.53c-.16-.11-.67.61-.87.59-.61-.06-1.74-.38-2.48-.57-.82-.21-1.99.44-2.76.46-4.78.1-1.31.4-5.16,1-.56-.94-4.54.83-5.33,1.17-1.88.8-1.83.41-3.86,1.64-.12-.04-.53-.32-.6-.19l-.28.61c-.24.53-.56.84-1.05,1.13l-.29.73c-.09.22-1.31-.04-1.48.34-.57,1.31.52.95-1.61,2.18-1.12.65-1.73.65-1.56.98l.32.63-3.02,3.43-.62,1.75c-.4,1.14.29,2.79-.55,3.96-.36.5-.35.94-.07,1.62l-.4.16c-.1.04.04.29.16.56.3.68-.3,1.8-.26,2.58.07,1.44.93,3,.66,4.36l-.39,2.02c.48.34.59,1.12.86,1.42,1.88,2.13-.19,2.76.64,3.26l.6.36c1.9,3.74,7.86,6.69,11.9,7.52l3.44.7c-.56,1.24-.59,2.45-.48,3.43-2.37,2.15-.93,4.16-1.65,4.42l-.77.28.69.51c.12.09.25.37.11.42l-.82.27c-.09.92-.45,2.29-.83,3.17l.59.42c.06.04.02-.25.04-.32l.11-.36c.11-.17.23.64.12.84s-.68.18-.82.29c-.06.27-.16.95-.27,1.2-1.27,2.92.87,2.89-.75,4.24,1.09,1.74-.96,1.45.08,3.33l.17.31c.04.06-.19.32-.23.26l-.35-.5c-.09.38-.13,1.23.1,1.57l.86,1.28c-.41.36-.91.73-.92.99l.36,1.84-.61-.8-.02,1.58c0,.07.15.4.19.33l.16-.32c.03-.07-.03-.02.36-.31.53.21-1.16,3.18-1.49,3.35-1.12-.78-2.19-.3-3.13.17l-.73-.25c-.16-.05-.43.3-.59.4l-1.38.94.69,2.13-.5.51c-.11.12.27.62.38.71.68-.94,1.3-.95,2.12-1.16,1.01-.27,2.18-.45,3.34-.53.62-.05,1.49-.82,2.33-.37l1.89-.83c1.09-1.04,1.2-2.93.57-4.02-.33-.58-.63-1.19-.89-1.72l.93-.12s.88-1.75-.61-2.62c.19-.07.77-.51.77-.74l.07-4.62-1.28-1.67c.67-.33,1.38-.68,1.7-.92.16-.12-.41-.76-.34-.95l.31-.88c-.34-.53-.66-1.39-.05-1.94l-.39-.9.54-.36c.08-.05-.17-.32-.17-.36.3-.65.53-1.34.61-2.05l.32-2.75c.11-.93,1.01-1.95.96-3.05-.13.08-.4.45-.48.35l-.37-.49c-.08-.1.27-.21.36-.3l.7-.65c.14-.13-.13-.37-.61-.63.4-.39,1.3-1.62,1.96-1.61l2.59.06,4.47.02c1.05,0,1.99.39,3.14.12,1.01-.24,2.22-.21,3.29-.28l2.05-.13,1.71-.14-.36-.9,1.39.95c.12.09.31.44.42.37l.39-.26.56.58c.32.34.21-.6,2.21,0,2.13.65,2.71,1.51,3.33,3.41.06.2.77.58.71.78l-.22.7c.92,2.07-.61.81.79,2.98.28.44.64,1.15,1.07,1.36.32.16,1.09.16,1.26.01.16-2.36,2.87-3.66,2.72-6.99-.05-1.16.49-2.33.65-3.54l.37-2.92c.09-.7.75-1.82.94-2.57-.18-.23-.45-.47-.34-.54l.29-.16c.39-.21.66,1.17,1.18.76.49-.39.63-1.92.27-2.44l-1.09-.23c.87-.33,1.36-.75,1.85-1.47-.75-.48-.67-.52.23-.3v-2.93s.29-2.32.29-2.32c.03-.27-.51-.92-.46-1.21ZM50.7,32.73c-.07.13.29.33.47.51.12.8-.23,1.63-.5,2.52-.81,2.64,0,2-1.41,6.09-.24.69.05,1.93-.57,2.54-.3-.02-.93-.1-1.01-.33-.08-.23-.21-.72-.33-1.17-.63-.44-1.88-1.36-2.63-1.53l-2.37-.52c-1.3-.28-1.25.05-3.48-.51-1.03-.26-2.35-.11-3.51-.19-.5-.03-.91.18-1.56.17l-2.67-.04c.92.01-4.82.41-4.76.84l-.69-.61h-1.16c-2.99.04-4.74-.68-8.25-1.1-.69-.08-1.67-.31-2.31-.56l-2.81-1.1c-1.03-.4-2.1-1.07-3.01-1.58-.57-.32-1.13-1.42-1.9-1.76l-1.12-2.14c-.05-.1-.34-.43-.4-.52-.08-.12.16-.35.19-.4-1.13-.56-1.09-2.32-1.14-2.95-.04-.44-.25-1.09-.17-1.59.35-2.36-.75-.79-.15-4.6l.57-3.63c.05-.3.32-.78.29-1.13-.1-.92.95-1.78,1.18-2.54.31-1.01.49-1.61,1.46-2.13,1.78-1.82,2.15-2.85,4.27-3.76,1.19-.51,2.95-2.64,3.74-2.28l1.2-.74c.98,0,1.71-.46,2.63-.76,1.04-.33,2.4-.32,3.48-.58,2.27-.53,6.2-.66,8.73-.63,1.24.01,2.44.77,3.66,1.18.89.3,1.65.55,2.47.91,1.63.7,3.76.8,5.1,1.97.81.7,1.2,2.21,2.59,2.28-.01,1.46,1.87,1.96,1.68,2.2l-.31.39c.99.28,2.15,1.59,2.15,1.52l-.02,1.1.35-.78.54,1.62c.3.89.48,2.33,1.5,2.68,1.34.45.33,2.51.78,2.6l.73.15c-.62,1.09-.72,2.3-.32,3.55l.6,1.9c-1.24,1.69-.35,2.93-1.77,5.4Z"/>
      <path class="cls-1" d="M34.88,74.63c-.92.16-1.58.2-2.16.92l-2.35-.2c-2.03.88-1.92-.96-3.35-.05-1.61-1.42-.02-6.97-.01-7.37l.04-2.47.52-2.53.2-.96-1.37-1.21c1.84-.64,1.65-2.08,1.89-3.33.23-1.14,1.09-2.33.44-3.66l.61-1.5c.09-.23.16-.87-.04-.99l-.79-.47c1.44,0,.98-2.43.56-3.34l-.71.95-.31-.85-.93,3.66c-.12.48.01,1.56-.26,1.96-1.08,1.55-.97,3.04-.89,4.78l-.69,2.58c-.15.55-.26,1-.35,1.48l-.93,4.82c-.2,1.03-.51,1.64-.83,2.73l-.82,2.79c-.12.42.02,1.43-.08,1.86-.15.61-.32,1.33.1,1.64.24-.79.31-.82.55-.25-.37.94-.73,2.19-.24,3.02.41.04.67.01.72.17l.21.6c.49-.1.94-.12,1.45-.14l2.62-.1.37.51c.08.12.51-.07.65-.13l1.67-.74,3.01-.33c1.77-.2,3.5-1.45,3.49-2.83,0-.93-1.35-1.11-1.96-1.01Z"/>
      <path class="cls-1" d="M12.67,11.3c-.48-.15-1.46-.03-1.63.36-.37.85-1.57,4-1.12,5.1l.71,1.75,1.3-.47.78-1.72c.38-.85.79-1.91,1.11-2.82.21-.59-.54-2.01-1.15-2.2Z"/>
      <path class="cls-1" d="M15.64,13.56l-.69,2.96c-.11.47-.25,1.24-.06,1.62.17.36.99.36,1.77.38.57-.99,1.13-2.07,1.35-3.2l.64-3.34c-1.38-.52-2.7.23-3.02,1.58Z"/>
    </g>
  </g>
</svg>