<?xml version="1.0" encoding="UTF-8"?>
<svg id="Layer_2" data-name="Layer 2" xmlns="http://www.w3.org/2000/svg" viewBox="0 0 124.91 100.67">
  <defs>
    <style>
      .cls-1 {
        fill: #b74426;
      }
    </style>
  </defs>
  <g id="Address">
    <g>
      <path class="cls-1" d="M70.41,82.16l-.55-.39.39-.54c.07-.1-.39-.32-.66-.49.48-.47.31-1.02-.16-1.62-.42-.53-.88-.85-1.4-.78-.03-.33-.05-1.11-.26-1.19l-.8-.26.32-.62c.07-.14-.33-.64-.47-.57l-.62.3-.81-.99-1.5-1.35c-.92.81.18.23-1.24-.42-.14-.06-.33.21-.58.5-.15-.59-.88-.79-1.54-.67-.13.02-.44-.07-.45-.18-.02-.19-.04-.24.06-.3l.53-.31c-1.92-.21-1.06,1.04-2.87.43l.5-.35c.09-.06-.24-.3-.36-.3l-.78.05c.11-.3.46-.88.77-1.32l1.31-1.84c.28-.4.38-1.56.66-1.95l1.28-1.85c.28-.41.41-1,.57-1.47l.64-1.79c.36-1-.02-1.93-.39-2.81l.09-1.47c.06-1.02.1-2.03.09-3.1v-3.09c-.34.55-.39.64-.59.01,1.29-.55.61-1.81.71-2.45.22-1.44,1.28-3.48.57-5.29,1.15-1.29-.06.14.85-2.51.62-1.81.57-3.8.9-5.62.13-.73.43-1.18.02-1.97l.35-2.07-.57-1.28c.84-.97.95-2.38.29-3.34.13-.17.33-.37.28-.46l-.18-.35.25-.92c.06-.21-.46-.38-.78-.39.23-.91-.03-2.1-.87-2.69l-.3,1.37c-.25-.84-.19-1.57-.15-2.47l.09-1.66c.02-.3-.11-.78.1-.89l.98-.5-.7-.62c.44-.48.25-1.37.11-2.25-.57-3.61-.54-2.05-1.79-4.23l.63.03c.1,0,.18-.25.1-.32-.08-.06-.37-.26-.47-.26l-.68-.04c.18,0-1.27-1.47-1.14-1.89-1.07-.36-2.75-.91-3.96-.9-1.24,0-1.92-.12-2.37-1.17-2.02.24-4.18-.03-6.12-.33l-1.78-.28c-.65-.1-1.55.12-2.14-.33-.7-.54-1.34-.03-1.92-.09-2.61-.28-3.81-.58-6.75-.03l-1.23-.25c-.3.34-.99.96-1.36.87-.38-.09-.95-.46-1.45-.78-.41-.26-1.46.4-1.95.36-.77-.06-1.61-.06-2.29-.02l-1.87.1c-.67.03-1.28.11-1.9.23l-2.93.55c-.68.13-1.14.08-1.77.61-.37.31-1.45.16-1.89.33l-2.14.82-2.68.97c-.51.18-1.44-.34-2.05.23-2.11,1.99-4.32.69-6.34,3.6-.25.36-.67.94-.66,1.3s.4,1.06.69,1.34l2.01,1.9.87-.44v.41c.02.11.35,0,.41-.1l.3-.51c.87.69,2.09.33,3.07-.36.58-.41,1.37-.38,2.03-.47,1.09-.14,2.28-.12,3.31.53l-1.26,5.46c.43.29.89.53.76.69-1.55,1.94.11.33-.97,1.99-.16.24-.51.56-.37.64l.6.34c-.38.25-.82.85-.84,1.35l-.08,2.56c-.03.94-.43,5.77-.55,5.82l-.62.26c.29.43.81,1.13.73,1.51l-.35,1.76c-.57,2.9.75,2.46.09,4.28-.67,1.83-.63,3.82-.8,5.75-.07.82-.25,1.84-.18,2.56.03.34-.09,1.16-.21,1.46-.88,1.06-.52,3.2-.27,4.5l.27,1.39c-.02.11-.2.77-.15,1l.85,3.79c.08.35,1.27,3.33,1.97,3.73l.06,1.11c.63-.39.76-.4.24.31l1.56.75c-.67.72-1.44.85-2.33.94-2.04.23-2.06.87-3.39,1.67l-2.23,1.34c-.22.14-.25.93-.49,1.01l-1.1.4c-1.52,2.12-1.6-.13-2.71,2.28-1.18.76-2.03,2.23-2.71,3.32-.91,1.48-1.14,2.81-.49,4.59.38,1.04.68,2.34,1.3,3.31,1.22,1.89,3.17,3.09,5.45,2.87l-.37.67c-.28.49,1.85,0,3.37,1.04.24.16.81.45.99.32l.61-.44c1.22.37,2.79.5,4.11.45.21.15.61.63.82.54l.98-.41.78.57c.36-1.03,1.39-.5,2.22-.49l2.43-.8c1.1.66,2.3.35,3.4-.27l1.21-.28c-.2.05,4.07-.42,4.24-.23l1.77-.09c-.8,1.07-1.41,1.93-1.95,2.86l-1.29,2.21,1.1.95c.38.32,1.46-.02,1.9-.26.19.01.95.09.94-.15l-.08-1.07.8-.16c.17-.03.27-.53.35-.76.72-.08.98-.64,1.37-1.37l.89-1.68c.23-.44.86-1.14,1.21-1.64-.34-.89-1.23-1.76-2.07-1.63-4.74.74-1.15.2-4.66.01-.72-.04-1.53-.12-2.28.06l-1.32.31c-.88-.73-2.53-.78-3.25,0l-.35,1.1c-.4-.33-.59-.49-.79-.61-.16-.09-.68.28-.86.28l-1.47-.05c-.75-.03-1.58.12-2.28.36l-1.07-.42c-.23-.09-.77.63-1.01.58l-2.39-.53c-.12-.03-.39-.54-.49-.46-.07.05-.26.23-.43.39l-1.76-1.1-.98.68c-.75-.86-1.56-1.29-2.43-1.14l.14-.76c.02-.1-2.51-.43-2.98-1.51l-1.14-2.67c-.22-.52-.38-1.98.05-2.48.03-.25-.1-.7.1-.81l.85-.48c.32-.49.69-.92,1.29-.94l1.07-1.6c.27.49.46.61.37-.11l1.67-1.93c.46.27.79.4.95.18.19-.26.24-.45.2-.68-.06-.35.34-.99.7-1,.39-.02,1.01.04,1.68.07l-.71-.61,3.54-1.21c.55-.19,1.29-.54,1.91-.81l1.51.7c2.65-.35,4.03,1.24,5.28.31.18.18.74.83,1.11.78l1.41-.19c.75.33,1.78.62,2.68.66,3.04.13,3.66.78,8.45.6,1.59-.06,3.9-.09,5.12.63.68.4,1.93-.18,2.66-.09,3.6.43.84.22,4.76.23.91-.61,2.01-.99,3.23-1.1,3.07-.29,1.54,1.14,3.99.42l.77,1.2.68-.89c-.17.45-.36,1.25-.11,1.22l.98-.11c.68.81,2.01,1.73,3.06,1.51-.07.28-.24,1.11-.01,1.1l.76-.03c.09.16.14.76.33.82l.69.22c-.14,2.2-.14.34.74,3.09.04.13.47-.02.71-.04l-.53,1.78c-.16.55-1.35,1.07-1.81,1.46-.56.48-1.54.53-2.22.83-1.2.54-2.33,1.15-3.74,1.34l-1.6.22-1.22.17-.32-.71c-.07-.15-.51-.05-.71-.07-.8-.62-1.65-.83-2.57-.29l-1.98-.55c-.13-.04-.5-.55-.6-.46l-.32.28-.78-.97-.47.92-2.68-.34c-.32-.04-1.02.34-1.25.51.07.09.48.35.38.4l-.5.24c-.1.05-.21-.11-.48-.39-.9.83-1.37,2.12-.41,3.26.61.72,1.28,1.64,1.57,2.52l.75,2.29.6-.5c.07.26.2.93.44.91l.86-.05.95,1.14.57-.56c.08-.08.39.15.5.17l.62.1c-.3-.05.85,1.52,3.09,1.15.46-.46.75-.65,1.39-.89l-.33-1.05.44-.24c.08-.04.07-.11-.01-.13-1.44-.38-1.92-1.6-3.78-2.25-.2-.16-.29-.83-.55-.86l-1.38-.14-.24-1.84c-.03-.22.36-.61.58-.86l.4.87c.11-.12.74-.54.91-.33l.66.83,1.11-.33c.13.21.31.62.45.58l.51-.13,1.58.05c2.59.08,3.34.78,5.93-.23,1.42-.55,2.84-1.1,4.06-1.72.18.1.61.27.61.13,0-.11-.02-.5.07-.56l1.64-1.11c.1-.07.41.14.47.19l.95-1.46.33.5c.04.07.25-.14.24-.22v-.43c-.02-.23.32-.65.47-.84-.26-1.71.84-1.98.3-2.36ZM55.04,69.3c-.07.17-.66.06-.83-.03-1.74-.93-.74,1.29-6.47.55l-2.09-.27c-.98-.13-1.72.49-2.59-.16-1.16-.87-2.81.15-3.98-.3-.67-.25-1.4-.47-2.14-.55l-2.16-.23c-.99-.11-3.57.31-3.52,1.22-2.19-.24-4.9-.36-6.9-1.49-.61-.34-1.01-.88-1.8-1.16-.61-.21-1.31-.94-1.86-1.39-1.31-1.05-2.58-2.17-3.29-3.71-.24-.52-.39-.71-1.04-.79l.19-1.48c-.91-1.06-1.19-2.34-.66-3.63l-.42-2.03c.39-.96.49-1.7.52-2.66l.04-1.3c.01-.36.39-1.06.37-1.45l-.11-1.83-.09-1.27c-.11.11.64-.39.61-.62l-.31-2.42.11-6.12c0-.17-.33-.55-.29-.69-.24.83.97-4.1.72-2.72l.6-3.32c.04-.21,1.61-5.6,1.58-6.25-.06-1.57.32-2.71,1.2-3.99,1.86-2.7-.53-3.66-2.42-5.99l-2.31-.84.39-.9c.22-.51.22.82,2.38-.69,3.56-2.5,6.99-1.8,11.96-1.8.88,0,1.68.56,2.3,1.06,2.68-.41,10.83-.23,12.81.51.34.13.35,1,.6,1.29.64.75,2.23.18,2.53-.84l.61,1.12.85-1.32c.05-.07.48-.19.51-.1.03.08.16.38.16.36,0-.03-.26.2-.46.37-.13.1.3.48.48.5.23.03.59-.17.94-.37.05.08.63.75.87.62s.63-.38.93-.57c.69.33,1.59.62,2.46.72l3.16.35c-.38,1.13.4,2.27,1.36,2.87-.19.77-1.78,5.81-.9,6.28-.22.79-.42,1.67-.42,2.51l-.02,2.01.23,3.73c.06,1.01-.25,1.96-.37,2.94-.11.84-.14,1.85-.18,2.72-.01.28.25.94.04,1.12-.24.21-.69.82-.49.95l.93.57s-.2.21-.27.29c-.09.1.25.44.18.56l-.45.74c-.12.2.52.8.47,1.04-1.07,4.94.13,1.64-.58,5.73-.37,2.14-.61,4.34-.76,6.54-.05.81.06,1.28-.5,1.98.12.66.28,1.69.47,2.39l.64,2.39c.24.89.03,1.52-.45,2.27-.09.48.2,1.48-.24,1.72-.87.49-.79,1.93-1.15,3.06-.4,1.27-.83.25-1.63,2.25Z"/>
      <path class="cls-1" d="M124.44,47.55c.15-.98.16-2.42-.08-3.29.02-.35.11-.59,0-.75l-.52-.75c-.04-.57-.25-1.5-.48-2.07l-.74-1.84c.17-.26.55-.68.64-.99.27-.95-1.43-1.15-1.46-2.78,0-.23-.17-.94-.39-.99l-.78-.19c.02-.41-.1-1.15-.4-1.36-.31-.22-.97-.24-1.23-.14.07-.28.19-.86.25-1.21.06-.32-.63-.83-.83-1.12-.5-.74-1.13-1.54-1.85-2.24l-.99-1.32c-2.28-.68-.6-2.79-4.29-3.2.81.17-2.28-1.22-2.44-1.29-1.37-.63-5.42-1.65-7-1.97-.18-.04-.63-.44-.75-.29l-.53.72-.76-.53c-.16-.11-.67.61-.87.59-.61-.06-1.74-.38-2.48-.57-.82-.21-1.99.44-2.76.46-4.78.1-1.31.4-5.16,1-.56-.94-4.54.83-5.33,1.17-1.88.8-1.83.41-3.86,1.64-.12-.04-.53-.32-.6-.19l-.28.61c-.24.53-.56.84-1.05,1.13l-.29.73c-.09.22-1.31-.04-1.48.34-.57,1.31.52.95-1.61,2.18-1.12.65-1.73.65-1.56.98l.32.63-3.02,3.43-.62,1.75c-.4,1.14.29,2.79-.55,3.96-.36.5-.35.94-.07,1.62l-.4.16c-.1.04.04.29.16.56.3.68-.3,1.8-.26,2.58.07,1.44.93,3,.66,4.36l-.39,2.02c.48.34.59,1.12.86,1.42,1.88,2.13-.19,2.76.64,3.26l.6.36c1.9,3.74,7.86,6.69,11.9,7.52l3.44.7c-.56,1.24-.59,2.45-.48,3.43-2.37,2.15-.93,4.16-1.65,4.42l-.77.28.69.51c.12.09.25.37.11.42l-.82.27c-.09.92-.45,2.29-.83,3.17l.59.42c.06.04.02-.25.04-.32l.11-.36c.11-.17.23.64.12.84s-.68.18-.82.29c-.06.27-.16.95-.27,1.2-1.27,2.92.87,2.89-.75,4.24,1.09,1.74-.96,1.45.08,3.33l.17.31c.04.06-.19.32-.23.26l-.35-.5c-.09.38-.13,1.23.1,1.57l.86,1.28c-.41.36-.91.73-.92.99l.36,1.84-.61-.8-.02,1.58c0,.07.15.4.19.33l.16-.32c.03-.07-.03-.02.36-.31.53.21-1.16,3.18-1.49,3.35-1.12-.78-2.19-.3-3.13.17l-.73-.25c-.16-.05-.43.3-.59.4l-1.38.94.69,2.13-.5.51c-.11.12.27.62.38.71.68-.94,1.3-.95,2.12-1.16,1.01-.27,2.18-.45,3.34-.53.62-.05,1.49-.82,2.33-.37l1.89-.83c1.09-1.04,1.2-2.93.57-4.02-.33-.58-.63-1.19-.89-1.72l.93-.12s.88-1.75-.61-2.62c.19-.07.77-.51.77-.74l.07-4.62-1.28-1.67c.67-.33,1.38-.68,1.7-.92.16-.12-.41-.76-.34-.95l.31-.88c-.34-.53-.66-1.39-.05-1.94l-.39-.9.54-.36c.08-.05-.17-.32-.17-.36.3-.65.53-1.34.61-2.05l.32-2.75c.11-.93,1.01-1.95.96-3.05-.13.08-.4.45-.48.35l-.37-.49c-.08-.1.27-.21.36-.3l.7-.65c.14-.13-.13-.37-.61-.63.4-.39,1.3-1.62,1.96-1.61l2.59.06,4.47.02c1.05,0,1.99.39,3.14.12,1.01-.24,2.22-.21,3.29-.28l2.05-.13,1.71-.14-.36-.9,1.39.95c.12.09.31.44.42.37l.39-.26.56.58c.32.34.21-.6,2.21,0,2.13.65,2.71,1.51,3.33,3.41.06.2.77.58.71.78l-.22.7c.92,2.07-.61.81.79,2.98.28.44.64,1.15,1.07,1.36.32.16,1.09.16,1.26.01.16-2.36,2.87-3.66,2.72-6.99-.05-1.16.49-2.33.65-3.54l.37-2.92c.09-.7.75-1.82.94-2.57-.18-.23-.45-.47-.34-.54l.29-.16c.39-.21.66,1.17,1.18.76.49-.39.63-1.92.27-2.44l-1.09-.23c.87-.33,1.36-.75,1.85-1.47-.75-.48-.67-.52.23-.3v-2.93s.29-2.32.29-2.32c.03-.27-.51-.92-.46-1.21ZM118.79,52.45c-.07.13.29.33.47.51.12.8-.23,1.63-.5,2.52-.81,2.64,0,2-1.41,6.09-.24.69.05,1.93-.57,2.54-.3-.02-.93-.1-1.01-.33-.08-.23-.21-.72-.33-1.17-.63-.44-1.88-1.36-2.63-1.53l-2.37-.52c-1.3-.28-1.25.05-3.48-.51-1.03-.26-2.35-.11-3.51-.19-.5-.03-.91.18-1.56.17l-2.67-.04c.92.01-4.82.41-4.76.84l-.69-.61h-1.16c-2.99.04-4.74-.68-8.25-1.1-.69-.08-1.67-.31-2.31-.56l-2.81-1.1c-1.03-.4-2.1-1.07-3.01-1.58-.57-.32-1.13-1.42-1.9-1.76l-1.12-2.14c-.05-.1-.34-.43-.4-.52-.08-.12.16-.35.19-.4-1.13-.56-1.09-2.32-1.14-2.95-.04-.44-.25-1.09-.17-1.59.35-2.36-.75-.79-.15-4.6l.57-3.63c.05-.3.32-.78.29-1.13-.1-.92.95-1.78,1.18-2.54.31-1.01.49-1.61,1.46-2.13,1.78-1.82,2.15-2.85,4.27-3.76,1.19-.51,2.95-2.64,3.74-2.28l1.2-.74c.98,0,1.71-.46,2.63-.76,1.04-.33,2.4-.32,3.48-.58,2.27-.53,6.2-.66,8.73-.63,1.24.01,2.44.77,3.66,1.18.89.3,1.65.55,2.47.91,1.63.7,3.76.8,5.1,1.97.81.7,1.2,2.21,2.59,2.28-.01,1.46,1.87,1.96,1.68,2.2l-.31.39c.99.28,2.15,1.59,2.15,1.52l-.02,1.1.35-.78.54,1.62c.3.89.48,2.33,1.5,2.68,1.34.45.33,2.51.78,2.6l.73.15c-.62,1.09-.72,2.3-.32,3.55l.6,1.9c-1.24,1.69-.35,2.93-1.77,5.4Z"/>
      <path class="cls-1" d="M102.97,94.36c-.92.16-1.58.2-2.16.92l-2.35-.2c-2.03.88-1.92-.96-3.35-.05-1.61-1.42-.02-6.97-.01-7.37l.04-2.47.52-2.53.2-.96-1.37-1.21c1.84-.64,1.65-2.08,1.89-3.33.23-1.14,1.09-2.33.44-3.66l.61-1.5c.09-.23.16-.87-.04-.99l-.79-.47c1.44,0,.98-2.43.56-3.34l-.71.95-.31-.85-.93,3.66c-.12.48.01,1.56-.26,1.96-1.08,1.55-.97,3.04-.89,4.78l-.69,2.58c-.15.55-.26,1-.35,1.48l-.93,4.82c-.2,1.03-.51,1.64-.83,2.73l-.82,2.79c-.12.42.02,1.43-.08,1.86-.15.61-.32,1.33.1,1.64.24-.79.31-.82.55-.25-.37.94-.73,2.19-.24,3.02.41.04.67.01.72.17l.21.6c.49-.1.94-.12,1.45-.14l2.62-.1.37.51c.08.12.51-.07.65-.13l1.67-.74,3.01-.33c1.77-.2,3.5-1.45,3.49-2.83,0-.93-1.35-1.11-1.96-1.01Z"/>
      <path class="cls-1" d="M67.32,7.88c.08.01.03.09-.08.14l-.63.3c.48.44,1.19.93,1.89,1.37l1.01.65c.23.15.91-.48,1.13-.64l1.08-.79c-.13-1.86-.78-3.75-1.23-5.61-.26-1.08-.22-2.54-1.3-3.22l-.91.45c-1.69.17-2.1,1.41-2.39,2.99-.19,1,0,4.12,1.46,4.36Z"/>
      <path class="cls-1" d="M80.11,9.56l1.97-.97c.16.5.12-.16.02-.25l-.52-.42.97-1.6h.63c.08,0,0-.28-.07-.32l-.52-.24,1.18-.13.98-2.91c.36-1.08.32-2.01-.63-2.73l-.14,1.04-.68-.78-3.13,3.28c-.09.09-.09.72-.2.73l-.47.06c-.35,1.56-1.2,2.96-2.41,3.99l.32,2.21c.84-.19,1.81-.54,2.68-.97Z"/>
      <path class="cls-1" d="M83.75,15.75c-.15.25.46.86.73.75l1.13-.45c2.83-1.12,5.35-2.68,7.64-4.72l.15-1.99c-.31.28-.38.58-.48.51l-.65-.49-2.28.96c-.71.3-1.21.62-1.79,1.12-.47.41-1.78.56-2.3.88-.27.17-.71.84-1.06.99-1.17.5-.06.66-1.09,2.44Z"/>
      <path class="cls-1" d="M37.65,19.17c-3.12,2.03-1.68,1.44-2.5,2.43-.65.79-1.08,1.52-1.36,2.69.04.09.61.36.87.43.88.24.76-1.14,2.37-2,.7-.13,1.2-.38,1.46-.75l.81.48c.13.08.36-.18.53-.29l1.22,3.33c.08.21.75.66.87.48l.37-.56c.37-.36,1.05-1.04,1.05-1.53,0-1.6-.52-2.96-1.58-3.85-1.04-.88-2.76-1.34-4.12-.85Z"/>
      <path class="cls-1" d="M49,20.17c-1.08.04-1.98,1.16-2.71,1.9-1.15,1.17-1.61,3.13-1.22,3.55.2.22,1.03-.02,1.24-.26l1.51-1.73,1.56-.36c.8-.19,2.16,2.49,3.24,2.93,1.24-.81,1.16-1.97.64-3.21-.65-1.56-2.4-2.88-4.25-2.81Z"/>
      <path class="cls-1" d="M80.76,31.02c-.48-.15-1.46-.03-1.63.36-.37.85-1.57,4-1.12,5.1l.71,1.75,1.3-.47.78-1.72c.38-.85.79-1.91,1.11-2.82.21-.59-.54-2.01-1.15-2.2Z"/>
      <path class="cls-1" d="M83.73,33.28l-.69,2.96c-.11.47-.25,1.24-.06,1.62.17.36.99.36,1.77.38.57-.99,1.13-2.07,1.35-3.2l.64-3.34c-1.38-.52-2.7.23-3.02,1.58Z"/>
    </g>
  </g>
</svg>