<?xml version="1.0" encoding="UTF-8"?>
<svg id="Layer_2" data-name="Layer 2" xmlns="http://www.w3.org/2000/svg" viewBox="0 0 70.56 92.98">
  <defs>
    <style>
      .cls-1 {
        fill: #152a50;
      }
    </style>
  </defs>
  <g id="Address">
    <g>
      <path class="cls-1" d="M70.41,77.22l-.55-.39.39-.54c.07-.1-.39-.32-.66-.49.48-.47.31-1.02-.16-1.62-.42-.53-.88-.85-1.4-.78-.03-.33-.05-1.11-.26-1.19l-.8-.26.32-.62c.07-.14-.33-.64-.47-.57l-.62.3-.81-.99-1.5-1.35c-.92.81.18.23-1.24-.42-.14-.06-.33.21-.58.5-.15-.59-.88-.79-1.54-.67-.13.02-.44-.07-.45-.18-.02-.19-.04-.24.06-.3l.53-.31c-1.92-.21-1.06,1.04-2.87.43l.5-.35c.09-.06-.24-.3-.36-.3l-.78.05c.11-.3.46-.88.77-1.32l1.31-1.84c.28-.4.38-1.56.66-1.95l1.28-1.85c.28-.41.41-1,.57-1.47l.64-1.79c.36-1-.02-1.93-.39-2.81l.09-1.47c.06-1.02.1-2.03.09-3.1v-3.09c-.34.55-.39.64-.59.01,1.29-.55.61-1.81.71-2.45.22-1.44,1.28-3.48.57-5.29,1.15-1.29-.06.14.85-2.51.62-1.81.57-3.8.9-5.62.13-.73.43-1.18.02-1.97l.35-2.07-.57-1.28c.84-.97.95-2.38.29-3.34.13-.17.33-.37.28-.46l-.18-.35.25-.92c.06-.21-.46-.38-.78-.39.23-.91-.03-2.1-.87-2.69l-.3,1.37c-.25-.84-.19-1.57-.15-2.47l.09-1.66c.02-.3-.11-.78.1-.89l.98-.5-.7-.62c.44-.48.25-1.37.11-2.25-.57-3.61-.54-2.05-1.79-4.23l.63.03c.1,0,.18-.25.1-.32-.08-.06-.37-.26-.47-.26l-.68-.04c.18,0-1.27-1.47-1.14-1.89-1.07-.36-2.75-.91-3.96-.9-1.24,0-1.92-.12-2.37-1.17-2.02.24-4.18-.03-6.12-.33l-1.78-.28c-.65-.1-1.55.12-2.14-.33-.7-.54-1.34-.03-1.92-.09-2.61-.28-3.81-.58-6.75-.03l-1.23-.25c-.3.34-.99.96-1.36.87-.38-.09-.95-.46-1.45-.78-.41-.26-1.46.4-1.95.36-.77-.06-1.61-.06-2.29-.02l-1.87.1c-.67.03-1.28.11-1.9.23l-2.93.55c-.68.13-1.14.08-1.77.61-.37.31-1.45.16-1.89.33l-2.14.82-2.68.97c-.51.18-1.44-.34-2.05.23-2.11,1.99-4.32.69-6.34,3.6-.25.36-.67.94-.66,1.3s.4,1.06.69,1.34l2.01,1.9.87-.44v.41c.02.11.35,0,.41-.1l.3-.51c.87.69,2.09.33,3.07-.36.58-.41,1.37-.38,2.03-.47,1.09-.14,2.28-.12,3.31.53l-1.26,5.46c.43.29.89.53.76.69-1.55,1.94.11.33-.97,1.99-.16.24-.51.56-.37.64l.6.34c-.38.25-.82.85-.84,1.35l-.08,2.56c-.03.94-.43,5.77-.55,5.82l-.62.26c.29.43.81,1.13.73,1.51l-.35,1.76c-.57,2.9.75,2.46.09,4.28-.67,1.83-.63,3.82-.8,5.75-.07.82-.25,1.84-.18,2.56.03.34-.09,1.16-.21,1.46-.88,1.06-.52,3.2-.27,4.5l.27,1.39c-.02.11-.2.77-.15,1l.85,3.79c.08.35,1.27,3.33,1.97,3.73l.06,1.11c.63-.39.76-.4.24.31l1.56.75c-.67.72-1.44.85-2.33.94-2.04.23-2.06.87-3.39,1.67l-2.23,1.34c-.22.14-.25.93-.49,1.01l-1.1.4c-1.52,2.12-1.6-.13-2.71,2.28-1.18.76-2.03,2.23-2.71,3.32-.91,1.48-1.14,2.81-.49,4.59.38,1.04.68,2.34,1.3,3.31,1.22,1.89,3.17,3.09,5.45,2.87l-.37.67c-.28.49,1.85,0,3.37,1.04.24.16.81.45.99.32l.61-.44c1.22.37,2.79.5,4.11.45.21.15.61.63.82.54l.98-.41.78.57c.36-1.03,1.39-.5,2.22-.49l2.43-.8c1.1.66,2.3.35,3.4-.27l1.21-.28c-.2.05,4.07-.42,4.24-.23l1.77-.09c-.8,1.07-1.41,1.93-1.95,2.86l-1.29,2.21,1.1.95c.38.32,1.46-.02,1.9-.26.19.01.95.09.94-.15l-.08-1.07.8-.16c.17-.03.27-.53.35-.76.72-.08.98-.64,1.37-1.37l.89-1.68c.23-.44.86-1.14,1.21-1.64-.34-.89-1.23-1.76-2.07-1.63-4.74.74-1.15.2-4.66.01-.72-.04-1.53-.12-2.28.06l-1.32.31c-.88-.73-2.53-.78-3.25,0l-.35,1.1c-.4-.33-.59-.49-.79-.61-.16-.09-.68.28-.86.28l-1.47-.05c-.75-.03-1.58.12-2.28.36l-1.07-.42c-.23-.09-.77.63-1.01.58l-2.39-.53c-.12-.03-.39-.54-.49-.46-.07.05-.26.23-.43.39l-1.76-1.1-.98.68c-.75-.86-1.56-1.29-2.43-1.14l.14-.76c.02-.1-2.51-.43-2.98-1.51l-1.14-2.67c-.22-.52-.38-1.98.05-2.48.03-.25-.1-.7.1-.81l.85-.48c.32-.49.69-.92,1.29-.94l1.07-1.6c.27.49.46.61.37-.11l1.67-1.93c.46.27.79.4.95.18.19-.26.24-.45.2-.68-.06-.35.34-.99.7-1,.39-.02,1.01.04,1.68.07l-.71-.61,3.54-1.21c.55-.19,1.29-.54,1.91-.81l1.51.7c2.65-.35,4.03,1.24,5.28.31.18.18.74.83,1.11.78l1.41-.19c.75.33,1.78.62,2.68.66,3.04.13,3.66.78,8.45.6,1.59-.06,3.9-.09,5.12.63.68.4,1.93-.18,2.66-.09,3.6.43.84.22,4.76.23.91-.61,2.01-.99,3.23-1.1,3.07-.29,1.54,1.14,3.99.42l.77,1.2.68-.89c-.17.45-.36,1.25-.11,1.22l.98-.11c.68.81,2.01,1.73,3.06,1.51-.07.28-.24,1.11-.01,1.1l.76-.03c.09.16.14.76.33.82l.69.22c-.14,2.2-.14.34.74,3.09.04.13.47-.02.71-.04l-.53,1.78c-.16.55-1.35,1.07-1.81,1.46-.56.48-1.54.53-2.22.83-1.2.54-2.33,1.15-3.74,1.34l-1.6.22-1.22.17-.32-.71c-.07-.15-.51-.05-.71-.07-.8-.62-1.65-.83-2.57-.29l-1.98-.55c-.13-.04-.5-.55-.6-.46l-.32.28-.78-.97-.47.92-2.68-.34c-.32-.04-1.02.34-1.25.51.07.09.48.35.38.4l-.5.24c-.1.05-.21-.11-.48-.39-.9.83-1.37,2.12-.41,3.26.61.72,1.28,1.64,1.57,2.52l.75,2.29.6-.5c.07.26.2.93.44.91l.86-.05.95,1.14.57-.56c.08-.08.39.15.5.17l.62.1c-.3-.05.85,1.52,3.09,1.15.46-.46.75-.65,1.39-.89l-.33-1.05.44-.24c.08-.04.07-.11-.01-.13-1.44-.38-1.92-1.6-3.78-2.25-.2-.16-.29-.83-.55-.86l-1.38-.14-.24-1.84c-.03-.22.36-.61.58-.86l.4.87c.11-.12.74-.54.91-.33l.66.83,1.11-.33c.13.21.31.62.45.58l.51-.13,1.58.05c2.59.08,3.34.78,5.93-.23,1.42-.55,2.84-1.1,4.06-1.72.18.1.61.27.61.13,0-.11-.02-.5.07-.56l1.64-1.11c.1-.07.41.14.47.19l.95-1.46.33.5c.04.07.25-.14.24-.22v-.43c-.02-.23.32-.65.47-.84-.26-1.71.84-1.98.3-2.36ZM55.04,64.36c-.07.17-.66.06-.83-.03-1.74-.93-.74,1.29-6.47.55l-2.09-.27c-.98-.13-1.72.49-2.59-.16-1.16-.87-2.81.15-3.98-.3-.67-.25-1.4-.47-2.14-.55l-2.16-.23c-.99-.11-3.57.31-3.52,1.22-2.19-.24-4.9-.36-6.9-1.49-.61-.34-1.01-.88-1.8-1.16-.61-.21-1.31-.94-1.86-1.39-1.31-1.05-2.58-2.17-3.29-3.71-.24-.52-.39-.71-1.04-.79l.19-1.48c-.91-1.06-1.19-2.34-.66-3.63l-.42-2.03c.39-.96.49-1.7.52-2.66l.04-1.3c.01-.36.39-1.06.37-1.45l-.11-1.83-.09-1.27c-.11.11.64-.39.61-.62l-.31-2.42.11-6.12c0-.17-.33-.55-.29-.69-.24.83.97-4.1.72-2.72l.6-3.32c.04-.21,1.61-5.6,1.58-6.25-.06-1.57.32-2.71,1.2-3.99,1.86-2.7-.53-3.66-2.42-5.99l-2.31-.84.39-.9c.22-.51.22.82,2.38-.69,3.56-2.5,6.99-1.8,11.96-1.8.88,0,1.68.56,2.3,1.06,2.68-.41,10.83-.23,12.81.51.34.13.35,1,.6,1.29.64.75,2.23.18,2.53-.84l.61,1.12.85-1.32c.05-.07.48-.19.51-.1.03.08.16.38.16.36,0-.03-.26.2-.46.37-.13.1.3.48.48.5.23.03.59-.17.94-.37.05.08.63.75.87.62s.63-.38.93-.57c.69.33,1.59.62,2.46.72l3.16.35c-.38,1.13.4,2.27,1.36,2.87-.19.77-1.78,5.81-.9,6.28-.22.79-.42,1.67-.42,2.51l-.02,2.01.23,3.73c.06,1.01-.25,1.96-.37,2.94-.11.84-.14,1.85-.18,2.72-.01.28.25.94.04,1.12-.24.21-.69.82-.49.95l.93.57s-.2.21-.27.29c-.09.1.25.44.18.56l-.45.74c-.12.2.52.8.47,1.04-1.07,4.94.13,1.64-.58,5.73-.37,2.14-.61,4.34-.76,6.54-.05.81.06,1.28-.5,1.98.12.66.28,1.69.47,2.39l.64,2.39c.24.89.03,1.52-.45,2.27-.09.48.2,1.48-.24,1.72-.87.49-.79,1.93-1.15,3.06-.4,1.27-.83.25-1.63,2.25Z"/>
      <path class="cls-1" d="M37.65,14.23c-3.12,2.03-1.68,1.44-2.5,2.43-.65.79-1.08,1.52-1.36,2.69.04.09.61.36.87.43.88.24.76-1.14,2.37-2,.7-.13,1.2-.38,1.46-.75l.81.48c.13.08.36-.18.53-.29l1.22,3.33c.08.21.75.66.87.48l.37-.56c.37-.36,1.05-1.04,1.05-1.53,0-1.6-.52-2.96-1.58-3.85-1.04-.88-2.76-1.34-4.12-.85Z"/>
      <path class="cls-1" d="M49,15.23c-1.08.04-1.98,1.16-2.71,1.9-1.15,1.17-1.61,3.13-1.22,3.55.2.22,1.03-.02,1.24-.26l1.51-1.73,1.56-.36c.8-.19,2.16,2.49,3.24,2.93,1.24-.81,1.16-1.97.64-3.21-.65-1.56-2.4-2.88-4.25-2.81Z"/>
    </g>
  </g>
</svg>