<?xml version="1.0" encoding="UTF-8"?>
<svg id="Layer_2" data-name="Layer 2" xmlns="http://www.w3.org/2000/svg" viewBox="0 0 69.48 76.02">
  <defs>
    <style>
      .cls-1 {
        fill: #f5f5dd;
      }

      .cls-2 {
        fill: #b74426;
      }

      .cls-3 {
        fill: #152a50;
      }
    </style>
  </defs>
  <g id="Address">
    <g>
      <path class="cls-3" d="M39.72,45.28c-.08-.06-.53-.19-.48-.24l.4-.52-.95.12-1.98-1.82c-.06-.05.15-.37.18-.44.13-.3-1.16-.13-1.54-1.44l-2.91.62c-.42.09-1.07.7-1.43.91l-4.76,1.01c-.03,1.38-.63,2.33-.97,3.47-.38,1.29-.41,2.81-.58,4.14l-.56,4.47c-.09.72-.22,1.6-.37,2.33l-.81,3.94c-.39,1.91-.53,3.86-1.19,5.72l-2.08,5.89c-.22.61-1.34,1.49-1.99,1.64l-2.06.48c-.5.12-.91.24-1.51.45-.37.05-1.23-.02-1.61-.1-.65-.33-1.32-.58-2.07-.85-.57-.38.07-2.19.88-2.24l1.48-.09c.44-.03,3.06-.03,3.5-.51.3-.33.51-1.11.67-1.53.8-2.08,1.69-4.07,2.06-6.25.14-.82.29-1.53.55-2.31l.63-1.88c.13-.39.2-1.23.26-1.69l.53-3.84c.08-.57.37-.97.86-1.21-1.11-.48-.11-1.63.11-2.26l.18-1.61c.17-1.52.67-3.17,1.53-4.31-.13-.33-.2-.82-.19-1.24l-.46.29c-.12.08-.44-.14-.59-.17-2.04.42-4.13.79-6.22.83l-1.81-.54c-3.77.66-8.1-3.18-10.53-5.64-1.68-1.7-2.02-2.53-2.6-4.73-.26-.99-1.01-1.95-1.08-2.98-.28-4.27-.53-8.84,1.27-12.85,1.23-2.74,2.4-5.57,4.35-7.88.04-.05,3.04-2.77,3.41-3.09.97-.83,2.03-1.47,3.14-2.12,3.93-2.29,7.03-3.77,11.65-4.19,1.4-.13,2.71-.06,4.12-.07,1.17,0,2.32.37,3.25.54,1.83.33,3.52.54,5.36,1.38,1.58.72,3.25,1.3,4.66,2.19,3.63,2.3,6.44,6.27,8.3,9.99.37.74.79,1.45,1.06,2.36.41,1.38,1.13,2.76,1.22,4.18.18,2.9,1.34,3.08,1.24,9.79l-.07,4.72-.22,4.62c-.05,1.12-.24,5-1.24,5.26-.76.19-2.68-1.64-2.67-3.25l-2.22-2.2c-.65-.65-2.19-1.42-3.04-1.37l-3.88.23c-.54.03-1.57.62-2.1.76-.08-.08-.49-.47-.42-.39s-.39.55-.33.64c.21.35.79.83,1.25,1.16l2.94,2.13,2.04,1.3,3.59,2.43c.72.49,1.42,1.19,1.97,1.82l.34-.19c.11-.06.35.18.51.29l1.61,1.12,3.97,3.23,1.13.87,1.21.72c1.57.93,2.18,2.46,3.97,3.39l1.56-1.38c.92-.81,5.25-5.07,6.3-2.24.22.59-.69,1.47-1.21,1.23-.48.46-.75,1.35-1.35,1.17l-1,1.56c-.04.06-.27.27-.33.24l-.4-.21c-1.73,1.39-1.49,2.55-3.91,2.81-.35.04-.98.09-1.23-.14l-2.61-2.34-1.87-1.71c-.94-.86-1.89-1.59-2.89-2.36s-1.82-1.57-2.82-2.47c-.64-.57-2-1.11-2.29-2.1-.05-.18-.42-.65-.56-.6l-.61.22-2.43-1.65-4.21-3.36ZM33.02,37.86l2.06-.61,2.8-.83c1.31-.39,2.53-.51,3.83-.59,1.43-.09,2.36.11,3.59.68.56.26,1.62.15,2.24.84.16.17,2.08,2.52,2.1,1.09l.07-4.57-.15-4.75c-.04-1.18-.22-2.5-.4-3.61l-.4-2.34c-.28-1.68-.54-3.3-1.13-4.94-.21-.59-.63-1.83-.99-2.32-1.4-1.89-2.87-3.62-4.41-5.37-.87-.99-2-1.87-3.07-2.67-1.4-1.05-2.94-1.23-3.83-2.58-.18,0-.72.09-.88,0s-.37-.38-.56-.42l-3.68-.76-1.57-.3c.32.17-4.56-.06-3.71-.36-.2.38-.78.49-1.46.64-1.87.42-3.87.87-5.67,1.55-1,.38-1.93.74-2.98.92-3.01,2.34-3.26,1.25-6.01,4.39-.38.43-.97.88-1.43,1.33-.9.89-1.39,2.4-2.07,3.56-.61,1.04-.99,2.05-1.35,3.22-1.29,4.17-1.83,7.11-.85,11.36.23.98.39,1.96.84,2.88,1.26,2.61,1.57,3.59,3.77,4.76,1.9,1,3.8,2.35,5.7,2.98.05.02,3.28.22,3.91.61,1.23-.29,2.51-.56,3.8-.76l4.84-.73c.2-.03.72-.42.87-.29l.55.47.32-.61c.05-.1.29.26.32.31-.02-.43,4.4-2.02,5.03-2.2Z"/>
      <path class="cls-1" d="M33.02,37.86c-.63.18-5.05,1.77-5.03,2.2-.04-.04-.27-.4-.32-.31l-.32.61-.55-.47c-.15-.13-.67.26-.87.29l-4.84.73c-1.29.2-2.58.47-3.8.76-.63-.39-3.86-.6-3.91-.61-1.9-.64-3.8-1.98-5.7-2.98-2.2-1.17-2.51-2.14-3.77-4.76-.44-.92-.61-1.9-.84-2.88-.98-4.25-.44-7.19.85-11.36.36-1.17.75-2.18,1.35-3.22.68-1.17,1.17-2.67,2.07-3.56.46-.46,1.05-.9,1.43-1.33,2.76-3.14,3-2.05,6.01-4.39,1.06-.18,1.99-.54,2.98-.92,1.8-.69,3.79-1.14,5.67-1.55.69-.15,1.27-.27,1.46-.64-.85.3,4.04.52,3.71.36l1.57.3,3.68.76c.18.04.4.34.56.42s.71,0,.88,0c.88,1.34,2.43,1.53,3.83,2.58,1.07.8,2.2,1.68,3.07,2.67,1.54,1.75,3.01,3.48,4.41,5.37.36.49.78,1.73.99,2.32.58,1.64.84,3.25,1.13,4.94l.4,2.34c.19,1.11.37,2.44.4,3.61l.15,4.75-.07,4.57c-.02,1.43-1.94-.91-2.1-1.09-.62-.69-1.68-.59-2.24-.84-1.23-.57-2.16-.76-3.59-.68-1.29.08-2.51.2-3.83.59l-2.8.83-2.06.61ZM19.42,18.77c.46-1.2.89-2.09,1.74-3.19,1.64,1.32,1.99,3.57,3.26,3.24,1.99-.53-1-6.25-3.76-6.34-1.64-.06-2.37,1.57-2.9,2.62l-.52,1.03c-.17.34-.35,1.07-.52,1.55l.45.68c-.03.59.27,1.54.56,2.09.13.25,1.13.09,1.16-.2l.08-.99.45-.48ZM13.38,20.34l1.26,1.93c.15.23.91-.01,1.03-.24.56-1.01-.03-2.04-.23-2.63-.09-.27.07-.98-.08-1.23s-.59-.46-.98-.71c-.43-.28-1.08-1.07-1.57-1.17-2.79-.54-3.31,3.21-3.34,4.96l-.4.6s.58,1.23,1.37,1c.25-.07.73-.54.82-.81l.64-1.93c.1-.29.6-.68.84-.74s.39.6.64.97Z"/>
      <path class="cls-3" d="M19.42,18.77l-.45.48-.08.99c-.02.29-1.02.44-1.16.2-.29-.55-.59-1.5-.56-2.09l-.45-.68c.17-.48.35-1.21.52-1.55l.52-1.03c.53-1.05,1.26-2.67,2.9-2.62,2.75.1,5.75,5.81,3.76,6.34-1.27.34-1.62-1.92-3.26-3.24-.85,1.1-1.27,1.99-1.74,3.19Z"/>
      <path class="cls-3" d="M13.38,20.34c-.24-.37-.39-1.02-.64-.97s-.74.45-.84.74l-.64,1.93c-.09.27-.57.74-.82.81-.79.23-1.34-1.05-1.37-1l.4-.6c.03-1.74.55-5.5,3.34-4.96.49.1,1.14.89,1.57,1.17.39.25.83.47.98.71s-.02.96.08,1.23c.2.59.79,1.62.23,2.63-.12.23-.89.46-1.03.24l-1.26-1.93Z"/>
      <path class="cls-2" d="M16.4,5.51c-.1-.09-.18-.73-.07-.71-1.73-.26-3.18-.42-4.58,1.25l.3.32c.11.11-.21.45-.35.54l-1.02.69c-1.38.94-2.64,1.68-4.53,1.76l-1.49,2.88-1.73,3.42c-.37.73-.71,1.36-1.1,1.95-.16.28-.37.87-.56,1.12-.22.3-1.29-.01-1.27-.38.33-5.95,3.99-9.53,4.13-10.86l.27-2.51c.01-.1.55-.04.58-.13l.22-.52c.53-1.28,1.83-1.54,2.97-1.9,1.52-.47,2.6.47,3.96.64,1.09.14,2.45-1.23,3.71-.43.7-.74,1.16-1.44,1.91-1.89,1.54-.94,4.03-1,5.52-.03.89.58,1.05,1.35,2.43.98.84-.23,2.17-.1,3.15.04l2.06.3c1.08.16,2.26.12,3.39.35l3.9.79c2.04.41,4,1.01,5.24,2.86.45.67.42,1.49-.14,2.06l.65.51c.13.1-.62.38-.71.52-.19.29-.2,1.12-.55,1.17-.45.05-1.01-.01-1.24-.28-.29-.35.02-1.27.12-1.61l.35-1.2-1.29-.54c-.96-.41-2.23-.67-3.3-.82l-2.62-.37c-2.44-.34-4.89-.54-7.24-1.14l-3.13-.81c-.2,1.58-1.29,1.47-2.24,1.98-1.64.87-4.23,1.26-5.69.04Z"/>
    </g>
  </g>
</svg>