<?xml version="1.0" encoding="UTF-8"?>
<svg id="Layer_2" data-name="Layer 2" xmlns="http://www.w3.org/2000/svg" viewBox="0 0 51.7 73.31">
  <defs>
    <style>
      .cls-1 {
        fill: #b74426;
      }
    </style>
  </defs>
  <g id="Address">
    <g>
      <path class="cls-1" d="M34.73,62.55c.73.07,1.85.06,2.66.21.57.11.83,1.12.64,1.49-.6,1.15-1.78.29-4.05,1.02-.39-.34-.89-.75-1.43-.88-.31-.08-.22.85-.29,1.15-.24,1.03-1.81,1.14-2.77.44-.22.55-.03,2.91.03,3.37l.26,2.14c.07.55.03,1.02-.32,1.49-.26.35-.9.37-1.54.29-.68-.08-1.03-.59-1.02-1.3.08-4.15-.87-3.95-1.35-7.75-1.2.27.16.83-1.13,1.93.05,1.49-.12,3.13-1.24,4.36l-2.29.3c-1.4-.85-.86-2.11-.76-3.28.48-5.75,1.39-5.59,2.72-10.97l-1.98,2.47c-2.05-.13-.94,2.39-2.74,2.79-.19.45-.52,1.18-.67,1.82-.58,2.55.71,6.69-.2,6.45l-.42-.11c-.37.1-1.15.15-1.6.08-.37-.06-.72-.69-.87-1.07-1.1-2.75-.43-5.02.68-7.54.59-1.33,2.13-2.42,2.99-3.57l.82-1.09c.12-.16.3-.69.22-.73-.91.02-1.94.08-2.72-.15-1.03-.32-1.04-1.68-1.38-2.47-1.08-2.52.09-4.52,2.37-5.93.7-.43,1.64-1.58,2.38-1.6.7-.01,1.52.2,1.89-.14-1.36-2.14-1.04-2.69-2.74-5.32-.91,2.35-4.04,1.31-4.02,1.34l-.49-.85-.53.55c-2.09-1.58-2.99-1.82-3.53-4.41l.64-.22c-.39-.2-.89-.61-.94-1.04-.19-1.64,3.75-3.46,5.61-2.26-.57-1.51-1.24-2.84-2.17-4.15-.99,1.27-1.88,1.46-3.16,1.42-3.73-.1-6.29-2.59-8.53-5.29-.51-.61-.62-1.56-.95-2.14-.62-1.08-1.06-2.45-.67-3.67l.29-.89c.07-.22.69-.19.8-.05.36-.57,2.13-1.67,3.35-.83-.58-1.1-.39-2.24.63-2.84l.6-.93c.98.38,1.83,1.03,2.61,1.84l.52.54c.12.13.64-.26.72-.41l.5-1c-.13-.32-.3-.68-.28-.94s.59-.68.82-.78l.96-.42,1.15-.17c.88,1.09,1.48,2.72,2.1,4.14,1.74,3.98.86,6.76,2.54,4.57l1.97-.09c.53.64,1,.89,1.68.99l1.12,1.33-.16-2c-.06-.79-.45-1.67-.61-2.44l-.92-4.43c-.04-.2-.27-.58-.38-.71s-.72.09-.85.23c-.81.9-3.15.99-3.39-.5-.09-.59-.01-1.89.01-2.48,0-.2.73-.52.64-.69-.15-.29-.45-.42-.85-.49-.76-.12-2.22-.88-2.48-1.63-.36-1.05-.26-2.14-.25-3.22l1.73-1.49c.45-.39,1.63-.24,2.33-.17l1.31-1.57c.56-.67.95-1.28,1.88-1.06.05-.18.14-.57.21-.49.46.46.58-.23,1.55-.63.75-.3,1.94,1.78,2.67,1.51l1.06-.4c.23-.09.56.43.85.75.12-.05.4-.39.55-.3.21.12.69.44.86.58l.58.5c.11.1-.16.43-.22.57.14.25.41.51.34.71l-.38,1.01c2.08-1.46-.03-1.46,3.96-2.63,1.69-.5,4.14-.65,5.66.2.54.3,1.24.62,1.49,1.21l.63.04c.23.02.52.64.64.84l1.63,2.68c.7,1.16.13,3.58.42,3.54l-.51.07.14,1.19c.04.33-.81.59-1.05.82-.37.35-1.81,1.67-2.17,1.49l-.89-.43.79,1.51c-.18.77-.87,1.66-1.44,2.19l.81.57c.19.13.15.5.09.86-.13.85-.75,1.36-1.62,1.37-.66,0-1.27-1-1.22-1.68.03-.42.05-.89-.16-1.06s-.9.1-1.21.15c-.89.14-1.26,1.12-1.74,1.48-1.19.9-1.82,1.33-1.87,2.92s-.77,3.29-.51,4.8c.77-1.4,2.84-2.1,4.1-2.06.11,0,.5.27.6.31.13.05.29-.24.41-.44l.28-.47c.05-.08.17.07.29.18l.44.41c-.46-1.05.11-1.57.7-2.29,2.13-2.59,4.41-4.83,7-6.84.41-.32.96-.9,1.52-.6,2.52,1.35-3.22,4.53-5.61,7.46-.31.38-.77.56-1.33.67l.35.33c.08.08-.15.24-.29.4-1.97,2.16-3.6,4.51-5.1,7.03l-1.23-.15.61.39c.37.24-.27,1.34-1.39,1.61l-.18-.94c-.27-1.48.99-2.82,1.71-4.06.19-.04.35-.02.34-.09l-.12-.7c-.54.28-1.17.82-1.7,1.28-.35.31-1.6.44-1.78.91-.35.92-.32,2.01-.46,2.97-.24,1.57-.65,2.99-.37,4.65l.8-1.89c.09-.4.19-.82.28-1.1s1.09-.26,1.22-.13l.02,1.4c.79-1.04,1.54-2.16,2-3.4.13-.24.98-.96,1.43-1.01,5.15-.83,5.89,4.43,6.62,7.9.53-.34,2.83.55,2.95.66.24.22.28.9.47,1.21,1.07,1.8,2.28,4.14,2.04,6.49l-1.89.6c-.23.07-.65.11-.97.05-.25-.04-.61-.43-.26-.7-1.56-.63-.77,2.71-3.75,2.41-.12-.01-.18.2-.35.49-.44-.38-1.19-1.14-1.29-1.74l-.44-2.63c-1.07.95-.68,2.57-2.56,2.85-.89.13-1.49-.17-2.12-.84-1.33-1.41-1.44-3.07-.35-4.7l1.51-2.26c.86-1.29,2.23-2.14,3.6-2.82-.31-.77-.56-1.96-.65-2.65-.03-.27-.55-.86-.81-.79-1.03.27-2.29,2.93-2.89,4.06-1.35,2.56-1,2.83-2.44,4.75-.38.51-.64,1.18-.97,1.7l-1.47,2.34,1.36,1.48c1.13-.07,2.08.38,2.7,1.38,1.13,1.81,1.05,2.48.47,4.72-.26,1-1.83,2.98-3.58,2.3.96,3.78,2.2,3.07,5.05,5.39ZM20.27,4.5c.66-.39,1.07-.58,1.21-.83.12-.22.03-.86,0-1.15l-1.47.63c-.34.15,0,1.42.26,1.35ZM24.67,5.74c.59-.13,1.17-.26,1.28-.6.2-.61.01-1.18-.72-1.15-.6.02-1.7.79-2,1.3-.1.16.41.68.59.64l.84-.18ZM39.67,11.25c-1.9-.23-3.2-.74-4.52-1.83-.46-.38-2.03-2.71-1.61-3.47l.61-1.12.64-.63c-1.29-.08-2.56.49-3.1,1.45.16.45.31,1.42.54,1.79.89,1.44,2.57,2.95,4.06,3.91l2.41.74.98-.85ZM17.51,7.05c0-.16.39-.4.63-.58-.23-.36-.64-1.05-.95-1.18-.58-.04-1.45,0-1.74.28-.33.31-.71,1.02-.76,1.36.93,1.2,2.82,1.7,2.81.98v-.87ZM21.01,7.57c-.68-.63-.8-.81-1.11-1.53l-.48,1.26.85,1.12.74-.85ZM39.13,8.32l-2.64-1.84c-.12.81.78,1.17,1.37,1.67l.71.61c.14.11.64-.46.55-.44ZM36.8,14.77c.47.23.9.23,1.29.03l-1.57-.49c0-.09.02-.71,0-.58-.03.71-4.39-1.14-5.62-3.36l-1.66-3.02c-.4.91-.2,1.68-.09,2.58.35,3.08,1.24,1.96,2.82,4.3l2.33.57c.23-.06.5-.25.63-.16l.51.36,1.35-.22ZM23.37,11.38c.03.26.48.73.76.81.97.27.55-1.21,2.14-1.02.48-.96-.84-2.6-1.92-2.37l-2.31.49.82.69c.13.11-.24.43-.3.52.44.12.73.15.74.29l.07.59ZM19.85,10.43l-.87-.34-.8,2.81c.64-.25,1.13-.44,1.45-.67.29-.21.22-1.27.22-1.8ZM28.3,16.24c-.85-1.27.82-1.57-1.64-3.02-.89.55-1.46.82-2.65.64l.48,2.91c2.08-.93,2.84,2.49,3.28,1.78.54-.88-.67-1.43.53-2.31ZM12.99,19.03c-.04-.46-.16-.86-.58-.87,0,2,.53,3.7,1.32,5.35.53-3.55-.55-2.11-.75-4.48ZM27,23.58c.09-.45-.11-1.53-.17-1.91l-1.32-1.11.69,6.86.8-3.84ZM9.47,22.54l1.2,2.99-2.14,1.4c-2.06-1.77-.58-1.4-3.2-4.22-.66-.71-1.31-1.35-2.08-1.77.33,2.19,1.84,3.5,3.34,4.85.93.84,1.92,1.37,3.12,1.83,2.78,1.07,2.68-.57,4.27-1.18l-.28-1.9c-.51.11-1.28.45-1.94.73-1.45.02-1.1-2.27-2.28-2.74ZM20.68,25.26l-1.06-.81c-.24-.18-.59-.38-.86-.52.39,1.69,2.51,3.56,3.65,3.81-.6-2.02-.47-.12-1.73-2.48ZM24.11,42.1l-.17-2.84-.14-2.06-.15-2.94c.35-.28.52-.42.43-.35-.06.05-.51-.29-.52-.36l-.51-3.92c-.65.08-1.22.39-1.59.27-2.31-.72-4.82-2.57-5.23-5.15-.79,1.09-.32,1.95.36,3.12,1.14,1.94,2.4,5.13,3.15,7.02.06.14-.43.53-.33.52.87-.09,1.72,2.42,2.15,3.38.68,1.55,1.26,2.9,1.8,4.48.24.71.48,1.29.96,2.07l-.2-3.26ZM17.55,37.68c-1.66-.35-2.31-2.73-4.99-2.29.09,1.63,1.01,2.51,2.22,3.27l1.31.82c.47.29,1,.58,1.51.43.32-.09.78-.75.56-1.01-.39-.48-.66-.98-.62-1.23ZM37.6,42.41l1.67-.48c.56,1.1.93,2.1.9,3.32-.26,0,.22,0,.37,0s.2-.48.21-.63l.05-2.31,2.15.07c-.44-.9-.96-1.6-1.59-2.2l-1.49.61-.11.57c.05-.26-2.31-.32-3.14.98-.7,1.08-1.48,1.88-1.38,3.27l1.15-2c.21-.36.81-1.08,1.22-1.2ZM18.21,53.5c.59-.22,1.24-.69,1.6-1.01l1.78-1.58c-1.23-.72-2.12-1.28-3.11-2.14-.1.64-1.03,1.3-1.65,1.42.7.76.08,1.97,1.37,3.31ZM30.34,54.57c.46-.57.89-1.46.64-1.85l-.95-1.54-1.78.93,2.08,2.46Z"/>
      <path class="cls-1" d="M44.08,27.58c-.4.27-1.34.79-1.97,1.05-.99-.52-2.07-1.47-2.26-2.58-.17-.96,1.18-1.46,1.92-1.73,1.39-.51,1.76,1.19,2.68,2,.41.36-1.68.43-.37,1.26Z"/>
      <path class="cls-1" d="M48.23,19.82c.64.92,1.35,2.12.86,3.15-.19.4-.94.94-1.32.8-1.25-.45-2.02-1.32-2.47-2.58-.18-.5.44-1.29.88-1.54.61-.34,1.68-.35,2.04.17Z"/>
      <path class="cls-1" d="M51.51,17.04c-.06.62-.07,1.12-.57,1.35-1.05.5-2.58-1.37-2.59-2.17,0-.61.87-1.6,1.44-1.49l1.91.34-.19,1.97Z"/>
      <path class="cls-1" d="M47.92,13.8c-.28.49-1.59.43-2.12.11-.49-.29-1.29-1.2-1.11-1.76.15-.47.57-1.06.87-1.18.37-.15,1.02,0,1.48.22.93.43,1.58,1.38.88,2.6Z"/>
      <path class="cls-1" d="M39.76,30.73l-1.3.36c-1.26-.35-1.61-1.95-.87-3.08l1.71-.33,1.16,1.75-.7,1.3Z"/>
      <path class="cls-1" d="M34.88,23.58c-.65.5-2.03-.13-2.18-.32-.14-.17,0-.57.07-.85-.16,0-.59.07-.6-.06l-.05-.91,1.83-1.06c.43.47,1.07,1.12,1.42,1.71.18.3-.21,1.29-.49,1.5Z"/>
      <path class="cls-1" d="M42.21,16.55c-.08.99-1.61.78-1.92.33l-.51-.73c-.11-.16.25-.64.32-.82l-.27-.56c-.04-.08.52-.71,1.47-.59.24.03.35.57.46.92l.38-.47c.05.69.13,1.33.08,1.92Z"/>
    </g>
  </g>
</svg>