<?xml version="1.0" encoding="UTF-8"?>
<svg id="Layer_2" data-name="Layer 2" xmlns="http://www.w3.org/2000/svg" viewBox="0 0 45.85 48.95">
  <defs>
    <style>
      .cls-1 {
        fill: #9dc282;
      }
    </style>
  </defs>
  <g id="Address">
    <g>
      <path class="cls-1" d="M35.38,31.21c2.57,2.8,7.95,8.57,4.65,12.01-1.29,1.35-5.07.89-6.62.35l-4.26-1.48c-2.23-.77-3.84-2.06-5.99-3.55l-1.54,3.47c-.84,1.9-1.89,3.74-3.27,5.27-2.14,2.37-5.46,2.08-7.64-.08-.86-.86-1.35-1.82-1.83-2.89-2.57-5.71.24-9.86,3.86-14.46-6.5-1.46-8.67-2.92-12.02-7.91L.06,19.05c-.33-1.44.83-3.23,1.79-4.45,1.73-2.19,4.34-3.01,7-1.95.8.32,2.03.59,2.72.92l4.58,2.14c-.36-3.85.16-6.81,2.5-9.46,1.04-1.18,3.46-2.45,4.94-1.24,4.64,3.77,5.12,9.74,6.5,14.93,6.25-3.3,10.13-4.43,15.49,1,.27,1.45.47,3.97-.08,5.42-1.29,3.41-6.84,4.47-10.12,4.86ZM42.75,23.77c.16-.46-.03-1.74-.34-2.1-.74-.88-3.87-1.63-6.4-.61-5.73,2.33-3.19,1.96-7.51,3.92-.74.33-2.23-1.08-2.17-1.87l.29-4.19c.15-2.08-.46-3.7-1.13-5.52l-1.14-3.11c-.41-1.11-1.12-2.42-1.91-3.25-4.04,1.71-4.27,8.03-2.25,11.05.61.9,1.76,2.18,1.83,3.14.02.28-.8,1.05-1.03.89l-1-.67c-2.71-1.82-10.83-7.5-13.89-6.27-1.42.57-2.95,2.35-3.06,3.81-.45,6,7.15,7.92,11.3,9.3,1.37.45,2.81-1.73,5.27-.11-.93.34-1.67.49-2.74.68l1.27,1.12c.27.24.16,1.24-.16,1.41-.98.53-2.01-.9-2.96-.5-.37.15-.76.72-1.14,1.18-2.56,3.11-4.27,6.95-3.12,10.86.99,3.41.59,2.26,3.74,4.14l1.67-1.53c2.53-2.31,4.07-10.46,5.67-11.42,1.52-.32,2.14,1.53,3.08,2.12l6.16,3.82,3.82.59c.62.1,1.66.26,2.04-.02s.45-1.38.26-1.86c-2.76-7.12-9.63-7.01-8.81-9.53.74-2.25,12.35.27,14.36-5.49Z"/>
      <path class="cls-1" d="M43.18,5.69c-1.34-.51-4.53-.21-5.47,1.04-1.41,1.88.27,4.15,1.59,5.44,2.37,2.32,4.15-.35,3.9,2.11-.03.33-.89.57-1.32.59-2.56.13-3.96-1.73-5.39-3.52s-2.48-3.94-1.07-6.1c.84-1.29,2.77-1.94,4.27-2.41l-.37-2.73c.72-.1,2.07-.23,2.74.08.55.25.93,1.77,1.32,2.22.77.63,2.08,1.89,2.31,2.74.08.29-.72,1.22-1.02,1.1l-1.5-.57Z"/>
    </g>
  </g>
</svg>