<?xml version="1.0" encoding="UTF-8"?>
<svg id="Layer_2" data-name="Layer 2" xmlns="http://www.w3.org/2000/svg" viewBox="0 0 271.72 185.58">
  <defs>
    <style>
      .cls-1 {
        fill: #fff;
      }

      .cls-2 {
        fill: #f5f5dd;
      }

      .cls-3 {
        fill: #b74426;
      }
    </style>
  </defs>
  <g id="Address">
    <g>
      <path class="cls-3" d="M122.5,166.29c-.62-.06-3.86-1.27-4.18-1.32-2.07-.36-4.07-.49-6.17-.67l.46,3.76.54,3.83.43,3.29c.15,1.1.59,2.35.55,3.42-.03.71,0,2.16-.11,2.14l-.75-.16c-2.16,1.2-5.89,1.17-8.64,1.1-2.39-.07-4.73,0-7.08-.22-.82-.08-1.43-.07-2.25-.03l-4.49.22-1.97.09-3.46.19-2.19.13-2.94.14-2.05.09h-1.6s-2.3.09-2.3.09l-3.67.13-3.73-.16-6.14-.12c-.95-.02-3.17-.35-3.87-.64-1.11.33-2.73-.39-2.85-1.69-.34.27-.55.52-.68.41-1.44-1.16-.85-2.34-.76-2.86l.43-2.51c.2-1.16.46-2.25.76-3.41.64-2.48.19-3.44,2.07-5.58l-.4-.43c-.09-.1.07-.42.12-.61l.86-3.36c.17-.25.62-.65.55-.92-.27-1.08-2.15-.94-2.94-.94h-1.72c-.47,0-1.2.14-1.7.24-1.3-1.14-1.1-3.01-.85-4.54l.28-1.71c.13-.8-3.22-.37-3.93-.25l-2.36.39c-.49.08-.96.21-1.43.36l-3.5,1.13-3.62,1.25c-.54.19-1.02.38-1.41-.06-.5,1.49-.77.59-3.65,2.33-1.72,1.03-1.45.09-4.25.74-.55-1.31.63-1.93,1.12-2.86.53-.99.78-2.14,2.09-2.35-.49-.24-.54-.23-.49-.29,1.17-1.62-.01-.17,1.57-2.34.28-.38.74-1.12.88-1.55.34-1.07,1.04-2.48,1.56-3.54.39-.79.72-1.74,1.06-2.6,1.53-3.84.69-2.33,1.12-4.96.24-1.44.28-3.77,0-5.03-.73-3.25-.66-4.55-2.66-7.56-1.69-2.54-5.6-4.78-8.41-6.06-.56-.26-1.82-.42-2.43-.43l-2.26-.04-2.79-.08c-1.12-.03-2.42.67-3.56.73-.9.05-1.52.12-2.39.51-.93.42-3.21.21-3.47-.56-.04-.12-.03-.53.1-.51l.83.11-.56-.63,2.19-1.53c.16-.11.47-.41.58-.51.14-.12.43.16.66.3-.02-.35-.14-.93.08-1.02l1.13-.43c1.2-1.39,3.5-3.27,5.11-4.13l.53-.96c.12-.21.61-.16,1.2-.14.23.32,0,0-.29-.41.32-.58,1.15-1.18,1.85-1.62-.14-.73,2.15-2.84,2.58-3.67l1.76-3.4c.22-.43.71-.57,1.09-2.6.16-.87.49-1.81.58-2.66.09-.9.27-1.62.56-2.25-.51-1.83-.79-4.7-1.04-6.55-.05-.39-.67-.86-.54-1.21.18-.47-.18-1.05-.48-1.5l-1.62-2.43-1.48-2.24c-.3-.46-.6-.83-1.11-1.21-.76-.57-2.82-2.41-3.01-3.04-3.72-2.5.46-.48-4.61-2.9l-.61-.29c-.14-.07-.1-.42-.1-.53-1.41.18-3.73-2-3.51-3.06.38-1.85,7.43-.29,8.92.09l3.4-.64,2.57.34c-.56-.48-.48-.46,0-.51h2.04c1.75-.98.36.23,3.39-1.13l1.16-.52c.91-.41,2-.86,2.82-1.37l2.74-1.71c1.09-.68,1.69-2.07,2.44-3.22,1.42-2.17,1.29-3.17,2.14-3.88.08-.07-.43-.35-.42-.46l.23-2.02-.7-2.74c-.64-2.52-.19-1.56-1.54-3.47l-1.1-1.55c-1.24-.97-2.06-2.14-3.63-3.59-.88-.81-1.86-1.57-2.48-2.59l.38-1.04,1.38.82,1.82.36c.81.16,1.38.57,2.37.72l-.51.25c3.03.43,2.36.8,5.78,1.24,2.69.34,7.37.62,9.79-.16,1.65-.53,3.35-.86,4.86-1.64,6.63-3.45,4.68-3.23,7.22-5.66.68-.65,1.21-1.33,1.74-2.09l.44-.11c.14-.03.2-.55.17-.69-.17-.78.47-1.25.81-1.85l.98-1.7.98-2.16c.48-.5.86-.98,1.03-1.78l.45-2.15-.05-2.28c-.04-1.69.87-1.59-.95-3.63-.32-.36-.39-.88-.39-1.41,0-1.17.51-1.76,1.77-2.22.69-.25,1.12.95,1.21.94l.53-.06c-.28,1.86.66,3.3,1.98,4.5.76.69,1.44,1.53,2.36,2.02l4.05,2.14c.41.21.74.54,1.18.61.89.13,1.71.54,2.48.71l2.13.48,1.35.3c2.92-.15,7.9.39,10.65-1.71,1-.76,2.12-1.7,3.19-2.2s1.12-.85,1.75-1.85,2.08-1.73,1.81-3.32l1.23-1.01.06-1.74c.87-.63,1.04-1.62.91-2.57.52-.3,1.04-.75,1.22-1.41l.56-2.15c.03-.12.33-.38.34-.49v-.46s-.04-1.56-.04-1.56l.3-1.17c-.23-.5-.19-1.07.1-1.32.67-.58,1.13-.15,1.69.25.32.22,1.2.5,1.42.82.24.35.21,1.04.27,1.68.09.96,1.3,3.12.36,2.83l.69.22-.35,1.92c.37.03.65-.03.79.11s.38.61.51.8l1.53,2.36.14,1.3c.01.1.41-.27.52-.26.14.02.25.22.38.45l.89,1.48c.78-.66,1.04.58,1.3.96,1.41.71,3.27,2.06,4.34,3.06l.61.03c.16,0,.37.36.5.54,1.34-.02,5.49,1.78,5.83,1.78l2.82.03c2.59.02,5.15-.42,7.62-.86.14.08.46.26.52.16l.31-.51,3.37-1.26c.16-.06.7.22.81.11s.33-.47.47-.54l1.67-.78c.55-.26.96-.49,1.44-.83l1.87-1.37c1.38-1.01,1.65-.96,2.76-1.92l1.2-1.03c1.42-1.22,3.39-4.55,3.58-6.69l1.24-.93c.37-.28,1.44.13,1.69.53.77,1.24-.37,3.16-.74,3.88-.66,1.31-1.35,2.63-2.11,3.73.02.62.02,1.57-.09,2.07-.91,3.94,1.16,2.62-.04,5.49l.74.76-.25.22c-.06.05.25.21.34.27.3,1.01.78,1.77,1.39,2.66,1.12,1.63,2.28,3.34,4.21,4.17,1.72.74,3.55,1.07,5.42,1.14l1.99.08c1.45.06,2.99.33,4.3-.07,2.2-.68-.1.92,3.89-.91.51-.23,1.3-.19,1.75-.14.35-.45.95-.68,1.57-.47.23.08.42.17.41.1l-.08-.47,9.8-3.72c.31-.12.83-.22,1.03-.38.58-.45,1.57-.41,2.38-.69l3.57-1.2c.22-.07.89.13,1.09.13l-.44.93.78.61-.66-.02c-.15,0-.04.61.1.65.38.13.82-.67.88-1.06l1.16-1.4,1.46.47s-.11.17-.24.38l.51.53c.12.12-.18.43-.29.62l-.86,1.45-1.69,1.65c-.52,1.16-2.28,4.3-2.84,5.16-1.46,2.21-2.86,7.16-2.09,9.51l.77,2.37.83,1.09,1.56,2.31c.46.69,1.47,1.57,2.15,2.02l3.55,2.37c4,2.67,9.98,2.49,14.35,1.11,1.61-.51,3.15-1.07,4.77-.92l.83,1.02-.77,2.23-.92.54c-.46,1.06-1.12,2.27-2.1,2.84l-2.08,1.21c-.36-.05-.52-.13-.17.45l-1.95,2.43-.96,2.72-1.45,3.58c-.4.98-.76,1.98-.99,3.04l-1.19,5.54c-.09.42-.1,1.31-.07,1.76l.28,5.07c.06,1.18.97,4.48,1.36,5.29l1.84,3.86c.27.56.89,1.48,1.31,1.98l4.77,5.77,1.48,1.42c2.59,2.48.57.55,4.08,2.9,4,2.68,2.42.62,6.5,1.33.72.12,1.43.38,1.8,1.05.3.53.22,1.34.21,2.02,0,.57-.41.95-1.08,1.51-.41.34-1.35-.31-1.73-.71l-1.04-.07c-.74-.05-1.44-.08-2.19-.09l-2.32-.02h-2.31c-1.17-.01-2.23-.04-3.3.32l-3.25,1.1c-3,1.01-3.18,1.61-5.13,2.53-.96.45-2.04.86-2.96,1.45-.7.46-1.81,1.24-2.36,1.83-1.89,2.07-5.79,6.92-6.71,9.33s-2.28,9.43-1.71,11.91l.74,3.26c.74,3.25,1.7,5.47,3.18,8.41.48.96.92,1.94,1.48,2.83l1.34,2.13c-1.28,2.47.72,2.26-.63,3.52-.26.25-1.08.09-1.3-.29l-1.32-2.27c-.17-.3-3.83-4.38-2.94-3.9l-.38-.21-1.24-1.1c-.3-.27-.85-.84-1.11-1.13-.18-.75-.49-1.22-1.18-1.66l-1.55-1-3.09-1.57c-2.44-1.24-5.5-1.15-8.46-.12-.6.21-1.25.33-1.82.63-2.99,1.53-2.73,2.6-4.47,3.3l.21.32-1.54,2.34c-.22.34-.6,1.14-.75,1.53l-1.17,3.19c-1.24,3.39-.73,7.04-.06,10.51.19,1,.16,2.08-.1,3.03-.36.27-2.16-.63-2.81-1.53l-2.21-3.09c-.4-.56-.62-1.01-.91-1.69-.69-1.63-2.5-3.03-4.22-3.48-1.46-.39-2.63-1.54-3.87-1.79l-3.34-.66c-1.18-.23-2.17,0-3.28.17-2.31.33-4.29.64-6.26,2.1-.35.26-3.66,2.58-3.92,2.01l.21.45c-2.53,2.33-3.18,3.75-4.6,6.84-.97,2.11-1.55,4.4-1,6.66-.46.44-.75,1.23-.39,1.65.23.26.54.55.47.71l-.37.96c.05.05.35.31.44.4.12.1-.1.46-.14.62l.67.5c.15.11.04.5.03.76l-.08,1.58c-.02.44-1.1.69-1.42.41l-.52-.47c-.12-.11.24-.49.4-.7-.2-.09-1.13-.39-1.25-.73l-.82-2.3c-.6-.77-1.1-1.53-1.25-2.42l-.53.02c-.14,0-.13-.46-.16-.58-.54-.54-.99-1.24-1.5-1.85l-1.36-1.62-2.2-2.63c-.36-.43-1.18-.9-1.56-1.29l-2.23-2.33c.23-.16.06-.04-.16.11l-4.17-2.39ZM44.12,46.19l-3.53-.53c-.46-.07-1.05-.55-1.38-.85,1.96,3.51.51-.39,2.63,3.83,1.51,3,.83,3.29,2.11,3.38l3.14.23c1.89.14,3.75.27,5.63-.09,3-.58,6.17-1.12,8.93-2.27.42-.17,1.33-.72,1.53-.4l.71,1.1,2.73-.71,2.51-.76,3.67-1.13,5.14-1.62,1.88-.65,4.47-1.62,9.31-3.81c2.93-1.2,4.01-1.66,6.85-3.24l9.37-5.23c.64-.36,1.01-.71,1.96-.5,0-.31-.11-.81.09-.94l.83-.53c.51-.33,1.01-.54,1.52-.78.63-.29,1.47-1.19,2.2-1.4s.69-.27,1.12-.84c.65-.84,1.73-1.55,2.63-2.18l1.84-1.3.75-1.3c-.4-.21-5.14-3.41-3.8-4.08l-2.23-1.41c-1.66-1.05-1.61-3.14-3.09-4.68l-.47-2.28c-.34-.5-.45-.62-.65-1.51-.53.41-.78,1.25-.53,2.06-.43.85-1.07,1.8-1.37,2.6-.7,1.89-1.25,2.49-1.86,3.84-.35.77-.65,1.29-1.1,2.04l-1.34,2.23c-.39.64-.96,1.11-1.49,1.92-.45.69-1.32,1.47-2.06,2.02-2.16,1.62-2.37.58-3.38,1.86-.39.49-1.06.83-1.68.92l-3.27.48c-.16-.44-.19-.45-.27.06-5.18.75-8.38.28-13.33-1.84-.79-.34-1.5-.7-2.23-1.27l-1.2-.39c-2.84-.91-.99-1.17-3.91-2.79.33,1.27-.69,4.26-.03,4.05l-.58.18.35.78c.09.19-.38.51-.52.74l-.7,1.15c-.05.08-.5.19-.62.2-.06,0,.19.12.21.18l.08.19-1.27,2.49c-.91,1.77-1.57,2.37-1.84,3.21-.61,1.92-2.31,3.24-3.65,4.43-.25.35-.65.98-1.05,1.27l-2.16,1.57c-.68.49-1.64.89-2.39,1.36-.43.27-1.03.8-1.5.93l-7.35,1.95c-.63.17-1.58-.15-2.19-.17-1.37-.05-2.75.05-4.15-.16ZM221.28,58.25c-.67-.11-1.35-.05-2.02.06-.96.16-1.88.16-2.83.18-4.52.14-6.64-1.17-10.02-3.14-1.1-.64-5.58-3.43-5.34-4.83-.76-.51-1.33-1.58-1.43-2.59-1.86-1.4-.68-1.1-2.12-3.05-.21-2.28-.83-5.41-.11-7.55l1.07-3.17c.83-.3,2.14-5.26,2.69-5.74l-2.02.47-4.54,1.34-6.04,1.73c-1.27.36-2.84.59-3.89,1.29-.59.39-.61.99-1.65.61-1.13-.42-1.46,1.35-6.64.99l-7.08-.48c-.76-.05-1.52-.28-2.22-.42.16-.55.18-.87-.34-.17l-1.29-.41c-1.81-.58-2.82-1.7-3.88-3.13-.84-1.14-2.77-3.04-2.41-3.83-.15-.17-.6-.7-.68-1.01l-1.09-4.08c-.13-.49-.01-1.11-.02-1.63l-.03-3.31c-.54,1.66-3.67,3.41-5.03,3.98-.57.64-1.35,1.11-2.18,1.47l-2.19.97c-1.82.8-1.84,1.3-4.74,1.55l-1.27.11c1.39,1.69,5.53,6.09,6.76,7.08l2.85,2.29,5.7,4.12,5.27,3.58,1.83,1.3c1.3.92,2.56,1.75,3.92,2.56l5.1,3.02,3.85,2.12,1.71,1.05,5.31,2.67c1.69.85,3.36,1.54,4.95,2.54l1.21.76c.93.43,2.33.81,3.3,1.46.46.31.91.42,1.37.62l3.83,1.7c.4.18,1.05.7,1.55.79,3.31.57,3.14,1.1,5.98,2.02l1.55.51c1.55.51,3.11,1.03,4.71,1.4.92.21,1.77.31,2.58.88l2.45-5.11c.75-1.56,2.21-2.27,3.55-3.56ZM50.1,138.17l.13,8.25c0,.12.22.47.26.41l.23-.29c.35-.45.93-1.22,1.43-1.39,1.3.22,2.55.33,3.82.32l3.39-.04c-.31-.49-.55-.84-.7-1.16-.11-.23.29-.79.3-1.05.09-2.99-1.13-.31.47-5.4.11-.34-.08-.98.21-1.15,1.37-.82,1.09.78,2.94.41.56-.11,1.28.04,1.76.03l4.11-.1c.63-.02,1.26.25,1.77.72,1.75-1.13,4.45-1.4,5.95-.57.3-.85,1.32-.33,1.84-.37l2.42-.18,3.2-.15,1.16-.04,3.95-.02,1.66.08,1.37-.07c1.39-.07,2.77-.08,4.14.02l.96.08,1.22-.08c1.4-.1,2.62-.44,3.84-.03.45-2.54.7-4.79.92-7.14l.19-2.08.2-1.9.4-4.39c.2-2.24.49-4.43.8-6.66.77-.08.89-.15.02-.31.1-1.84.34-3.64.7-5.5l.43-2.25.46-2.26c.49-2.42.35-6.31,1.36-7.78.72-1.06,2.3-.5,3.2-.43.37-.15,1-.34,1.48-.35l3.78-.06,1.79-.07,1.82-.1c.81-.04,1.63.04,2.4.07l2.06.08c.4.02.98-.32,1.6-.24.77.11,1.74.08,2.06-.34-.42-.9-.16-1.43-.15-2.26l.08-3.2c.02-.96-.03-1.95.07-2.92.04-.37.04-.61.05-.94l.02-1.97c0-.58.14-1.24.31-1.69-.22-.98-.35-2.08-.28-3.06l.19-3.04.26-2.22.08-1.59c.05-1.07.1-2.12-.34-2.92-.3.36-.57.71-.76.83l-2.69,1.63c-.13-.09-.34-.25-.35-.18l-.04.42-1.63,1.03c-.27.17-.96.33-1.28.13-.46-.29.02-1.66-.02-1.74l-.36-.68,3.37-2.5,1.85-1.38c.36-.27.97-.99,1.31-1.34l2.54-2.52c.24-.24.79-.34,1.12-.27.7-2.38,1.38-5.22,4.27-5.35,3.05-.14,5.08,3.64,5.03,4.5l-.06,1.32c-.08,1.62-.72,3.3-2.36,3.7-4.44,1.07-2.05-1.11-5.95.3-.29.1-.67.2-.86.31-.16.09-.22.64-.19.83l.44,3.27.57,3.29c.09.52,0,1.16-.07,1.53.14.34.43.99.47,1.43l.25,2.65c.08.82.18,1.61.02,2.31l.45,1.71-.52.02c.8-.04.94,7.47,1.09,8.15l.61,2.86c.88-.44,2.02-.46,3.08-.52l4.08-.23,5.64-.03c5.86-.03,2.9,1.29,7.94.75.37-.04,1.08.03,1.55.02l2.31-.02.02-.3c0-.06.57.11.59.16l1.7,4.08c.2.47.05.98-.16,1.33,1.18,1.29,1.01,3.31,1.53,4.63.98,2.45,1.58,4.66,2.17,7.16.38,1.59,1.68,3.99,1.51,6.07.14.07.35.31.38.46l2.36,9.65c.22.91.35,1.22,1.01,1.96.61.69.71,2.15.97,3.05l.77,2.62,1.54,5.8-.27.31s.26.31.28.44l1.72,7.56c.21.92.29,1.36.66,2.17l1.32-1.84c.27.26.6.57.3.08.53-.92.9-1.38,1.39-1.78.03-.26.22-.76.45-.95l2.46-1.94c.54-.43,1.39-.72,2.03-1.02,3.26-1.53,7.79-2.44,11.05-.92.1.25.13.39.2.35.05-.02.22-.12.25-.13.27.18.66.35.96.24,2.17.56,2.51.91,4.32,2.23.17.12,1.25,1.46,1.35,1.31l.31-.47c-.83-1.74-1.26-3.39-1.58-5.3l-.55-3.28c-.01-.07.55-.37.55-.36,0,0-.07-.16-.1-.22s-.29-.12-.31-.19c-.4-1.26-.04-3.69.26-5.18l.76-3.7c.79-3.82,2.64-5.65,4.84-8.75l1.25-1.76c.29-.41.64-.65,1.31-1.14.44.36.28.17-.07-.23,1.93-1.83,2.8-3.03,5.81-3.65l-.25-.44c1.53-.71,2.89-1.23,4.19-2,.67-.4,1.17-.78,1.9-1.06l2.4-.93c1.22-.47,2.61-.76,3.81-.49l.58-.46c-2.63-1.42-4.4-3.71-6.34-6.02l-2.41-2.87c-.96-1.14-1.83-2.36-2.62-3.64-.61-.99-.82-2.12-1.21-3.13l-1.2-3.16c-.54-1.42-.92-2.91-.9-4.42l.05-4.97c.01-1.34.32-2.79.47-4.21-.42.56-.95,1.08-1.44,1.44-.1.31-.33.82-.6,1.21l-3.17,4.5-2.85,3.6-3.77,4.71c-.09.15-.14.25-.2.2l-.37-.34c-.04.57-.15,1.42-.52,1.82l-1.56,1.68c-.44.48-.92.98-1.54,1.33l-.63.35c.28-.16-2.33-1.07-2.15-4.47l.13-2.4c.03-.51-.13-1.21-.1-1.77l.05-1.14-.18-3.24c-.11-2.04.03-4.02.21-6.04l.18-2c-.16-.89-.16-4.92.72-4.9-.07,0-.38-.26-.38-.33l.09-2.06-.05-1.62c-.85.49-1.55,1.06-2.33,1.71l-3.01,2.48-3.52,3.23c-.33.3-.96.85-1.31,1.01l-1.33.62c.1.35.14.5.08.36l-1.31,1.32c-.7.55-1.3,1.06-1.93,1.68l-3.61,3.56c-.9.89-1.95,1.81-2.98,2.56-1.66.71-3.24-5.21-1.49-5.24-1.1-.43-.51-1.49-.56-2.4-.05-.96-.03-1.88.45-2.59l-.31-1.56c-.21-1.06-.06-4.6,0-5.82l.16-2.88c.06-1.13.1-2.15.23-3.17l.28-2.22c.2-1.53-.23-2.75.37-4.46-.47-1.09-1.87,1.49-4.09,1.93.15.18.33.34.24.39l-.39.22-2.33,1.44-2.2,1.42-3.41,2.08-5.24,3.44-3.27,2.26c-.42.29-1.6-.73-1.45-1.25l.99-3.62c.13-.46.54-.96.8-1.09-.13-.2-.24-.36-.28-.51s.25-.59.38-.5l.57.38-.51-1.01c.11-.68.37-1.91.57-2.65l.82-3c.41-.02.71-.05.09-.29-.07-.95.19-1.65,1.08-1.79l-.49-.43c-.07-.06.06-.45.14-.42l.45.18c.07-.41.73-.88,1.21-.68-.04,1.01-.59,2.04-.74,2.87l-.83,4.59c-.02.11-.77.38-.66.37s.5.41.47.52l-.77,3.02c-.42.22-.66.27-.56.4l.5.68c1.11-.54,2.25-1.35,3.35-2.23,3.11-2.46,1.55-.74,3.08-1.96,1.65-1.31,3.48-2.27,5.19-3.45l2.43-1.67,3.37-2.62c.37-.29.72-.68,1.08-1.09l-3.9-2.39c-.87-.54-1.88-.94-2.73-1.58l-4.46-3.37-1.25-.85c-1.18.96-2.6,2-4,2.72l-5.4,2.78-2.75,1.59-3.71,1.98c-.55.29-1.15.54-1.63.77l-1.86.86-2.21,1.07c-.92.45-2.04.91-3.04,1.24l-2.24-.5c-.44-.53.1-1.95.69-2.36-.45-.08.88-5.77,1.32-5.3l.33.36-.2-2.58c.63-.68.62-1.18.79-1.96.21-.95.46-1.86.75-2.87l.98-3.43c.03-.1.45-.39.52-.32s-.35-.45-.32-.55l1.77-5.43c.41-1.25.87-2.1,1.15-3.38.11-.51.45-.84,1.05-1.24l-.18-.17c-.74-.3-1.48-.48-2.28-.36-1.96.28-.01-.44-1.86.15-.19-.12-.35-.31-.48-.28-.1.03-.49.49-.6.48l-5.07-.23c-.57-.03-2.87-.88-2.6-1.29l-.27.4-.99-.46c-.71-.02-1.34-.37-1.63-.88-.1.2-.84.79-.91,1.08-.35,1.49-.25,4.73-.36,4.78l-.48.18.57.48c.08.07-.36.42-.44.36-.68-.42-1.75-1.83-1.49-2.71l.23-.79c.05-.16-.47-.46-.61-.31-.8.86-2.14,1.99-3.25,2.64-2.33,1.37-4.41,2.72-6.64,4.2-.3.2-.99.46-1.19.7-.28.34-.63.73-1.01.92l-4.54,2.29,1.42,1.64c.54.63,1.22,1.43,1.8,1.99l4.26,4.08,2.61,2.44,1.78,1.59,2.33,2.22c.8.76,1.53,1.38,2.5,2.13.6-2.61-.76-2.67.64-3.3-.08-.05-.66-.32-.62-.53l.18-.88c-.09-.61-.19-1.41-.18-2.1v-1.94c.02-.18-.16-.62-.02-.69l.66-.31c-.3-.17-.77-.44-.74-.72.03-.25.27-.83.27-1.07v-1.99s0-.86,0-.86c.03-1.82.04-3.55-.06-5.41l-.12-2.2c-.01-.19.16-.74.32-.78l.55-.12c.32-.07.87-.07,1.08.13.54.53.18,1.49.23,3.66l.13,5.57c.01.53-.5,1.09-.91,1.39l.96.14-.36.56c-.05.08.22.39.22.5l.09,4.05c0,.16-.54.55-.43.66,1.09,1.02.43,2.02.52,3.29.06.92.16,1.7-.04,2.53-.43,1.79,1.06,4.1.18,4.43l-2.13.78c-1.37-.96-2.45-1.98-3.61-3.16-.52-.53-1.14-.99-1.65-1.5l-4.47-4.44c-1.44-1.43-2.81-2.67-4.1-4.28-1.09-1.36-2.32-2.22-3.22-3.45-.16,2.39.16,5.09.2,7.71,0,0-.81.54-.49.52l.48-.03.48,5.94c.17,2.04-.27,7.71-.89,9.49.02.34.02.98-.04,1.36l-.21,1.28c-.07.4-.28,1.13-.64,1.23-.3.09-.9-.2-1.2-.36l-.48-.25c.62.32-.56-.65-.43-1.52l.15-.94c.03-.19-.68-.31-.81-.47l-2.68-3.23-.08-.6c.09.67-1.47-1.73-2.47-2.41s-1.56-1.57-2.36-2.33c-.49-.47-1.1-.94-1.65-1.66-.25-.32-.66-.84-.91-1.09l-1.31-1.36c.4-.45.32-.36-.05.06l-3.32-3.33c.36-.24.71-.49.78-.7s-.37-.64-.42-.58c-.01.45,0,.72-.14.74-1.01.09-.31-.21-1.19-.24l.47,1.88c-.35.91-.26,1.56-.19,2.38.2,2.39-.13,4.6-.43,6.9l-.33,2.53c-.08.57-.34,1.27-.44,1.82l-.23,1.14c.04.47.12,1.2,0,1.73l-.55,2.57c-.14.45-1.52.63-1.07,1.52l.47-.45.63,2.43c-.44.51-1.19,1.03-1.69,1.06-.85.05-1.26-.27-1.81-.85-.88-.94-2.18-1.71-2.97-2.87-.31-.45-3.47-2.86-4.69-4.2l-1.2-1.32c-.57-.63-1.27-1.29-1.59-2.15-.07-.2-.6-.36-.74-.51-.85-.86-2.08-2.29-2.67-3.37-.34-.62-.37-1.03-.93-1.38.08-.07.57-.22.52-.42-.06-.25-.22-.88-.19-.77-.71.22-1.16.33-1.68.43l-.14,1.8c-.05.6.05,1.49.01,2.17l-.09,1.61c-.29,4.99.49,10.54-2.01,14.94l.38.76-2.4.55-4.72-4.99c.16-.62.09-.62-.28-.16l-1.86-1.74-2.18-2.11-1.4-1.2-2.41-2.24c-1.26-1.18-3.12-3.09-4.14-4.19-.08-.09.17-.64.08-.68-.11-.05-.27-.18-.31-.08-.03.07-.21.29-.24.32l-.44-.63c-.09-.12-.51.3-.61.43l-1.28,1.77-1.31,1.5c-.9,1.03-1.6,1.94-2.62,2.71-2.32,1.76-4.72,3.38-7.63,3.95-.51.1-.87.28-1.43.51-1.38.57-3.11.44-4.61.69-2.18.37-4.67.6-7.02.48l2.36,1.89c.27.22.94.53,1.31.72l.53.28c.09.05-.26.37-.26.38l1.3,1.19c1.89,1.72,3.28,3.02,4.72,5.38,2.52,4.12,1.88,2.62,3.25,7.21.11.39.05,1.02.09,1.33.18.43.37,1.03.36,1.43-.44-.48-.52-.56-.34-.15,1.53,3.1-.96,9.49-2.31,12.45-.6,1.31-1.91,3.19-2.76,4.28l-1.89,2.41c-.41.52-.93.92-1.33,1.14-.56,1.62-2.58,2.02-3.38,3.58,4.29.8,1.48-.55,6.65.5,1.2.24,2.13.72,3.13,1.38s1,.14,3.54,2.16c1.03.82,2.01,1.61,2.78,2.68l1.25,1.73c1.26,1.74,1.84,3.15,2.37,5.28.23.91.66,1.85.82,2.74.53,2.95.31,5.78.02,8.73-.17,1.81-.84,3.44-1.68,5.08-1.68,3.32-.65,2.31-2.16,5.18-.44.84-.86,1.55-1.47,2.22.08.05.44.28.59.19.12-.07.43-.35.58-.42l2.61-1.18c1.8-.81,3.62-1.32,5.47-2.03.61-.23,1.24-.31,1.89-.39l3.08-.37c-.2-3.3-.21-6.63-.2-9.98v-3.3s.01-2.41.01-2.41c0-2.04-.58-5.37-.53-8.56l.1-6.63c.01-.91-.12-1.74-.14-2.63l-.09-4.89c0-.43-1.07-.55-1.55-.42-.45.13-1.04-.13-1.47-.22l-1.34-.29-1.47.75c-2.82-.29-5.32.59-7.6-.53-.33.15-1.13.42-1.41.2l-1.18-.91.07.83c.01.12-1.58.3-1.97-.62-.74.84-2.25.44-3.01-.33-.43-.44-.15-1.42.13-1.89l1.78-.14c2.07-.16,4.61-.17,6.82.06l-.13-3.19-.06-1.33c-.06-1.35-.07-2.65.38-3.8-1.58.31-2.61-.45-2.85-1.51l-.58.3c-.08.04-.25-.34-.18-.39l.34-.21c-.61-.61-.54-1.36-.36-2.16.42-1.82,1.76-2.64,3.63-2.63h3.17c.52.02.95.05,1.42,0,1.74-.17,3.45-.15,5.18-.23.89-.04,2.06-.44,2.65.65-.14,3.12-.41.95-.45,4.32l-.02,1.65-.02,2.11.06,3.26-.6,2.51,3.82-.06c-.58-1.49-.91-5.07-.27-6.12,2.67.38,7.36-.04,9.75-.53-3.37-.82-6.5.26-9.62-1.63-.02-.38.36-1.26.62-1.41l1.7.29c.45.08,1.23.41,1.65.33,1.22-.23,3.37.03,3.9.53.13-.21.29-.53.39-.48l.45.21c1.19-.61,1.17.35,2.07-.07-.82-.28-1.58-.7-2.08-1.2-.31-.08-.91-.24-1.24-.43l-2.3-1.33-1.34-.83c-.32-.2-.9-.43-1.12-.72-.31-.41-.23-1.2.25-1.45,2.38.63,3.92,1.57,5.92,2.57l2.59,1.3c1.57.79,2.94,1.63,4.51,2.52l2.08,1.18c.74.42.93,1.1.97,1.92.09,2.14-.27-.39.13,2.72.11.84.17,1.51.01,2.32l1.38.13,1.56.83-.69,2.35c-.13.45-1.3.54-1.78.53l-2.59-.04-1.65-.06-2.42.06-3.38.08-1.85.04c-.62.01-1.27-.02-1.96-.04-.38-.01-.9.08-1.28.09l-3.19.07-2.17.2c.26.31.28.95.33,1.49l.44,4.59c.06.68-.05,1.62-.08,2.16.25,1.52.37,3.27.19,4.92-.14,1.29.05,2.81.16,4.18l.53,6.99.11,2.88ZM144.61,47.76l9.37-5.32,3.02-1.83-1.43-.95-5.38-4.16c-.53-.41-3.77-2.79-2.9-3.29-.08.05-.51.13-.59.07l-1.63-1.36c-.16-.13-.39-.52-.27-.65l.42-.45c-1.45-.06-2.16-1.03-2.67-2.21l-1.12,3.12-.93,3.03-.54,1.71c-.26.84-.52,1.71-.93,2.51l-.12,1.57c-.85,2.93-1.47,5.72-2.21,8.66l-.99,3.93,3.28-1.45c1.92-.85,3.7-1.86,5.61-2.94ZM98.89,57.69l2.7,2.97,1.33,1.47c1.08-3.58.09-5.39.6-8.47-.05-.16-.29-.55-.21-.68l.27-.51c-.37-.53-.58-1.23-.53-1.88l.14-1.7c-.32-1.17-.3-2.39-.35-3.52l-.18-4.04-.18-2.59-1.17.94c-.73.59-1.63,1-2.48,1.26-.64-.58-.64-.36-.32.25l-1.24.45c-.51.18-.87.29-1.39.51l-8.99,3.86c.92.61,1.43,1.2,2.05,1.84l3.44,3.57,2.47,2.36,1.2,1.27,1.63,1.4,1.21,1.25ZM79.34,67.68l2.91,2.43,1.06-1.45-.86.35.39-2.86.25-2.73.25-2.29.23-2.13.25-1.44c.1-.55.04-1.24.04-1.81l-.05-3.47c-.01-.94-.27-2.09-.14-2.97.13-.93.26-1.65.06-2.35-2.67,1.28-5.32,1.49-7.99,2.5l-2.86,1.07-5,1.32c-1.08.29-2.03.46-3.27.66l.23,1.79c1.32-.99,2.91,1.58,2.81,2.26.08-.03.57-.1.72.02.12.1.27.43.3.58l.13.6c.02.1.61-.09.67-.02l3.16,3.66c.65.76,1.39,1.49,2.08,2.13l2.91,2.68,1.71,1.46ZM175.83,79.55c3.38-3.03,6.24-6.2,9.55-9.09l2.06-1.79,2.27-2.08c.85-.78,1.8-1.41,2.67-2.11l2.47-2.01-5.91-2.99-4.94-2.64c-1.18-.63-2.6-.97-3.63-2.1-.44-.16-1.17-.42-1.63-.65l-3.81-1.91c.13,2.1-.43,4.18-.61,6.13l-.31,3.34-.4,4.65c-.17,1.96-.64,2.94-.12,4.09l.09,1.96-.02,2.19c.12.69.21,1.45.21,2.01l-.59.05c-.05,0-.03.09,0,.13.04.04.41.45.41.5l-.15,4.47,2.39-2.14ZM49.94,64.63l1.8,1.7c1.12,1.05,2.41,1.87,3.62,2.97l1.88,1.69c1.16,1.04,2.14,2.1,3.32,3.42.2-1.16.81-2.4.85-3.32l.24-4.96c.15-3.14,0-4,.12-6.77,0-.14.41-.52.35-.64s-.19-.38-.28-.54l.29-5.04c-2.21-.13-4.84.97-6.64,1.21-2.42.32-4.17.64-6.42.39l-5.54-.62-.4.49c-.06.08.21.22.31.32l-.63,3.89,1.66,1.01c.17.52.35.54.84.84,1.37.84,2.43,2,3.62,3.1,1.12,1.03.11,2.04,1,.87ZM136.34,63.8c1.16-.34,2.44-2.11,1.44-2.78l-1.62-1.08c-.52-.34-3.01.67-2.97,1.3l.15,2.26c1,.32,1.98.59,3,.29ZM198.63,90.07l2.81-3.57,2.82-3.62c.54-.7,1.06-1.51,1.56-2.25,1.55-2.29,5.22-7.29,7-9.09.67-.68,1.22-.98,1.88-2.08-.22-.35-2.59-.86-2.65-1.13l-.08-.35c-.96.68-5.05-.85-5.33-1.03-.64-.4-1.02-.38-1.66-.61l-7.8-2.85-.39,1.24c-.5,1.59.16,3.4.07,5.09l-.1,1.92-.31,6.05v1.9c0,.57-.25,1.23-.45,1.55.91.15.54,6.14.62,6.08l-.4.33c.67,1.45.65,3,.51,4.67l1.34-.75c-.04-.56.15-.96.57-1.5ZM129.52,95.45c.54-.31.84-.43,1.08-.44l1.34-.04c-.86-.7-1.02-1.78-1.1-2.95l-.36-5.85-.43-4.64c-.44-.55-.32,3.89-.34,3.55l.18,2.33c.18,2.41-.1,6.06-.37,8.04ZM41.73,101.25c.39.8.26.94.08,1.26.58.92.8,3.25.4,4.29.29.26,1.15.37,1.76.32l.13-2.01c.08-1.3.44-2.66.45-3.97.01-1.49.17-2.83.34-4.28l.28-2.36-1.91-.14c-.4-.03-.69.01-1.16.05-3.17.26-3.76-.31-6.57-.02l.25,4.36c.08,1.39.18,2.84.21,4.19-.47-.11.39,3.78.26,4.65h1.33c.07-.46.07-1.02.01-1.58l-.33-3.29,1.14-.22c-.27,1.02,1.18,4.89,1.28,4.92.24.06.87,0,1.2-.05l.1-3.82c.02-.81.37-1.65.74-2.31ZM33.69,98.04c.13-.9.12-2.11-.19-3.27-.58.08-1.2.34-1.49.62-.24.23-.3,1.18-.06,1.4l1.73,1.25ZM118.35,146.7c1.19.1,2.02.54,2.88,1.41l-.56.43c.42.6.32,1.37.05,2.05.12.43.57,1.35.42,1.76-.09.25-.48.58-.43.79l.24,1c.02.1-.1.46-.1.57s.32.19.47.25c.1.04.06-.17.07-.58.67-.04,1.44-.04,2.02.05-.57.5-.59.55.03.48l.42-.59c.1-.14.57.06.77.05l6.22-.22c.73-.03,1.61.09,2.42.29-.07,1.13-.3,2-.58,2.97l-.68,2.27c-.24.8-.31,1.84-.49,2.65-.28.41-.57.72-.59,1.01s.3,1.02.57,1.01l9.87-.27c.54-.14,1.15-1.17,1.55-1.49,2.51-2.05,5.09-3.94,8.06-5.22.7-.3,2.06-.27,2.59-.85-.44-.63-.46-.97-.39-1.62l.63-5.36.24-2.51c.06-.68.34-1.51.5-1.99-.12-.84-.05-1.79,0-2.64l.27-4.45c.12-2,.02-3.99,0-5.98v-1.98s.45-8.38.45-8.38l.31-4.4c.14-2.03-.22-3.55.49-4.28-.27-.37-.41-.89-.38-1.51.19-3.79.23-7.49.77-11.36.12-.83.83-2.09-.25-2.75-.44.07-1.05.1-1.52.09l-3.69-.06-2.12-.09-5.59-.1-4.29.23c-.08,0-.27-.49-.31-.56-.04-.06-.09-.08-.14-.01-.05.06-.19.55-.27.55l-2.84.07c-1.24.03-6.96.14-7.65.22-1.01.12-1.93.14-2.61-.2-.51.97-6.36.09-6.43-.06-.02.47-.89.08-1.18.17-.99.28-2.01.52-3.33.06-.2.08-.81.34-1.06.3-.22-.04-.52-.25-.69-.35-1.57.91-1.55.14-3.56.62.17,5.25-1.2,9.8-1.58,14.59l-.3,3.75c-.07.86-.22,1.72-.4,2.45,0,.36-.02.89-.06,1.37l-.36,4.22-.34,3.11c-.07.63-.07,1.45-.07,2.11,0,3.48-.57,3.14-.63,6.28l3.2.61c.47.09,1.17-.16,1.78.11l1.35-.08c.16-1.08.67-1.41,1.46-2.01.25-.19.61-.75.87-.91,1.04-.68,3.58,1.71,4.06,2.66-.02,2.71-.22,2.22-1.02,4.23l2.08,2.29c.1.11.49.2.52.34.15.89.5,2.06-.19,2.15-1.22.17-2.34-.75-2.61-1.82l-1.64-1.44c-.35-.31-.74-.55-1.21-.69l-.34,2.71c-.09.72-.18,1.03-.69,2.12l3.06.15,2.51.22ZM173.4,161.63c-1.2-2.35.62-.71-.4-5.93l-.79-4.08c-.23-1.18-.2-2.68-.47-3.72-.33-1.26-.66-2.41-.93-3.68l-.46-2.16c-.51-2.38-1.05-2.59-.63-3.54-.65-1.7-2.13-5.31-2.39-7.31-.06-.45-.18-.76-.3-1.2l-2.72-10.45c-.07-.25-.25-.92-.03-.99l.85-.26-1.16-.35c-.22-.58-.5-1.32-.67-1.94l-1.04-3.68-1.36-4.8-1.95-6.55-.22,2.84-.24,4.49c-.03.62-.08,1.17-.1,1.81l-.21,6.17c-.1,2.85-.06,5.63-.48,8.48-.09.61,0,1.09-.02,1.67l-.09,3.21c-.04,1.62.02,3.13,0,4.77s-.23,3.29-.21,4.71c.02,1.77-.09,3.36-.25,5.1l-.28,3.12-.41,3.84c1.19,0,2.52.06,3.62.4s.92,1.56.38,2.32c-.35.49-.43,1.11-.54,1.68l-.13.68c-.03.15.53.14.69.17,1.36.23,2.44.69,3.69,1.08l2.75.86c2.38.75,4.7,1.82,6.07,4.13l.43-.87ZM66.57,105.26l-7.38.19-7.48.35c-.27-.14-.42-1.02-.23-1.24.16-.19.66-.36.95-.38l3.04-.3c.99-.1,2.05-.16,3.02-.31,1.82-.29,3.57-.66,5.49-.56l2.06.1c.21.01.69-.16.68-.34l-.06-.77c-2.58.05-5.21.12-7.83.42l-1.75.2-2.93.3-3.25.27c-1.02.09-.23,2.85-.1,3.18.12.3.87.53,1.21.52l7.33-.16,3.44-.04,3.85-.06-.07-1.35ZM115.1,138.98c.44-.24,1.01-1.07,1.3-1.58l-1.31-1.04-.88,1.17c-.15.2-.18.92-.14,1.16s.8.41,1.02.29ZM67.88,142.02l-.75-1.45c.59,0,1.27.37,1.57.89.2.35.17,1.09.15,1.58l-.1,2.2,2.46.12.23-5.68-2.59.03-.47,1.27c-.76-2.26-2.77-.72-2.67-1.51l.08-.59-.82.81c-.2.2-.97-.33-1.13-.45-.1.07-.37.35-.52.32l-.63-.14-1.09-.24c.19.91-.1,2.12-.72,2.73,1.64.29.96,2.4.98,3.57l2.27-.08,2.85-.1c-.09-3.22,1.37-2.39.9-3.3ZM109.95,146.18c.24-.1.73-.76.74-1.03l.11-2.22c.05-1.02.3-1.93.21-2.87-1.44-.73-2.99-.81-4.27-.42.65.95.35,2.02.38,2.9.05,1.25.21,2.12-.84,3.47.54.34,3.54.22,3.67.17ZM99.3,145.64c.03-.99.02-2.08.09-2.91l.25-3.02-2.67-.03-2.13-.03c-.56.1-1.27.19-2.01.18l-3.44-.03h-1.98s-1.83-.15-1.83-.15h-3.18s-4.12.04-4.12.04l-4.15-.02h-1.2s.27,5.74.27,5.74h6.21s4.56.1,4.56.1l1.22.1,2.08-.1c1.25-.06,2.2.08,3.42-.04,1.06-.1,2.25.11,3.38.12l.43.4c.36.33,1.45-.8,3.09-.2l1.72-.14ZM100.85,145.63l3.56.25c.34-1.56.44-3.85.47-5.16,0-.25.65-.81.48-.92-.14-.09-.55-.32-.72-.33l-2.24-.03c-.83,1.45.36,1.79.08,3.7l-.64,1.29-1,1.2ZM117.02,158.83c.68-1.93.98-3.91,1.27-6.02.12-.9.71-2.23-.29-3.02-1.16-.59-1.72.51-2.65-.72-.18.49-1.2.79-1.77.67-.39-.08-.79-.35-1.14-.7-.34.08-1.01.23-.42.53-.64.23-1.4-.06-2.08-.11-1.48-.1-2.94,0-4.49.02l-1.01-.48c-.58.67-1.37-.24-1.81-.12-.53.14-1.33.35-1.97.33l-6.29-.24-5.26-.12c-1.81-.04-1.98.21-3.83.14l.2-.64c.03-.09-.31-.18-.34-.09l-.16.46-.13.37c-.02.06-.25,0-.23-.07l.15-.42c-1.26.1-2.54.14-3.94.14h-1.96s-3.23.05-3.23.05c-.82.01-1.62-.08-2.4-.1l-3.95-.15-1.98.06-2.9-.03-3.42-.12c-1.93-.07-3.8-.07-5.69-.36-.64-.1-1.38-.1-2.03-.09.2,1.94.46,3.63-.27,5.43-.18.43-.06.74,0,1.28.13.97-.43,2.68.75,3.29l2.24-.38c.73-.13,1.51-.41,2.06.14.11-.18.47-.74.65-.64l.61.31c2.99.67,1.1-.29,3.17.61.29.13.84.31,1.08.38.56-.46,1.23-.55,1.98-.56l2.36-.05,3.14-.07,2.76.03c1.04.01,2.25.27,3.1.23,1.72-.09,3.41-.19,5.2-.07l2.28.15,7.81-.06c1.07,0,2.11,0,3.13.1l2.76.26c1.6.15,3.23.36,4.72.29,2.7-.13,5.26.03,7.96.21.83.06,1.92.66,1.84,1.39-.1.34-.22.59-.1.58.08-.01.38-.01.39-.01.11-.02.02-1.22.34-1.26l.82-.1c1.93-.24-.23-.85,2.95-.64ZM157.42,155.79c.18-.61.31-1.52.39-2.09l-1.59-.27-.43,2.89c.34.05,1.52-.13,1.63-.53ZM129.51,161.83c.67-2.37.15-2.94,1.12-3.41.03-.58.17-1.37.34-1.95l-1.61-.23c-.45-.06-.74-.03-1.26.02-1.9.16-3.87,0-5.78-.2-.86-.09-1.36.07-1.61.97-.15.53-.35,1.1-.53,1.62l-.98,2.87c3.29.73,6.36,2.12,9.03,4.28l.92-2.59c.12-.35.25-.95.37-1.38ZM59.03,179.26l2.92-.23c0-.66-.02-1.52.03-2.21l.25-3.42.1-2.37c.09-2.17.57-4.24.86-6.39.1-.77-.11-1.86.27-2.61l-.35-1.44c-2.09.64-4.74-1.75-4.73.82-.03.58-.11.7-.35,0l-.1.58c-.02.14.36.22.61.34-.14,1.21-.31,2.53-.55,3.73l-.45,2.24-1.71,10.86c.43.37,1.12.51,1.6.44-.43-.36-.56-.48-.13-.2l1.72-.15ZM93.52,177.53l6.57-.02.18-8.18c.03-1.4.08-2.66.21-4.03.09-1.02-.19-2.25.03-3.42-.82.57-1.79-.12-2.44-.13l-2.29-.04c-.75-.01-1.52-.14-2.21-.22h-2.17s-2.97,0-2.97,0c-.89,0-1.66-.13-2.4-.8l-.44.64c-.13.19-2.61.02-2.75.01-1.03-.04-2.23.08-3.36-.3-.37-.12-1.26.12-1.64.1l-2.1-.09-3.82-.21-5.46-.2-.72.62c.37.41.51.88.52,1.4.15,4.65,0,1.75-.18,4.56-.13,1.88.75,1.37-.35,2.91.74.68.1,1.59.14,2.34l.13,2.35.14,3.4c0,.19.08.58.16.72.06.1.29.06.47.06l4.16-.02,1.95-.19,3.47-.19,3.15-.17,4.63-.26,3.8-.25c.96-.06,1.81-.03,2.75-.12l2.87-.27ZM109.4,170.8c-.27-2.78-.14-3.16-.48-6.05l-2.83.5-.71.12c-.17.03-.35-.73-.25-.88l1.11-1.67c.28-.18.6-.34.48-.43-1.13-.8.23.08-2.94-.05l.03,3.18.15,8.85.03,2.66c0,.27.32.86.58.83l5.28-.48c-.55-2.28-.25-4.35-.47-6.6ZM138.15,169.94c.43-1.07.78-1.75,1.36-2.91-.48-.21-1.24-.16-1.91-.02l-1.35-.09c-.75.08-1.36.04-2.02.08l-4.15.25c2.55,2.22,4.87,4.42,6.59,7.31l.74-.58c-.21-.31-.41-1.19-.26-1.55l1-2.5Z"/>
      <path class="cls-3" d="M235.42,171.52l-1.99.95-.48-1.68c-.28-.98-.82-1.57-.07-2.61.26-.36.28-1.19.2-1.79l.6-.15c-.38-.73-.51-1.95.39-2.07-.15-.93-.08-1.8.18-2.8l.33-1.29c.17-.69.3-1.28.58-1.99.35-2.52.23-3.35.93-5.98.25-.93.3-2.3.38-3.26l.7-.49c.19-.13.09-.71.03-.97l-5.57,2.23-2.36.75c-3.43,1.09-1.57.97-5.36,1.21-1.43.09-2.87.93-4.33,1.12-.57.07-1.01.23-1.59.42-.44.14-1.45,0-1.87.17l-1.68.68c-.52-.81-.99-2.07-.63-2.7.98-.57,1.56-1.01,2.26-1.72,1.26-1.28,3.03-1.88,4.59-2.67l2.09-1.06c.56-.28,1.15-.59,1.75-.82l2.14-.84,1.79-.95,5.43-2.36c.81.41-3.41-2.92-2.89-2.54l-4.41-3.22c-.64-.47-.99-.99-1.09-1.88-2.04-.35-4.24-2.38-3.19-4.52,1.55-.31,3.46.84,4.4,2.04.58.16,1.35.36,1.93.74,2.37,1.56,5.2,3.39,7.65,4.5-.23-2.89-.83-1.93-.72-3.58l-.9-1.12c-.61-2.53-1.29-2.15-1.21-3.69,0-.08-.1-.05-.41-.1v-1.61c-.81-.35-1.98-3.98-.98-4.61.1-.07.51.22.62.19l.4-.1c.31.22.95.67,1.23.92l2.64,2.44c.53.49.76,1.13.51,1.66l.48-.08c.09-.02.05.34.06.44.46.41.91.92,1.23,1.47l1.04,1.81c.26.46.67,1.07.94,1.72l1.18,2.9c.69-.85.82-1.96.98-3.15.15-1.08.7-2.18.99-3.26.39-1.46,1.26-3.45,1.93-4.99s.62-3.37,2.05-4.57c.36-.3.58-.58.81-1.05.25-.5,1.61-.07,1.71.44l.29,1.48.23,4.71c.03.6.2,1.01.12,1.54l-.61,3.78-.63,3.99,3.36-2.85c.39-.33.75-.69,1.25-.96,3.11-1.68,1.42-1.64,4.57-3.31l2.21-1.18c1.37-.73,2.81-1.9,4.37-1.94.39,0,1.18.56,1.27.9.1.38-.45,1.08-.61,1.48-.4.99-.87,1.44-1.66,2.06l-1.05.82-.97.76-.14.54c.05-.19-1.46,1.13-2.03,1.53l-2.42,1.7-1.22.87-2.83,2.02c-.42.3-1.1.59-1.49.96,3.47,2.36,7.69,6.18,10.41,9.1.98,1.06,1.95,2.01,2.92,3.11l1.1,1.25,2.76,2.79c.73.74,1.21,1.76,1.72,2.72l-1.13.75c-.31.21-.89.47-1.25.47-.32,0-.7-.66-.98-.87l-1.68-1.24-4.59-3.44-9.21-6.94c-.37-.28-.67-.5-.9-.81l-1.44-.52c.47.83,1.29,3.31.8,4.08.68.46.99,1.21,1.33,2.04l1.46,3.59,1.5,3.53.91,2.03.93,2.08.72,1.82c.83,2.11,1.75,3.09.19,4.54-.25.23-.42,1.04-.7,1.09s-1.08.02-1.32-.23c-1.16-1.23-2.65-2.98-3.71-4.51-.57-.83-.91-1.57-1.85-2.07-.34-.49-.98-1.52-1.25-2.02-.12-.22.03-.99-.16-1.16s-.59-.38-.93-.52c-.22-.09-.33-.65-.39-.9-.37-.52-.74-1.11-.99-1.76l-.79-2.06-.99-2.64c-.05-.15-.01-.64-.03-.79s-.43-.27-.51-.14l-.4.64c-.75,1.21-1.26,2.44-1.82,3.75l-1.41,3.33-1.83,4.18-.66,1.7c-.06.15-.16.57-.28.55l-.65-.13c.94.88.35,1.41-.04,2.22-.68,1.43-1.79,4.17-2.25,5.93Z"/>
      <path class="cls-3" d="M251.32,73.05l-.85-.62c-.2-.14.04-.88-.06-1.12-.49-1.19-.48-2.49-.21-3.72l-.2-1.83c-.02-.19-.24-.47-.38-.66-1.06-1.42-2.48-3.81-4.3-3.74-1.83,1.17-3.99,1.25-6,.51l-.76-1.79c.95-1.86,2.35-2.37,4.09-2.53,1.03-.1,2.05-.23,3.11.27,1.58.74,2.66-.81,4.16-2.35.13-.13.19-.79.22-.95,1.42-1.14,2.48-3.17,2.38-5.27-.02-.33.51-.98.6-1.3s.15-1.02.34-1.25.71-.36,1.2-.39c.71-.04,1.38,1.27,1.27,2.1-.19,1.48-.86,2.86-1.49,4.28l.27,2.22c1.72,1.77,3.53,3.26,5.65,4.62,2.92,1.87,5.34-.45,6.11,1.97l-.39.94c-.11.26-.36.81-.58.96s-.71.15-1.03.11l-3.31-.41c-3.05-.38-4.64.65-6.88,1.93-.21.3-.66.77-1.08,1.14-.09,1.56.47,5.01.99,6.72l-.85,2.65c-.1.3-.95.44-1.19.28-.89-.6-.26-.82-.86-1.89-.07-.12-.33-.32-.29-.39l.33-.48ZM253.25,62.82c.6-.74,2.07-.95,2.76-1.43.42-.29.6-.4,1.33-.82l-1.43-1.35c-.47-.44-.66-.82-1.25-1.07l-.59-1.54c-.65-.44-.96-1.22-1.04-2.13l-1.31,2.2c-.36.61-.79,1.15-1.32,1.6l-1.55,1.33,1.89,2.6c.49.67.81,1.26,1.29,2.1l1.21-1.48Z"/>
      <path class="cls-3" d="M233.46,93.35c-1.84-.07-3.06-5.4-1.28-5.35-.87-.47-.49-1.6-1.66-3.35l.17-.52c-.14.43-.82-2.94-4.51-3.22-.61-.05-1.68-.35-2.17.03s-1.26.69-1.35.32c-.27-1.1.33-1.83,1.21-2.16l-.74-.29c.8-.62,1.75-.98,2.75-1.15,1.4-.23,2.37.25,3.51.94,1.2.73,2.73-.47,3.48-1.39,3.34-4.13.4-1.08,1.97-5.53l-.14-1.63c.74-.46,1.15-1,1.02-1.78l1.6-.65,1,.96-.23,2.23c-.31,2.98-.32,2.18-1.24,4.95,4.87,6.45,3.9,3.25,8.14,4.66.17.06.69.05.83.06.17.01.18.29.24.61.51-.19,1.33-.2,1.87.24.39.32.75,1.22.52,1.79l-.9,2.2-1.8.27-2.75-1.06c-1.1-.42-2.02-.85-2.82-1.85l-2.49,1.04c-.37.15-1.13.63-1.41.94l-1.72,1.89c-.36.4.07,1.64.04,2.21-.15,2.59.39,4.65-1.14,4.59ZM236.54,81.2c.09-.06.58.14.63.04l.18-.35c.08-.15.52-.48.39-.59s-.53-.37-.64-.5l-.95-1.16c-.31-.38-.3-1.54-.56-1.76l-1.08.8s.24.26.35.38c.08.09-.25.47-.37.56l-1.95,1.4c-.45.32-.74,1-.7,1.45.04.41.67.8.95,1.22.24.35.46,1.02.76,1.05,1,.09,1.45-1.57,2.97-2.54Z"/>
      <path class="cls-3" d="M18.56,28.55c.82.17,1.69.18,2.47,0,.12.11.49.49.41.64l-.36.71c-.61,1.2-2.07,1.87-3.06,1.46-.41-.17-1.25.14-1.68-.47-.12-.18-.57-.11-.8-.07-1.09.17-2.1-.84-3.05-1.28-1.96-.93-3.35-2.46-4.22-4.46-.27-.62-.86-1.59-.9-2.21l-.18-3.21-2.01-.8c-2.64-1.05-1.9-1.46-3.63-3.02C-.81,13.72-.1,9.66,1.24,7.34s-.36-1.27,2.57-3.9c.48-.43.84-1.3,1.27-2.05l1.12-.51-.39-.48c-.08-.11.41-.34.6-.39.31-.09.89.47.96.77.08.34-.31.97-.55,1.26-1.14,1.34-2.17,2.69-3.12,4.18l-.97,1.51c-.92,1.43.1,1.81-.5,2.98.06,2.53,2.32,4.4,4.31,5.79.43.3,1.28.38,1.77.19.41-1.31,1.73-3.57,3.15-3.28.12.02.05-.37.07-.51l3.72-1.8c.63.14,1.67.6,2.05,1.01,1.04,1.11.74,2.73-.36,3.42-.21.56-.5,1.72-.92,2.04l-1.55,1.18c-.46.35-.97.48-1.27,1.22l-3.81.5c.86,2.38,1.73,4.87,3.91,6.13,1.14.66,2.65.97,3.72,1.77l1.53.18ZM12.03,17.66c.35-.72,1.14-1.2,2.07-1.27.29-.37.88-1.07,1.11-1.46.12-.2-.23-.91-.46-.88-.19.03-.65.1-.82.18l-1.79.93c-.13.07-.3.55-.4.56l-.58.04-1.2,1.64,2.06.26Z"/>
      <path class="cls-2" d="M50.1,138.17l-.11-2.88-.53-6.99c-.1-1.37-.3-2.89-.16-4.18.18-1.64.06-3.4-.19-4.92.03-.55.15-1.49.08-2.16l-.44-4.59c-.05-.55-.07-1.18-.33-1.49l2.17-.2,3.19-.07c.38,0,.9-.1,1.28-.09.69.02,1.34.06,1.96.04l1.85-.04,3.38-.08,2.42-.06,1.65.06,2.59.04c.48,0,1.64-.08,1.78-.53l.69-2.35-1.56-.83-1.38-.13c.16-.81.1-1.48-.01-2.32-.4-3.1-.04-.58-.13-2.72-.04-.83-.22-1.5-.97-1.92l-2.08-1.18c-1.57-.9-2.94-1.74-4.51-2.52l-2.59-1.3c-1.99-1-3.54-1.94-5.92-2.57-.48.25-.56,1.04-.25,1.45.22.29.79.52,1.12.72l1.34.83,2.3,1.33c.33.19.94.35,1.24.43.49.5,1.26.92,2.08,1.2-.9.42-.88-.54-2.07.07l-.45-.21c-.1-.05-.26.27-.39.48-.52-.5-2.68-.75-3.9-.53-.42.08-1.2-.25-1.65-.33l-1.7-.29c-.26.15-.64,1.03-.62,1.41,3.13,1.89,6.26.81,9.62,1.63-2.39.49-7.08.91-9.75.53-.63,1.05-.31,4.63.27,6.12l-3.82.06.6-2.51-.06-3.26.02-2.11.02-1.65c.04-3.36.31-1.19.45-4.32-.59-1.09-1.75-.69-2.65-.65-1.73.08-3.45.06-5.18.23-.47.05-.9.01-1.42,0h-3.17c-1.87-.02-3.21.79-3.63,2.61-.18.8-.25,1.55.36,2.16l-.34.21c-.08.05.1.43.18.39l.58-.3c.24,1.05,1.27,1.82,2.85,1.51-.45,1.15-.43,2.45-.38,3.8l.06,1.33.13,3.19c-2.22-.22-4.75-.22-6.82-.06l-1.78.14c-.28.46-.57,1.44-.13,1.89.76.77,2.27,1.17,3.01.33.4.92,1.98.74,1.97.62l-.07-.83,1.18.91c.28.22,1.08-.05,1.41-.2,2.28,1.12,4.78.25,7.6.53l1.47-.75,1.34.29c.44.09,1.02.35,1.47.22.48-.14,1.54-.01,1.55.42l.09,4.89c.02.89.15,1.72.14,2.63l-.1,6.63c-.05,3.2.54,6.52.53,8.56v2.41s-.01,3.3-.01,3.3c0,3.35,0,6.68.2,9.98l-3.08.37c-.65.08-1.28.16-1.89.39-1.85.7-3.67,1.22-5.47,2.03l-2.61,1.18c-.15.07-.46.36-.58.42-.15.08-.51-.14-.59-.19.62-.67,1.03-1.38,1.47-2.22,1.5-2.87.47-1.86,2.16-5.18.83-1.64,1.5-3.27,1.68-5.08.28-2.94.5-5.77-.02-8.73-.16-.89-.6-1.83-.82-2.74-.53-2.13-1.12-3.54-2.37-5.28l-1.25-1.73c-.77-1.07-1.75-1.85-2.78-2.68-2.54-2.02-2.48-1.48-3.54-2.16s-1.93-1.13-3.13-1.38c-5.17-1.05-2.36.29-6.65-.5.81-1.56,2.82-1.97,3.38-3.58.4-.22.92-.62,1.33-1.14l1.89-2.41c.86-1.09,2.17-2.97,2.76-4.28,1.36-2.96,3.84-9.35,2.31-12.45-.18-.41-.1-.34.34.15.02-.39-.18-.99-.36-1.43-.04-.31.02-.95-.09-1.33-1.36-4.59-.73-3.09-3.25-7.21-1.44-2.36-2.83-3.66-4.72-5.38l-1.3-1.19s.36-.33.26-.38l-.53-.28c-.37-.19-1.03-.5-1.31-.72l-2.36-1.89c2.36.12,4.84-.12,7.02-.48,1.5-.25,3.23-.13,4.61-.69.56-.23.92-.41,1.43-.51,2.92-.58,5.32-2.19,7.63-3.95,1.02-.78,1.73-1.68,2.62-2.71l1.31-1.5,1.28-1.77c.1-.14.52-.56.61-.43l.44.63s.21-.25.24-.32c.04-.1.21.03.31.08.1.05-.16.59-.08.68,1.02,1.11,2.88,3.02,4.14,4.19l2.41,2.24,1.4,1.2,2.18,2.11,1.86,1.74c.37-.46.44-.46.28.16l4.72,4.99,2.4-.55-.38-.76c2.5-4.4,1.73-9.95,2.01-14.94l.09-1.61c.04-.68-.06-1.57-.01-2.17l.14-1.8c.52-.1.97-.21,1.68-.43-.03-.11.13.52.19.77.05.19-.43.35-.52.42.56.35.6.76.93,1.38.58,1.08,1.82,2.5,2.67,3.37.14.15.67.31.74.51.33.86,1.02,1.52,1.59,2.15l1.2,1.32c1.22,1.34,4.38,3.75,4.69,4.2.79,1.16,2.09,1.93,2.97,2.87.54.58.96.9,1.81.85.5-.03,1.26-.55,1.69-1.06l-.63-2.43-.47.45c-.44-.89.93-1.07,1.07-1.52l.55-2.57c.11-.53.03-1.26,0-1.73l.23-1.14c.11-.55.37-1.24.44-1.82l.33-2.53c.3-2.31.63-4.51.43-6.9-.07-.82-.16-1.47.19-2.38l-.47-1.88c.88.03.18.34,1.19.24.14-.01.12-.28.14-.74.05-.05.49.38.42.58s-.42.45-.78.7l3.32,3.33c.37-.42.45-.51.05-.06l1.31,1.36c.25.26.67.77.91,1.09.55.72,1.16,1.19,1.65,1.66.8.77,1.41,1.69,2.36,2.33,1,.68,2.56,3.08,2.47,2.41l.08.6,2.68,3.23c.13.15.84.27.81.47l-.15.94c-.13.87,1.05,1.84.43,1.52l.48.25c.31.16.9.45,1.2.36.36-.11.58-.84.64-1.23l.21-1.28c.06-.38.05-1.02.04-1.36.62-1.78,1.05-7.46.89-9.49l-.48-5.94-.48.03c-.33.02.49-.53.49-.52-.04-2.63-.36-5.33-.2-7.71.9,1.23,2.13,2.09,3.22,3.45,1.29,1.6,2.66,2.85,4.1,4.28l4.47,4.44c.51.51,1.13.97,1.65,1.5,1.15,1.18,2.24,2.2,3.61,3.16l2.13-.78c.88-.32-.61-2.64-.18-4.43.2-.83.11-1.61.04-2.53-.09-1.27.57-2.27-.52-3.29-.12-.11.43-.5.43-.66l-.09-4.05c0-.12-.28-.43-.22-.5l.36-.56-.96-.14c.41-.3.92-.86.91-1.39l-.13-5.57c-.05-2.18.31-3.13-.23-3.66-.21-.2-.76-.2-1.08-.13l-.55.12c-.17.04-.33.59-.32.78l.12,2.2c.1,1.86.1,3.59.06,5.41l-.02.86v1.99c.01.24-.22.82-.26,1.07-.04.29.44.56.74.72l-.66.31c-.13.06.04.5.04.69v1.94c-.02.68.08,1.49.17,2.1l-.18.88c-.04.21.53.48.62.53-1.4.63-.05.69-.64,3.3-.98-.76-1.7-1.37-2.5-2.13l-2.33-2.22-1.78-1.59-2.61-2.44-4.26-4.08c-.58-.56-1.26-1.37-1.8-1.99l-1.42-1.64,4.54-2.29c.38-.19.72-.58,1.01-.92.2-.24.89-.51,1.19-.7,2.23-1.48,4.31-2.83,6.64-4.2,1.1-.65,2.44-1.78,3.25-2.64.14-.15.66.14.61.31l-.23.79c-.25.88.81,2.29,1.49,2.71.09.05.52-.3.44-.36l-.57-.48.48-.18c.12-.04,0-3.29.36-4.78.07-.29.82-.87.91-1.08.29.51.92.86,1.63.88l.99.46.27-.4c-.27.41,2.03,1.27,2.6,1.29l5.07.23c.11,0,.5-.45.6-.48.14-.04.29.16.48.28,1.85-.59-.11.13,1.86-.15.8-.11,1.55.07,2.28.36l.18.17c-.59.41-.94.73-1.05,1.24-.28,1.28-.74,2.13-1.15,3.38l-1.77,5.43c-.03.1.39.62.32.55s-.49.22-.52.32l-.98,3.43c-.29,1.01-.55,1.92-.75,2.87-.17.78-.15,1.27-.79,1.96l.2,2.58-.33-.36c-.45-.47-1.78,5.22-1.32,5.3-.59.4-1.13,1.83-.69,2.36l2.24.5c1-.33,2.12-.79,3.04-1.24l2.21-1.07,1.86-.86c.49-.22,1.08-.47,1.63-.77l3.71-1.98,2.75-1.59,5.4-2.78c1.4-.72,2.81-1.76,4-2.72l1.25.85,4.46,3.37c.85.65,1.86,1.05,2.73,1.58l3.9,2.39c-.37.4-.72.8-1.08,1.09l-3.37,2.62-2.43,1.67c-1.72,1.18-3.55,2.13-5.19,3.45-1.53,1.22.03-.5-3.08,1.96-1.11.88-2.24,1.69-3.35,2.23l-.5-.68c-.1-.13.14-.18.56-.4l.77-3.02c.03-.11-.36-.52-.47-.52s.64-.26.66-.37l.83-4.59c.15-.82.7-1.86.74-2.87-.48-.2-1.14.27-1.21.68l-.45-.18c-.08-.04-.21.36-.14.42l.49.43c-.9.14-1.15.84-1.08,1.79.62.24.32.27-.09.29l-.82,3c-.2.74-.46,1.97-.57,2.65l.51,1.01-.57-.38c-.13-.09-.43.35-.38.5s.16.31.28.51c-.26.12-.67.62-.8,1.09l-.99,3.62c-.14.52,1.03,1.54,1.45,1.25l3.27-2.26,5.24-3.44,3.41-2.08,2.2-1.42,2.33-1.44.39-.22c.09-.05-.09-.21-.24-.39,2.22-.44,3.61-3.02,4.09-1.93-.61,1.71-.18,2.93-.37,4.46l-.28,2.22c-.13,1.02-.17,2.04-.23,3.17l-.16,2.88c-.07,1.23-.22,4.76,0,5.82l.31,1.56c-.48.71-.49,1.63-.45,2.59.04.91-.55,1.97.56,2.4-1.75.04-.17,5.95,1.49,5.24,1.03-.74,2.08-1.67,2.98-2.56l3.61-3.56c.62-.62,1.22-1.13,1.93-1.68l1.31-1.32c.06.14.02-.02-.08-.36l1.33-.62c.35-.16.99-.71,1.31-1.01l3.52-3.23,3.01-2.48c.78-.65,1.48-1.22,2.33-1.71l.05,1.62-.09,2.06c0,.07.31.33.38.33-.88-.02-.88,4.02-.72,4.9l-.18,2c-.18,2.02-.33,4-.21,6.04l.18,3.24-.05,1.14c-.02.56.13,1.27.1,1.77l-.13,2.4c-.18,3.4,2.43,4.32,2.15,4.47l.63-.35c.62-.34,1.1-.85,1.54-1.33l1.56-1.68c.38-.4.48-1.25.52-1.82l.37.34c.05.05.1-.05.2-.2l3.77-4.71,2.85-3.6,3.17-4.5c.27-.38.5-.9.6-1.21.49-.37,1.02-.88,1.44-1.44-.15,1.42-.45,2.87-.47,4.21l-.05,4.97c-.02,1.51.36,2.99.9,4.42l1.2,3.16c.38,1.01.6,2.14,1.21,3.13.79,1.28,1.66,2.5,2.62,3.64l2.41,2.87c1.93,2.31,3.71,4.59,6.34,6.02l-.58.46c-1.2-.28-2.58.01-3.81.49l-2.4.93c-.73.28-1.23.66-1.9,1.06-1.3.77-2.66,1.29-4.19,2l.25.44c-3.01.62-3.88,1.82-5.81,3.65.36.4.52.59.07.23-.67.49-1.02.73-1.31,1.14l-1.25,1.76c-2.2,3.09-4.05,4.92-4.84,8.75l-.76,3.7c-.31,1.49-.67,3.92-.26,5.18.02.07.28.13.31.19s.1.23.1.22c0,0-.56.29-.55.36l.55,3.28c.32,1.9.74,3.56,1.58,5.3l-.31.47c-.1.15-1.19-1.18-1.35-1.31-1.81-1.32-2.15-1.67-4.32-2.23-.3.11-.69-.06-.96-.24-.02.01-.2.11-.25.13-.07.03-.1-.11-.2-.35-3.26-1.51-7.79-.6-11.05.92-.64.3-1.49.6-2.03,1.02l-2.46,1.94c-.23.18-.42.69-.45.95-.5.4-.87.86-1.39,1.78.29.49-.03.18-.3-.08l-1.32,1.84c-.38-.81-.46-1.25-.66-2.17l-1.72-7.56c-.03-.12-.32-.4-.28-.44l.27-.31-1.54-5.8-.77-2.62c-.27-.9-.37-2.36-.97-3.05-.66-.75-.79-1.06-1.01-1.96l-2.36-9.65c-.04-.15-.24-.39-.38-.46.17-2.08-1.14-4.48-1.51-6.07-.59-2.5-1.19-4.71-2.17-7.16-.53-1.32-.35-3.34-1.53-4.63.21-.35.35-.86.16-1.33l-1.7-4.08c-.02-.06-.59-.23-.59-.16l-.02.3-2.31.02c-.47,0-1.18-.06-1.55-.02-5.04.53-2.08-.78-7.94-.75l-5.64.03-4.08.23c-1.06.06-2.2.07-3.08.52l-.61-2.86c-.15-.68-.28-8.19-1.09-8.15l.52-.02-.45-1.71c.16-.71.06-1.5-.02-2.31l-.25-2.65c-.04-.44-.33-1.09-.47-1.43.07-.38.16-1.01.07-1.53l-.57-3.29-.44-3.27c-.03-.19.03-.74.19-.83.2-.1.57-.2.86-.31,3.9-1.41,1.52.77,5.95-.3,1.64-.4,2.29-2.08,2.36-3.7l.06-1.32c.04-.85-1.99-4.64-5.03-4.5s-3.57,2.97-4.27,5.35c-.33-.07-.88.03-1.12.27l-2.54,2.52c-.35.34-.95,1.07-1.31,1.34l-1.85,1.38-3.37,2.5.36.68c.04.08-.44,1.45.02,1.74.32.2,1.01.04,1.28-.13l1.63-1.03.04-.42c0-.07.22.09.35.18l2.69-1.63c.19-.12.46-.46.76-.83.44.8.39,1.85.34,2.92l-.08,1.59-.26,2.22-.19,3.04c-.06.99.06,2.08.28,3.06-.16.45-.3,1.11-.31,1.69l-.02,1.97c0,.33,0,.57-.05.94-.1.97-.04,1.96-.07,2.92l-.08,3.2c-.02.82-.27,1.36.15,2.26-.32.42-1.29.45-2.06.34-.62-.09-1.2.25-1.6.24l-2.06-.08c-.77-.03-1.59-.11-2.4-.07l-1.82.1-1.79.07-3.78.06c-.48,0-1.11.2-1.48.35-.9-.07-2.48-.62-3.2.43-1.01,1.48-.86,5.36-1.36,7.78l-.46,2.26-.43,2.25c-.36,1.86-.59,3.66-.7,5.5.87.16.75.23-.02.31-.3,2.23-.59,4.41-.8,6.66l-.4,4.39-.2,1.9-.19,2.08c-.21,2.36-.47,4.6-.92,7.14-1.22-.41-2.44-.07-3.84.03l-1.22.08-.96-.08c-1.37-.11-2.75-.1-4.14-.02l-1.37.07-1.66-.08-3.95.02-1.16.04-3.2.15-2.42.18c-.52.04-1.54-.48-1.84.37-1.5-.83-4.2-.56-5.95.57-.51-.47-1.14-.73-1.77-.72l-4.11.1c-.48.01-1.2-.14-1.76-.03-1.85.37-1.57-1.24-2.94-.41-.28.17-.1.81-.21,1.15-1.6,5.09-.38,2.41-.47,5.4,0,.26-.41.82-.3,1.05.15.32.38.67.7,1.16l-3.39.04c-1.27.01-2.53-.1-3.82-.32-.5.17-1.07.94-1.43,1.39l-.23.29c-.05.06-.26-.29-.26-.41l-.13-8.25ZM155.93,50.75c.36-2.3,1.28-1.47.47-2.33,1.03-1.18.89-3.38.19-3.12-1.15.42-.77,2.1-.89,2.78-.19.19-.59.51-.47.63l.5.52c-.26.07-1.05.47-.98.74.1.41,1.17,1,1.18.79ZM146.66,58.09c.15-.05.6-.43.46-.5-.11-.05-.45-.26-.49-.34-.02-.38-.28-1.01-.62-1.35l-1.4-1.4c-.38-.31-1.67.11-1.96.58-.34.56.64,1.02,1.01,1.25l1.93,1.23.24.48c.07.14.68.09.83.05ZM142.42,79.25c.17-.76.43-1.6.84-1.94l1.52-1.26c.57-.47,1.71-.98,1.97-1.88.09-.32-.55-1.04-.84-1.02-.89.06-1.85.34-2.7.33l-1.63-.78c.86-1.37,2.26-2.34,3.71-3.04l1.63-.78c.31-.98.12-1.86-.16-3,.47-.13,1.99,2.18,2.75.78.29-.52-.56-1.1-.84-1.45-1-1.22-1.93-2.2-3.13-3.12l-1.24-.94c-.14-.11-.5-.3-.66-.35.05.02-1.59.44-1.77,1.61-.09.55.32,1.09.53,1.62.51,1.26.99,2.41,1.76,3.67-.73.82-1.73,1.42-2.85,1.89l-1.43,1.56c-1.17.3-2.15,1.08-2.34,2.28-.05.33.17,1.23.48,1.31s.91.11,1.24.16c.99.49,1.58.69,2.89.57l-2.01,2.05c-.67.68-1,2.07-.97,3.08,1.25.68,2.76.98,4.16.91l2.47-.13c1.08-.06,2.53,0,3.17-1.19,0-.25-.69-.89-1.07-.88-1.65.07-3.56.1-5.47-.06ZM99.41,86.44c-.75-.7-1.29-1.54-1.71-2.37l.58.3c-.11-.06,2.93-.62,3.52-2.9.12-.46.36-.94.31-1.26-.04-.28-.51-.89-.8-1.03-1.25-.61-3.13-.33-4.25.76l-1.89,1.85c-1.27-.64-2.2-1.79-2.72-2.9,1.09-.34,1.81-.72,2.67-1.27,1.5-.96,2.79-3.56,1.61-5-.49-.6-2.11-1.25-2.77-.87l-2.33,1.35c-1.5.87-3.06,3.32-2.2,5.12-.95.19-1.87.46-2.31,1.21.17.35.97.65,1.24.48l.96-.63.69.65c.96,2.21,3.35,4.17,5.36,4.74.35,2.06,5.77,7.95,7.17,4.7l-3.12-2.94ZM44.73,86.51c.16-1.02-.49-2.13-.88-3.07s-.64-1.56-1.68-2.09c-.4-.2-2.42-1.7-2.3-2.3.17-.82.13-.37.44-1.63.03-.11.42-.14.48-.24l.69-1.19c.15-.15.77-.38.73-.58l-.18-.94c-.49.07-1.27.53-1.61,1.11l-1.36,2.33c-.22.37-.32.93-.36,1.39-.28,2.99,2.27,3.12,3.93,5.22l-.02,2.61c-.01,1.52-1.41,2.65-1.92,4.14-.12.36.77.75,1.17.65,1.49-.38,2.58-3.67,2.85-5.41ZM70.7,82.84l-.56-1.86-.92-.08.48-.59c.06-.07-.19-.3-.28-.28l-.34.1-.33.1c-.05.02-.28-.19-.33-.18-.87.09-2.23,1.52-2.18,2.45.02.32.64.66.85.83.59.49,1.28.8,2.12.24.38-.25.8-.41,1.48-.71ZM38.01,90.66s-.17-.15-.48-.41c1.44-.24,1.12-3.12.32-4.39-.52-.82-1.72-1.71-1.58-2.67.25-.68,1.12-1.4.99-2.18-.06-.37-1.11-.56-1.44-.36-1.38.85-.72,1.65-1.59.95l-.25,2.66c-.08.82.8.88.99,1.24.23.45.47,1.29.89,1.58,3,2.07-1.5,4.47,2.16,3.58ZM169.6,94.73c-.05-.31-.19-.88-.29-1.15-.09-.22-.79-.28-1.02-.23-.55.13-1.26.5-1.29,1-.02.38.18,1.07.41,1.47l2.2-1.1ZM207.73,99.89l1.98-1.39c.58-.41-.08-3.26-.77-3.76-.48-.35-2.67-.25-4.14,1.1-.99.9-1.17,1.96-.46,3.15.34.58.85,1.2,1.64,1.33.48.08,1.16-.02,1.75-.44ZM95.62,109.85c.35-.38.4-.22.24.39.57.04,1.11-.38,1.42-.92l.67.09c.16.02.48-.52.64-.53.52-.04,1.37-.62,1.58-1.34l.59.42c.64-.48,1.25-1.13,1.27-1.69.03-.83-.25-1.47-.63-2.14l-1.13-2.01c-.65-1.17-1.26-2.5-2.82-2.74l-1.42.63c-.09.08-.05.57-.04.69-.37-.07-.83-.17-1.1-.07-.23.08-.32.8-.36,1.09l-.55-.48c-.13-.12-.52.35-.69.45l-2.8,1.64c-.74.78,1.86,4.07,2.4,4.65l1.16,1.24.59.62c.14.15.54.08.99.02ZM183.73,111.92c-.34.71-1.48.31-1.98.09-1.28-.56-1.8-1.08-2.02-2.39-.19-1.1-.2-2.11,1-2.69.67-.33,1.77-.99,2.57-.87l3.2.48c2.02,1.29,1.75,1.77,2.87,2.47l.55.34c.13.08.54-.4.59-.56,1.02-3.36-4.42-5.1-5.79-4.89-2.77.42-1.43-.06-3.58.76-1.66.63-2.74,1.46-3.29,3.07-.36,1.05-.66,1.7-.29,2.95.29.98.65,1.66,1.45,2.35.75.64,1.43,1.35,2.36.93.37,1.34,5.35-.41,5.18-2.86-.1-1.42-1.97-3.89-3.95-3.88-.5,0-1.33.78-1.31,1.23.98.55,2.86,2.6,2.44,3.47ZM76.33,118.14c1.08.37,2.18-.38,3.03-.75l3.11-1.36c.86-.38,1.48-.82,1.73-1.68.22-.74-.19-1.36-.55-2.18l-.81-1.81c-.27-.61-.96-1.29-1.17-1.92-.11-.33-.33-1.17-.65-1.29-.85-.31-1.81.44-2.51.6-1.57.35-3.16.53-4.45,1.83-.62.07,1.16,5.98,1.15,5.96l1.12,2.59ZM91.54,127.35c.37-.57.17-2.03-.41-2.49-4.28-.35-4.89.95-8.27,1.77l.72-.94c-.41-.6-.69-1.36-.59-2.08l-.29-.72c.43-.04.92-.04.96-.2l.09-.42.92-.52c.68-.38,1.2-.87,1.45-1.47.11.13.26.36.35.31l.36-.17c.14-.06.56-.49.42-.56-1.27-.71-2.49.43-3.7,1.5-.71.62-.98,1.13-1.58,1.87l-.82,1c-.16.2.28.78.31,1.06.09.85.59,1.67,1.5,1.97l-.02,1.56c-1.5.84-1.1,4.21.19,4.95.32.19,1.23-.22,1.17-.54l-.2-1.07c-.24-1.25-.06-2.52.75-3.53l2.63.12c1.07.05,3.19-.25,4.06-1.39ZM62.68,124.65l-2.19-1.15-1.31.82c-.2.12-.38.88-.17.96,1.07.42,2.58.83,3.67-.63ZM178.85,138.22l1.28-.63c.77-.38,1.8-.72,1.9-1.56.14-1.08-.05-2.12-1.1-2.33l-1.07-.21c-.47.44-1.04.74-1.73.73l-1.03,1.16c-1.36-.84-1.87-2.71-.68-4.04.71-.79,1.79-1.62,2.6-2.39l-.8-.52-2.18,1.49c-.64.44-.88,1.12-1.24,1.75-.4.69-.73,1.26-.88,2.04-.19.99.17,1.36.71,2.11l1.48,2.05c.77,1.08.93,2.61,2.25,3.41l1.38-.51c.24.45.26.23.23-.24-.62-.42-1.16-1.49-1.12-2.31Z"/>
      <path class="cls-2" d="M118.35,146.7l-2.51-.22-3.06-.15c.5-1.09.6-1.4.69-2.12l.34-2.71c.46.14.86.39,1.21.69l1.64,1.44c.27,1.07,1.39,1.98,2.61,1.82.69-.09.34-1.26.19-2.15-.02-.14-.42-.24-.52-.34l-2.08-2.29c.8-2.01,1.01-1.52,1.02-4.23-.48-.95-3.01-3.35-4.06-2.66-.26.17-.62.72-.87.91-.8.6-1.3.93-1.46,2.01l-1.35.08c-.61-.27-1.32-.02-1.78-.11l-3.2-.61c.06-3.13.62-2.8.63-6.28,0-.66,0-1.48.07-2.11l.34-3.11.36-4.22c.04-.48.06-1.01.06-1.37.18-.74.33-1.59.4-2.45l.3-3.75c.38-4.78,1.74-9.34,1.58-14.59,2-.48,1.98.29,3.56-.62.17.1.47.32.69.35.26.04.86-.23,1.06-.3,1.33.46,2.35.22,3.33-.06.29-.08,1.16.3,1.18-.17.07.14,5.92,1.03,6.43.06.68.34,1.59.32,2.61.2.69-.08,6.4-.19,7.65-.22l2.84-.07c.08,0,.23-.49.27-.55.05-.06.1-.05.14.01.04.07.23.57.31.56l4.29-.23,5.59.1,2.12.09,3.69.06c.47,0,1.08-.02,1.52-.09,1.08.66.36,1.92.25,2.75-.54,3.88-.57,7.57-.77,11.36-.03.62.11,1.14.38,1.51-.7.73-.34,2.25-.49,4.28l-.31,4.4-.46,8.38v1.98c.03,1.99.13,3.97,0,5.98l-.27,4.45c-.05.86-.11,1.81,0,2.64-.16.49-.43,1.31-.5,1.99l-.24,2.51-.63,5.36c-.08.65-.05.99.39,1.62-.53.58-1.89.55-2.59.85-2.97,1.28-5.56,3.17-8.06,5.22-.4.33-1.01,1.35-1.55,1.49l-9.87.27c-.27,0-.59-.72-.57-1.01s.31-.59.59-1.01c.18-.82.25-1.86.49-2.65l.68-2.27c.29-.97.51-1.83.58-2.97-.8-.19-1.69-.31-2.42-.29l-6.22.22c-.19,0-.67-.2-.77-.05l-.42.59c-.62.07-.6.02-.03-.48-.58-.09-1.35-.09-2.02-.05-.01.42.03.62-.07.58-.15-.06-.48-.14-.47-.25s.13-.47.1-.57l-.24-1c-.05-.22.34-.55.43-.79.15-.41-.3-1.33-.42-1.76.27-.68.37-1.44-.05-2.05l.56-.43c-.86-.87-1.69-1.31-2.88-1.41ZM127.21,107.79l.27-.57c.04-.08.53.03.6-.02.53-.31.83-1.82-.03-2.17-1.46-.6-3.31,1.95-2.71,2.68l.6-.3c.08-.04.3.17.38.15.12-.04.42-.45.49-.34l.39.57ZM121.7,117.7c.41.02.77.12.85-.04l.32-.64c.5-.97.78-1.8-.07-2.73-.94-1.02-2.15-1.75-3.39-2.46.38-1.31.71-.36,1.46-1.78l1.06.26.91,1.48c1.13-.88.98-2.09.69-3.24-.17-.68-1.46-1.19-2.13-1.17-.93.03-1.67.67-2.37,1.27-1.02.88-1.53,1.72-1.52,3.05.01,1.18.75,2.2,1.76,2.82l1.88,1.16-.28.63-3.94.4.19,1.77c.98,1.29,4.32-.17,4.29-.09l.28-.69ZM134.08,116.78c.02-.25-.5-.89-.5-1.2l-.04-1.89,1.52.05c.28,0,.95.19,1.14-.02.16-.18.23-.56.28-.93l.98-.41c.38-.94.89-2.34.45-3.18-.82-1.58-2.63-2.43-3.99-1.56-.74.47-1.07,1.35-1.35,2.04l-.86,2.13c-.43,1.07-.34,3.85-.2,5.04l.25,2.15c.04.3.55.82.85.82,1,.01,1.37-1.9,1.37-2.85-.72-.34-.58-.33.09-.19ZM127.76,119.17c.44-1.68.26-3.29.18-4.85l-.15-2.73c-.04-.75,0-1.37-.73-1.73-.24.34-.84,1.04-.87,1.42l-.29,3.78c-.1,1.28.11,3.59.65,4.3.17.23,1.12.16,1.21-.17ZM128.37,129l-2.72.35c-.41-.43-.22-.47.31-.63l.43-.71c.07-.12.53-.02.66-.11l2.05-1.31c-.15-.36-.35-.76-.24-.9l.5-.67c-.13-.08-.82-.33-1.15-.33l-2.87-.07,2.71-1.25.73-.34c-.14.83.13.59.45.16.56.42,1.15.72,2.01.79.01-.63-.12-1.38-.39-1.77-.77-1.12-6.72-.99-7.62,1.95-.03.11.31.41.27.51l-.22.53c-.11.27-.17.98.07,1.13.2.13.68.32.96.41l.75.24c.36.11-2.37,1.07-1.37,2.8.29.51.79,1.21,1.21,1.81,1.44.29,2.86.21,4.15-.26-.52,1.01.04,2.28.46,2.44.21.08.75,0,.99-.09.18-.94.3-2.31.66-3.06.44-.9,1.09-2.66.2-2.95-.99-.32-1.96,1.16-2.99,1.3ZM125.62,143.42c-1.52-.25-2.39-.47-3.32-1.13s-.71-1.85-.01-2.63c.34.44.57.78.86.73l2.57-.51c1.1-.95,1.52-2.45,1.21-3.85-1.59-1.23-2.22-1.3-4.31-.21-.62.32-1.38,1.52-1.41,2.16-.12,1.99-.86.63-1.2,3.63-.08.68-.04,1.19.29,1.73.99,1.62,3.6,3.46,5.31,1.77v-1.7ZM143.28,139.64c-.12-.15-.38-.59-.55-.53l-.58.22c.1-.65-.01-1.25-.51-1.65-1.29-1.04-2.58-2.06-4.12-2.75-.62.25-1.02,1.2-.99,1.82.09,1.83-.02,3.65-.42,5.49-.26,1.2.04,2.81,1.46,3.01,1.5.21,3.17.12,4.61-.25.92-.24,2.93-3.08,1.1-5.38ZM132.86,145.39c.12.42.99,1.39,1.36,1,.87-.91,2.18-2.41,1.4-3.51-.21-.3-.8-.53-1.33,0-.78-1.83-.05-5.07-2.39-6.42-.36-.21-.98-.49-1.29-.34-.87.43-1.07,1.37-1.3,1.23l-.34-.22c-.47,1.01-1.29,1.94-2.11,2.74-.02,1.16-1.18,2.33.18,3.88,1.1,1.25,3.24.68,4.07-.18l.95-.98.78,2.81Z"/>
      <path class="cls-2" d="M221.28,58.25c-1.34,1.28-2.8,2-3.55,3.56l-2.45,5.11c-.82-.57-1.66-.66-2.58-.88-1.61-.37-3.16-.89-4.71-1.4l-1.55-.51c-2.84-.93-2.67-1.45-5.98-2.02-.49-.08-1.15-.61-1.55-.79l-3.83-1.7c-.46-.2-.91-.32-1.37-.62-.97-.64-2.37-1.02-3.3-1.46l-1.21-.76c-1.6-.99-3.26-1.68-4.95-2.54l-5.31-2.67-1.71-1.05-3.85-2.12-5.1-3.02c-1.37-.81-2.62-1.64-3.92-2.56l-1.83-1.3-5.27-3.58-5.7-4.12-2.85-2.29c-1.23-.98-5.37-5.38-6.76-7.08l1.27-.11c2.9-.25,2.92-.74,4.74-1.55l2.19-.97c.83-.37,1.61-.83,2.18-1.47,1.36-.57,4.49-2.32,5.03-3.98l.03,3.31c0,.52-.12,1.14.02,1.63l1.09,4.08c.08.31.53.84.68,1.01-.36.79,1.57,2.69,2.41,3.83,1.06,1.43,2.07,2.55,3.88,3.13l1.29.41c.52-.7.5-.38.34.17.7.13,1.46.37,2.22.42l7.08.48c5.18.35,5.51-1.41,6.64-.99,1.03.38,1.06-.22,1.65-.61,1.05-.7,2.63-.92,3.89-1.29l6.04-1.73,4.54-1.34,2.02-.47c-.55.48-1.86,5.44-2.69,5.74l-1.07,3.17c-.72,2.14-.1,5.27.11,7.55,1.43,1.94.26,1.65,2.12,3.05.1,1.01.66,2.08,1.43,2.59-.23,1.39,4.24,4.19,5.34,4.83,3.39,1.97,5.51,3.27,10.02,3.14.94-.03,1.87-.02,2.83-.18.67-.11,1.35-.17,2.02-.06Z"/>
      <path class="cls-2" d="M44.12,46.19c1.4.21,2.78.11,4.15.16.61.02,1.56.34,2.19.17l7.35-1.95c.47-.12,1.07-.66,1.5-.93.75-.47,1.71-.87,2.39-1.36l2.16-1.57c.4-.29.8-.93,1.05-1.27,1.33-1.19,3.03-2.51,3.65-4.43.27-.85.93-1.44,1.84-3.21l1.27-2.49-.08-.19c-.02-.06-.28-.17-.21-.18.11-.01.57-.12.62-.2l.7-1.15c.14-.23.61-.55.52-.74l-.35-.78.58-.18c-.65.21.36-2.79.03-4.05,2.93,1.62,1.08,1.88,3.91,2.79l1.2.39c.72.57,1.44.93,2.23,1.27,4.95,2.12,8.14,2.58,13.33,1.84.07-.52.11-.51.27-.06l3.27-.48c.62-.09,1.3-.43,1.68-.92,1-1.27,1.22-.23,3.38-1.86.74-.55,1.61-1.32,2.06-2.02.53-.81,1.1-1.28,1.49-1.92l1.34-2.23c.45-.75.75-1.27,1.1-2.04.61-1.35,1.16-1.95,1.86-3.84.3-.8.94-1.75,1.37-2.6-.25-.8,0-1.65.53-2.06.2.88.32,1.01.65,1.51l.47,2.28c1.48,1.54,1.42,3.63,3.09,4.68l2.23,1.41c-1.34.67,3.4,3.87,3.8,4.08l-.75,1.3-1.84,1.3c-.9.64-1.99,1.34-2.63,2.18-.44.57-.39.62-1.12.84s-1.56,1.11-2.2,1.4c-.51.24-1.01.45-1.52.78l-.83.53c-.2.13-.09.63-.09.94-.95-.22-1.32.14-1.96.5l-9.37,5.23c-2.84,1.58-3.92,2.04-6.85,3.24l-9.31,3.81-4.47,1.62-1.88.65-5.14,1.62-3.67,1.13-2.51.76-2.73.71-.71-1.1c-.2-.31-1.11.23-1.53.4-2.76,1.15-5.93,1.69-8.93,2.27-1.89.36-3.74.23-5.63.09l-3.14-.23c-1.28-.09-.6-.38-2.11-3.38-2.12-4.22-.67-.32-2.63-3.83.33.31.92.79,1.38.85l3.53.53Z"/>
      <path class="cls-2" d="M173.4,161.63l-.43.87c-1.37-2.31-3.69-3.38-6.07-4.13l-2.75-.86c-1.25-.39-2.33-.85-3.69-1.08-.16-.03-.72-.02-.69-.17l.13-.68c.11-.57.19-1.19.54-1.68.54-.76.72-1.98-.38-2.32s-2.43-.4-3.62-.4l.41-3.84.28-3.12c.16-1.74.27-3.33.25-5.1-.02-1.42.18-3.08.21-4.71s-.04-3.15,0-4.77l.09-3.21c.02-.58-.07-1.06.02-1.67.42-2.85.38-5.63.48-8.48l.21-6.17c.02-.64.06-1.2.1-1.81l.24-4.49.22-2.84,1.95,6.55,1.36,4.8,1.04,3.68c.18.62.46,1.37.67,1.94l1.16.35-.85.26c-.22.07-.04.74.03.99l2.72,10.45c.11.44.24.76.3,1.2.26,1.99,1.74,5.61,2.39,7.31-.42.95.13,1.17.63,3.54l.46,2.16c.27,1.27.6,2.42.93,3.68.27,1.04.24,2.54.47,3.72l.79,4.08c1.01,5.22-.8,3.58.4,5.93Z"/>
      <path class="cls-2" d="M117.02,158.83c-3.18-.21-1.02.4-2.95.64l-.82.1c-.33.04-.24,1.25-.34,1.26,0,0-.31,0-.39.01-.12.02,0-.24.1-.58.08-.73-1.01-1.34-1.84-1.39-2.7-.18-5.27-.34-7.96-.21-1.5.07-3.12-.14-4.72-.29l-2.76-.26c-1.02-.09-2.06-.1-3.13-.1l-7.81.06-2.28-.15c-1.79-.12-3.48-.01-5.2.07-.85.04-2.06-.21-3.1-.23l-2.76-.03-3.14.07-2.36.05c-.74.01-1.42.1-1.98.56-.24-.08-.8-.26-1.08-.38-2.06-.91-.17.06-3.17-.61l-.61-.31c-.19-.09-.54.46-.65.64-.55-.55-1.33-.27-2.06-.14l-2.24.38c-1.18-.62-.62-2.32-.75-3.29-.07-.54-.18-.85,0-1.28.73-1.8.47-3.5.27-5.43.65-.01,1.4,0,2.03.09,1.88.28,3.75.29,5.69.36l3.42.12,2.9.03,1.98-.06,3.95.15c.78.03,1.58.12,2.4.1l3.23-.05h1.96c1.4,0,2.68-.04,3.94-.14l-.15.42c-.02.06.21.13.23.07l.13-.37.16-.46c.03-.09.37,0,.34.09l-.2.64c1.85.07,2.02-.18,3.83-.14l5.26.12,6.29.24c.64.02,1.43-.19,1.97-.33.45-.12,1.23.78,1.81.12l1.01.48c1.55-.02,3.01-.12,4.49-.02.68.05,1.44.34,2.08.11-.59-.3.09-.44.42-.53.35.35.75.62,1.14.7.57.12,1.59-.18,1.77-.67.93,1.23,1.49.13,2.65.72,1,.79.41,2.12.29,3.02-.28,2.11-.59,4.09-1.27,6.02ZM92.07,154.84c1.82.13,3.44.17,5.15.2l.74-1.2-.11-1.76c0-.13-.47-.5-.51-.39l-.1.27-.2.59s-.04-.39-.09-.83c-.88-.14-2.13.03-3.14.07l-2.33.1c-.55.02-1.26.11-1.69.08l-2.42-.17h-3.39c-1.33.01-3.19.29-4.37-.1l-.7.45c.43-.27-4.03-.33-4.83-.17-3.14.63-1.98.37-4.77.79-.07.01-.05-.08,0-.15s.34-.43.3-.5c-.48-.88-2.42-1.42-3.65-.63-.63.4-1.39.26-1.87-.25-.79-.85-1.96-.61-2.68.35l-2.38-1.27c-.3-.16-1.06-.08-1.21.05l-.86,1.33.56.79c.13.19-.38.57-.65.77-.2.14-.29.84-.08.98s.74.39.96.29.38-.6.5-.91l.25-.62c.04-.11.29-.02.49.02.31.78.65,1.52,1.26,2.37.4.56,1.73-1.29,3.05-1.61,1.51,3.42,2.25-.59,5.07.28l.53.15c-.41-.12.89,1.93,3.83.78,1.4-.55,2.68-.65,4.1-.72,1.92-.1,1.11.73,2.8-.4l.58.61c.08.09.26-.23.42-.43,1.07.71,2.22.47,3.47.49l2.54.04c.45,0,.78-.03,1.18,0l4.25.29ZM112.35,154.48c.08-.38.12-.66.11-.88s-.68-.63-.92-.6l-2.93.33c-.4.04-1.26-.32-1.62-.18l-.9.36c-.16.06-.5-.53-.67-.54l-2.18-.19c-.78-.07-1.19.63-1.21,1.24-.03.81.22,1.36,1.08,1.55.59.13,1.39.37,1.94.43l4.28.48c.81.09,1.96.21,2.62-.09l.4-1.9Z"/>
      <path class="cls-2" d="M93.52,177.53l-2.87.27c-.94.09-1.79.06-2.75.12l-3.8.25-4.63.26-3.15.17-3.47.19-1.95.19-4.16.02c-.17,0-.41.04-.47-.06-.07-.13-.15-.53-.16-.72l-.14-3.4-.13-2.35c-.04-.75.6-1.66-.14-2.34,1.1-1.54.22-1.03.35-2.91.19-2.81.33.09.18-4.56-.02-.52-.16-.99-.52-1.4l.72-.62,5.46.2,3.82.21,2.1.09c.37.02,1.27-.23,1.64-.1,1.13.38,2.33.26,3.36.3.14,0,2.62.18,2.75-.01l.44-.64c.74.68,1.51.8,2.4.8h2.97s2.17,0,2.17,0c.69.08,1.46.21,2.21.22l2.29.04c.65,0,1.62.7,2.44.13-.21,1.17.07,2.4-.03,3.42-.12,1.37-.18,2.63-.21,4.03l-.18,8.18-6.57.02ZM83.79,175.04c2.4.05,6.57.34,8.06-1.48l1.53-1.87c.43-.52.58-1.02.3-1.69l.46-.17c.54-.2-1.1-4.1-4.28-4.7-2.08-.39-1.73-1.24-2.04-.92l-.29.29c-.08-.91-.88-.56-1.46-.68-1-.2-2.08-.52-3.1-.41l-3.68.39c-.67.07-4.57,1.69-5.55,2.15-.56.26-1.29,1.17-1.81,1.5l.25.31c.05.06.06.1,0,.1l-.77.06v1.88c0,.38-.42,1.25-.22,1.6.97,1.75,2.88,2.76,4.88,3.07,1.54.24,3.09.47,4.67.5l3.06.06Z"/>
      <path class="cls-2" d="M175.83,79.55l-2.39,2.14.15-4.47c0-.06-.37-.46-.41-.5-.04-.04-.05-.12,0-.13l.59-.05c0-.55-.09-1.31-.21-2.01l.02-2.19-.09-1.96c-.52-1.16-.05-2.13.12-4.09l.4-4.65.31-3.34c.18-1.94.74-4.02.61-6.13l3.81,1.91c.46.23,1.19.5,1.63.65,1.03,1.13,2.45,1.47,3.63,2.1l4.94,2.64,5.91,2.99-2.47,2.01c-.86.7-1.82,1.33-2.67,2.11l-2.27,2.08-2.06,1.79c-3.32,2.88-6.17,6.06-9.55,9.09Z"/>
      <path class="cls-2" d="M198.63,90.07c-.42.53-.61.94-.57,1.5l-1.34.75c.15-1.67.16-3.23-.51-4.67l.4-.33c-.07.06.29-5.93-.62-6.08.2-.31.44-.98.44-1.55v-1.9s.31-6.05.31-6.05l.1-1.92c.09-1.69-.56-3.5-.07-5.09l.39-1.24,7.8,2.85c.64.23,1.03.22,1.66.61.28.18,4.38,1.71,5.33,1.03l.08.35c.06.28,2.43.78,2.65,1.13-.66,1.1-1.21,1.4-1.88,2.08-1.78,1.8-5.45,6.8-7,9.09-.5.74-1.02,1.55-1.56,2.25l-2.82,3.62-2.81,3.57Z"/>
      <path class="cls-2" d="M79.34,67.68l-1.71-1.46-2.91-2.68c-.7-.64-1.43-1.38-2.08-2.13l-3.16-3.66c-.06-.07-.65.11-.67.02l-.13-.6c-.03-.15-.18-.48-.3-.58-.15-.12-.63-.05-.72-.02.1-.68-1.49-3.25-2.81-2.26l-.23-1.79c1.24-.2,2.19-.38,3.27-.66l5-1.32,2.86-1.07c2.67-1,5.32-1.22,7.99-2.5.21.7.08,1.43-.06,2.35s.13,2.03.14,2.97l.05,3.47c0,.56.06,1.25-.04,1.81l-.25,1.44-.23,2.13-.25,2.29-.25,2.73-.39,2.86.86-.35-1.06,1.45-2.91-2.43Z"/>
      <path class="cls-2" d="M49.94,64.63c-.89,1.17.12.16-1-.87-1.19-1.1-2.26-2.26-3.62-3.1-.5-.3-.68-.32-.84-.84l-1.66-1.01.63-3.89c-.1-.09-.37-.24-.31-.32l.4-.49,5.54.62c2.24.25,3.99-.07,6.42-.39,1.8-.24,4.43-1.34,6.64-1.21l-.29,5.04c.09.15.21.41.28.54s-.34.51-.35.64c-.12,2.77.04,3.63-.12,6.77l-.24,4.96c-.04.91-.65,2.16-.85,3.32-1.18-1.32-2.16-2.38-3.32-3.42l-1.88-1.69c-1.22-1.09-2.51-1.91-3.62-2.97l-1.8-1.7Z"/>
      <path class="cls-2" d="M144.61,47.76c-1.91,1.08-3.68,2.09-5.61,2.94l-3.28,1.45.99-3.93c.74-2.94,1.36-5.73,2.21-8.66l.12-1.57c.41-.8.67-1.66.93-2.51l.54-1.71.93-3.03,1.12-3.12c.51,1.18,1.22,2.15,2.67,2.21l-.42.45c-.12.13.11.52.27.65l1.63,1.36c.07.06.5-.02.59-.07-.86.5,2.37,2.88,2.9,3.29l5.38,4.16,1.43.95-3.02,1.83-9.37,5.32Z"/>
      <path class="cls-2" d="M98.89,57.69l-1.21-1.25-1.63-1.4-1.2-1.27-2.47-2.36-3.44-3.57c-.62-.64-1.12-1.22-2.05-1.84l8.99-3.86c.52-.23.88-.33,1.39-.51l1.24-.45c-.31-.61-.31-.83.32-.25.85-.26,1.75-.67,2.48-1.26l1.17-.94.18,2.59.18,4.04c.05,1.14.03,2.36.35,3.52l-.14,1.7c-.05.65.16,1.35.53,1.88l-.27.51c-.07.14.16.52.21.68-.51,3.08.48,4.89-.6,8.47l-1.33-1.47-2.7-2.97Z"/>
      <path class="cls-2" d="M99.3,145.64l-1.72.14c-1.63-.59-2.72.53-3.09.2l-.43-.4c-1.12,0-2.32-.22-3.38-.12-1.21.12-2.17-.02-3.42.04l-2.08.1-1.22-.1-4.56-.11h-6.21s-.27-5.74-.27-5.74h1.2s4.15.03,4.15.03l4.12-.03h3.18s1.83.13,1.83.13h1.98s3.44.04,3.44.04c.74,0,1.45-.08,2.01-.18l2.13.03,2.67.03-.25,3.02c-.07.84-.06,1.92-.09,2.91ZM85.44,143.91l2.54-.23c.6-.05,1.48-.04,2.09,0l2.81.19c.63.04,1.63.05,2.05-.4l.54-1.55c.38-.95-3.83-1.06-3.85-1.06l-7.28.61c-1.35.11-2.8.35-4.03.67l.24.76c.04.13-.27.38-.38.5l1.21.38c.21-.08.41-.25.54-.15l.66.52.84-.82c.61.47,1.25.65,2.01.59ZM78.08,143.39c.27-.16.58-.39.72-.32l.62.3c.4.19.64-.7.36-1.21s-2.1,0-2.21.43c-.06.23.31.93.51.8Z"/>
      <path class="cls-2" d="M59.03,179.26l-1.72.15c-.43-.29-.3-.16.13.2-.48.08-1.16-.06-1.6-.44l1.71-10.86.45-2.24c.24-1.2.4-2.53.55-3.73-.25-.12-.63-.2-.61-.34l.1-.58c.24.7.32.57.35,0-.02-2.58,2.63-.19,4.73-.82l.35,1.44c-.39.75-.17,1.84-.27,2.61-.29,2.14-.77,4.22-.86,6.39l-.1,2.37-.25,3.42c-.05.69-.02,1.55-.03,2.21l-2.92.23Z"/>
      <path class="cls-2" d="M41.73,101.25c-.37.66-.72,1.5-.74,2.31l-.1,3.82c-.32.05-.96.11-1.2.05-.11-.03-1.55-3.9-1.28-4.92l-1.14.22.33,3.29c.06.56.06,1.12-.01,1.59h-1.33c.13-.88-.73-4.77-.26-4.66-.03-1.35-.13-2.8-.21-4.19l-.25-4.36c2.81-.3,3.41.28,6.57.02.47-.04.76-.08,1.16-.05l1.91.14-.28,2.36c-.17,1.46-.33,2.79-.34,4.28-.01,1.31-.37,2.67-.45,3.97l-.13,2.01c-.6.05-1.46-.06-1.76-.32.4-1.04.18-3.37-.4-4.29.18-.33.31-.46-.08-1.26ZM40.91,97.5c.35,1.17,2.18.46,2.15.5l.39-.53c.16.15.55.55.59.39l.16-.6.2-.72c-.74-.61-1.81-.57-2.66-.31-2.32.69-2.4-.27-4.85.54-.69,1.24,2.47,1.87,2.99,1.44l1.22.17-.19-.86Z"/>
      <path class="cls-2" d="M109.4,170.8c.22,2.24-.08,4.32.47,6.6l-5.28.48c-.26.02-.58-.56-.58-.83l-.03-2.66-.15-8.85-.03-3.18c3.17.13,1.81-.75,2.94.05.12.09-.2.25-.48.43l-1.11,1.67c-.1.15.07.91.25.88l.71-.12,2.83-.5c.34,2.89.2,3.27.48,6.05Z"/>
      <path class="cls-2" d="M129.51,161.83c-.12.43-.25,1.04-.37,1.38l-.92,2.59c-2.67-2.17-5.74-3.55-9.03-4.28l.98-2.87c.18-.53.38-1.09.53-1.62.26-.9.75-1.06,1.61-.97,1.92.2,3.88.36,5.78.2.53-.04.82-.08,1.26-.02l1.61.23c-.17.58-.3,1.36-.34,1.95-.97.47-.45,1.04-1.12,3.41Z"/>
      <path class="cls-2" d="M66.57,105.26l.07,1.35-3.85.06-3.44.04-7.33.16c-.34,0-1.09-.22-1.21-.52-.13-.33-.92-3.09.1-3.18l3.25-.27,2.93-.3,1.75-.2c2.62-.3,5.25-.37,7.83-.42l.06.77c.01.18-.47.35-.68.34l-2.06-.1c-1.92-.09-3.67.27-5.49.56-.97.15-2.03.22-3.02.31l-3.04.3c-.29.03-.79.2-.95.38-.19.22-.04,1.1.23,1.24l7.48-.35,7.38-.19Z"/>
      <path class="cls-2" d="M67.88,142.02c.47.91-.99.08-.9,3.3l-2.85.1-2.27.08c-.02-1.17.66-3.28-.98-3.57.62-.61.91-1.81.72-2.73l1.09.24.63.14c.15.03.42-.25.52-.32.16.12.93.65,1.13.45l.82-.81-.08.59c-.1.79,1.91-.75,2.67,1.51l.47-1.27,2.59-.03-.23,5.68-2.46-.12.1-2.2c.02-.49.05-1.22-.15-1.58-.3-.52-.99-.9-1.57-.89l.75,1.45Z"/>
      <path class="cls-2" d="M138.15,169.94l-1,2.5c-.15.36.05,1.24.26,1.55l-.74.58c-1.72-2.89-4.04-5.09-6.59-7.31l4.15-.25c.65-.04,1.27,0,2.02-.08l1.35.09c.66-.14,1.42-.19,1.91.02-.57,1.16-.93,1.83-1.36,2.91Z"/>
      <path class="cls-2" d="M109.95,146.18c-.13.05-3.13.17-3.67-.17,1.05-1.35.89-2.22.84-3.47-.03-.89.26-1.96-.38-2.9,1.28-.39,2.83-.31,4.27.42.09.94-.16,1.85-.21,2.87l-.11,2.22c-.01.27-.5.93-.74,1.03Z"/>
      <path class="cls-2" d="M100.85,145.63l1-1.2.64-1.29c.28-1.9-.91-2.25-.08-3.7l2.24.03c.17,0,.58.24.72.33.17.11-.47.67-.48.92-.03,1.31-.13,3.61-.47,5.16l-3.56-.25Z"/>
      <path class="cls-2" d="M136.34,63.8c-1.02.3-2.01.02-3-.29l-.15-2.26c-.04-.63,2.45-1.65,2.97-1.3l1.62,1.08c1,.67-.29,2.44-1.44,2.78Z"/>
      <path class="cls-2" d="M129.52,95.45c.27-1.99.55-5.63.37-8.04l-.18-2.33c.03.35-.09-4.1.34-3.55l.43,4.64.36,5.85c.07,1.17.24,2.25,1.1,2.95l-1.34.04c-.24,0-.54.13-1.08.44Z"/>
      <path class="cls-2" d="M33.69,98.04l-1.73-1.25c-.24-.22-.19-1.17.06-1.4.29-.28.91-.54,1.49-.62.31,1.16.32,2.37.19,3.27Z"/>
      <path class="cls-2" d="M157.42,155.79c-.11.4-1.3.58-1.63.53l.43-2.89,1.59.27c-.08.57-.21,1.48-.39,2.09Z"/>
      <path class="cls-2" d="M115.1,138.98c-.22.12-.99-.04-1.02-.29s0-.96.14-1.16l.88-1.17,1.31,1.04c-.29.51-.86,1.34-1.3,1.58Z"/>
      <path class="cls-2" d="M253.25,62.82l-1.21,1.48c-.48-.83-.81-1.43-1.29-2.1l-1.89-2.6,1.55-1.33c.52-.45.95-.99,1.32-1.6l1.31-2.2c.08.91.39,1.69,1.04,2.13l.59,1.54c.59.26.78.63,1.25,1.07l1.43,1.35c-.73.43-.91.54-1.33.82-.7.48-2.16.69-2.76,1.43Z"/>
      <path class="cls-2" d="M236.54,81.2c-1.52.96-1.96,2.63-2.97,2.54-.31-.03-.53-.7-.76-1.05-.28-.42-.91-.81-.95-1.22-.04-.45.25-1.13.7-1.45l1.95-1.4c.12-.09.46-.47.37-.56-.11-.12-.35-.38-.35-.38l1.08-.8c.25.21.25,1.38.56,1.76l.95,1.16c.1.13.51.39.64.5s-.31.44-.39.59l-.18.35c-.05.1-.54-.1-.63-.04Z"/>
      <path class="cls-2" d="M12.03,17.66l-2.06-.26,1.2-1.64.58-.04c.09,0,.27-.49.4-.56l1.79-.93c.17-.09.63-.16.82-.18.23-.03.58.68.46.88-.23.39-.83,1.08-1.11,1.46-.93.07-1.71.55-2.07,1.27Z"/>
      <path class="cls-3" d="M99.41,86.44l3.12,2.94c-1.4,3.25-6.82-2.64-7.17-4.7-2.01-.57-4.4-2.53-5.36-4.74l-.69-.65-.96.63c-.27.18-1.07-.13-1.24-.48.43-.76,1.36-1.02,2.31-1.21-.86-1.8.71-4.25,2.2-5.12l2.33-1.35c.66-.38,2.28.27,2.77.87,1.18,1.44-.12,4.04-1.61,5-.85.55-1.57.93-2.67,1.27.52,1.11,1.45,2.27,2.72,2.9l1.89-1.85c1.11-1.09,3-1.37,4.25-.76.29.14.75.75.8,1.03.05.32-.19.79-.31,1.26-.59,2.27-3.63,2.84-3.52,2.9l-.58-.3c.42.83.96,1.67,1.71,2.37ZM94.81,75.24c.1-.38-.44-1.2-.85-1.14-.8.13-1.67.49-1.94,1.01-.34.64-.73,1.65-.29,2.19.47.59,2.76-.88,3.08-2.06Z"/>
      <path class="cls-3" d="M142.42,79.25c1.91.16,3.82.13,5.47.06.38-.02,1.06.63,1.07.88-.63,1.19-2.09,1.14-3.17,1.19l-2.47.13c-1.39.07-2.91-.23-4.16-.91-.03-1.01.3-2.4.97-3.08l2.01-2.05c-1.31.12-1.9-.08-2.89-.57-.33-.06-.94-.08-1.24-.16s-.53-.98-.48-1.31c.19-1.2,1.17-1.98,2.34-2.28l1.43-1.56c1.12-.47,2.12-1.07,2.85-1.89-.76-1.26-1.24-2.41-1.76-3.67-.21-.53-.62-1.07-.53-1.62.19-1.17,1.83-1.59,1.77-1.61.16.05.52.25.66.35l1.24.94c1.21.92,2.14,1.9,3.13,3.12.28.35,1.13.93.84,1.45-.76,1.39-2.28-.91-2.75-.78.27,1.14.47,2.03.16,3l-1.63.78c-1.45.7-2.85,1.66-3.71,3.04l1.63.78c.86,0,1.81-.28,2.7-.33.3-.02.93.7.84,1.02-.26.9-1.4,1.41-1.97,1.88l-1.52,1.26c-.41.34-.67,1.18-.84,1.94Z"/>
      <path class="cls-3" d="M183.73,111.92c.42-.87-1.46-2.92-2.44-3.47-.02-.45.81-1.23,1.31-1.23,1.98,0,3.85,2.47,3.95,3.88.17,2.45-4.81,4.19-5.18,2.86-.93.43-1.61-.29-2.36-.93-.8-.68-1.16-1.37-1.45-2.35-.37-1.25-.07-1.91.29-2.95.55-1.61,1.63-2.44,3.29-3.07,2.15-.82.81-.34,3.58-.76,1.37-.21,6.81,1.53,5.79,4.89-.05.16-.46.64-.59.56l-.55-.34c-1.13-.7-.85-1.18-2.87-2.47l-3.2-.48c-.8-.12-1.9.54-2.57.87-1.2.58-1.18,1.59-1,2.69.22,1.31.74,1.84,2.02,2.39.5.22,1.64.62,1.98-.09Z"/>
      <path class="cls-3" d="M76.33,118.14l-1.12-2.59s-1.77-5.89-1.15-5.96c1.3-1.31,2.88-1.48,4.45-1.83.7-.16,1.66-.91,2.51-.6.32.12.54.96.65,1.29.21.64.9,1.31,1.17,1.92l.81,1.81c.37.82.77,1.44.55,2.18-.25.86-.87,1.31-1.73,1.68l-3.11,1.36c-.85.37-1.96,1.12-3.03.75ZM78.53,114.63c-.05.21-.73.64-.78.43l-.28-1.08c-.08.29-.31,1.21-.32,1.28l1.34.44c-.05-.06.28-.93.59-1.07l3.1-1.45c-.24-1.6-.95-3.23-1.76-4.41l-4.36,1.92c-.06,1.09.15,2.46.73,3.51l.24-1.23c.05-.25.91-.29,1.19-.38l.17-2.26c.03-.42,1-.65,1.4-.46.31.15.56.68.62,1.1.17,1.12-.46,1.84-1.57,2.12l-.33,1.54Z"/>
      <path class="cls-3" d="M95.62,109.85c-.45.06-.85.13-.99-.02l-.59-.62-1.16-1.24c-.54-.57-3.14-3.87-2.4-4.65l2.8-1.64c.17-.1.55-.56.69-.45l.55.48c.04-.28.13-1,.36-1.09.27-.1.73,0,1.1.07-.01-.12-.05-.61.04-.69l1.42-.63c1.55.24,2.16,1.57,2.82,2.74l1.13,2.01c.38.67.67,1.31.63,2.14-.02.56-.63,1.22-1.27,1.69l-.59-.42c-.21.72-1.06,1.31-1.58,1.34-.16.01-.48.55-.64.53l-.67-.09c-.31.54-.85.96-1.42.92.16-.62.12-.77-.24-.39ZM95.48,107.41c.51.14,1.19-.7,1.64-.99l2.64-1.66c-.08-1.02-1.59-3.65-2.07-4.22-.43.81-.72,1.05-1.38,1.46l-1.66,1.05c-.49.31-1.22.94-1.64,1.31,2.49,3.38,1.46.26,2.47,3.05Z"/>
      <path class="cls-3" d="M91.54,127.35c-.87,1.14-2.99,1.43-4.06,1.39l-2.63-.12c-.82,1.02-.99,2.28-.75,3.53l.2,1.07c.06.32-.84.73-1.17.54-1.29-.75-1.68-4.11-.19-4.95l.02-1.56c-.91-.3-1.42-1.12-1.5-1.97-.03-.29-.48-.86-.31-1.06l.82-1c.61-.74.88-1.24,1.58-1.87,1.2-1.06,2.42-2.2,3.7-1.5.13.07-.29.5-.42.56l-.36.17c-.09.04-.23-.18-.35-.31-.24.61-.77,1.09-1.45,1.47l-.92.52-.09.42c-.03.16-.53.16-.96.2l.29.72c-.1.72.18,1.48.59,2.08l-.72.94c3.39-.82,3.99-2.11,8.27-1.77.57.47.78,1.93.41,2.49Z"/>
      <path class="cls-3" d="M178.85,138.22c-.04.82.5,1.89,1.12,2.31.03.46,0,.69-.23.24l-1.38.51c-1.32-.8-1.47-2.34-2.25-3.41l-1.48-2.05c-.54-.75-.89-1.13-.71-2.11.15-.78.48-1.35.88-2.04.36-.63.6-1.32,1.24-1.75l2.18-1.49.8.52c-.81.77-1.89,1.59-2.6,2.39-1.19,1.33-.68,3.2.68,4.04l1.03-1.16c.7.01,1.26-.29,1.73-.73l1.07.21c1.04.21,1.23,1.25,1.1,2.33-.11.84-1.13,1.18-1.9,1.56l-1.28.63Z"/>
      <path class="cls-3" d="M44.73,86.51c-.27,1.74-1.36,5.03-2.85,5.41-.41.1-1.3-.29-1.17-.65.51-1.49,1.9-2.62,1.92-4.14l.02-2.61c-1.66-2.1-4.22-2.23-3.93-5.22.04-.46.15-1.02.36-1.39l1.36-2.33c.34-.58,1.12-1.05,1.61-1.11l.18.94c.04.2-.59.44-.73.58l-.69,1.19c-.06.1-.45.13-.48.24-.31,1.26-.27.81-.44,1.63-.13.6,1.9,2.1,2.3,2.3,1.04.54,1.29,1.17,1.68,2.09s1.04,2.05.88,3.07Z"/>
      <path class="cls-3" d="M207.73,99.89c-.59.41-1.27.52-1.75.44-.79-.14-1.3-.75-1.64-1.33-.7-1.19-.52-2.25.46-3.15,1.47-1.35,3.66-1.45,4.14-1.1.68.5,1.34,3.35.77,3.76l-1.98,1.39ZM207.89,96.22c-.63-.02-1.23.04-1.59.2-.29.13-.13,1.04.05,1.32.17.26.85.33.96.04l.58-1.56Z"/>
      <path class="cls-3" d="M38.01,90.66c-3.65.89.84-1.51-2.16-3.58-.42-.29-.66-1.13-.89-1.58-.19-.36-1.07-.41-.99-1.24l.25-2.66c.87.71.22-.09,1.59-.95.33-.2,1.38-.02,1.44.36.13.78-.74,1.5-.99,2.18-.14.96,1.06,1.84,1.58,2.67.8,1.27,1.13,4.15-.32,4.39.31.26.5.43.48.41Z"/>
      <path class="cls-3" d="M70.7,82.84c-.68.3-1.09.46-1.48.71-.85.56-1.53.25-2.12-.24-.2-.17-.83-.51-.85-.83-.05-.93,1.31-2.36,2.18-2.45.05,0,.28.2.33.18l.33-.1.34-.1c.08-.03.33.21.28.28l-.48.59.92.08.56,1.86Z"/>
      <path class="cls-3" d="M146.66,58.09c-.15.05-.76.09-.83-.05l-.24-.48-1.93-1.23c-.37-.23-1.35-.69-1.01-1.25.29-.47,1.58-.89,1.96-.58l1.4,1.4c.34.34.59.97.62,1.35.04.08.38.29.49.34.14.07-.31.45-.46.5Z"/>
      <path class="cls-3" d="M155.93,50.75c-.01.21-1.08-.37-1.18-.79-.07-.27.72-.67.98-.74l-.5-.52c-.11-.12.28-.44.47-.63.11-.67-.27-2.36.89-2.78.7-.25.84,1.94-.19,3.12.82.86-.11.02-.47,2.33Z"/>
      <path class="cls-3" d="M62.68,124.65c-1.09,1.46-2.6,1.04-3.67.63-.21-.08-.03-.84.17-.96l1.31-.82,2.19,1.15Z"/>
      <path class="cls-3" d="M169.6,94.73l-2.2,1.1c-.23-.4-.43-1.09-.41-1.47.03-.5.74-.88,1.29-1,.24-.06.94,0,1.02.23.11.27.25.83.29,1.15Z"/>
      <path class="cls-3" d="M128.37,129c1.03-.13,2-1.62,2.99-1.3.89.29.24,2.05-.2,2.95-.36.75-.48,2.12-.66,3.06-.24.09-.78.17-.99.09-.42-.16-.98-1.43-.46-2.44-1.29.47-2.71.55-4.15.26-.42-.6-.91-1.3-1.21-1.81-1-1.74,1.73-2.69,1.37-2.8l-.75-.24c-.29-.09-.76-.28-.96-.41-.24-.16-.17-.86-.07-1.13l.22-.53c.04-.1-.3-.4-.27-.51.9-2.94,6.85-3.07,7.62-1.95.27.39.4,1.14.39,1.77-.86-.07-1.45-.37-2.01-.79-.32.43-.59.67-.45-.16l-.73.34-2.71,1.25,2.87.07c.33,0,1.02.26,1.15.33l-.5.67c-.11.15.09.54.24.9l-2.05,1.31c-.13.08-.58-.02-.66.11l-.43.71c-.53.16-.72.2-.31.63l2.72-.35Z"/>
      <path class="cls-3" d="M143.28,139.64c1.82,2.3-.18,5.14-1.1,5.38-1.44.38-3.11.46-4.61.25-1.41-.2-1.72-1.81-1.46-3.01.4-1.84.51-3.67.42-5.49-.03-.61.37-1.57.99-1.82,1.54.69,2.82,1.71,4.12,2.75.5.4.61.99.51,1.65l.58-.22c.18-.07.43.37.55.53ZM139.04,142.37l2.63-.14-.6-1.86-2.25-1.42c-.25.28-.31.84-.28,1.37l-.33,1.52c-.03.14.17.58.25.69s.37-.1.58-.16Z"/>
      <path class="cls-3" d="M132.86,145.39l-.78-2.81-.95.98c-.84.86-2.97,1.43-4.07.18-1.36-1.55-.2-2.72-.18-3.88.82-.81,1.63-1.73,2.11-2.74l.34.22c.23.15.42-.79,1.3-1.23.3-.15.92.13,1.29.34,2.34,1.35,1.61,4.59,2.39,6.42.53-.53,1.12-.3,1.33,0,.77,1.09-.53,2.6-1.4,3.51-.37.39-1.24-.57-1.36-1ZM128.55,141.55c1.14.32,1.29-.67,1.8-1.15.68-.64,1.69-1.15,1.13-2.22l-2.01,1.3c-.46.3-.73,1.59-.92,2.08Z"/>
      <path class="cls-3" d="M121.7,117.7l-.28.69c.03-.08-3.31,1.38-4.29.09l-.19-1.77,3.94-.4.28-.63-1.88-1.16c-1.01-.62-1.75-1.64-1.76-2.82-.01-1.33.5-2.17,1.52-3.05.7-.6,1.44-1.23,2.37-1.27.67-.02,1.97.49,2.13,1.17.28,1.14.44,2.35-.69,3.24l-.91-1.48-1.06-.26c-.76,1.42-1.08.47-1.46,1.78,1.24.71,2.45,1.44,3.39,2.46.85.92.57,1.75.07,2.73l-.32.64c-.08.16-.44.06-.85.04Z"/>
      <path class="cls-3" d="M134.08,116.78c-.67-.14-.81-.14-.09.19,0,.94-.38,2.86-1.37,2.85-.3,0-.81-.52-.85-.82l-.25-2.15c-.14-1.19-.23-3.96.2-5.04l.86-2.13c.28-.69.6-1.57,1.35-2.04,1.36-.86,3.17-.02,3.99,1.56.43.83-.07,2.24-.45,3.18l-.98.41c-.06.38-.13.76-.28.93-.18.21-.86.03-1.14.02l-1.52-.05.04,1.89c0,.31.52.95.5,1.2ZM135.9,111.61c.4-.24.95-1.16.64-1.44-.66-.59-1.91-.51-2.17.18-.32.88-.42,1.61-.33,2.35l1.86-1.09Z"/>
      <path class="cls-3" d="M125.62,143.42v1.7c-1.73,1.69-4.33-.15-5.32-1.77-.33-.54-.37-1.05-.29-1.73.34-3,1.08-1.64,1.2-3.63.04-.65.79-1.84,1.41-2.16,2.1-1.08,2.72-1.01,4.31.21.31,1.4-.11,2.9-1.21,3.85l-2.57.51c-.29.06-.53-.29-.86-.73-.7.78-.9,1.99.01,2.63s1.8.88,3.32,1.13ZM124.1,139.03c.35-.36.85-.96,1.21-1.4-1.18.02-2.13.56-2.87,1.29.41.14,1.38.4,1.66.11Z"/>
      <path class="cls-3" d="M127.76,119.17c-.09.33-1.04.4-1.21.17-.54-.71-.75-3.02-.65-4.3l.29-3.78c.03-.38.63-1.08.87-1.42.73.36.69.98.73,1.73l.15,2.73c.09,1.56.26,3.17-.18,4.85Z"/>
      <path class="cls-3" d="M127.21,107.79l-.39-.57c-.07-.1-.37.31-.49.34-.08.02-.31-.19-.38-.15l-.6.3c-.6-.73,1.25-3.29,2.71-2.68.85.35.55,1.87.03,2.17-.08.04-.56-.06-.6.02l-.27.57Z"/>
      <path class="cls-3" d="M92.07,154.84l-4.25-.29c-.4-.03-.73,0-1.18,0l-2.54-.04c-1.25-.02-2.39.22-3.47-.49-.16.2-.34.51-.42.43l-.58-.61c-1.69,1.13-.88.3-2.8.4-1.42.07-2.69.17-4.1.72-2.94,1.15-4.24-.89-3.83-.78l-.53-.15c-2.82-.86-3.56,3.14-5.07-.28-1.32.32-2.66,2.17-3.05,1.61-.61-.85-.94-1.59-1.26-2.37-.19-.04-.44-.13-.49-.02l-.25.62c-.12.31-.28.8-.5.91s-.76-.16-.96-.29-.12-.83.08-.98c.27-.19.79-.58.65-.77l-.56-.79.86-1.33c.15-.13.91-.21,1.21-.05l2.38,1.27c.72-.96,1.89-1.19,2.68-.35.48.51,1.24.66,1.87.25,1.23-.79,3.17-.25,3.65.63.04.07-.26.43-.3.5s-.07.16,0,.15c2.79-.42,1.63-.16,4.77-.79.8-.16,5.26-.1,4.83.17l.7-.45c1.19.39,3.04.11,4.37.11h3.39s2.42.16,2.42.16c.43.03,1.14-.06,1.69-.08l2.33-.1c1.01-.04,2.25-.21,3.14-.07.05.44.09.86.09.83l.2-.59.1-.27c.04-.12.51.26.51.39l.11,1.76-.74,1.2c-1.71-.04-3.33-.08-5.15-.2Z"/>
      <path class="cls-3" d="M112.35,154.48l-.4,1.9c-.66.3-1.81.18-2.62.09l-4.28-.48c-.55-.06-1.35-.3-1.94-.43-.87-.19-1.11-.74-1.08-1.55.02-.61.43-1.31,1.21-1.24l2.18.19c.17.01.51.61.67.54l.9-.36c.36-.14,1.22.22,1.62.18l2.93-.33c.25-.03.91.38.92.6s-.03.5-.11.88Z"/>
      <path class="cls-3" d="M83.79,175.04l-3.06-.06c-1.58-.03-3.13-.26-4.67-.5-2-.31-3.91-1.31-4.88-3.07-.2-.35.22-1.23.22-1.6v-1.88s.78-.06.78-.06c.07,0,.06-.04,0-.1l-.25-.31c.51-.33,1.25-1.24,1.81-1.5.98-.46,4.88-2.08,5.55-2.15l3.68-.39c1.02-.11,2.1.21,3.1.41.58.12,1.38-.23,1.46.68l.29-.29c.32-.32-.03.53,2.04.92,3.18.6,4.82,4.51,4.28,4.7l-.46.17c.29.67.13,1.17-.3,1.69l-1.53,1.87c-1.5,1.82-5.66,1.53-8.06,1.48ZM90.65,169.93c-.14-.75-1.57-1.2-1.75-.52-.28,1.06-.42,1.7-1.56,2.17.54.15,3.52-.58,3.31-1.65Z"/>
      <path class="cls-3" d="M85.44,143.91c-.76.07-1.4-.12-2.01-.59l-.84.82-.66-.52c-.12-.1-.33.07-.54.15l-1.21-.38c.11-.12.42-.37.38-.5l-.24-.76c1.23-.32,2.67-.55,4.03-.67l7.28-.61s4.23.11,3.85,1.06l-.54,1.55c-.41.45-1.42.44-2.05.4l-2.81-.19c-.61-.04-1.49-.05-2.09,0l-2.54.23Z"/>
      <path class="cls-3" d="M78.08,143.39c-.2.12-.57-.57-.51-.8.11-.43,1.92-.96,2.21-.43s.04,1.4-.36,1.21l-.62-.3c-.14-.07-.46.16-.72.32Z"/>
      <path class="cls-3" d="M40.91,97.5l.19.86-1.22-.17c-.53.44-3.69-.2-2.99-1.44,2.45-.81,2.53.16,4.85-.54.85-.26,1.92-.3,2.66.31l-.2.72-.16.6c-.04.16-.44-.24-.59-.39l-.39.53s-1.8.68-2.15-.5Z"/>
      <path class="cls-2" d="M94.81,75.24c-.32,1.18-2.61,2.65-3.08,2.06-.43-.54-.04-1.55.29-2.19.27-.52,1.14-.88,1.94-1.01.41-.06.95.76.85,1.14Z"/>
      <path class="cls-2" d="M78.53,114.63l.33-1.54c1.11-.28,1.74-1,1.57-2.12-.06-.41-.32-.95-.62-1.1-.4-.19-1.37.05-1.4.46l-.17,2.26c-.28.09-1.14.13-1.19.38l-.24,1.23c-.58-1.05-.79-2.41-.73-3.51l4.36-1.92c.8,1.17,1.52,2.81,1.76,4.41l-3.1,1.45c-.3.14-.64,1.01-.59,1.07l-1.34-.44c0-.07.24-.99.32-1.28l.28,1.08c.05.21.74-.22.78-.43Z"/>
      <path class="cls-2" d="M95.48,107.41c-1.02-2.79.02.33-2.47-3.05.43-.37,1.16-1.01,1.64-1.31l1.66-1.05c.65-.41.95-.65,1.38-1.46.48.57,1.99,3.2,2.07,4.22l-2.64,1.66c-.46.29-1.14,1.12-1.64.99ZM97.25,105.21l-.14-1.53c-.03-.35-.92-.6-1.26-.71s-1.07.36-1.08.73c-.03.66.16,1.59.36,2.27.68.02,1.66-.2,2.11-.76Z"/>
      <path class="cls-1" d="M207.89,96.22l-.58,1.56c-.11.29-.79.22-.96-.04-.18-.28-.34-1.19-.05-1.32.37-.16.96-.22,1.59-.2Z"/>
      <path class="cls-2" d="M139.04,142.37c-.21.06-.49.26-.58.16s-.28-.55-.25-.69l.33-1.52c-.03-.53.03-1.09.28-1.37l2.25,1.42.6,1.86-2.63.14Z"/>
      <path class="cls-2" d="M128.55,141.55c.19-.48.46-1.78.92-2.08l2.01-1.3c.56,1.07-.45,1.58-1.13,2.22-.51.49-.66,1.47-1.8,1.15Z"/>
      <path class="cls-2" d="M135.9,111.61l-1.86,1.09c-.09-.74,0-1.47.33-2.35.25-.69,1.51-.77,2.17-.18.31.28-.24,1.2-.64,1.44Z"/>
      <path class="cls-2" d="M124.1,139.03c-.28.29-1.25.03-1.66-.11.74-.73,1.69-1.27,2.87-1.29-.36.44-.86,1.04-1.21,1.4Z"/>
      <path class="cls-1" d="M90.65,169.93c.21,1.07-2.78,1.8-3.31,1.65,1.15-.47,1.28-1.11,1.56-2.17.18-.69,1.61-.23,1.75.52Z"/>
      <path class="cls-3" d="M97.25,105.21c-.45.56-1.43.78-2.11.76-.2-.68-.39-1.61-.36-2.27.01-.36.75-.84,1.08-.73s1.23.36,1.26.71l.14,1.53Z"/>
    </g>
  </g>
</svg>