<?xml version="1.0" encoding="UTF-8"?>
<svg id="Layer_2" data-name="Layer 2" xmlns="http://www.w3.org/2000/svg" viewBox="0 0 99.61 73.71">
  <defs>
    <style>
      .cls-1 {
        fill: #152a50;
      }
    </style>
  </defs>
  <g id="Address">
    <g>
      <path class="cls-1" d="M99.61,25.39c-.24,6.56-.61,12.29-1.41,18.52l-3.17,24.69c-.17,1.29-1.78,3.95-3.26,3.65-11.08-2.23-21.71-2.18-32.81-.43l-6.85,1.08c-4.12.65-9.63,1.4-13.37.04l-14.37-5.22c-3.77-1.37-7.88-.56-11.83-.74-2.49-.12-5.01-.96-7.37,0-1.11.45-3.04.82-3.53.3-.28-2.76-.6-5.01-.96-7.42-1.11-7.37.06-14.92-.56-22.66-.29-3.69-.05-7.13.2-10.9l.41-6.18c.05-.75-.39-2.9.37-3.01l5.87-.86c2.43-7.97,2.28-6.97,7.38-12.22,4.24-4.37,14.63-5.89,20.1-1,4.87,4.36,6.24,10.41,5.13,17.01l2.79,1.35c1.57-.61,2.83-.68,4.9-.37l2.77-7.79c-2.21-.16-3.81-.27-5.65-1.2-.77-.39-1.06-2.59-.77-3.62s3.64-3.93,6.36-3.55c1.39.19,2.49,1.24,3.57,2.85,2.69-1.4,5.38-3.54,8.32-4.73,4.73-1.92,10.31-1.63,15.12.04,3.34,1.16,6.06,3.65,8.63,5.76.44-.38,1.38-1.24,1.85-1.35l3.99-1.01c1.54-.39,3.06.09,3.87,1.17.9,1.21.85,3.3-.3,4.35-1.71,1.57-3.64,2.56-5.79,3.52l.71,4.27c.07.45-.49,1.8-.56,1.9l10.21,3.75ZM24.81,7.31c1.84-1.31,3.83-2.29,4.96-1.39,1.18,2.77-1.21,4.81-3.63,5.25-.44.08-1.47.8-1.63.44l-.66-1.48c-1.01-2.28-1.45-4.25-.94-6.6-2.4-.16-4.76.65-6.49,2.25l-2.29,2.12c-2.37,2.19-4.23,4.61-5.08,8.11,9.24-.1,18.14,1.14,27.62,3.36,3.05-5.64-1.97-15.38-8.34-16.15-1.34-.16-2.73,0-3.54,1.05-.59.75-.76,2.23.02,3.06ZM64.93,5.67l.77-.75c3.38-3.3-7.13,4.35-5.19,2.57,1.78.73,2.98-.42,4.42-1.82ZM91.89,68.28l2.12-12.61,1.62-12.1,1.66-15.73c-8.64-5.4-20.54-5.2-30.28-4.3l-5.69.52c-.41.04-1.04-.33-1.29-.56-.23-.22.65-1.03.97-1.09,10.61-1.81,14.85-2.74,26.28-1.06.21-3.65-1.11-7.56-3.18-10.29l-4.49.16c-4.34.15-8.71-1.59-10.11-6.21-2.9,4.66-9.33,10.53-14.52,5.82-1.37.76-2.46,2.51-3.12,3.99l-2.69,6.1,5.97.82c1.28.18,3.98.02,4.07,1.72-.32,1.11-.75,2.77-.92,4.17l-1.25,10.5-1.04,11.23-1.24,8.17c-.62,4.09-1.57,8.11-.74,12.18,6.89-1.11,13.14-2.6,19.82-2.98,6.04-.34,11.67.94,18.05,1.55ZM30.67,66.08l7.01,2.82c.38-3.51.75-6.82.91-10.17.21-4.56,1.47-8.89,1.9-13.42l1.83-19.48c.08-.88-.18-2.39-.64-2.97s-1.95-.64-2.85-.84c-9.64-2.14-21.78-3.59-31.61-2.6l-4.64.47c-.21,3.57-1.26,7.17-.99,10.74l.88,11.55c.58,7.51.61,13.53,1.8,20.96,3.06-.54,5.33-.23,8.2,0,9.27.73,8.89-.8,18.19,2.93ZM39.91,70.32l11.38-.4c.04-.85-.51-2.5-.87-3.39,1.84-8.92,2.92-18.06,3.92-27.17.58-5.32,1.76-10.04,1.66-15.44l-11.48-.05-.64,10.38c-.3,4.86-.51,9.67-1.22,14.59-.83,5.71-1.31,11.06-1.69,16.74-.09,1.42-.74,3.29-1.06,4.73Z"/>
      <path class="cls-1" d="M75.96,61.58l.14-4.92-3.56-.53c-.15,1.76-.18,3.7-.74,5.18-.34.89-3.14.88-3.61.06-.62-1.1.93-2.01,1.79-2.27.96-.28,1.26-2.57,1.03-3.47-4.7-2.02-3.51-8.22-1.96-10.76l2.5-4.09c-1.6-.09-1.89,2.4-3.74,2.94-.45.13-1.16-.76-1.52-1.2l-2.12.56-1.52-3.94c-1.14-2.95,1.53-7.34,4.36-8.4s6.95-.9,8.93.89c2.62,2.37,2.42,5.53,3.46,8.33.18.47,4.18-4.76,7.42-2.54.42.62-.21,2.18-.74,3,1.67.75,2.34,2,2.1,3.86-.29,2.26-1.48,3.85-3.05,5.26-.46.41-.82,1.8-1.32,2.02-.58.26-1.82.07-2.67-.08l-.07,4.06c-.01.75-1.96.86-3.01.81-.97-.05-1.26,3.34-.31,3.53l3.82.74c-.57,1.47-1.43,2.16-2.2,2.22-.83.06-3.45-.3-3.42-1.25ZM79.17,54.18c-.29-3.54-.47-6.47-.92-9.7l-1.42-10.29c-2.02-2.31-8.23-3.34-11.27-.64-1.2,1.07-1.68,2.71-1.72,4.72l9.49.75c1.79,1.05-4.64,6.41-3.84,11.73,1.43,3.87,5.71,3.58,9.68,3.44ZM86.28,42.96l-.92-.08c-.73-.06-1.33-.13-1.73-.27-1.44-.52,2.5-3.23,1.52-3.83-2.28-.34-3.61.85-4.61,2.18-1.82,2.4.11,8.48,1.77,8.25l-.72-2.05c-.87-2.46,4.14.96,3.65-.63l-1.35-1.7c-.85-1.07,4.67-1.68,2.39-1.87Z"/>
      <path class="cls-1" d="M86.58,29.29l-10.7-1.47-3.12.69c-2.11-2.7-4.23.39-4.78-.42l-.92-1.35-2.16,2.11c.03-1.4.46-2.63,1.52-3.89.45-.54,1.97.52,2.32,1.31,1.46-1.59,3.15-.09,4.35-.08,2.09,0,4.27-.18,6.46.16l6.76,1.06c.2.03.71.2.9.25.3.08-.24,1.67-.63,1.62Z"/>
      <path class="cls-1" d="M65.29,18.31c-1.65-.5-.71-3.74.76-3.3.93.28.14,3.29-.76,3.3Z"/>
      <path class="cls-1" d="M69.08,18.53c-1.01-.45-.58-3.36.5-3.67,1.18.39,1.03,3.26-.5,3.67Z"/>
      <path class="cls-1" d="M30.91,30.88c-6.35-2.46-4.82,2.89-10.96-2.36-1.88.22-3.96,1.08-6.16,1.73-.83.25-1.88-1.83-2.24-2.6l-.48-1.05c-.12-.26-.96.38-1.1.64l-1.52,2.9c-1.04-2-.04-4.88,2.25-5.3,1.24-.23,2.3,2.41,2.73,3.53,7.49-2.56,5.21-2.36,9.37.5,1.54,1.06,3.91-.86,5.44-.46l8.1,2.13c-1.65,1.66-3.75.99-5.44.34Z"/>
      <path class="cls-1" d="M33.27,61.95c-2.84.45-5.36-.3-8.12-.97-.33-1.46-.29-3.06-.05-4.85l8.72,1.66c.99.41.62,3.97-.55,4.16ZM32.36,58.65l-6.23-.32c-.22,1.07,5.06,2.71,6.75,1.16.16-.14-.3-.83-.51-.84Z"/>
      <path class="cls-1" d="M30.91,37.68l-12.69-2.28c-.81-.15-2.55,1.36-3.2.9l-2.74-1.91-3.15,1.67c-.36-1.7.95-2.55,2.35-2.92.93-.25,2.32.7,3.54,1.41l5.36-.27,10.34,1.6c.5.08,1.14.23,1.46.35.57.22-.44,1.6-1.26,1.45Z"/>
      <path class="cls-1" d="M20.47,39.61c.33,0,1.36,1.02,1.15,1.26s-.83.6-1.17.59c-1.21-.24-2.67-.56-4.12-1.18,1.44-.65,2.61-.66,4.14-.67Z"/>
      <path class="cls-1" d="M14.81,40.85c-.67-.97-.78-1.17-.46-1.2l1.49-.19c.26-.03.71.91.46.98l-1.49.41Z"/>
      <path class="cls-1" d="M28.98,16.03l-1.52-2.19-2.22,1.58c-.44-.89-.28-2.18.58-2.81.64-.48,2.23-.62,2.91-.04.88.74,1.1,1.95.25,3.46Z"/>
      <path class="cls-1" d="M22,14.6l-1.8-1.15c-.45-.29-1.54.43-2.31.75-.5-.52-.22-1.91.43-2.18.95-.39,2.33-.52,2.99-.25.72.3,1.07,2.29.69,2.83Z"/>
      <path class="cls-1" d="M69.36,33.83c.63.19-.96,2.36-1.12,1.85l-.37-1.17c-.06-.18.28-1.04.46-.99l1.03.31Z"/>
    </g>
  </g>
</svg>