<svg xmlns="http://www.w3.org/2000/svg" xmlns:xlink="http://www.w3.org/1999/xlink" width="1366" zoomAndPan="magnify" viewBox="0 0 1024.5 576" height="768" preserveAspectRatio="xMidYMid meet" version="1.0"><defs><clipPath id="328febfa43"><path d="M 392 196 L 553 196 L 553 380 L 392 380 Z M 392 196 " clip-rule="nonzero"/></clipPath><clipPath id="df8a3ff95f"><path d="M 482.453125 196.339844 L 552.140625 241.816406 L 462.007812 379.929688 L 392.324219 334.453125 Z M 482.453125 196.339844 " clip-rule="nonzero"/></clipPath><clipPath id="3c2a18a8ca"><path d="M 45 5 L 95 5 L 95 160 L 45 160 Z M 45 5 " clip-rule="nonzero"/></clipPath><clipPath id="2d4afe2d1d"><path d="M 90.453125 0.339844 L 160.140625 45.816406 L 70.007812 183.929688 L 0.324219 138.453125 Z M 90.453125 0.339844 " clip-rule="nonzero"/></clipPath><clipPath id="d91d9732d2"><path d="M 160.128906 45.808594 L 90.445312 0.335938 L 0.316406 138.449219 L 70 183.921875 Z M 160.128906 45.808594 " clip-rule="nonzero"/></clipPath><clipPath id="a053cf768e"><path d="M 160.128906 45.808594 L 90.445312 0.335938 L 0.316406 138.449219 L 70 183.921875 Z M 160.128906 45.808594 " clip-rule="nonzero"/></clipPath><clipPath id="4899712cd6"><path d="M 34 127 L 84 127 L 84 171 L 34 171 Z M 34 127 " clip-rule="nonzero"/></clipPath><clipPath id="77c2dd3eb4"><path d="M 90.453125 0.339844 L 160.140625 45.816406 L 70.007812 183.929688 L 0.324219 138.453125 Z M 90.453125 0.339844 " clip-rule="nonzero"/></clipPath><clipPath id="2de90767d4"><path d="M 160.128906 45.808594 L 90.445312 0.335938 L 0.316406 138.449219 L 70 183.921875 Z M 160.128906 45.808594 " clip-rule="nonzero"/></clipPath><clipPath id="6dabce15a1"><path d="M 160.128906 45.808594 L 90.445312 0.335938 L 0.316406 138.449219 L 70 183.921875 Z M 160.128906 45.808594 " clip-rule="nonzero"/></clipPath><clipPath id="a01611fc8a"><path d="M 30 155 L 36 155 L 36 159 L 30 159 Z M 30 155 " clip-rule="nonzero"/></clipPath><clipPath id="1c5b708026"><path d="M 90.453125 0.339844 L 160.140625 45.816406 L 70.007812 183.929688 L 0.324219 138.453125 Z M 90.453125 0.339844 " clip-rule="nonzero"/></clipPath><clipPath id="62cf01e75c"><path d="M 160.128906 45.808594 L 90.445312 0.335938 L 0.316406 138.449219 L 70 183.921875 Z M 160.128906 45.808594 " clip-rule="nonzero"/></clipPath><clipPath id="d576c08dbc"><path d="M 160.128906 45.808594 L 90.445312 0.335938 L 0.316406 138.449219 L 70 183.921875 Z M 160.128906 45.808594 " clip-rule="nonzero"/></clipPath><clipPath id="162f2a9945"><path d="M 93 2 L 97 2 L 97 7 L 93 7 Z M 93 2 " clip-rule="nonzero"/></clipPath><clipPath id="6c02b1e080"><path d="M 90.453125 0.339844 L 160.140625 45.816406 L 70.007812 183.929688 L 0.324219 138.453125 Z M 90.453125 0.339844 " clip-rule="nonzero"/></clipPath><clipPath id="3cad358e86"><path d="M 160.128906 45.808594 L 90.445312 0.335938 L 0.316406 138.449219 L 70 183.921875 Z M 160.128906 45.808594 " clip-rule="nonzero"/></clipPath><clipPath id="6e11ad4f15"><path d="M 160.128906 45.808594 L 90.445312 0.335938 L 0.316406 138.449219 L 70 183.921875 Z M 160.128906 45.808594 " clip-rule="nonzero"/></clipPath><clipPath id="af6d205297"><path d="M 88 9 L 90 9 L 90 11 L 88 11 Z M 88 9 " clip-rule="nonzero"/></clipPath><clipPath id="0fd057f089"><path d="M 90.453125 0.339844 L 160.140625 45.816406 L 70.007812 183.929688 L 0.324219 138.453125 Z M 90.453125 0.339844 " clip-rule="nonzero"/></clipPath><clipPath id="13458fe588"><path d="M 160.128906 45.808594 L 90.445312 0.335938 L 0.316406 138.449219 L 70 183.921875 Z M 160.128906 45.808594 " clip-rule="nonzero"/></clipPath><clipPath id="55c7a3168e"><path d="M 160.128906 45.808594 L 90.445312 0.335938 L 0.316406 138.449219 L 70 183.921875 Z M 160.128906 45.808594 " clip-rule="nonzero"/></clipPath><clipPath id="4a38164796"><path d="M 93 7 L 95 7 L 95 8 L 93 8 Z M 93 7 " clip-rule="nonzero"/></clipPath><clipPath id="00e4747196"><path d="M 90.453125 0.339844 L 160.140625 45.816406 L 70.007812 183.929688 L 0.324219 138.453125 Z M 90.453125 0.339844 " clip-rule="nonzero"/></clipPath><clipPath id="addb99c27a"><path d="M 160.128906 45.808594 L 90.445312 0.335938 L 0.316406 138.449219 L 70 183.921875 Z M 160.128906 45.808594 " clip-rule="nonzero"/></clipPath><clipPath id="b6c37167c1"><path d="M 160.128906 45.808594 L 90.445312 0.335938 L 0.316406 138.449219 L 70 183.921875 Z M 160.128906 45.808594 " clip-rule="nonzero"/></clipPath><clipPath id="395c1cf6bd"><rect x="0" width="161" y="0" height="184"/></clipPath></defs><g clip-path="url(#328febfa43)"><g clip-path="url(#df8a3ff95f)"><g transform="matrix(1, 0, 0, 1, 392, 196)"><g clip-path="url(#395c1cf6bd)"><g clip-path="url(#3c2a18a8ca)"><g clip-path="url(#2d4afe2d1d)"><g clip-path="url(#d91d9732d2)"><g clip-path="url(#a053cf768e)"><path fill="#142950" d="M 63.007812 42.789062 C 63.300781 42.265625 63.722656 41.851562 64.082031 41.386719 C 64.316406 41.085938 64.511719 40.714844 64.96875 40.59375 C 65.175781 40.539062 65.488281 40.597656 65.664062 40.320312 C 65.410156 40.269531 65.015625 40.199219 65.15625 39.976562 C 65.425781 39.550781 65.742188 39.160156 65.992188 38.707031 C 66.082031 38.542969 66.328125 38.371094 66.457031 38.167969 C 66.753906 37.714844 66.878906 37.132812 67.488281 36.933594 C 67.519531 36.921875 67.554688 36.871094 67.558594 36.828125 C 67.738281 35.933594 68.628906 35.339844 68.621094 34.363281 C 68.625 34.308594 68.652344 34.246094 68.691406 34.207031 C 69.414062 33.402344 69.949219 32.464844 70.492188 31.539062 C 70.597656 31.359375 70.707031 31.253906 70.953125 31.328125 C 71.136719 31.386719 71.332031 31.222656 71.257812 31.082031 C 71.019531 30.601562 71.316406 30.433594 71.636719 30.226562 C 71.722656 30.171875 71.792969 30.042969 71.8125 29.933594 C 71.871094 29.605469 72.054688 29.488281 72.378906 29.453125 C 72.757812 29.417969 73.015625 29.066406 72.972656 28.675781 C 72.953125 28.464844 73.039062 28.355469 73.222656 28.347656 C 73.402344 28.339844 73.46875 28.222656 73.550781 28.105469 C 73.355469 27.964844 73.429688 27.820312 73.527344 27.652344 C 73.640625 27.453125 73.835938 27.296875 73.871094 27.050781 C 73.914062 26.746094 74.152344 26.714844 74.382812 26.675781 C 74.464844 26.660156 74.574219 26.816406 74.636719 26.660156 C 74.671875 26.570312 74.605469 26.488281 74.523438 26.441406 C 74.222656 26.257812 74.347656 26.0625 74.496094 25.859375 C 74.820312 25.417969 75.152344 24.976562 75.460938 24.523438 C 75.765625 24.078125 76.203125 23.722656 76.433594 23.21875 C 76.46875 23.136719 76.546875 23.09375 76.640625 23.078125 C 76.789062 23.054688 76.902344 22.925781 76.894531 22.8125 C 76.875 22.519531 77.117188 22.398438 77.230469 22.191406 C 77.390625 21.902344 77.734375 21.816406 77.898438 21.515625 C 78.144531 21.0625 78.460938 20.640625 78.734375 20.199219 C 78.871094 19.976562 79.015625 19.855469 79.300781 19.914062 C 79.558594 19.96875 79.644531 19.917969 79.542969 19.585938 C 79.367188 19.03125 80.046875 18.96875 80.25 18.609375 C 80.328125 18.46875 80.476562 18.238281 80.742188 18.351562 C 80.769531 18.359375 80.796875 18.371094 80.820312 18.390625 C 81.265625 18.738281 81.695312 18.496094 82.144531 18.347656 C 82.144531 18.574219 82.058594 18.828125 82.347656 18.945312 C 82.648438 18.613281 82.738281 18.152344 82.824219 17.761719 C 82.917969 17.3125 82.964844 17.277344 83.289062 17.546875 C 83.363281 17.609375 83.445312 17.625 83.527344 17.570312 C 83.59375 17.527344 83.621094 17.464844 83.609375 17.382812 C 83.59375 17.273438 83.507812 17.25 83.417969 17.238281 C 83.320312 17.222656 83.21875 17.207031 83.121094 17.195312 C 82.871094 17.171875 82.640625 17.039062 82.5625 16.835938 C 82.480469 16.636719 82.820312 16.539062 82.863281 16.3125 C 82.871094 16.246094 83.007812 16.269531 83.089844 16.324219 C 83.703125 16.710938 83.859375 16.65625 84.050781 16 C 84.078125 15.941406 84.105469 15.890625 84.132812 15.835938 C 84.132812 15.679688 84.132812 15.535156 83.898438 15.585938 C 83.769531 15.617188 83.679688 15.539062 83.628906 15.417969 C 83.417969 14.925781 83.496094 14.703125 83.992188 14.417969 C 84.03125 14.398438 84.09375 14.359375 84.09375 14.347656 C 84.007812 13.976562 84.40625 13.964844 84.542969 13.753906 C 84.621094 13.636719 84.808594 13.488281 84.976562 13.71875 C 85.03125 13.789062 85.109375 13.847656 85.195312 13.773438 C 85.289062 13.695312 85.207031 13.625 85.164062 13.546875 C 85.019531 13.296875 85.15625 13.179688 85.382812 13.097656 C 85.722656 12.964844 86.015625 13.273438 86.347656 13.195312 C 86.328125 13.445312 86.828125 13.417969 86.644531 13.757812 C 86.84375 13.914062 87.117188 13.980469 87.183594 14.285156 C 87.214844 14.40625 87.371094 14.46875 87.511719 14.449219 C 87.675781 14.429688 87.652344 14.296875 87.644531 14.183594 C 87.589844 14.109375 87.546875 14.023438 87.632812 13.953125 C 87.949219 13.695312 87.992188 13.519531 87.5 13.492188 C 87.394531 13.484375 87.3125 13.441406 87.304688 13.308594 C 87.285156 12.804688 87.257812 12.777344 86.808594 12.984375 C 86.5625 13.097656 86.425781 13.035156 86.25 12.855469 C 86.046875 12.652344 86.136719 12.5 86.242188 12.316406 C 86.335938 12.15625 86.421875 11.984375 86.507812 11.820312 C 86.707031 11.425781 86.992188 11.324219 87.441406 11.488281 C 87.59375 11.257812 87.75 11.03125 87.898438 10.800781 C 87.984375 10.664062 88.199219 10.542969 88.246094 10.621094 C 88.46875 10.988281 88.714844 10.804688 88.984375 10.730469 C 89.105469 10.699219 89.246094 10.75 89.332031 10.871094 C 89.332031 10.871094 89.359375 10.863281 89.359375 10.863281 C 89.421875 10.4375 89.859375 10.320312 90.109375 10.167969 C 90.609375 9.855469 90.691406 9.496094 90.613281 9 C 90.597656 8.894531 90.628906 8.753906 90.6875 8.664062 C 90.828125 8.460938 90.886719 8.257812 90.84375 8.007812 C 90.816406 7.859375 90.84375 7.617188 91.050781 7.640625 C 91.503906 7.695312 91.644531 7.359375 91.832031 7.082031 C 91.929688 6.933594 92.007812 6.855469 92.179688 6.957031 C 92.273438 7.019531 92.320312 7.246094 92.464844 7.109375 C 92.585938 7 92.425781 6.871094 92.375 6.757812 C 92.3125 6.628906 92.25 6.492188 92.15625 6.382812 C 91.878906 6.050781 92.199219 5.785156 92.269531 5.507812 C 92.320312 5.296875 92.574219 5.242188 92.773438 5.257812 C 92.988281 5.273438 93.207031 5.324219 93.410156 5.402344 C 93.597656 5.476562 93.769531 5.609375 93.773438 5.835938 C 93.777344 6.074219 93.597656 6.125 93.410156 6.117188 C 93.175781 6.105469 93.175781 6.285156 93.128906 6.433594 C 93.074219 6.605469 93.179688 6.625 93.304688 6.660156 C 93.367188 6.675781 93.414062 6.742188 93.46875 6.785156 C 93.160156 7.03125 93.496094 7.394531 93.296875 7.667969 C 93.117188 7.902344 93.1875 8.070312 93.46875 8.15625 C 93.785156 8.261719 93.949219 8.53125 94.109375 8.78125 C 94.246094 9 93.941406 9.046875 93.886719 9.199219 C 93.867188 9.253906 93.851562 9.3125 93.847656 9.367188 C 93.839844 9.648438 93.6875 9.75 93.425781 9.832031 C 92.8125 10.03125 92.140625 10.207031 92.234375 11.097656 C 92.246094 11.226562 92.144531 11.304688 92.039062 11.277344 C 91.457031 11.117188 91.347656 11.519531 91.222656 11.929688 C 91.15625 12.152344 91.117188 12.308594 91.441406 12.285156 C 91.585938 12.273438 91.605469 12.355469 91.601562 12.507812 C 91.597656 12.878906 91.375 12.882812 91.101562 12.808594 C 91.179688 13.140625 91.089844 13.394531 90.832031 13.574219 C 90.730469 13.644531 90.65625 13.742188 90.644531 13.859375 C 90.597656 14.527344 89.84375 14.636719 89.617188 15.167969 C 89.5625 15.304688 89.414062 15.164062 89.308594 15.136719 C 89.148438 15.09375 89.0625 15.183594 89.15625 15.3125 C 89.335938 15.554688 89.203125 15.671875 89.03125 15.816406 C 88.910156 15.917969 88.789062 16.0625 88.796875 16.222656 C 88.820312 16.574219 88.605469 16.792969 88.394531 17.015625 C 88.3125 17.101562 88.261719 17.183594 88.238281 17.308594 C 88.164062 17.664062 87.957031 17.898438 87.5625 17.878906 C 87.308594 17.867188 87.226562 18 87.300781 18.203125 C 87.4375 18.550781 87.265625 18.597656 86.996094 18.535156 C 86.703125 18.46875 86.617188 18.582031 86.660156 18.851562 C 86.691406 19.089844 86.664062 19.273438 86.34375 19.203125 C 86.230469 19.179688 86.109375 19.234375 86.109375 19.347656 C 86.125 19.722656 85.84375 19.984375 85.765625 20.320312 C 85.722656 20.511719 85.691406 20.679688 85.402344 20.609375 C 85.210938 20.566406 85.222656 20.742188 85.253906 20.882812 C 85.277344 20.988281 85.40625 21.113281 85.253906 21.191406 C 85.109375 21.269531 85.011719 21.144531 84.921875 21.050781 C 84.835938 20.957031 84.730469 20.777344 84.628906 20.960938 C 84.460938 21.277344 84.375 21.640625 83.933594 21.683594 C 83.917969 22.210938 83.476562 22.457031 83.214844 22.824219 C 83.078125 23.011719 83.023438 23.257812 82.820312 23.429688 C 82.714844 23.515625 82.640625 23.664062 82.601562 23.800781 C 82.472656 24.28125 82.1875 24.382812 81.835938 24.035156 C 81.664062 23.863281 81.453125 23.835938 81.242188 23.808594 C 81.175781 23.804688 81.089844 23.828125 81.066406 23.910156 C 81.039062 24 81.125 24.027344 81.175781 24.078125 C 81.308594 24.226562 81.535156 24.121094 81.726562 24.273438 C 81.199219 24.5625 81.390625 25.28125 80.859375 25.554688 C 80.808594 25.582031 80.710938 25.710938 80.695312 25.777344 C 80.632812 26.070312 80.273438 26.285156 80.46875 26.644531 C 80.5625 26.808594 80.402344 26.859375 80.316406 26.957031 C 80.132812 27.167969 79.757812 27.152344 79.671875 27.449219 C 79.582031 27.78125 79.367188 27.839844 79.082031 27.804688 C 78.871094 27.777344 78.664062 27.925781 78.441406 27.8125 C 78.363281 27.777344 78.292969 27.886719 78.253906 27.96875 C 78.226562 28.023438 78.21875 28.101562 78.277344 28.121094 C 78.785156 28.292969 78.558594 28.777344 78.777344 29.117188 C 78.488281 29.078125 78.242188 29.179688 78.085938 28.90625 C 78.011719 28.769531 77.878906 28.839844 77.804688 28.949219 C 77.75 29.03125 77.535156 29.15625 77.675781 29.207031 C 78.046875 29.332031 77.753906 29.882812 78.203125 29.945312 C 78.292969 29.957031 78.222656 30.105469 78.085938 30.117188 C 77.613281 30.164062 77.457031 30.328125 77.613281 30.742188 C 77.703125 30.988281 77.601562 31.144531 77.472656 31.234375 C 77.117188 31.484375 77.105469 31.78125 77.207031 32.15625 C 77.265625 32.371094 77.300781 32.582031 76.902344 32.546875 C 76.699219 32.527344 76.3125 32.664062 76.316406 32.921875 C 76.324219 33.105469 76.285156 33.226562 76.253906 33.394531 C 76.191406 33.691406 75.964844 33.921875 75.972656 34.234375 C 75.972656 34.449219 75.890625 34.59375 75.617188 34.53125 C 75.460938 34.492188 75.246094 34.523438 75.253906 34.734375 C 75.261719 35.011719 75.074219 35.222656 75.039062 35.484375 C 75.015625 35.6875 74.949219 35.839844 74.671875 35.78125 C 74.457031 35.742188 74.378906 35.929688 74.449219 36.089844 C 74.554688 36.324219 74.550781 36.546875 74.378906 36.6875 C 74.183594 36.847656 73.941406 36.796875 73.738281 36.621094 C 73.660156 36.554688 73.550781 36.496094 73.472656 36.609375 C 73.394531 36.734375 73.53125 36.773438 73.59375 36.851562 C 73.808594 37.113281 73.851562 37.417969 73.78125 37.746094 C 73.757812 37.859375 73.734375 37.921875 73.582031 37.898438 C 73.207031 37.835938 72.960938 38.097656 73.046875 38.46875 C 73.078125 38.609375 73.050781 38.714844 72.96875 38.78125 C 72.757812 38.960938 72.414062 39 72.425781 39.386719 C 72.425781 39.433594 72.269531 39.429688 72.1875 39.386719 C 72.0625 39.316406 71.914062 39.289062 71.847656 39.441406 C 71.792969 39.570312 71.679688 39.738281 71.839844 39.882812 C 72.039062 40.058594 71.933594 40.207031 71.835938 40.382812 C 71.730469 40.574219 71.46875 40.738281 71.734375 41.027344 C 71.824219 41.128906 71.691406 41.382812 71.496094 41.320312 C 71.199219 41.230469 71.246094 41.355469 71.226562 41.566406 C 71.207031 41.824219 71.050781 42.226562 70.835938 42.164062 C 70.359375 42.03125 70.507812 42.410156 70.390625 42.566406 C 70.335938 42.632812 70.308594 42.746094 70.246094 42.777344 C 69.964844 42.90625 69.855469 43.089844 69.929688 43.402344 C 69.957031 43.507812 69.964844 43.742188 69.707031 43.648438 C 69.335938 43.511719 69.394531 43.730469 69.4375 43.957031 C 69.472656 44.148438 69.496094 44.390625 69.21875 44.371094 C 68.820312 44.335938 68.789062 44.484375 68.902344 44.800781 C 68.964844 44.980469 68.992188 45.285156 68.777344 45.277344 C 68.191406 45.253906 68.21875 45.527344 68.378906 45.921875 C 68.425781 46.039062 68.429688 46.207031 68.300781 46.214844 C 68.105469 46.222656 67.957031 46.425781 67.78125 46.363281 C 67.601562 46.300781 67.734375 46.136719 67.75 46.019531 C 67.800781 45.597656 67.921875 45.160156 67.425781 44.898438 C 67.285156 44.90625 67.140625 44.914062 67 44.921875 C 66.632812 45.414062 66.460938 45.914062 66.886719 46.464844 C 66.964844 46.570312 66.960938 46.722656 66.921875 46.847656 C 66.832031 47.113281 66.898438 47.351562 67 47.609375 C 67.082031 47.808594 67.226562 48.070312 66.980469 48.253906 C 66.757812 48.414062 66.742188 48.632812 66.710938 48.863281 C 66.675781 49.101562 66.640625 49.390625 66.394531 49.480469 C 66.058594 49.605469 65.976562 49.941406 65.878906 50.15625 C 65.753906 50.441406 65.554688 50.6875 65.484375 51.007812 C 65.433594 50.96875 65.390625 50.945312 65.390625 50.933594 C 65.46875 50.570312 65.195312 50.539062 64.980469 50.554688 C 64.695312 50.570312 64.804688 50.832031 64.785156 51.007812 C 64.769531 51.15625 64.84375 51.277344 64.898438 51.414062 C 65.042969 51.761719 65.140625 52.164062 64.871094 52.464844 C 64.605469 52.757812 64.539062 53.058594 64.5625 53.417969 C 64.574219 53.582031 64.542969 53.753906 64.351562 53.710938 C 64.089844 53.652344 64.113281 53.785156 64.101562 53.957031 C 64.09375 54.082031 64 54.199219 63.976562 54.328125 C 63.859375 54.964844 63.148438 55.304688 63.15625 56.007812 C 63.160156 56.097656 63.023438 56.089844 62.9375 56.101562 C 62.601562 56.167969 62.335938 56.550781 62.296875 56.890625 C 62.238281 57.480469 62.417969 58.210938 61.542969 58.40625 C 61.382812 58.441406 61.523438 58.546875 61.539062 58.613281 C 61.613281 58.90625 61.660156 59.148438 61.351562 59.386719 C 61.101562 59.582031 60.941406 59.867188 61.222656 60.214844 C 61.316406 60.335938 61.417969 60.601562 61.042969 60.5625 C 60.863281 60.542969 60.859375 60.648438 60.875 60.816406 C 60.921875 61.328125 60.773438 61.804688 60.542969 62.265625 C 60.40625 62.539062 60.117188 62.476562 59.925781 62.609375 C 59.851562 62.660156 59.769531 62.695312 59.738281 62.785156 C 59.585938 63.265625 59.410156 63.738281 59.304688 64.226562 C 59.246094 64.492188 59.164062 64.707031 58.933594 64.824219 C 58.714844 64.9375 58.753906 65.027344 58.875 65.191406 C 59.046875 65.429688 59.15625 65.652344 58.816406 65.914062 C 58.660156 66.03125 58.289062 66.265625 58.605469 66.621094 C 58.65625 66.671875 58.648438 66.847656 58.59375 66.90625 C 58.359375 67.175781 58.476562 67.714844 57.9375 67.75 C 57.839844 67.757812 57.816406 67.859375 57.839844 67.957031 C 57.894531 68.171875 57.789062 68.351562 57.738281 68.550781 C 57.679688 68.78125 57.59375 69.039062 57.640625 69.253906 C 57.75 69.734375 57.582031 70.105469 57.363281 70.507812 C 57.203125 70.804688 56.929688 71.113281 57.183594 71.511719 C 57.265625 71.644531 57.347656 71.875 57.128906 71.976562 C 56.910156 72.078125 56.835938 72.148438 57.066406 72.316406 C 57.183594 72.394531 57.074219 72.5 57.078125 72.589844 C 57.09375 72.898438 56.734375 72.886719 56.660156 73.097656 C 56.507812 73.539062 56.503906 74.023438 56.207031 74.417969 C 56.140625 74.503906 56.230469 74.578125 56.296875 74.636719 C 56.382812 74.707031 56.453125 74.820312 56.355469 74.894531 C 56.171875 75.035156 56.25 75.164062 56.3125 75.316406 C 56.363281 75.445312 56.355469 75.597656 56.285156 75.699219 C 55.804688 76.390625 55.929688 77.328125 55.339844 77.972656 C 55.253906 78.0625 55.335938 78.164062 55.351562 78.261719 C 55.445312 78.910156 55.207031 79.402344 54.632812 79.742188 C 54.171875 80.015625 54.09375 80.222656 54.257812 80.703125 C 54.285156 80.785156 54.335938 80.917969 54.300781 80.953125 C 54.074219 81.183594 54.382812 81.597656 54 81.761719 C 53.921875 81.796875 53.96875 81.902344 54.007812 81.953125 C 54.242188 82.242188 54.089844 82.566406 54.0625 82.859375 C 54.003906 83.550781 53.683594 84.183594 53.472656 84.835938 C 53.1875 85.675781 53.128906 86.460938 53.496094 87.273438 C 53.5625 87.421875 53.613281 87.636719 53.417969 87.792969 C 53.085938 88.054688 52.792969 88.3125 53.070312 88.8125 C 53.160156 88.976562 53.136719 89.230469 52.898438 89.390625 C 52.71875 89.507812 52.488281 89.75 52.574219 89.914062 C 52.824219 90.378906 52.691406 90.835938 52.699219 91.304688 C 52.703125 91.519531 52.792969 91.738281 52.476562 91.828125 C 52.320312 91.867188 52.363281 92.039062 52.46875 92.105469 C 52.75 92.273438 52.769531 92.457031 52.574219 92.707031 C 52.480469 92.820312 52.492188 92.949219 52.601562 93.058594 C 52.679688 93.140625 52.695312 93.234375 52.65625 93.34375 C 52.402344 94.054688 52.589844 94.765625 52.664062 95.476562 C 52.6875 95.722656 52.859375 95.976562 52.464844 96.113281 C 52.3125 96.164062 52.390625 96.371094 52.464844 96.503906 C 52.546875 96.644531 52.648438 96.769531 52.730469 96.90625 C 52.78125 96.992188 52.851562 97.097656 52.734375 97.175781 C 52.625 97.253906 52.546875 97.195312 52.503906 97.078125 C 52.464844 96.96875 52.398438 96.882812 52.285156 97 C 52.195312 97.097656 52.113281 97.21875 52.261719 97.335938 C 52.457031 97.492188 52.660156 97.644531 52.933594 97.601562 C 53.140625 97.570312 53.203125 97.65625 53.230469 97.863281 C 53.261719 98.101562 53.253906 98.277344 53.03125 98.433594 C 52.828125 98.574219 52.730469 98.902344 52.804688 99.054688 C 53.195312 99.839844 52.378906 100.464844 52.5625 101.207031 C 52.570312 101.246094 52.519531 101.320312 52.472656 101.347656 C 52.207031 101.527344 52.222656 101.660156 52.460938 101.886719 C 52.640625 102.0625 52.949219 102.355469 52.441406 102.589844 C 52.300781 102.652344 52.222656 102.835938 52.316406 103.007812 C 52.460938 103.269531 52.355469 103.53125 52.3125 103.78125 C 52.273438 104.015625 51.996094 104.265625 52.433594 104.40625 C 52.460938 104.414062 52.464844 104.511719 52.46875 104.570312 C 52.503906 104.847656 52.449219 105.066406 52.253906 105.308594 C 51.867188 105.789062 52.375 106.371094 52.160156 106.914062 C 52.042969 107.214844 52.316406 107.539062 52.339844 107.859375 C 52.378906 108.320312 52.273438 108.808594 52.699219 109.15625 C 52.765625 109.214844 52.707031 109.296875 52.726562 109.359375 C 52.878906 109.90625 52.859375 110.480469 53.046875 111.03125 C 53.152344 111.34375 53.59375 111.667969 53.261719 112.105469 C 53.183594 112.203125 53.335938 112.3125 53.425781 112.292969 C 53.742188 112.230469 53.882812 112.46875 53.914062 112.667969 C 53.957031 112.933594 53.613281 112.800781 53.488281 112.949219 C 53.5625 113.089844 53.621094 113.269531 53.710938 113.390625 C 53.882812 113.625 53.738281 113.953125 53.9375 114.117188 C 54.429688 114.53125 54.464844 114.707031 54.050781 115.15625 C 53.605469 115.636719 53.546875 115.988281 53.828125 116.578125 C 53.925781 116.789062 53.972656 116.980469 53.804688 117.183594 C 53.675781 117.332031 53.667969 117.472656 53.828125 117.644531 C 54.050781 117.875 54.140625 118.136719 53.914062 118.460938 C 53.742188 118.714844 53.617188 119.027344 53.886719 119.332031 C 53.957031 119.414062 54.035156 119.574219 54.003906 119.652344 C 53.761719 120.21875 54.292969 120.492188 54.503906 120.847656 C 54.609375 121.023438 54.59375 121.355469 54.882812 121.410156 C 55.117188 121.457031 55.164062 121.644531 55.242188 121.8125 C 55.417969 122.179688 55.515625 122.582031 55.734375 122.925781 C 55.785156 123.003906 55.871094 123.066406 55.835938 123.195312 C 55.605469 124.050781 56.117188 124.789062 56.292969 125.574219 C 56.421875 126.167969 56.59375 126.71875 56.5 127.328125 C 56.453125 127.609375 56.429688 127.871094 56.605469 128.171875 C 56.8125 128.519531 56.851562 128.957031 56.722656 129.390625 C 56.652344 129.628906 56.53125 129.925781 56.855469 130.132812 C 56.957031 130.199219 57.011719 130.34375 56.9375 130.488281 C 56.878906 130.601562 56.925781 130.683594 57.023438 130.746094 C 57.339844 130.945312 57.375 131.253906 57.347656 131.578125 C 57.316406 131.949219 57.425781 132.152344 57.835938 132.183594 C 58.085938 132.203125 58.308594 132.414062 58.324219 132.65625 C 58.339844 132.851562 58.285156 133.132812 57.964844 133.171875 C 57.765625 133.199219 57.730469 133.320312 57.832031 133.488281 C 57.886719 133.570312 57.941406 133.734375 58.019531 133.703125 C 58.15625 133.644531 58.316406 133.519531 58.359375 133.390625 C 58.449219 133.085938 58.625 133.140625 58.832031 133.207031 C 58.957031 133.246094 59.082031 133.28125 59.203125 133.328125 C 59.492188 133.445312 59.570312 133.738281 59.386719 133.984375 C 59.335938 134.050781 59.230469 134.105469 59.300781 134.195312 C 59.570312 134.523438 59.445312 135.027344 59.8125 135.304688 C 60.078125 135.511719 60.121094 135.820312 60.15625 136.128906 C 60.171875 136.226562 60.148438 136.324219 60.191406 136.425781 C 60.34375 136.777344 60.46875 137.117188 60.199219 137.492188 C 60.121094 137.597656 59.851562 137.976562 60.234375 137.996094 C 60.597656 138.011719 60.710938 138.226562 60.792969 138.433594 C 60.972656 138.933594 61.574219 139.203125 61.519531 139.820312 C 61.511719 139.910156 61.597656 139.988281 61.699219 139.886719 C 61.941406 139.652344 62.066406 139.847656 62.167969 140.027344 C 62.28125 140.21875 62.402344 140.394531 62.367188 140.664062 C 62.308594 141.066406 62.695312 141.382812 62.679688 141.785156 C 62.675781 141.953125 62.714844 142.046875 62.824219 142.160156 C 63.011719 142.363281 63.277344 142.550781 63.109375 142.90625 C 63.058594 143.015625 63.160156 143.082031 63.246094 143.152344 C 63.804688 143.601562 63.863281 143.816406 63.664062 144.5 C 63.609375 144.699219 63.585938 144.910156 63.765625 145.074219 C 63.96875 145.253906 64.117188 145.148438 64.292969 144.992188 C 64.441406 144.855469 64.621094 144.921875 64.636719 145.136719 C 64.660156 145.472656 64.921875 145.75 64.820312 146.132812 C 64.753906 146.382812 65.078125 146.601562 65.050781 146.902344 C 65.042969 146.96875 65.140625 146.988281 65.21875 147 C 65.59375 147.082031 65.9375 147.320312 66.042969 147.640625 C 66.164062 148.019531 66.40625 148.191406 66.707031 148.324219 C 66.859375 148.386719 66.90625 148.511719 67 148.605469 C 67.375 148.976562 67.707031 149.367188 67.914062 149.859375 C 67.9375 149.914062 68.03125 149.941406 68.082031 149.992188 C 68.136719 150.039062 68.234375 150.121094 68.222656 150.144531 C 68.046875 150.566406 68.476562 150.628906 68.632812 150.847656 C 68.691406 150.925781 68.777344 150.984375 68.816406 151.085938 C 69.015625 151.609375 69.121094 152.183594 69.648438 152.539062 C 69.765625 152.613281 69.898438 152.816406 69.90625 153.023438 C 69.90625 153.128906 69.941406 153.164062 70.050781 153.195312 C 70.554688 153.332031 70.550781 153.339844 70.953125 153.714844 C 71 153.757812 71.125 153.75 71.199219 153.722656 C 71.417969 153.652344 71.585938 153.710938 71.667969 153.914062 C 71.785156 154.210938 71.820312 154.539062 72.136719 154.742188 C 72.214844 154.792969 72.089844 154.90625 72.03125 154.988281 C 71.859375 155.246094 71.917969 155.550781 72.164062 155.648438 C 72.425781 155.753906 72.636719 156.023438 72.964844 155.953125 C 73.035156 155.9375 73.109375 155.984375 73.132812 156.066406 C 73.152344 156.148438 73.101562 156.210938 73.035156 156.242188 C 72.664062 156.414062 72.71875 156.585938 72.960938 156.871094 C 73.148438 157.09375 73.382812 157.375 73.332031 157.679688 C 73.296875 157.910156 72.996094 157.960938 72.78125 158.054688 C 72.695312 158.085938 72.597656 158.175781 72.566406 158.261719 C 72.398438 158.707031 72.046875 158.78125 71.628906 158.777344 C 71.503906 158.773438 71.378906 158.847656 71.25 158.871094 C 70.941406 158.933594 70.621094 159.066406 70.324219 159.03125 C 69.488281 158.9375 68.644531 159.164062 67.804688 158.890625 C 67.347656 158.738281 66.921875 158.613281 66.550781 158.257812 C 66.121094 157.84375 65.902344 157.246094 65.367188 156.9375 C 64.929688 156.679688 64.53125 156.371094 64.144531 156.042969 C 63.84375 155.789062 63.441406 155.574219 63.261719 155.277344 C 62.941406 154.742188 62.457031 154.339844 62.1875 153.777344 C 62.03125 153.453125 61.789062 153.175781 61.882812 152.78125 C 61.9375 152.578125 61.773438 152.539062 61.628906 152.503906 C 61.078125 152.363281 60.808594 151.890625 60.527344 151.476562 C 60.390625 151.277344 60.292969 151.054688 60.109375 150.882812 C 59.921875 150.703125 59.824219 150.441406 59.664062 150.25 C 59.363281 149.898438 59.371094 149.429688 59.117188 149.074219 C 58.960938 148.851562 58.726562 148.679688 58.699219 148.386719 C 58.648438 148.351562 58.597656 148.328125 58.546875 148.300781 C 58.449219 148.335938 58.386719 148.285156 58.320312 148.21875 C 57.855469 147.769531 57.800781 147.089844 57.359375 146.597656 C 56.992188 146.1875 56.796875 145.597656 56.617188 145.054688 C 56.410156 144.417969 56.121094 143.816406 55.886719 143.191406 C 55.675781 142.625 55.246094 142.167969 55.109375 141.558594 C 54.976562 140.984375 54.757812 140.449219 54.167969 140.175781 C 54.109375 140.152344 54.082031 140.0625 54.046875 140.003906 C 53.789062 139.550781 53.738281 139.027344 53.410156 138.578125 C 53.148438 138.222656 52.957031 137.769531 52.96875 137.203125 C 52.980469 136.664062 52.742188 136.066406 52.46875 135.519531 C 52.242188 135.070312 51.953125 134.605469 51.964844 134.0625 C 51.945312 134.050781 51.933594 134.039062 51.925781 134.019531 C 51.648438 133.875 51.460938 133.679688 51.449219 133.34375 C 51.433594 132.921875 51.332031 132.542969 50.925781 132.316406 C 50.851562 132.277344 50.730469 132.207031 50.800781 132.125 C 51.125 131.703125 50.714844 131.453125 50.53125 131.25 C 50.277344 130.972656 50.1875 130.65625 50.0625 130.339844 C 49.855469 129.835938 49.6875 129.316406 49.492188 128.808594 C 49.367188 128.484375 49.0625 128.105469 49.292969 127.632812 C 49.375 127.460938 49.417969 127.089844 49.15625 126.828125 C 48.960938 126.628906 48.910156 126.308594 48.890625 126.011719 C 48.847656 125.441406 48.726562 124.882812 48.570312 124.332031 C 48.273438 123.28125 47.886719 122.257812 47.929688 121.144531 C 47.925781 121.105469 47.921875 121.066406 47.914062 121.027344 C 47.351562 120.746094 47.222656 120.234375 47.183594 119.667969 C 47.164062 119.386719 47.054688 119.132812 46.921875 118.882812 C 46.652344 118.386719 46.765625 117.828125 46.667969 117.304688 C 46.664062 117.292969 46.671875 117.269531 46.679688 117.261719 C 46.875 117.117188 46.753906 116.953125 46.691406 116.800781 C 46.632812 116.648438 46.699219 116.515625 46.703125 116.390625 C 46.710938 116.054688 46.863281 115.710938 46.695312 115.359375 C 46.589844 115.144531 46.367188 114.882812 46.558594 114.632812 C 46.757812 114.371094 46.71875 114.132812 46.648438 113.855469 C 46.601562 113.683594 46.460938 113.464844 46.789062 113.363281 C 46.875 113.332031 46.878906 113.136719 46.796875 113.042969 C 46.507812 112.710938 46.613281 112.339844 46.671875 111.96875 C 46.699219 111.816406 46.691406 111.65625 46.566406 111.5625 C 46.136719 111.25 46.226562 110.878906 46.40625 110.480469 C 46.539062 110.183594 46.550781 109.738281 46.375 109.609375 C 45.976562 109.320312 45.910156 108.875 45.78125 108.507812 C 45.46875 107.617188 45.382812 106.660156 45.316406 105.714844 C 45.285156 105.28125 45.339844 104.839844 45.257812 104.421875 C 45.121094 103.714844 45.363281 103.015625 45.230469 102.304688 C 45.179688 102.023438 45.417969 101.699219 45.429688 101.390625 C 45.457031 100.792969 45.136719 100.164062 45.613281 99.609375 C 45.636719 99.585938 45.597656 99.523438 45.609375 99.484375 C 45.695312 99.003906 45.902344 98.585938 45.714844 98.019531 C 45.585938 97.628906 45.773438 97.042969 45.816406 96.546875 C 45.878906 95.769531 45.707031 95 45.515625 94.242188 C 45.484375 94.117188 45.515625 94.039062 45.601562 93.988281 C 45.832031 93.847656 45.789062 93.648438 45.730469 93.445312 C 45.652344 93.175781 45.617188 92.910156 45.847656 92.691406 C 45.921875 92.617188 45.925781 92.527344 45.882812 92.453125 C 45.75 92.234375 45.804688 92.011719 45.820312 91.777344 C 45.851562 91.363281 45.976562 90.972656 45.972656 90.542969 C 45.96875 90.109375 45.894531 89.597656 46.234375 89.207031 C 46.261719 88.472656 46.367188 87.757812 46.671875 87.082031 C 46.535156 86.972656 46.523438 86.839844 46.621094 86.699219 C 46.695312 86.59375 46.738281 86.460938 46.597656 86.40625 C 46.300781 86.289062 46.390625 86.042969 46.410156 85.851562 C 46.476562 85.3125 46.542969 84.765625 46.835938 84.289062 C 46.90625 84.183594 46.910156 84.070312 46.914062 83.953125 C 46.917969 83.558594 47.066406 83.265625 47.460938 83.136719 C 47.535156 83.113281 47.640625 83.082031 47.617188 83.015625 C 47.457031 82.632812 47.921875 82.117188 47.355469 81.816406 C 47.214844 81.742188 47.289062 81.589844 47.304688 81.457031 C 47.351562 81.039062 47.765625 80.765625 47.746094 80.320312 C 47.730469 79.964844 47.953125 79.703125 48.109375 79.410156 C 48.242188 79.15625 48.367188 78.894531 48.378906 78.59375 C 48.398438 77.953125 48.757812 77.398438 48.847656 76.757812 C 48.910156 76.308594 49.164062 75.871094 49.324219 75.425781 C 49.644531 74.527344 49.449219 73.496094 50.058594 72.683594 C 50.097656 72.632812 50.027344 72.515625 50.035156 72.429688 C 50.070312 72.113281 50.039062 71.773438 50.191406 71.480469 C 50.445312 70.984375 50.4375 70.394531 50.769531 69.933594 C 50.792969 69.898438 50.769531 69.8125 50.742188 69.761719 C 50.558594 69.410156 50.988281 69.09375 50.796875 68.734375 C 50.789062 68.71875 50.855469 68.628906 50.902344 68.613281 C 51.367188 68.4375 51.273438 68.070312 51.175781 67.738281 C 51.132812 67.566406 51.171875 67.4375 51.195312 67.285156 C 51.234375 66.976562 51.546875 66.960938 51.664062 66.75 C 51.339844 66.453125 51.367188 66.128906 51.652344 65.839844 C 51.828125 65.667969 51.890625 65.511719 51.847656 65.269531 C 51.828125 65.152344 51.875 65.003906 51.9375 64.890625 C 52.277344 64.300781 52.40625 63.625 52.757812 63.035156 C 52.871094 62.851562 52.972656 62.613281 53.046875 62.390625 C 53.179688 62.003906 53.328125 61.625 53.574219 61.304688 C 53.691406 61.148438 53.96875 61.121094 53.996094 60.898438 C 54.058594 60.457031 54.339844 60.457031 54.671875 60.519531 C 54.738281 60.40625 54.710938 60.304688 54.652344 60.191406 C 54.554688 59.996094 54.652344 59.804688 54.8125 59.753906 C 55.355469 59.582031 55.027344 59.4375 54.820312 59.273438 C 54.515625 59.03125 54.535156 58.824219 54.867188 58.671875 C 55.046875 58.589844 55.117188 58.445312 55.101562 58.246094 C 55.09375 58.144531 55.0625 58.003906 55.113281 57.953125 C 55.46875 57.605469 55.472656 57.097656 55.640625 56.683594 C 56.042969 55.675781 56.308594 54.613281 56.777344 53.636719 C 56.96875 53.234375 57.371094 52.835938 57.496094 52.457031 C 57.652344 52.007812 58.0625 51.75 58.148438 51.382812 C 58.363281 50.460938 58.90625 49.824219 59.628906 49.292969 C 59.78125 49.179688 59.832031 49.140625 59.761719 48.925781 C 59.644531 48.570312 59.550781 48.1875 59.921875 47.863281 C 60.105469 47.703125 60.160156 47.4375 60.253906 47.207031 C 60.414062 46.808594 60.589844 46.386719 60.90625 46.097656 C 61.542969 45.515625 61.972656 44.792969 62.425781 44.082031 C 62.691406 43.675781 62.757812 43.203125 62.996094 42.78125 Z M 92.402344 5.769531 C 92.371094 5.757812 92.328125 5.792969 92.300781 5.804688 C 92.277344 5.867188 92.265625 5.929688 92.332031 5.949219 C 92.359375 5.960938 92.414062 5.929688 92.433594 5.90625 C 92.464844 5.855469 92.46875 5.792969 92.398438 5.773438 Z M 64.195312 49.851562 C 64.230469 49.863281 64.273438 49.84375 64.304688 49.808594 C 64.332031 49.769531 64.34375 49.726562 64.34375 49.691406 C 64.34375 49.730469 64.332031 49.773438 64.304688 49.808594 C 64.273438 49.84375 64.230469 49.863281 64.195312 49.851562 Z M 62.714844 54.265625 C 62.707031 54.230469 62.703125 54.191406 62.691406 54.140625 C 62.703125 54.191406 62.707031 54.230469 62.714844 54.265625 Z M 89.074219 11.152344 C 88.804688 11.34375 88.792969 11.542969 89.054688 11.6875 C 89.140625 11.734375 89.238281 11.757812 89.335938 11.792969 C 89.269531 11.863281 89.195312 11.921875 89.113281 11.972656 C 89.195312 11.921875 89.269531 11.863281 89.335938 11.792969 C 89.421875 11.816406 89.511719 11.832031 89.601562 11.851562 C 89.84375 11.527344 89.523438 11.421875 89.363281 11.257812 C 89.265625 11.222656 89.171875 11.1875 89.078125 11.152344 Z M 91.355469 8.984375 C 91.296875 8.910156 91.222656 8.929688 91.15625 8.929688 C 91.03125 8.925781 90.875 8.785156 90.78125 8.976562 C 90.734375 9.074219 90.84375 9.121094 90.914062 9.164062 C 91.070312 9.269531 91.210938 9.261719 91.320312 9.097656 C 91.34375 9.0625 91.347656 9.019531 91.359375 8.988281 Z M 92.875 7.277344 C 92.777344 7.210938 92.644531 7.128906 92.574219 7.253906 C 92.5 7.378906 92.648438 7.445312 92.742188 7.515625 C 92.820312 7.542969 92.910156 7.675781 92.992188 7.554688 C 93.070312 7.4375 92.972656 7.34375 92.875 7.277344 Z M 93.320312 8.871094 C 93.414062 8.84375 93.082031 8.234375 92.90625 8.140625 C 92.765625 8.0625 92.683594 8.089844 92.664062 8.277344 C 92.5 8.492188 92.355469 8.789062 92.648438 8.96875 C 92.800781 9.058594 93.097656 8.945312 93.320312 8.875 Z M 82.515625 21.855469 C 82.746094 21.511719 83.054688 21.460938 83.445312 21.441406 C 83.777344 21.425781 83.808594 21.027344 83.890625 20.761719 C 83.957031 20.519531 83.71875 20.507812 83.566406 20.449219 C 83.417969 20.394531 83.253906 20.367188 83.117188 20.289062 C 82.929688 20.183594 82.878906 20.210938 82.730469 20.398438 C 82.527344 20.664062 82.144531 20.578125 81.832031 20.511719 C 81.738281 20.492188 81.664062 20.402344 81.578125 20.351562 C 81.472656 20.285156 81.351562 20.238281 81.277344 20.371094 C 81.207031 20.496094 81.308594 20.578125 81.398438 20.660156 C 81.558594 20.808594 81.855469 20.738281 81.925781 21.054688 C 81.964844 21.238281 82.035156 21.375 81.875 21.515625 C 81.742188 21.628906 81.660156 21.863281 81.734375 21.933594 C 81.828125 22.023438 82.046875 22.007812 82.207031 21.996094 C 82.316406 21.988281 82.460938 21.929688 82.515625 21.847656 Z M 79.195312 27.054688 C 79.457031 27.226562 79.628906 27 79.785156 26.855469 C 79.902344 26.746094 79.890625 26.507812 79.765625 26.476562 C 79.535156 26.421875 79.265625 26.289062 79.023438 26.507812 C 79.003906 26.714844 79.003906 26.929688 79.195312 27.054688 Z M 64.246094 51.191406 C 64.332031 51.289062 64.359375 51.398438 64.328125 51.523438 C 64.359375 51.398438 64.332031 51.289062 64.246094 51.191406 Z M 64.363281 51.960938 C 64.589844 51.878906 64.269531 51.8125 64.242188 51.71875 C 63.511719 51.535156 63.222656 51.804688 63.410156 52.496094 C 63.519531 52.558594 63.542969 52.640625 63.476562 52.75 C 63.449219 52.832031 63.371094 52.898438 63.410156 53 C 63.644531 53.152344 63.742188 53.050781 63.816406 52.816406 C 63.917969 52.484375 63.914062 52.113281 64.363281 51.957031 Z M 64.363281 51.960938 " fill-opacity="1" fill-rule="nonzero"/></g></g></g></g><g clip-path="url(#4899712cd6)"><g clip-path="url(#77c2dd3eb4)"><g clip-path="url(#2de90767d4)"><g clip-path="url(#6dabce15a1)"><path fill="#142950" d="M 35.175781 158.234375 C 35.464844 157.722656 35.953125 158.148438 36.320312 158 C 36.386719 157.972656 36.761719 158.109375 36.960938 158.363281 C 37.222656 158.6875 37.671875 158.894531 38.132812 158.964844 C 38.210938 158.84375 38.292969 158.726562 38.375 158.609375 C 38.183594 158.316406 38.402344 158.113281 38.53125 157.886719 C 38.492188 157.6875 38.457031 157.488281 38.417969 157.289062 C 38.242188 157.203125 38.140625 157.03125 38.027344 156.886719 C 37.898438 156.707031 38 156.378906 37.707031 156.308594 C 37.429688 156.238281 37.304688 156.496094 37.125 156.628906 C 37.070312 156.667969 36.964844 156.738281 36.9375 156.667969 C 36.867188 156.496094 36.796875 156.308594 36.800781 156.128906 C 36.804688 155.96875 36.9375 155.839844 37.117188 155.8125 C 38.136719 155.667969 39.160156 155.566406 40.164062 155.898438 C 40.4375 155.992188 40.800781 155.894531 40.980469 156.132812 C 41.265625 156.511719 41.734375 156.414062 41.917969 156.300781 C 42.371094 156.023438 42.734375 156.308594 43.113281 156.359375 C 43.851562 156.457031 44.539062 156.792969 45.289062 156.90625 C 45.59375 156.953125 45.90625 156.710938 46.097656 156.867188 C 46.332031 157.050781 46.511719 156.992188 46.734375 156.957031 C 46.871094 156.929688 47.035156 156.859375 47.136719 157.011719 C 47.253906 157.175781 47.359375 157.121094 47.511719 157.070312 C 47.714844 157 47.957031 156.90625 48.148438 156.953125 C 48.847656 157.125 49.414062 157.207031 49.925781 157.125 C 50.035156 157.105469 50.101562 157.140625 50.097656 157.253906 C 50.074219 157.769531 50.476562 157.566406 50.71875 157.601562 C 50.867188 157.621094 51.207031 157.027344 51.117188 157.742188 C 51.117188 157.75 51.144531 157.773438 51.148438 157.769531 C 51.511719 157.632812 51.761719 158.121094 52.15625 157.917969 C 52.507812 157.738281 53.050781 157.796875 53.230469 157.976562 C 53.691406 158.441406 54.363281 157.898438 54.742188 158.40625 C 55.320312 158.269531 55.652344 158.742188 56.085938 158.960938 C 56.207031 159.023438 56.195312 159.1875 56.113281 159.269531 C 55.765625 159.632812 55.859375 159.863281 56.304688 160.023438 C 56.355469 160.039062 56.398438 160.089844 56.433594 160.136719 C 56.664062 160.460938 56.78125 160.34375 57.019531 160.089844 C 57.238281 159.859375 57.683594 159.957031 57.960938 159.691406 C 58.050781 159.601562 58.101562 159.949219 58.292969 159.871094 C 58.402344 159.714844 58.167969 159.367188 58.410156 159.402344 C 58.597656 159.429688 58.882812 159.375 58.988281 159.5 C 59.308594 159.882812 59.800781 159.84375 60.191406 160.035156 C 60.429688 160.152344 60.785156 160.4375 60.925781 160.328125 C 61.285156 160.035156 61.589844 160.265625 61.910156 160.289062 C 62.117188 160.304688 62.289062 160.441406 62.519531 160.46875 C 62.964844 160.515625 63.4375 160.519531 63.855469 160.617188 C 64.421875 160.75 64.949219 160.796875 65.523438 160.742188 C 65.871094 160.707031 66.265625 160.785156 66.421875 161.207031 C 66.523438 161.476562 66.59375 161.765625 66.988281 161.546875 C 67.054688 161.507812 67.132812 161.554688 67.171875 161.625 C 67.28125 161.808594 67.453125 161.769531 67.628906 161.800781 C 67.894531 161.847656 68.34375 161.738281 68.246094 162.28125 C 68.234375 162.339844 68.28125 162.375 68.328125 162.417969 C 68.640625 162.683594 69.136719 162.484375 69.421875 162.847656 C 69.453125 162.890625 69.667969 162.84375 69.769531 162.730469 C 70.074219 162.390625 70.410156 162.398438 70.65625 162.78125 C 70.816406 163.035156 70.996094 163.066406 71.273438 163.039062 C 71.667969 162.996094 72.066406 163.046875 72.320312 163.425781 C 72.410156 163.554688 72.558594 163.578125 72.679688 163.652344 C 72.917969 163.796875 73.308594 163.71875 73.386719 164.078125 C 73.457031 164.402344 73.648438 164.351562 73.84375 164.269531 C 74.132812 164.148438 74.441406 164.105469 74.71875 164.203125 C 75.3125 164.410156 75.308594 164.429688 75.652344 163.875 C 75.585938 163.847656 75.488281 163.78125 75.460938 163.800781 C 74.984375 164.164062 75.105469 163.707031 75.074219 163.515625 C 75.054688 163.371094 75.085938 163.21875 75.265625 163.160156 C 75.492188 163.089844 75.507812 162.949219 75.417969 162.75 C 75.328125 162.558594 75.414062 162.324219 75.578125 162.320312 C 75.960938 162.316406 75.902344 162.171875 75.804688 161.921875 C 75.734375 161.722656 75.816406 161.519531 75.855469 161.320312 C 75.90625 161.066406 76.019531 160.792969 75.976562 160.554688 C 75.828125 159.757812 75.835938 158.941406 75.804688 158.144531 C 75.777344 157.449219 76.011719 156.734375 76.09375 156.023438 C 76.117188 155.816406 76.125 155.6875 76.007812 155.527344 C 75.753906 155.175781 75.53125 154.8125 75.867188 154.382812 C 75.960938 154.265625 75.957031 154.113281 75.875 154.007812 C 75.441406 153.453125 75.640625 152.714844 75.3125 152.121094 C 75.269531 152.046875 75.246094 151.914062 75.378906 151.859375 C 75.488281 151.8125 75.578125 151.863281 75.644531 151.949219 C 75.757812 152.085938 75.878906 152.203125 76.089844 152.230469 C 76.179688 151.785156 75.933594 151.503906 75.617188 151.292969 C 75.417969 151.15625 75.285156 150.949219 75.363281 150.785156 C 75.570312 150.363281 75.382812 150.0625 75.164062 149.746094 C 75.015625 149.527344 75.132812 149.355469 75.273438 149.199219 C 75.417969 149.039062 75.566406 149.128906 75.703125 149.222656 C 75.863281 149.328125 76.015625 149.4375 76.179688 149.535156 C 76.257812 149.585938 76.34375 149.609375 76.402344 149.503906 C 76.503906 149.3125 76.320312 148.84375 76.105469 148.753906 C 75.980469 148.699219 75.875 148.625 75.800781 148.511719 C 75.726562 148.398438 75.617188 148.359375 75.496094 148.421875 C 75.148438 148.609375 75.09375 148.359375 75.050781 148.121094 C 75.03125 148.003906 75.019531 147.90625 74.949219 147.800781 C 74.667969 147.398438 74.582031 146.941406 74.523438 146.457031 C 74.457031 145.878906 74.585938 145.300781 74.445312 144.726562 C 74.285156 144.09375 74.351562 144.011719 75.039062 143.996094 C 75.25 143.988281 75.3125 143.890625 75.304688 143.742188 C 75.289062 143.53125 75.289062 143.28125 75.070312 143.15625 C 74.703125 142.941406 74.914062 142.429688 74.566406 142.203125 C 74.558594 142.199219 74.589844 142.09375 74.628906 142.058594 C 74.792969 141.921875 74.71875 141.820312 74.597656 141.703125 C 74.402344 141.503906 74.367188 141.308594 74.640625 141.125 C 74.746094 141.054688 74.8125 140.933594 74.902344 140.835938 C 74.960938 140.675781 74.9375 140.539062 74.789062 140.4375 C 74.554688 140.492188 74.453125 140.417969 74.535156 140.175781 C 74.578125 140.039062 74.632812 139.910156 74.683594 139.777344 C 74.664062 139.761719 74.652344 139.742188 74.644531 139.71875 C 74.203125 139.71875 74.019531 139.476562 73.941406 139.058594 C 73.828125 138.453125 74.160156 137.867188 73.976562 137.265625 C 73.96875 137.238281 74.023438 137.195312 74.042969 137.160156 C 74.304688 136.6875 73.988281 136.164062 74.160156 135.683594 C 74.171875 135.65625 74.042969 135.59375 74.015625 135.53125 C 73.90625 135.242188 73.535156 135.027344 73.660156 134.683594 C 73.78125 134.355469 73.730469 134.054688 73.664062 133.738281 C 73.519531 133.039062 73.976562 132.453125 74.042969 131.792969 C 74.046875 131.753906 74.082031 131.707031 74.117188 131.6875 C 74.394531 131.542969 74.453125 131.265625 74.542969 131.003906 C 74.65625 130.683594 74.835938 130.449219 75.105469 130.210938 C 75.371094 129.984375 75.691406 130.023438 75.898438 129.890625 C 76.394531 129.570312 77.039062 129.371094 77.234375 128.695312 C 77.265625 128.574219 77.363281 128.414062 77.519531 128.523438 C 77.867188 128.769531 78.015625 128.523438 78.15625 128.289062 C 78.222656 128.183594 78.289062 128.117188 78.394531 128.15625 C 78.6875 128.273438 78.832031 128.054688 78.984375 127.894531 C 79.128906 127.746094 79.265625 127.585938 79.449219 127.769531 C 79.605469 127.933594 79.523438 128.117188 79.359375 128.257812 C 79.191406 128.398438 79.144531 128.472656 79.40625 128.621094 C 79.773438 128.832031 79.992188 129.183594 79.839844 129.652344 C 79.789062 129.804688 79.730469 130.023438 79.894531 130.085938 C 80.265625 130.226562 80.085938 130.457031 80.023438 130.65625 C 79.847656 131.199219 79.839844 131.199219 79.910156 131.609375 C 79.914062 131.636719 79.910156 131.671875 79.894531 131.695312 C 79.652344 132.050781 79.945312 132.402344 79.921875 132.753906 C 79.914062 132.835938 79.976562 133.019531 80.140625 132.867188 C 80.210938 132.804688 80.15625 132.582031 80.34375 132.664062 C 80.5 132.734375 80.488281 132.90625 80.46875 133.050781 C 80.4375 133.277344 80.273438 133.578125 80.367188 133.714844 C 80.644531 134.121094 80.519531 134.34375 80.160156 134.558594 C 80.078125 134.605469 80.039062 134.691406 80.066406 134.785156 C 80.105469 134.921875 80.214844 134.898438 80.316406 134.886719 C 80.449219 134.867188 80.609375 134.824219 80.636719 135.011719 C 80.707031 135.492188 80.910156 135.96875 80.976562 136.417969 C 81.0625 137 81.117188 137.625 81.046875 138.230469 C 81.011719 138.5625 80.96875 138.863281 81.113281 139.195312 C 81.210938 139.425781 81.242188 139.71875 81.300781 139.972656 C 81.375 140.292969 81.082031 140.542969 81.222656 140.808594 C 81.351562 141.0625 81.238281 141.226562 81.117188 141.410156 C 80.976562 141.308594 80.851562 141.285156 80.722656 141.355469 C 80.851562 141.28125 80.976562 141.304688 81.117188 141.410156 C 80.953125 141.847656 80.769531 142.273438 80.589844 142.703125 C 80.769531 142.273438 80.957031 141.847656 81.117188 141.410156 C 81.394531 141.589844 81.546875 141.980469 81.460938 142.152344 C 81.328125 142.421875 81.308594 142.648438 81.351562 142.914062 C 81.351562 142.933594 81.316406 142.960938 81.292969 142.976562 C 80.839844 143.222656 81.039062 143.585938 81.105469 143.941406 C 81.167969 144.269531 81.597656 144.453125 81.566406 144.671875 C 81.515625 145.042969 81.632812 145.359375 81.648438 145.699219 C 81.667969 146.089844 81.617188 146.5 81.421875 146.867188 C 82.148438 147.605469 82.050781 148.59375 82.15625 149.496094 C 82.199219 149.867188 82.300781 150.34375 81.964844 150.703125 C 81.910156 150.761719 81.941406 150.878906 82.027344 150.9375 C 82.414062 151.183594 82.378906 151.488281 82.152344 151.8125 C 81.996094 152.035156 81.992188 152.207031 82.238281 152.367188 C 82.308594 152.410156 82.371094 152.488281 82.402344 152.566406 C 82.699219 153.28125 83.1875 153.945312 83 154.808594 C 82.960938 154.996094 82.992188 155.246094 82.96875 155.449219 C 82.859375 156.234375 83.042969 157.035156 82.773438 157.808594 C 82.695312 158.039062 82.726562 158.367188 82.96875 158.46875 C 83.3125 158.617188 83.261719 158.867188 83.238281 159.113281 C 83.226562 159.265625 83.207031 159.40625 83.300781 159.53125 C 83.523438 159.839844 83.378906 160.101562 83.203125 160.355469 C 83.105469 160.5 83 160.621094 83.011719 160.820312 C 83.058594 161.554688 82.859375 162.265625 82.480469 162.867188 C 82.160156 163.378906 82.148438 163.886719 82.160156 164.425781 C 82.164062 164.578125 82.300781 164.746094 82.121094 164.871094 C 81.9375 165 81.847656 164.800781 81.71875 164.722656 C 81.613281 164.652344 81.4375 164.613281 81.359375 164.726562 C 81.257812 164.871094 81.445312 164.910156 81.527344 164.972656 C 81.65625 165.070312 81.78125 165.253906 81.691406 165.335938 C 81.371094 165.625 81.457031 166.078125 81.230469 166.375 C 80.980469 166.703125 80.742188 167.039062 80.566406 167.414062 C 80.523438 167.507812 80.4375 167.574219 80.367188 167.53125 C 80.078125 167.371094 79.78125 167.621094 79.476562 167.464844 C 79.269531 167.355469 79.09375 167.554688 79.019531 167.761719 C 78.941406 167.988281 79.167969 168.011719 79.273438 168.109375 C 79.433594 168.257812 79.644531 168.074219 79.835938 168.203125 C 79.804688 168.253906 79.792969 168.316406 79.753906 168.347656 C 79.566406 168.496094 79.226562 168.503906 79.300781 168.878906 C 79.304688 168.890625 79.238281 168.9375 79.199219 168.941406 C 78.941406 168.972656 78.699219 169.121094 78.429688 169.023438 C 78.34375 168.992188 78.253906 168.941406 78.199219 169.050781 C 78.140625 169.164062 78.238281 169.207031 78.328125 169.230469 C 78.398438 169.25 78.480469 169.265625 78.46875 169.359375 C 78.460938 169.460938 78.371094 169.492188 78.28125 169.515625 C 77.980469 169.597656 77.675781 169.621094 77.378906 169.488281 C 77.0625 169.347656 76.785156 169.296875 76.660156 169.726562 C 76.621094 169.855469 76.492188 169.949219 76.394531 169.855469 C 76.089844 169.570312 75.652344 169.648438 75.335938 169.417969 C 75.132812 169.269531 74.921875 169.292969 74.71875 169.40625 C 74.566406 169.492188 74.890625 169.890625 74.453125 169.816406 C 74.402344 169.808594 74.34375 169.941406 74.394531 170.039062 C 74.414062 170.078125 74.453125 170.113281 74.457031 170.152344 C 74.46875 170.300781 74.335938 170.363281 74.273438 170.269531 C 74.0625 169.945312 73.898438 170.160156 73.726562 170.289062 C 73.519531 170.445312 73.273438 170.429688 73.050781 170.386719 C 72.570312 170.289062 72.101562 170.15625 71.683594 169.867188 C 71.351562 169.632812 71 169.46875 70.550781 169.550781 C 70.203125 169.613281 69.789062 169.59375 69.492188 169.421875 C 69.070312 169.175781 68.578125 169.121094 68.175781 168.828125 C 68.019531 168.714844 67.800781 168.710938 67.585938 168.746094 C 67.109375 168.828125 66.726562 168.660156 66.496094 168.222656 C 66.394531 168.035156 66.253906 167.910156 66.046875 167.945312 C 65.765625 167.988281 65.535156 167.871094 65.296875 167.769531 C 64.886719 167.59375 64.4375 167.613281 64.03125 167.644531 C 63.667969 167.671875 63.382812 167.625 63.179688 167.375 C 62.96875 167.113281 62.703125 167.109375 62.472656 167.191406 C 62.1875 167.289062 61.960938 167.238281 61.722656 167.113281 C 61.628906 167.0625 61.535156 167.046875 61.425781 167.0625 C 60.921875 167.140625 60.472656 167.023438 60.023438 166.753906 C 59.628906 166.519531 59.160156 166.390625 58.710938 166.273438 C 58.148438 166.128906 57.570312 166.042969 56.992188 165.925781 C 56.773438 165.882812 56.539062 165.792969 56.453125 165.589844 C 56.304688 165.242188 56.003906 165.3125 55.835938 165.414062 C 55.488281 165.636719 55.242188 165.5 55.042969 165.265625 C 54.691406 164.855469 54.140625 164.652344 53.890625 164.144531 C 53.816406 164.003906 53.6875 164.050781 53.582031 164.074219 C 53.417969 164.117188 53.273438 164.097656 53.113281 164.027344 C 52.921875 163.9375 52.71875 163.890625 52.488281 163.957031 C 52.285156 164.015625 52.050781 163.96875 51.84375 163.890625 C 51.109375 163.613281 50.367188 163.367188 49.753906 162.847656 C 49.691406 162.796875 49.636719 162.683594 49.542969 162.75 C 49.265625 162.945312 48.933594 162.65625 48.65625 162.871094 C 48.585938 162.925781 48.472656 162.882812 48.441406 162.785156 C 48.332031 162.484375 48.007812 162.433594 47.8125 162.230469 C 47.664062 162.070312 47.429688 161.992188 47.242188 162.226562 C 47.160156 162.324219 47.03125 162.320312 46.921875 162.359375 C 46.519531 162.511719 46.117188 162.324219 45.714844 162.375 C 45.457031 162.410156 45.332031 162.265625 45.3125 162.082031 C 45.269531 161.675781 45.015625 161.671875 44.71875 161.714844 C 44.640625 161.722656 44.519531 161.808594 44.535156 161.660156 C 44.566406 161.394531 44.386719 161.566406 44.34375 161.53125 C 44.074219 161.339844 43.796875 161.460938 43.527344 161.449219 C 43.238281 161.441406 43.15625 161.117188 43.011719 161.058594 C 42.570312 160.878906 42.273438 160.535156 41.925781 160.261719 C 41.328125 159.804688 40.738281 159.886719 40.449219 160.550781 C 40.382812 160.699219 40.34375 160.800781 40.175781 160.695312 C 39.777344 160.449219 39.371094 160.226562 38.890625 160.195312 C 38.652344 160.179688 38.527344 159.964844 38.285156 159.90625 C 37.742188 159.769531 37.230469 160.027344 36.679688 159.867188 C 35.792969 159.605469 34.957031 159.367188 34.632812 158.335938 C 34.859375 158.359375 35.085938 158.425781 35.191406 158.234375 Z M 77.21875 159.703125 C 77.296875 159.742188 77.363281 159.722656 77.421875 159.675781 C 77.480469 159.628906 77.507812 159.558594 77.488281 159.480469 C 77.460938 159.359375 77.300781 159.28125 77.355469 159.128906 C 77.296875 159.078125 77.238281 159.027344 77.179688 158.976562 C 76.945312 159.167969 76.96875 159.574219 77.21875 159.707031 Z M 80.523438 142.851562 C 80.355469 143.261719 80.195312 143.671875 80.066406 144.097656 C 80.191406 143.675781 80.355469 143.261719 80.523438 142.851562 Z M 80.523438 142.851562 " fill-opacity="1" fill-rule="nonzero"/></g></g></g></g><g clip-path="url(#a01611fc8a)"><g clip-path="url(#1c5b708026)"><g clip-path="url(#62cf01e75c)"><g clip-path="url(#d576c08dbc)"><path fill="#142950" d="M 31.226562 156.230469 C 31.734375 156.359375 32.261719 156.601562 32.726562 156.105469 C 32.792969 156.039062 32.9375 155.933594 33.042969 156.015625 C 33.171875 156.117188 33.121094 156.285156 33.097656 156.425781 C 33.050781 156.683594 32.976562 156.933594 32.929688 157.191406 C 32.921875 157.246094 32.972656 157.328125 33.023438 157.371094 C 33.078125 157.421875 33.15625 157.355469 33.152344 157.3125 C 33.121094 156.941406 33.503906 156.671875 33.382812 156.273438 C 33.296875 155.980469 33.554688 155.929688 33.753906 155.851562 C 33.792969 156.351562 34.324219 156.304688 34.570312 156.566406 C 34.582031 156.574219 34.582031 156.597656 34.585938 156.605469 C 34.738281 156.75 34.757812 156.976562 34.929688 157.105469 C 35.035156 157.1875 35.070312 157.320312 34.964844 157.414062 C 34.410156 157.890625 33.960938 158.542969 33.113281 158.535156 C 33.058594 158.539062 32.996094 158.527344 32.953125 158.496094 C 32.890625 158.457031 32.910156 158.390625 32.957031 158.351562 C 33.398438 158.027344 33.011719 157.855469 32.804688 157.601562 C 32.757812 157.691406 32.738281 157.726562 32.722656 157.765625 C 32.421875 158.4375 31.757812 158.558594 31.261719 158.035156 C 31.179688 157.949219 31.167969 157.863281 31.214844 157.753906 C 31.539062 157.097656 31.316406 156.644531 30.621094 156.53125 C 30.546875 156.519531 30.46875 156.5 30.457031 156.410156 C 30.449219 156.320312 30.511719 156.289062 30.585938 156.265625 C 30.796875 156.199219 31 156.171875 31.226562 156.234375 Z M 31.226562 156.230469 " fill-opacity="1" fill-rule="nonzero"/></g></g></g></g><g clip-path="url(#162f2a9945)"><g clip-path="url(#6c02b1e080)"><g clip-path="url(#3cad358e86)"><g clip-path="url(#6e11ad4f15)"><path fill="#142950" d="M 95.339844 6.535156 C 95.253906 6.691406 95.085938 6.933594 94.871094 6.671875 C 94.746094 6.523438 94.664062 6.316406 94.679688 6.101562 C 94.726562 5.53125 94.730469 5.527344 94.175781 5.585938 C 93.972656 5.605469 93.726562 5.503906 93.796875 5.367188 C 93.960938 5.046875 93.726562 4.84375 93.675781 4.59375 C 93.632812 4.390625 93.636719 4.269531 93.882812 4.300781 C 94.003906 4.320312 94.128906 4.339844 94.167969 4.1875 C 94.199219 4.054688 94.101562 3.945312 93.988281 3.925781 C 93.71875 3.867188 93.679688 3.628906 93.769531 3.5 C 93.933594 3.277344 94.0625 2.992188 94.363281 2.902344 C 94.386719 2.894531 94.441406 2.941406 94.453125 2.972656 C 94.589844 3.308594 94.941406 3.367188 95.191406 3.554688 C 95.308594 3.644531 95.417969 3.714844 95.5 3.855469 C 95.628906 4.085938 95.214844 4.183594 95.386719 4.351562 C 95.511719 4.46875 95.773438 4.203125 95.886719 4.433594 C 96.378906 4.757812 96.515625 5.214844 96.164062 5.445312 C 95.742188 5.722656 95.558594 6.125 95.339844 6.535156 Z M 95.398438 4.683594 C 95.273438 4.675781 95.144531 4.667969 95.097656 4.792969 C 95.0625 4.886719 95.078125 5.019531 95.164062 5.066406 C 95.3125 5.140625 95.335938 4.972656 95.398438 4.894531 C 95.449219 4.828125 95.484375 4.746094 95.394531 4.683594 Z M 95.398438 4.683594 " fill-opacity="1" fill-rule="nonzero"/></g></g></g></g><g clip-path="url(#af6d205297)"><g clip-path="url(#0fd057f089)"><g clip-path="url(#13458fe588)"><g clip-path="url(#55c7a3168e)"><path fill="#142950" d="M 88.558594 10.113281 C 88.304688 9.96875 88.527344 9.730469 88.609375 9.582031 C 88.707031 9.402344 88.902344 9.234375 89.121094 9.445312 C 89.3125 9.570312 89.492188 9.730469 89.296875 9.90625 C 89.105469 10.082031 88.828125 10.257812 88.558594 10.113281 Z M 88.558594 10.113281 " fill-opacity="1" fill-rule="nonzero"/></g></g></g></g><g clip-path="url(#4a38164796)"><g clip-path="url(#00e4747196)"><g clip-path="url(#addb99c27a)"><g clip-path="url(#b6c37167c1)"><path fill="#142950" d="M 94.703125 7.566406 C 94.425781 7.574219 94.277344 7.613281 94.152344 7.578125 C 93.722656 7.453125 94.148438 7.269531 94.128906 7.113281 C 94.386719 7.136719 94.421875 7.398438 94.703125 7.566406 Z M 94.703125 7.566406 " fill-opacity="1" fill-rule="nonzero"/></g></g></g></g></g></g></g></g></svg>