<?xml version="1.0" encoding="UTF-8"?>
<svg id="Layer_2" data-name="Layer 2" xmlns="http://www.w3.org/2000/svg" viewBox="0 0 48.03 78.47">
  <defs>
    <style>
      .cls-1 {
        fill: #152a50;
      }
    </style>
  </defs>
  <g id="Address">
    <g>
      <path class="cls-1" d="M18.48,77.9c-.08.9-2.69.66-2.65-.24.1-2.25.19-3.9.13-5.9l-.48-14.93c-.22-6.96-.31-13.71-.21-20.63.03-1.93.45-3.48.3-5.59l-3.62,2.09-6.85,3.24-3.61,1.61c-.31.14-1.13-.02-1.38-.2s-.01-1.31.28-1.51l12.11-8.52,8.31-5.44c3.73-2.44-.33-6.67,5.95-8.11,2.09-.48,5.05.2,7.11.94,2.56.93,2.46,3.16,2.47,5.14.03,3.5-1.06,5.62-4.13,7.37-2.71,1.55-5.74,1.65-7.99-.99l-4.99,2.5c.4,8.82,1.22,14.27,1.71,23.48l.89,17.09.23,6.73c.02.66-.03,1.49-.14,1.9-.15.51-2.14-.13-2.23-.65l-.76-4.64-.44,5.25ZM27,18.1c.26.16.99-.64.77-.88-.25-.28-.89-1.03-1.14-.83l-1.07.84,1.44.87ZM33.67,17.45c-.63-.63-2.16-.9-2.71-.28-.32.36.59,1.66,1.09,1.62.41-.03.9-.55,1.62-1.34ZM24.17,20.78c.4.15,1.31-.69,1.29-1.11s-.95-1.21-1.34-1.03c-.53.24-.52,1.94.05,2.15ZM34.24,21.27l.24-2.64c-.41.28-1.05.82-1.28,1.2s.8,1.49,1.04,1.44ZM28.52,19.63l.51,1.27c.07.18.8-.13.76-.32l-.23-1.17c-.04-.18-1.12.03-1.04.22ZM32.16,24.27c.1-1.4-.48-3.08-1.8-2.63.01.81,1.13,2.31,1.8,2.63ZM27.1,22.72c.19-.1.28-.99.08-.94s-.88.18-.98.35l-.85,1.57,1.76-.98ZM22.76,23.19l-2.12,1.27.42.71,2.12-1.27-.42-.71ZM28.37,24.11c-.41.12-1.32,1.43-.93,1.55l1.57.47c.38.12.71-.84.52-1.19-.16-.28-.85-.92-1.16-.83ZM18.25,47.25h-.48v6.48h.48v-6.48ZM19.21,65.48h-.48v6.48h.48v-6.48Z"/>
      <path class="cls-1" d="M44.68,7.59c.43.75-.63,3.86-1.93,4.98l-1.29-2.03-4.7,1.56c-.62.2-2.6-.16-2.59-.85.04-1.95,1.18-3.93,2.39-5.87l-4.82-2.82c-.4-.23-.91-1.11-.95-1.53-.22-2.15,5.84-.45,7.26.27l-2.84.61,3.07,1.76c.45,1.84-.3,3.07-1.34,5.38l6.17-1.95c.35-.11,1.42.2,1.57.47Z"/>
      <path class="cls-1" d="M47.81,19.01c-4.02,1.18-7.46-.15-6.59-.77.22-.16.79-.57,1.06-.6l5.22-.68c.46-.06.77,1.92.31,2.05Z"/>
      <path class="cls-1" d="M45.19,24.28l1.31,1.25c.34.32-.23,1.53-.58,1.94-1.71-1.11-3.78-2.2-3.84-5.04,1.03.22,2.16.93,3.12,1.85Z"/>
    </g>
  </g>
</svg>