<?xml version="1.0" encoding="UTF-8"?>
<svg id="Layer_2" data-name="Layer 2" xmlns="http://www.w3.org/2000/svg" viewBox="0 0 57.19 75.92">
  <defs>
    <style>
      .cls-1 {
        fill: #f5f5dd;
      }

      .cls-2 {
        fill: #b74426;
      }

      .cls-3 {
        fill: #152a50;
      }
    </style>
  </defs>
  <g id="Address">
    <g>
      <path class="cls-3" d="M20.58,55.55c-4.84-.32-3.05-1.54-5.59-.97-2.2.5-4.31,1.15-6.21,2.42l-1.15.29c-.02.66-.46.71-.78.97l-1.47,1.22-1.25,1.36c-1.41,1.54-2.53,3.65-1.18,5.53.36.49,1.56,1.48,2.1,1.94,2.03,1.74,2.35.48,3.16,1.64.73-.01,1.61.07,2.38.15l1.9.19c.56.05,1.05.07,1.57.06l1.44-.04,3.18-.08,1.73-.13c.56-.04.8,0,1.24-.09,1.54-.32,2.2-.24,3.76-.56.64-.13,1.23.1,1.8.16.45.05,2.68.1,2.94.57.39.71-.75,2.18-1.34,2.92l-.37.47c-.08.1-.38,0-.47-.02l-.06.69c-.02.2-.57.15-.9.07l.17.57c.05.17-.32.61-.47.71-.69.47-1.93.52-2.24-.29l2.48-3.88-2.01.42-1.24.16c-1.27.16-2.39.6-3.74.69l-2.53.17c-.07,0-.33-.4-.38-.35l-.27.25c-2.03.07-4.04-.13-6.06-.36-1.82-.21-3.02-.42-4.71-1.07-.7-.27-1.34-.48-1.91-.9-.83-.6-1.74-1.18-2.31-1.99l-.28-.1c-.11-.04-.25-.35-.35-.47-.89-1.12-1.3-2.3-1.14-3.76.19-1.68.4-2.67,1.61-4,1.51-1.66,3.43-3.59,5.32-4.78l1.53-.96c.72-.45,3.62-1.65,4.8-1.95-1.28-1.51-2.51-3.9-2.89-5.66-.05-.23.08-.69,0-.85-.29-.64-.53-1.33-.61-2.11-.22-1.89-.46-3.73-.53-5.56l-.09-2.32c-.03-.78-.02-1.53.05-2.27l.2-2.29.05-1.83.49-5.57.53-2.55c.3-1.44.52-2.78.95-4.18l.84-2.73c.15-.49.85-3.77,1.01-3.49l-.12-.21.49-.68c-.92-.09-.85-.79-1.11-1.33l-.89-.75-1.51-.21c-.54-.07-1.41-.39-1.89-.36l-4.26.23-.36-1.69c.51-1.42,5.12-2.87,6.5-3.22l2.16-.56c.46-.12,1.21-.52,1.62-.53,1.77-.04.74-.65,3.47-.84.56-.04,1.03-.08,1.57-.18,4.42-.82,3.63-.26,7.49-.49-.04,0,1.51.01,1.51.02l.2.71c.1-.24.25-.61.36-.8.12-.21.73.06.98.08l2.09.13,1.77-.11c.07,0,.26-.11.31-.06l.3.3c.39-.42,2.72-.13,3.51-.04l3.73.45c1.92.23,5.22,1.1,6.74,2.41.54.46,1.29.92,1.69,1.49.95,1.34.87,2.91,1.22,4.39s.65,2.85.58,4.38c-.05,1.08.04,2.12.08,3.21.08,1.85.08,3.62.06,5.48,0,.58.11,1,.22,1.61.37,2.01-.12,2.82-.09,5.53l.02,1.55c.03,2.33-.1,4.56-.3,6.92l-.33,3.95c-.27,3.18-.84,6.42-2.24,9.25-.53,1.07-1.53,2.89-2.74,3.21,0,.13,0,.34.11.35l.58.1c.36.06.96.21,1.29.35.89.39,1.69.57,2.58.83,1.01.3,2.1.92,3.08,1.32,1.51,2.49.39-.88,2.54,2.66.63,1.04.83.98.88,2.31.04,1.02-.08,1.99-.84,2.79-.83.87-1.64,1.97-2.59,2.63l-.95.65c-.66.46-4.04,1.74-5.12,1-.46.15-1.28.54-1.7.52l-1.55-.31-1.89-.41c-.28-.06-.59-.14-.86-.23-.49.3-1.12.34-1.74-.06-.14.08-.36.37-.46.25l-.52-.66c-.78.75.44,3.42,2,4.27l1.72.93.63.35c.15.09.11.67-.04.75-.36.16-1.06.44-1.4.54-.84-.02-1.78-.41-2.4-.94l-1.72-1.47c-.38-.33-.25-1.8-1.18-2.34l-.54-3.19.43-1.01c.59.07.86.07,1.39-.11.26-.09.78.11,1.04.12,3.61.04,4.89,1.45,9.11.88s1.76-.75,3.87-1.08c.41-.06.86-.67,1.21-.96.84-.69,1.43-1.67,1.54-2.76-.19-.42-.52-1.19-.78-1.51l-1.3-1.18c-.32-.29-1.02-.66-1.47-.87l-1.38-.64c-.87-.4-1.74-.89-2.63-1.22-.82-.31-1.42-.6-2.1-1.17-.39-.33-1.45-.2-1.9.03-1.47.74-2.97.47-4.44.52l-2.46.08-4.17-.07c-.62,0-1.33.07-2.01.02l-2.71-.2-3.73-.33-2.95-.19ZM19.69,53.13l.18.61c.19-.32.54-.68.79-.66l2.15.17,2.67.31c.96.11,2-.06,2.97.26.28,0,.81-.04,1.11-.03l3.18.12c.64.02,1.28.11,1.96.09,1.48-.06,3.11.02,4.56.34.48-.14,1.14-.24,1.8-.22,1.7.05,3-.92,4.27-1.99,2.34-1.96,3.03-7.27,3.33-10.24l.22-2.16.18-4.18c.13-2.9-.09-4.62.05-7.24.1-1.77-.02-3.47-.04-5.28v-1.06s-.04-7.79-.04-7.79c-.01-3.23.02-2.44-.43-5.55l-.29-1.99c-1.71-2.98-8.35-3.32-11.57-3.56-.86-.06-1.7-.26-2.53-.24l-2.42.04-5-.31-1.17.14c-.05,0-6.78.1-8.1.43l-2.3.57-1.91.37c-1.63.32-3.08.82-4.63,1.26.6.24,1.09.22,1.68.34l2.91.58c1.65,1.31,1.69,1.37,2.51,3.26l-.47.29c.96-.6-.51,3.95-.4,3.38l-.25,1.28-.77,2.41c-.47,1.47-.7,2.95-1.02,4.42-.42,1.89-.73,3.66-.73,5.61,0,.42-.2.96-.27,1.37-.11.65-.06,1.5-.13,2.25l-.38,4.43c-.01.16-.21.46-.16.57l.18.39c-.08.87.07,2.49.26,3.53.1.53.01,1.1-.26,1.43.16.07.46.14.43.27-.29,1.09-.7.82-.44,1.12l.41.48.28,1.09.82,3.47c.37,1.57,1.49,3.49,2.91,4.49.02.02,3.41,1.48,3.87,1.31Z"/>
      <path class="cls-1" d="M19.69,53.13c-.45.16-3.84-1.29-3.87-1.31-1.42-.99-2.54-2.91-2.91-4.49l-.82-3.47-.28-1.09-.41-.48c-.26-.3.15-.03.44-1.12.03-.12-.27-.19-.43-.27.27-.33.35-.9.26-1.43-.19-1.04-.34-2.66-.26-3.53l-.18-.39c-.05-.11.15-.41.16-.57l.38-4.43c.06-.75.01-1.61.13-2.25.07-.41.27-.95.27-1.37,0-1.96.31-3.72.73-5.61.32-1.47.55-2.95,1.02-4.42l.77-2.41.25-1.28c-.11.57,1.36-3.98.4-3.38l.47-.29c-.83-1.9-.86-1.95-2.51-3.26l-2.91-.58c-.59-.12-1.09-.1-1.68-.34,1.55-.44,3-.94,4.63-1.26l1.91-.37,2.3-.57c1.31-.33,8.04-.42,8.1-.43l1.17-.14,5,.31,2.42-.04c.84-.01,1.67.18,2.53.24,3.22.24,9.87.58,11.57,3.56l.29,1.99c.45,3.11.42,2.32.43,5.55l.03,7.79v1.06c.03,1.8.15,3.51.05,5.28-.14,2.62.08,4.34-.05,7.24l-.18,4.18-.22,2.16c-.3,2.97-.99,8.28-3.33,10.24-1.28,1.07-2.58,2.04-4.27,1.99-.66-.02-1.32.08-1.8.22-1.45-.32-3.07-.4-4.56-.34-.67.03-1.31-.06-1.96-.09l-3.18-.12c-.31-.01-.84.02-1.11.03-.97-.32-2.01-.15-2.97-.26l-2.67-.31-2.15-.17c-.25-.02-.59.34-.79.66l-.18-.61ZM32.89,16.05c.2.1.65.23.84.15s.42-.42.54-.72c.27-.67-.57-1.98-1.13-2.61-.14-.16-.23-.63-.34-.8s-.59-.18-.76-.29c-1.68-1.03-2.99-.41-4.1,1.07-1.28,1.71-.86,1.8-.34,3.69.88-.18.72-1.08,1.1-1.48.27-.28.54-.59.74-.83l.64-.82c2.34.31,2.15.66,2.82,2.64ZM42.09,16.78c.15.05.66-.15.68-.3l.32-1.79c.04-.24-.34-.67-.44-.87l-.56-1.07c-.46-.88-.9-1.01-1.74-1.24-1.57-.43-2.84.16-3.63,1.43-.24.39-1.31,1.33-.91,3.34,1.55.92.86-1.06,2.65-1.96.53-.26,1.02-.4,1.58-.38l.55.02c.1,0,.15.19.26.35.9,1.14.24,2.13,1.24,2.47Z"/>
      <path class="cls-3" d="M42.09,16.78c-1-.34-.34-1.33-1.24-2.47-.11-.16-.15-.35-.26-.35l-.55-.02c-.56-.02-1.06.12-1.58.38-1.79.89-1.1,2.87-2.65,1.96-.4-2.01.67-2.95.91-3.34.79-1.28,2.06-1.87,3.63-1.43.84.23,1.28.36,1.74,1.24l.56,1.07c.1.2.48.63.44.87l-.32,1.79c-.03.15-.54.35-.68.3Z"/>
      <path class="cls-3" d="M32.89,16.05c-.66-1.98-.48-2.32-2.82-2.64l-.64.82c-.19.25-.47.55-.74.83-.38.4-.21,1.3-1.1,1.48-.52-1.89-.94-1.98.34-3.69,1.1-1.48,2.42-2.1,4.1-1.07.17.1.65.12.76.29s.2.64.34.8c.55.63,1.39,1.94,1.13,2.61-.12.3-.35.65-.54.72s-.64-.05-.84-.15Z"/>
      <path class="cls-2" d="M30.57,20.92c-2.36.41-4.17-.14-6.08-1.49.2.14-1.63-1.47-1.19-1.86-.96-.22-1.04-1.01-1.14-1.85l-.17-1.43c-.08-.62-.14-1.22.21-1.63-.13-.22-.18-.73-.31-.07l-1.83-.4c-.67-.15-1.32-.51-1.82-.93l-.26.19c-.07.05-.33.1-.33.02l.03-.46s-.1-.2-.13-.15l-.26.5-3.66-.88c-.43-.1-1.14.19-1.76-.03-.75.55-.34.93-.97,1.73-.1.12-.65.04-.73-.1-.17-.32-.4-1.19-.23-1.52l.67-1.31c.27-.53,1.51-.64,2.09-.71,2.61-.3,4.22.79,5.22.97,1.14.21,3.84.73,4.52,1.68,1.67-1.79,1.87-3.26,5.08-3.98.9-.2,1.75-.77,3.49-.21s3.01,1.38,4,3.16c.55-.5,1.31-1.4,1.98-1.73l1.14-.56c2.55.4.6-1.1,5.62.1,1.5.36,2.87,1.73,3.45,3.15.12.3-.06,1.2.69,1.07.91-.16,1.93-.24,2.94-.24.76,0,1.33.06,1.92.78.36.45.42,1.61.03,1.98-2.57.47.31-1.25-4.76-.83l-.65,1.24c.64.2-.3,2.65-.67,2.69l-.2.93-1.3.99c-1.2.91-1.66,1.06-3.2,1.13-2.33.1-2.21.38-3.78-.29s-2.81-1.3-3.84-2.71l-2,1.79c-.48.43-1.52.4-1.84,1.26ZM28.6,18.98l1.69-.24,1.26-.09c1.11-1.5,2.58-1.54,2.03-3.37-.42-1.41.44-1.53-.61-3.94-.71-1.64-2.04-2.36-3.81-2.48-1.28-.09-4.5,1.17-4.93,2.21l-.56,1.36c-.38.93-.3,2.19.26,3.07.35.55.54,1.41.77,1.89.19.39,1.18.7,1.27,1.17,1.1-.38.85.67,2.61.42ZM44.27,18.37l.91-2.28c.65-1.62.57-2.29-.05-4.14-.26-.79-.92-1.21-1.6-1.62-1.36-.81-3.14-1.07-4.77-.88-.62.07-1.1.53-1.58.83-.59.37-1.1.72-1.42,1.21-.71,1.09.28,1.75.08,3.19-.33,2.38,2.6,4.51,5.11,4.25,2.64-.28.83.26,3.32-.55Z"/>
    </g>
  </g>
</svg>