<?xml version="1.0" encoding="UTF-8"?>
<svg id="Layer_2" data-name="Layer 2" xmlns="http://www.w3.org/2000/svg" viewBox="0 0 42.78 84.8">
  <defs>
    <style>
      .cls-1 {
        fill: #f5f5dd;
      }

      .cls-2 {
        fill: #b74426;
      }

      .cls-3 {
        fill: #152a50;
      }
    </style>
  </defs>
  <g id="Address">
    <g>
      <path class="cls-3" d="M15.83,50.58l-1.2,6.84c-.13.75-.16,1.61-.37,2.27-.45,1.41-.85,2.74-1.21,4.19l-.59,2.34-1.67,5.71-1.05,3.66-.75,2.42-.96,3.26h1.66c.37-.02.9-.07,1.25-.1.49-.5,1.04-.58,1.7-.37.37.12.83.48.92.87.07.32-.2,1.04-.54,1.03-.77-.26-1.53-.14-2.11.23h-.89c-.79,0-3.18-.09-3.54-.68-.58-.94-.06-2.17.2-3.01l.72-2.37.55-1.8.52-1.63c.09-.28.25-.7.3-.96l.23-1.23.86-3.13c.37-1.36.82-2.68,1.1-4.06.36-1.73,1.05-3.27,1.47-4.95l1.06-4.19.53-2.24.4-1.58.03-.71c-1.35.15-2.43-.22-3.54-.79-.6-.31-1.48-.47-1.91-.93-.81-.87-1.57-1.68-2.23-2.52-.42-.54-1.05-.87-1.32-1.74l-.68-2.12c-.49-1.52-.72-4-.78-5.61l-.1-3.01-.05-4.01c-.01-.82-.07-1.68.02-2.5.15-1.34.1-1.94.24-3.07l.2-1.59.43-2.52c.22-1.32.4-2.6.91-3.83-.1-.76.13-.81.45-2.17.41-1.75,1.17-3.46,1.2-5.15.02-.85-.89-1.61-1.56-1.66s-1.47-.22-2.07-.13c-.79.12-1.61.19-2.37.37-.39.09-1.37-.28-1.29-.73l.19-1.07,1-.83c.94-.78,3.02-1.61,4.24-2.03,3.05-1.06,3.11-1.22,6.5-1.73l3.14-.47,1.79-.22c.24-.03.71.14.85.24.11-.11.5-.38.69-.38l1.95-.04c.29,0,.54.02.84-.02.96-.15,1.88-.06,2.82-.04,1.69.03,3.29.28,4.97.4l1.96.14c1.14.08,2.24.45,3.34.7,1.64.37,3.34,1.56,4.74,2.68.42.34.72.87,1.03,1.23,1.24,1.43.65,1.36.89,3.73h.43s.5,2.2.5,2.2c.43,1.91-.15.18.4,2.64.46,2.06.59,5.87.49,7.98-.07,1.51-.06,2.96-.04,4.47l.03,2.94c.02,1.43-.28,2.82-.29,4.23l-.02,2.25c-.02,2.67-.46,5.48-1.06,8.03-.42,1.82-1.11,3.66-2.36,4.99s-4.03,2.32-5.61,2.46l-2.42.21c-.08.55.01,1.24.14,1.8l1.04,4.6,1.67,7.9.59,2.81.65,3.63.46,2.59.7,3.58.35,2.46c0,.07-.17.46-.23.42-.08-.04.18.11.34.21l.07,1.78c.04.97-.99,1.5-1.93,1.3-.26-.06-.57.04-.75.16-.07-.05-.28-.28-.33-.22l-.35.4c-.43-.27-1.2.11-1.63.05-.61-.09-1.17-.22-1.79-.13v-.7c0-.19.15-.52.32-.73.14-.16.57-.02.79-.03l2.19-.15,1.68-.09c.02-.77-.05-1.48-.17-2.23l-.26-1.6c-.26-1.64-.6-3.18-.92-4.8l-.69-3.42-1-4.99-.19-1.26c-.17-1.08-.52-2.16-.64-3.31-.1-1.01-.26-1.9-.52-2.86-.44-1.6-.51-2.42-.71-4.03-.09-.7-.56-2.08.07-2.7.28-.28-1.55-.6-2.46-.49-1.32.15-5.23-.05-6.66-.19l-5-.51ZM19.06,49.62l.07.46s.13-.09.18-.07.17.06.18.06c.04-.26.09-.59.24-.69.17-.11.55-.08.77-.07l2.51.12c.39.02.75.09,1.07-.02.79-.29,1.6.32,2.33.33.61,0,1.38-.25,2.15-.15l1.54.2c1.71-.61.27.17,2.75,0,.1-.3,1.69-.27,2.21-.47.62-.24,1.21-.85,1.77-1.17,1.26-.71.54-.69,1.84-2.17l.36-1.04c.14-.4.02-.93.45-1.19.06-.25.15-.66.18-.92l.19-1.29.42-2.55.29-2.92-.06-2.16c-.01-.42-.04-.88.01-1.32l.28-2.14.02-3.68v-2.23c.01-1.78.29-3.56.22-5.37-.02-.53-.07-.81.24-1.19l-.16-1.45c-.13-1.24-.36-2.39-.39-3.67-.02-.83-.11-1.66-.21-2.38l.44-.05c.06,0,.01-.23-.04-.27l-.31-.25.42-.26c.09-.06,0-.4-.08-.41-.2.01-.69.02-.82-.1-.28-.28-.42-1.16-.58-1.51l-.54-1.21c-.95-.24-.2-.54-1.65-1.7-.08-.11-.13-.51-.26-.55l-.42-.1-1.09-.36-.86-.27c-2.01-.64-3.59-.97-5.82-1.14l-1.47-.11c-.11-.08-.26-.37-.37-.32-.09.04-.41.21-.5.2l-2.49-.2c-.76-.06-1.42-.15-2.11-.09l-2.08.16-.21-.24c-.05-.06-.31.08-.45.12-.4.14-1.04.05-1.48.12l-1.23.17c-2.34.33-.41-.17-2.77.27l-.54.38c-.12.08-.39-.13-.59-.16-.41-.07-1.03.49-1.43.53-.73.09-1.27.18-1.92.39l-1.54.51c-.51.17-3.5.86-3.17,1.34l.14.21.18-.38s.15,0,.16.05l.05.2,1.26.17c.83.11,1.21.52,1.69,1.2.23.33.53.58.49,1.09l-.04.59c.08.12.33.32.31.46s-.15.52-.13.68c.11,1.36.03,2.36-.68,3.63-.07.29-.18.85-.26,1.16l-.36,1.52c-.09.39-.11.91-.25,1.31-.23.7-.33,1.28-.46,2.05-.33,1.99-.67.98-.53,2.67,0,.08-.13.11-.27.17.18.7.07,1.42-.07,2.2-.16.9-.07,1.9-.07,2.81l-.2.18s.03.34,0,.38c-.57.97.26.43.13,2.36l-.14,1.94c-.05.75-.16,1.43.15,2.21l-.13.99c-.22.16-.47.4-.38.5.07.08.51.2.52.31l.22,2.29c-.43.26-.68.48-.96.93l1.11-.34c-.03.5-.02.98.08,1.41l.34,1.52c.12.55.24,1.42.5,1.85l.54.91c.7,1.18-.36.45,1.03,1.53.45.35.89.87,1.37,1.12.97.52,1.91.86,2.99,1.08l1.4.29c.48.1.93-.01,1.2.53l1.18-.15c.27-.04.78.03,1.17.05.54.5,1.21.35,1.25.63Z"/>
      <path class="cls-1" d="M19.06,49.62c-.04-.28-.71-.13-1.25-.63-.39-.02-.9-.08-1.17-.05l-1.18.15c-.27-.54-.72-.43-1.2-.53l-1.4-.29c-1.08-.22-2.02-.57-2.99-1.08-.48-.26-.92-.77-1.37-1.12-1.39-1.08-.33-.35-1.03-1.53l-.54-.91c-.25-.43-.37-1.3-.5-1.85l-.34-1.52c-.1-.43-.1-.91-.08-1.41l-1.11.34c.28-.45.52-.67.96-.93l-.22-2.29c-.01-.11-.45-.23-.52-.31-.09-.1.16-.34.38-.5l.13-.99c-.31-.78-.2-1.45-.15-2.21l.14-1.94c.14-1.93-.69-1.39-.13-2.36.03-.05-.04-.35,0-.38l.2-.18c0-.91-.1-1.91.07-2.81.14-.78.25-1.5.07-2.2.14-.06.28-.09.27-.17-.14-1.69.2-.67.53-2.67.13-.78.23-1.35.46-2.05.13-.41.16-.93.25-1.31l.36-1.52c.07-.31.18-.87.26-1.16.71-1.27.79-2.26.68-3.63-.01-.16.11-.54.13-.68s-.23-.35-.31-.46l.04-.59c.04-.52-.26-.76-.49-1.09-.48-.68-.86-1.09-1.69-1.2l-1.26-.17-.05-.2s-.14-.09-.16-.05l-.18.38-.14-.21c-.32-.49,2.67-1.18,3.17-1.34l1.54-.51c.64-.21,1.19-.3,1.92-.39.4-.05,1.03-.61,1.43-.53.2.04.47.25.59.16l.54-.38c2.36-.43.44.07,2.77-.27l1.23-.17c.44-.06,1.07.02,1.48-.12.14-.05.39-.19.45-.12l.21.24,2.08-.16c.69-.05,1.35.03,2.11.09l2.49.2c.09,0,.41-.16.5-.2.11-.05.26.25.37.32l1.47.11c2.24.17,3.81.49,5.82,1.14l.86.27,1.09.36.42.1c.13.03.19.44.26.55,1.45,1.17.7,1.46,1.65,1.7l.54,1.21c.16.36.3,1.24.58,1.51.13.12.61.12.82.1.08,0,.17.35.08.41l-.42.26.31.25s.1.27.04.27l-.44.05c.1.72.19,1.55.21,2.38.03,1.28.26,2.43.39,3.67l.16,1.45c-.31.38-.26.66-.24,1.19.08,1.81-.2,3.59-.21,5.37v2.23s-.03,3.68-.03,3.68l-.28,2.14c-.06.44-.03.9-.01,1.32l.06,2.16-.29,2.92-.42,2.55-.19,1.29c-.04.25-.13.66-.18.92-.44.27-.32.8-.45,1.19l-.36,1.04c-1.3,1.48-.58,1.46-1.84,2.17-.56.31-1.15.93-1.77,1.17-.52.2-2.12.17-2.21.47-2.48.17-1.05-.61-2.75,0l-1.54-.2c-.76-.1-1.54.16-2.15.15-.74,0-1.54-.61-2.33-.33-.32.11-.68.04-1.07.02l-2.51-.12c-.22-.01-.6-.04-.77.07-.15.1-.19.43-.24.69,0,0-.13-.04-.18-.06s-.15.06-.18.07l-.07-.46ZM24.5,12.18c.39.23.78.34.83.76l.26,2.11c0,.07.28.42.31.36l.14-.31c.03-.07-.01-.06-.23-.31l.86-.48c.2-1.02-.15-2.25-.8-3.02-.02-.11-.07-.28-.1-.23l-.23.36c0-1.03-1.83-1.12-2.64-.9-1.84.49-3.04,3.61-1.85,4.49.19.08.65-.28.6-.48-.05-.22-.24-.51-.46-.82l.63-.16.81-.85c.59-.62,1.55-.7,1.54-.7l.33.2ZM32.94,12.97l.12,1.45c.05.65.06,1.19.86,1.3.54-.68.47-1.95.15-2.6l-.75-1.52c-.15-.16-.62-.45-.88-.61-.47-.28-1.61-.33-2.05-.04l-1.03.66c-.25.16-.32.9-.45,1.17-.33.68-.43,1.27-.03,1.96l.55-.24.58-1.27c.03-.07-.03-.27-.08-.43.49-.15,1.21-.36,1.82-.46l1.18.66Z"/>
      <path class="cls-3" d="M24.5,12.18l-.33-.2s-.95.09-1.54.7l-.81.85-.63.16c.22.31.41.6.46.82.05.2-.41.56-.6.48-1.19-.88,0-4,1.85-4.49.81-.22,2.65-.13,2.64.9l.23-.36c.03-.05.09.12.1.23.64.77,1,1.99.8,3.02l-.86.48c.22.25.26.24.23.31l-.14.31c-.03.07-.3-.28-.31-.36l-.26-2.11c-.05-.42-.45-.53-.83-.76Z"/>
      <path class="cls-3" d="M32.94,12.97l-1.18-.66c-.61.1-1.33.31-1.82.46.05.16.12.36.08.43l-.58,1.27-.55.24c-.4-.68-.3-1.27.03-1.96.13-.27.2-1.01.45-1.17l1.03-.66c.44-.28,1.58-.24,2.05.04.26.16.73.45.88.61l.75,1.52c.32.65.39,1.92-.15,2.6-.8-.11-.81-.65-.86-1.3l-.12-1.45Z"/>
      <path class="cls-2" d="M24,19.09c-1.97.34-3.48-.12-5.07-1.24.17.12-1.36-1.23-.99-1.55-.8-.18-.86-.85-.95-1.54l-.15-1.19c-.06-.52-.12-1.02.18-1.36-.11-.18-.15-.61-.26-.06l-1.52-.34c-.56-.12-1.1-.42-1.52-.78l-.22.16c-.06.04-.28.09-.27.01l.02-.39s-.08-.17-.11-.12l-.22.42-3.05-.74c-.36-.09-.96.15-1.47-.02-.63.46-.29.78-.81,1.45-.08.1-.55.03-.61-.08-.14-.27-.33-.99-.19-1.27l.56-1.09c.23-.44,1.26-.54,1.75-.59,2.18-.25,3.52.66,4.36.81.95.17,3.2.61,3.77,1.4,1.39-1.5,1.56-2.72,4.24-3.32.75-.17,1.46-.64,2.91-.18s2.51,1.15,3.34,2.64c.46-.41,1.09-1.16,1.65-1.44l.95-.47c2.12.33.5-.92,4.69.08,1.25.3,2.4,1.44,2.88,2.63.1.25-.05,1,.58.9.76-.13,1.61-.2,2.45-.2.63,0,1.11.05,1.6.65.3.37.35,1.35.03,1.66-2.15.39.26-1.05-3.97-.69l-.54,1.03c.54.17-.25,2.21-.56,2.25l-.17.78-1.09.82c-1,.76-1.38.89-2.67.94-1.94.08-1.85.31-3.16-.24s-2.34-1.09-3.2-2.26l-1.67,1.49c-.4.36-1.27.34-1.54,1.06ZM22.35,17.47l1.41-.2,1.05-.08c.93-1.25,2.15-1.28,1.69-2.82-.35-1.17.37-1.27-.51-3.29-.59-1.37-1.7-1.97-3.18-2.07-1.07-.07-3.75.97-4.11,1.85l-.47,1.14c-.32.78-.25,1.83.22,2.56.3.46.45,1.18.65,1.58.16.32.98.58,1.06.98.91-.32.71.56,2.18.35ZM35.42,16.96l.76-1.9c.54-1.35.47-1.91-.04-3.45-.22-.66-.77-1.01-1.34-1.35-1.13-.67-2.62-.9-3.98-.73-.52.06-.92.44-1.32.69-.49.31-.92.6-1.19,1.01-.59.91.23,1.46.07,2.66-.27,1.99,2.17,3.77,4.27,3.54,2.2-.23.7.22,2.77-.46Z"/>
    </g>
  </g>
</svg>