<?xml version="1.0" encoding="UTF-8"?>
<svg id="Layer_2" data-name="Layer 2" xmlns="http://www.w3.org/2000/svg" viewBox="0 0 91.28 116.44">
  <defs>
    <style>
      .cls-1 {
        fill: #f5f5dd;
      }

      .cls-2 {
        fill: #b74426;
      }

      .cls-3 {
        fill: #9ec284;
      }

      .cls-4 {
        fill: #152a50;
      }
    </style>
  </defs>
  <g id="Address">
    <g>
      <path class="cls-4" d="M43.7,114.58c-1.1-.29-4.66-.14-4.49-.34l-.29.35c-.61-.4-1.05-.38-1.83-.23-.71.14-2,.3-2.65.36-.2.02-.59-.64-.77-.55l-.84.41-1.89-.31c-1.91.71-6.64.1-7.88.22-.12.01-.29.52-.4.49-.15-.04-.55-.25-.7-.24l-3.46.14c-1.01.04-2.21.05-2.94-.22l-.55.27c-.13.06-.36-.38-.47-.44l-1.41.38c-.31.08-.96-.18-1.32-.16l-1.95.11c-.82.04-1.54-.12-2.37-.06l-3.05.2c-1.24.08-2.48-.11-3.65.12-.59-.15-.37-1.04-.49-1.43-.44-1.42-.26-2.97-.24-4.55l.03-1.77c-.02.98.61-5.97.55-5.5l.33-2.58c.09-.74-.5-5.75.51-8.13l3.25-.18c-.11-2.99.39-3.08.45-6.36l.04-2,2.14-.19c.5-.8.34-2.21.17-3.27l.34-1.72c.17-.87.29-1.88.52-2.68,1.28-.56,2.46-.07,3.73-.11l7.52-.21c.97-.03,1.94-.1,2.92-.21l3.52-.41c.6-.07,1.24-.12,1.88-.14l5.73-.23,1.72-.22c1-.13,6.54.27,8.58.28.88,0,1.83-.14,2.64-.06,2.42.25,4.76-.16,7.19-.09l7.28.21,3.32-.02c1,0,1.99.08,2.85.25l7.24.07,5.03.05c3.71.04,7.23.09,11.02-.46.9,1.07.71,2.62.69,3.95l-.02,1.43-.1,1.91c-.45.62-.66,1.34-.75,2.18l-.56,1.41c-.36.9-.92,1.31-1.94,1.15l-2.35-.38.15,3.21c.05,1.01-.19,2.36-.54,3.38l-.62,1.81.54-.39c.13-.1.48.13.67.21.9-.23,1.93-.35,2.86.05.98.43,1.04,1.63.44,2.44-.28.39-.56,1.14-.48,1.58.42,2.44.09,4.71,0,7.12l-.13,3.51-.21,2.51c-.11,1.29-.15,2.92-.38,4.07-.9.58-1.51,1.06-2.28,1.83-.34.32-1.23-.6-1.5-.9-.96.17-2.07.25-3.08.22l-1.69-.05-4.11-.14-2.32.19-2.5-.02c-.09,0-.38-.22-.46-.26s-.4.35-.52.34l-4.83-.27c-.66-.04-1.24.03-1.77.04l-2.84-.12c-1.27-.05-2.45-.12-3.71-.06-2.31.11-2.38-.52-6.11-.4-2.19.07-4.15.23-6.4-.36ZM54.31,81.78c2.75.07,7.24.05,9.69.62,1.73-.37,3.34-.42,5.12-.19l2.61.34c.25.03.9-.06,1.08-.24s.2-.68.26-1.06l.26-1.5c-.14-.99.01-1.95.54-3.15-2.64.29-5.1-.17-7.61-.23l-10.06-.25-6.46.14c-.9.02-1.83.12-2.73,0-.57-.07-1.06-.02-1.58-.03l-5.3-.14c-1-.03-2,.15-3.01-.18-1.47.19-3.04.23-4.63.24l-4.61.02c-.57,0-1.56-.17-1.92.19-.95.94-.2,2.06-.13,2.95l.25,3c.61,0,1.27-.06,1.86-.12l1.26-.12c1.71-.16,3.4-.29,5.16-.32l2.22-.03h1.11s6.49-.01,6.49-.01l2.34-.09c.79-.03,1.51,0,2.27.01l5.54.14ZM83.47,81.6c.4-.07.99-.11,1.4-.08l2.98.22c.19-.63.5-1.59.59-2.27l.4-2.94-4.27.08-5.31.05c-.07.66-.28,1.7-.24,2.37l.14,2.01c.02.27,0,1.08-.22,1.23l-.99.64.68.57c1.37-1.84,2.67-2.51,4.83-1.88ZM21.85,81.67c-.02.18.37.68.52.6.12-.07.63-.32.67-.46.39-1.37.76-3.53.88-5.18h-2.08s.41,1.85.41,1.85c-1.33,1.58.04.05-.4,3.19ZM75.31,83.08c.1.04.73.02.87-.2.15-.24.13-.89.19-1.18l.26-1.4c-.16-1.39-.12-2.39.22-3.83l-1.03.35-.1,1.44c-.11,1.58.01,3.63-.4,4.82ZM16.24,82.64l-.11-.55c.88.24,2.14.32,2.73-.44.83-2.11,0-3.29,1.07-4.8l-10.28.05-.04,5.64c.47-.28,1.07-.27,1.62-.12l1.97-.22c.72-.08,1.46.05,2.13.28l.91.16ZM77.01,92.8c.17,0,.75-.25.95-.22,1.15.19,3.06.25,4.22.06l.09-1.51c.18-.99.99-4.3-.2-4.72-2.58-.81-5.38-.08-7.59-1.34-1.33.44-2.73.17-4.21-.05l-2.39-.36-2.12.17c-.42.03-.85.01-1.31-.02l-8.33-.52c-.35-.02-.41-.56-3.09,0-.78.17-1.5.09-2.14-.17-.41.09-1.22.28-1.72.27l-6.25-.07-4.27-.06-1.88.1-3.63.12-5.16.08-2.76.13-4.47-.07-2.92-.06c-3.24-.07-5.1.3-7.9-.27-.07-.02-.37.24-.44.27s-.26-.09-.25-.16c.01-.09.07-.38.08-.38.01,0-.35-.1-.4-.11-.26.34-.63.61-1.23.78-1.07,2.85.37,3.79-.79,6.31l2.9.22c.69.05,1.23.16,1.8.01,1.26-.31,2.66-.03,4.01-.1,1.1-.06,2.19,0,3.07.45l1.75-.38c.41-.09,1.23.32,1.65.3,2.71-.17,5.43-.56,8.29.5.45.06,1.35.08,1.81.02,1.42-.19,2.74.01,4.16-.02,1.03-.03,2.02-.5,3.34.02s4-.34,4.33.49l3.09-.16c2.46-.12,1.35.79,4.19.21,1.18-.24,3.12-.17,4.45-.09l4.68.29,2.11-.05,2.48-.02,5.98.08,6.01.02ZM2.79,113l1.62-.49c.66-.2,1.33-.22,2.04-.09l.78.13c.17.03.42-.53.44-.72l.89-8.7c.17-1.68.64-3.2.72-4.84l.24-4.61-5.48-.57c-.21-.02-.77.15-.76.32l.04.61.2,3.08.17,1.42-.25,3.9c-.12,1.83-.06,3.61-.34,5.52-.48,3.26.1,1.64-.3,5.05ZM56.53,111.9l4,.12c1.25.04,2.54-.1,3.8,0,1.4.11,2.82.14,4.13.02.1-.94.21-1.5.23-2.05l.17-3.68.2-3.81c.19-.09.49-.22.39-.25-.08-.02-.32-.45-.31-.53l.71-5.17c-.6-.52-1.44-.11-2.11-.16l-3.3-.22c-.82-.05-1.59.13-2.42.06l-6.3-.51-3.76-.19c-1.39-.07-2.72-.34-4.01-.62-.43.02-1.13.05-1.67.01l-3.69-.23-7.69-.47-1.78-.06-1.41-.02c-1.84-.03-3.64.03-5.44-.11-1.42-.11-1.99.06-3.9-.02l-1.46-.06-.98-.04c-.73-.03-1.43.09-2.12,0-.54-.07-.97-.07-1.21.29s0,.83.01,1.21l.15,4.25c.02.5-.04,1.35-.11,1.82-.7,4.41.02,4.32-.12,8.28l-.08,2.08h4.14c.15.53.23.72.34,0,2.53-.91,4.75.48,6.24-.4.62-.37,1.67.05,2.22-.04,1.66-.28,2.51-.44,4.38.09.03-.01.27-.46.35-.38l.33.3,1.74-.18c.66-.07,1.13-.21,1.73.16s1.28.35,1.95-.03c.4-.23.92.11,1.29.21,1.71.46,2.53-.45,2.77.41l2.01-.54c.65-.17,1.95.25,2.59.34.16.02.56-.42.7-.33l.46.27c.59-.17,1.31-.3,2.02-.24l4.82.4ZM13.38,108.06c-.06-2.47.27-4.59.75-6.93.33-1.61.08-3.95.5-5.44l-.1-1.62-2.3-.15c-.24,2.95-.28,5.83-.42,8.88l-.29,6.12c-.11,2.3-.49,2.74.24,3.29.25.18,1.12-.05,1.23-.36.38-1.09.42-2.5.39-3.8ZM84.65,112.65l.6-4.88c.08-.65.35-1.51.39-2.08l.18-2.57.11-4.97c.01-.56,1.04-1.4.6-2.03h-4.11s-3.59-.04-3.59-.04c-.31,0-.97.29-1.07.56-.08.22-.15.8-.15,1.09-.03,1.99-.12,3.78-.37,5.71-.19,1.42-.1,2.9-.22,4.36l-.26,3.12c-.02.29-.2.61-.1.78s.67.46.87.46l3.57.11c.46-.76,2.62-.82,3.55.39ZM71.5,108.57l-.08,3.6c.65.29,1.6.17,2.25-.25.79-5.12,1.4-10.3,1.52-15.39-1.54.12-2.56-.63-3.13.05-.04,3.48-.77,6.13-.65,9.53l.08,2.46Z"/>
      <path class="cls-1" d="M56.53,111.9l-4.82-.4c-.71-.06-1.43.07-2.02.24l-.46-.27c-.14-.08-.54.36-.7.33-.65-.09-1.95-.52-2.59-.34l-2.01.54c-.24-.86-1.06.04-2.77-.41-.37-.1-.88-.43-1.29-.21-.67.38-1.35.39-1.95.03s-1.07-.22-1.73-.16l-1.74.18-.33-.3c-.08-.08-.32.37-.35.38-1.87-.53-2.72-.37-4.38-.09-.55.09-1.59-.33-2.22.04-1.49.87-3.71-.51-6.24.4-.11.72-.19.53-.34-.01h-4.14s.08-2.06.08-2.06c.14-3.96-.57-3.87.12-8.28.07-.47.13-1.32.11-1.82l-.15-4.25c-.01-.37-.26-.84-.01-1.21s.67-.36,1.21-.29c.7.09,1.39-.03,2.12,0l.98.04,1.46.06c1.91.08,2.49-.09,3.9.02,1.8.14,3.6.09,5.44.11l1.41.02,1.78.06,7.69.47,3.69.23c.54.03,1.24,0,1.67-.01,1.29.28,2.62.55,4.01.62l3.76.19,6.3.51c.82.07,1.59-.11,2.42-.06l3.3.22c.67.04,1.51-.37,2.11.16l-.71,5.17c-.01.08.24.51.31.53.1.03-.21.16-.39.25l-.2,3.81-.17,3.68c-.03.55-.13,1.11-.23,2.05-1.31.12-2.73.09-4.13-.02-1.26-.1-2.55.04-3.8,0l-4-.12ZM51.08,106.73c.24.01.82-.52.71-.64l-.48-.57c.34.02.94.01.9-.22l-.27-1.34-2.04-.03h-2.95s-3.61-.2-3.61-.2c-.73-.04-1.53-.85-2.3-.16-.48.43-1.82.82-2.31.33-.45-.45-.87-1.26-1.44-1.63-.32-.21-1.2-.2-1.44.08l-1.08,1.31c-.28.34-1.04-.8-1.01-1.26.04-.65-.32-1.19-.71-1.4-.6-.33-1.33-.21-1.83.09l-1.97,1.15c-.65-1.16-1.66-1.75-2.92-1.57-2.12.29-3.28,4.34-2.99,4.8.18.29,1.08.54,1.23.48l.77-2.01c.13-.35.33-.83.55-.96.18-.1.73.03.88.2l2.05,2.4c.67-.2,1.44-.79,1.86-1.35l.94-1.22c1.24.48,1.86,1.93,1.83,3.26,1.06.55,1.94-.56,2.35-1.46.14.05.39.24.47.16l.39-.39,1.23,2.38,3.7-1.01c.21-.06.87.34.96.17l.37-.75.15.9,8.02.45ZM59.18,105.29l-.18.75c-.02.06.14.04.2,0l.43-.21c.14-.07.29.54.43.45l.7-.48c.36-.25.81-.53.83-.83.03-.41-.52-.9-.84-.88l-3.04.19.81.41-.58.4c-.11.07.03.54.08.54l1.16-.33Z"/>
      <path class="cls-1" d="M77.01,92.8l-6.01-.02-5.98-.08-2.48.02-2.11.05-4.68-.29c-1.33-.08-3.27-.15-4.45.09-2.84.58-1.73-.34-4.19-.21l-3.09.16c-.33-.83-2.95.05-4.33-.49s-2.32-.05-3.34-.02c-1.42.04-2.74-.16-4.16.02-.47.06-1.37.03-1.81-.02-2.86-1.05-5.59-.66-8.29-.5-.42.03-1.25-.38-1.65-.3l-1.75.38c-.88-.44-1.98-.5-3.07-.45-1.35.07-2.75-.22-4.01.1-.57.14-1.11.04-1.8-.01l-2.9-.22c1.16-2.52-.27-3.46.79-6.31.6-.17.97-.44,1.23-.78.05.01.41.11.4.11-.01,0-.07.3-.08.38-.01.07.18.2.25.16s.37-.29.44-.27c2.81.58,4.66.2,7.9.27l2.92.06,4.47.07,2.76-.13,5.16-.08,3.63-.12,1.88-.1,4.27.06,6.25.07c.5,0,1.31-.19,1.72-.27.64.26,1.36.34,2.14.17,2.68-.57,2.74-.03,3.09,0l8.33.52c.46.03.89.05,1.31.02l2.12-.17,2.39.36c1.48.22,2.88.49,4.21.05,2.22,1.26,5.02.52,7.59,1.34,1.19.41.38,3.72.2,4.72l-.09,1.51c-1.17.19-3.08.13-4.22-.06-.19-.03-.78.22-.95.22ZM44.7,89.78l-.09.65,3.09-.44,1.8-.18,4.03-.49c.7-.09,1.29-.19,1.66-.78.25-.4-.03-1.62-.55-1.63l-2.52-.07c-.49-.01-1.08.12-1.61.2-2.56.41-.93.33-4.09.21l-3.5-.13-3.81-.11c-.61-.02-1.45-.2-2.15-.17l-3.3.13c-2.67.11-7.55-1.01-7.27,2.33l1.13.41c.15.1.51.49.65.39l.53-.39c.08.41.57.87,1.02.87.29,0,.62-.24.85-.41.77.54,2.56.51,2.79-.01.01.24.09.81.3.8.23,0,1.26-.12.49-.45l1-.49s.32.29.21.35l-.74.42c.71.26,1.4.1,1.83-.22l1.49.04c1.43.04,2.83.05,4.31-.02,1.62-.08,2.56-1.62,2.46-.82Z"/>
      <path class="cls-1" d="M54.31,81.78l-5.54-.14c-.75-.02-1.48-.04-2.27-.01l-2.34.09h-6.49s-1.11.01-1.11.01l-2.22.03c-1.76.03-3.45.16-5.16.32l-1.26.12c-.59.06-1.25.12-1.86.12l-.25-3c-.07-.89-.81-2.01.13-2.95.36-.36,1.35-.19,1.92-.19l4.61-.02c1.59,0,3.16-.05,4.63-.24,1.02.33,2.02.15,3.01.18l5.3.14c.52.01,1.01-.04,1.58.03.9.11,1.83.01,2.73,0l6.46-.14,10.06.25c2.5.06,4.96.52,7.61.23-.52,1.2-.67,2.16-.54,3.15l-.26,1.5c-.07.38-.08.88-.26,1.06s-.83.27-1.08.24l-2.61-.34c-1.77-.23-3.39-.18-5.12.19-2.45-.57-6.94-.55-9.69-.62Z"/>
      <path class="cls-1" d="M84.65,112.65c-.94-1.21-3.09-1.15-3.55-.39l-3.57-.11c-.2,0-.77-.29-.87-.46s.08-.49.1-.78l.26-3.12c.12-1.46.03-2.94.22-4.36.26-1.93.35-3.72.37-5.71,0-.28.07-.86.15-1.09.1-.27.76-.56,1.07-.56l3.59.04h4.11c.44.63-.59,1.46-.6,2.03l-.11,4.97-.18,2.57c-.04.57-.31,1.43-.39,2.08l-.6,4.88Z"/>
      <path class="cls-1" d="M2.79,113c.41-3.41-.18-1.79.3-5.05.28-1.9.22-3.68.34-5.52l.25-3.9-.17-1.42-.2-3.08-.04-.61c-.01-.16.55-.34.76-.32l5.48.57-.24,4.61c-.09,1.65-.55,3.16-.72,4.84l-.89,8.7c-.02.19-.27.75-.44.72l-.78-.13c-.71-.12-1.38-.1-2.04.09l-1.62.49Z"/>
      <path class="cls-1" d="M16.24,82.64l-.91-.16c-.66-.23-1.4-.36-2.13-.28l-1.97.22c-.55-.15-1.15-.16-1.62.12l.04-5.64,10.28-.05c-1.08,1.52-.25,2.69-1.07,4.8-.59.76-1.84.68-2.73.44l.11.55Z"/>
      <path class="cls-1" d="M83.47,81.6c-2.16-.63-3.47.05-4.83,1.88l-.68-.57.99-.64c.22-.15.24-.96.22-1.23l-.14-2.01c-.05-.67.17-1.71.24-2.37l5.31-.05,4.27-.08-.4,2.94c-.09.68-.4,1.64-.59,2.27l-2.98-.22c-.42-.03-1,0-1.4.08Z"/>
      <path class="cls-1" d="M71.5,108.57l-.08-2.46c-.11-3.4.61-6.05.65-9.53.57-.67,1.59.08,3.13-.05-.12,5.09-.73,10.27-1.52,15.39-.65.41-1.6.53-2.25.25l.08-3.6Z"/>
      <path class="cls-1" d="M13.38,108.06c.03,1.3,0,2.71-.39,3.8-.11.31-.99.54-1.23.36-.74-.55-.35-.99-.24-3.29l.29-6.12c.15-3.05.18-5.93.42-8.88l2.3.15.1,1.62c-.42,1.48-.17,3.83-.5,5.44-.48,2.33-.81,4.46-.75,6.93Z"/>
      <path class="cls-1" d="M21.85,81.67c.43-3.14-.93-1.61.4-3.19l-.41-1.85h2.08c-.11,1.66-.48,3.82-.88,5.18-.04.13-.55.39-.67.46-.15.08-.54-.42-.52-.6Z"/>
      <path class="cls-1" d="M75.31,83.08c.42-1.19.29-3.24.4-4.82l.1-1.44,1.03-.35c-.35,1.44-.38,2.43-.22,3.83l-.26,1.4c-.05.28-.04.94-.19,1.18-.14.22-.77.25-.87.2Z"/>
      <path class="cls-4" d="M51.08,106.73l-8.02-.45-.15-.9-.37.75c-.08.17-.74-.23-.96-.17l-3.7,1.01-1.23-2.38-.39.39c-.08.08-.34-.12-.47-.16-.41.91-1.29,2.01-2.35,1.46.03-1.33-.59-2.78-1.83-3.26l-.94,1.22c-.43.56-1.2,1.14-1.86,1.35l-2.05-2.4c-.15-.18-.7-.3-.88-.2-.22.12-.42.61-.55.96l-.77,2.01c-.14.07-1.05-.19-1.23-.48-.29-.46.87-4.51,2.99-4.8,1.26-.17,2.27.41,2.92,1.57l1.97-1.15c.5-.29,1.23-.41,1.83-.09.39.21.75.75.71,1.4-.03.46.72,1.6,1.01,1.26l1.08-1.31c.24-.29,1.12-.29,1.44-.08.57.37.98,1.18,1.44,1.63.49.49,1.83.1,2.31-.33.77-.69,1.58.12,2.3.16l3.61.2h2.95s2.04.02,2.04.02l.27,1.34c.05.23-.56.25-.9.22l.48.57c.11.13-.46.66-.71.64Z"/>
      <path class="cls-4" d="M59.18,105.29l-1.16.33s-.18-.47-.08-.54l.58-.4-.81-.41,3.04-.19c.32-.02.87.47.84.88-.02.31-.46.58-.83.83l-.7.48c-.13.09-.28-.52-.43-.45l-.43.21c-.06.03-.22.05-.2,0l.18-.75Z"/>
      <path class="cls-4" d="M44.7,89.78c.11-.79-.84.75-2.46.82-1.49.07-2.88.06-4.31.02l-1.49-.04c-.43.32-1.12.48-1.83.22l.74-.42c.11-.06-.16-.34-.21-.35l-1,.49c.77.33-.26.44-.49.45-.21,0-.29-.56-.3-.8-.22.52-2.02.55-2.79.01-.23.17-.56.41-.85.41-.45,0-.94-.46-1.02-.87l-.53.39c-.14.1-.5-.29-.65-.39l-1.13-.41c-.28-3.35,4.6-2.23,7.27-2.33l3.3-.13c.7-.03,1.54.15,2.15.17l3.81.11,3.5.13c3.16.12,1.52.2,4.09-.21.53-.08,1.12-.22,1.61-.2l2.52.07c.53.02.8,1.23.55,1.63-.37.6-.96.7-1.66.78l-4.03.49-1.8.18-3.09.44.09-.65Z"/>
      <path class="cls-2" d="M38.42,73.17c-6.38-.42-4.02-2.03-7.36-1.28-2.9.65-5.67,1.51-8.18,3.19l-1.52.39c-.03.87-.61.93-1.03,1.28l-1.93,1.61-1.64,1.79c-1.86,2.03-3.33,4.81-1.55,7.28.47.65,2.05,1.95,2.77,2.56,2.68,2.29,3.1.63,4.16,2.16.97-.02,2.12.1,3.13.2l2.5.24c.73.07,1.38.1,2.07.08l1.9-.05,4.19-.11,2.28-.17c.74-.06,1.06,0,1.64-.12,2.03-.42,2.9-.32,4.95-.73.85-.17,1.62.13,2.37.21.6.07,3.53.13,3.87.76.51.93-.99,2.87-1.76,3.84l-.49.62c-.1.13-.5,0-.62-.02l-.07.9c-.02.26-.75.19-1.18.09l.22.75c.07.22-.42.8-.62.93-.91.61-2.54.69-2.95-.38l3.26-5.12-2.64.55-1.64.2c-1.68.21-3.15.79-4.92.91l-3.33.22c-.09,0-.44-.53-.51-.46l-.36.33c-2.68.09-5.33-.17-7.98-.47-2.4-.27-3.98-.56-6.2-1.41-.92-.35-1.76-.63-2.51-1.18-1.09-.8-2.3-1.55-3.04-2.62l-.37-.13c-.15-.05-.33-.47-.46-.63-1.18-1.47-1.71-3.03-1.5-4.96.24-2.22.53-3.51,2.12-5.27,1.99-2.19,4.51-4.72,7.01-6.3l2.02-1.27c.95-.6,4.77-2.17,6.32-2.56-1.69-1.99-3.31-5.14-3.81-7.46-.06-.3.1-.91,0-1.12-.39-.85-.69-1.76-.81-2.78-.28-2.49-.6-4.91-.7-7.33l-.12-3.05c-.04-1.03-.02-2.01.06-2.99l.26-3.01.07-2.41.64-7.33.69-3.35c.39-1.89.69-3.67,1.25-5.51l1.11-3.59c.2-.64,1.12-4.96,1.33-4.6l-.16-.28.64-.9c-1.21-.11-1.12-1.04-1.47-1.75l-1.17-.99-1.99-.27c-.71-.1-1.86-.51-2.49-.48l-5.61.31-.47-2.22c.68-1.87,6.74-3.77,8.56-4.25l2.85-.74c.61-.16,1.59-.69,2.13-.7,2.33-.06.98-.86,4.57-1.1.74-.05,1.36-.1,2.07-.23,5.82-1.08,4.78-.34,9.87-.65-.05,0,1.99.01,1.99.02l.26.93c.13-.31.33-.8.48-1.05.16-.27.96.08,1.29.1l2.76.17,2.33-.15c.1,0,.34-.15.4-.08l.39.39c.51-.55,3.58-.17,4.62-.05l4.92.6c2.53.31,6.88,1.46,8.88,3.17.71.61,1.7,1.21,2.23,1.96,1.26,1.76,1.15,3.84,1.6,5.79s.85,3.75.77,5.77c-.06,1.42.05,2.79.11,4.23.1,2.43.11,4.77.07,7.21-.01.77.14,1.32.29,2.12.48,2.64-.16,3.71-.11,7.28l.02,2.04c.04,3.07-.14,6.01-.39,9.11l-.43,5.2c-.35,4.19-1.11,8.45-2.94,12.18-.69,1.41-2.02,3.81-3.61,4.22,0,.17,0,.44.14.46l.77.13c.48.08,1.26.27,1.7.47,1.18.52,2.23.75,3.4,1.1,1.33.4,2.77,1.22,4.05,1.74,1.99,3.28.51-1.16,3.35,3.5.83,1.37,1.09,1.29,1.15,3.04.05,1.34-.11,2.62-1.11,3.67-1.1,1.15-2.16,2.6-3.42,3.46l-1.25.86c-.87.6-5.33,2.29-6.74,1.31-.6.2-1.68.71-2.24.69l-2.05-.4-2.5-.54c-.37-.08-.78-.18-1.14-.3-.65.4-1.48.44-2.29-.08-.18.11-.48.49-.61.33l-.69-.87c-1.03.98.57,4.51,2.63,5.62l2.27,1.23.82.47c.2.11.15.89-.06.98-.47.22-1.39.58-1.84.72-1.11-.03-2.35-.54-3.16-1.23l-2.26-1.93c-.5-.43-.33-2.37-1.55-3.08l-.71-4.2.56-1.32c.78.09,1.13.09,1.83-.14.34-.12,1.03.15,1.37.15,4.76.05,6.44,1.91,12,1.15s2.32-.99,5.09-1.42c.54-.08,1.14-.88,1.6-1.26,1.11-.92,1.89-2.2,2.02-3.64-.25-.55-.69-1.57-1.03-1.99l-1.72-1.56c-.42-.38-1.34-.86-1.94-1.14l-1.82-.85c-1.15-.53-2.29-1.17-3.46-1.6-1.08-.4-1.87-.79-2.77-1.54-.52-.43-1.91-.26-2.5.03-1.93.97-3.91.62-5.85.68l-3.23.11-5.49-.09c-.82-.01-1.75.1-2.65.03l-3.57-.27-4.91-.44-3.88-.25ZM37.25,69.98l.24.8c.26-.43.71-.9,1.04-.87l2.83.23,3.52.41c1.27.15,2.63-.08,3.91.34.37,0,1.06-.05,1.47-.04l4.19.15c.85.03,1.69.15,2.58.12,1.96-.08,4.09.03,6,.45.63-.19,1.5-.32,2.36-.29,2.23.07,3.95-1.21,5.63-2.62,3.08-2.58,3.99-9.57,4.39-13.48l.29-2.85.24-5.5c.17-3.81-.12-6.08.07-9.53.13-2.33-.03-4.57-.05-6.95v-1.39s-.06-10.26-.06-10.26c-.02-4.26.03-3.22-.56-7.31l-.38-2.63c-2.25-3.93-11-4.37-15.24-4.69-1.13-.08-2.23-.34-3.33-.32l-3.18.05-6.59-.41-1.54.19c-.07,0-8.94.13-10.66.56l-3.02.76-2.51.49c-2.14.42-4.06,1.08-6.1,1.65.79.32,1.44.3,2.22.45l3.83.77c2.17,1.73,2.22,1.8,3.31,4.3l-.61.38c1.27-.78-.67,5.21-.52,4.45l-.34,1.69-1.01,3.18c-.62,1.94-.92,3.89-1.34,5.82-.55,2.49-.97,4.82-.96,7.39,0,.56-.26,1.27-.35,1.8-.15.85-.08,1.98-.17,2.97l-.5,5.83c-.02.21-.28.6-.21.75l.24.51c-.1,1.15.1,3.28.34,4.65.13.7.02,1.44-.34,1.88.21.1.61.19.57.35-.38,1.44-.92,1.08-.58,1.48l.54.63.37,1.44,1.08,4.57c.49,2.07,1.96,4.6,3.83,5.91.03.02,4.5,1.94,5.1,1.73Z"/>
      <path class="cls-1" d="M37.25,69.98c-.6.21-5.06-1.71-5.1-1.73-1.87-1.31-3.34-3.84-3.83-5.91l-1.08-4.57-.37-1.44-.54-.63c-.34-.4.2-.04.58-1.48.04-.16-.36-.25-.57-.35.35-.44.46-1.18.34-1.88-.25-1.37-.44-3.51-.34-4.65l-.24-.51c-.07-.15.19-.54.21-.75l.5-5.83c.08-.99.01-2.11.17-2.97.09-.54.35-1.25.35-1.8,0-2.58.41-4.9.96-7.39.43-1.93.73-3.88,1.34-5.82l1.01-3.18.34-1.69c-.15.76,1.79-5.24.52-4.45l.61-.38c-1.09-2.5-1.14-2.57-3.31-4.3l-3.83-.77c-.78-.16-1.43-.13-2.22-.45,2.04-.58,3.96-1.23,6.1-1.65l2.51-.49,3.02-.76c1.73-.43,10.59-.55,10.66-.56l1.54-.19,6.59.41,3.18-.05c1.1-.02,2.2.24,3.33.32,4.24.32,13,.76,15.24,4.69l.38,2.63c.59,4.09.55,3.05.56,7.31l.04,10.26v1.39c.04,2.38.19,4.62.07,6.95-.19,3.45.1,5.72-.07,9.53l-.24,5.5-.29,2.85c-.4,3.91-1.31,10.9-4.39,13.48-1.68,1.41-3.39,2.69-5.63,2.62-.87-.03-1.74.1-2.36.29-1.91-.42-4.05-.53-6-.45-.88.03-1.73-.08-2.58-.12l-4.19-.15c-.41-.01-1.1.03-1.47.04-1.28-.43-2.64-.19-3.91-.34l-3.52-.41-2.83-.23c-.33-.03-.78.44-1.04.87l-.24-.8ZM54.64,21.14c.26.13.86.3,1.11.2s.55-.56.71-.95c.35-.88-.76-2.61-1.48-3.44-.19-.21-.3-.83-.45-1.06s-.78-.24-1.01-.38c-2.22-1.35-3.94-.54-5.4,1.41-1.68,2.26-1.13,2.37-.45,4.86,1.16-.23.95-1.42,1.44-1.94.35-.37.71-.77.97-1.1l.85-1.08c3.08.41,2.84.87,3.71,3.47ZM66.76,22.11c.19.07.87-.2.9-.4l.43-2.36c.06-.31-.44-.88-.58-1.14l-.73-1.41c-.61-1.16-1.19-1.33-2.29-1.64-2.07-.57-3.74.21-4.78,1.89-.32.51-1.73,1.75-1.2,4.39,2.04,1.21,1.13-1.4,3.49-2.58.69-.35,1.35-.53,2.08-.5l.72.02c.14,0,.2.25.34.46,1.19,1.5.32,2.81,1.63,3.26Z"/>
      <path class="cls-2" d="M66.76,22.11c-1.32-.45-.44-1.76-1.63-3.26-.14-.21-.2-.46-.34-.46l-.72-.02c-.73-.03-1.39.15-2.08.5-2.36,1.18-1.45,3.79-3.49,2.58-.53-2.64.88-3.88,1.2-4.39,1.04-1.68,2.71-2.46,4.78-1.89,1.1.3,1.69.47,2.29,1.64l.73,1.41c.14.26.64.83.58,1.14l-.43,2.36c-.04.2-.71.47-.9.4Z"/>
      <path class="cls-2" d="M54.64,21.14c-.87-2.6-.63-3.06-3.71-3.47l-.85,1.08c-.26.33-.62.72-.97,1.1-.5.53-.28,1.71-1.44,1.94-.69-2.49-1.24-2.61.45-4.86,1.45-1.95,3.18-2.76,5.4-1.41.23.14.86.15,1.01.38s.26.85.45,1.06c.73.83,1.83,2.55,1.48,3.44-.16.4-.46.85-.71.95s-.85-.07-1.11-.2Z"/>
      <path class="cls-3" d="M51.59,27.55c-3.11.54-5.49-.19-8-1.96.26.18-2.15-1.94-1.56-2.45-1.27-.29-1.36-1.33-1.5-2.43l-.23-1.88c-.1-.81-.19-1.61.28-2.15-.17-.29-.24-.96-.41-.09l-2.41-.53c-.88-.19-1.74-.67-2.4-1.23l-.35.25c-.09.06-.44.14-.43.02l.04-.61s-.13-.27-.17-.2l-.34.66-4.81-1.16c-.57-.14-1.51.24-2.32-.04-.99.73-.45,1.23-1.27,2.28-.13.16-.86.05-.96-.13-.22-.42-.53-1.57-.3-2l.89-1.72c.36-.7,1.99-.85,2.76-.93,3.44-.39,5.56,1.04,6.88,1.28,1.5.27,5.05.96,5.96,2.21,2.2-2.36,2.47-4.3,6.69-5.24,1.19-.27,2.31-1.01,4.6-.28s3.96,1.82,5.27,4.16c.73-.65,1.72-1.84,2.61-2.27l1.51-.74c3.35.52.79-1.45,7.4.13,1.97.47,3.78,2.28,4.55,4.15.16.4-.07,1.58.91,1.41,1.2-.2,2.55-.32,3.87-.32,1,0,1.76.08,2.53,1.02.48.59.55,2.13.04,2.61-3.39.62.41-1.65-6.27-1.09l-.85,1.63c.85.26-.4,3.49-.89,3.54l-.26,1.23-1.71,1.3c-1.58,1.2-2.18,1.4-4.21,1.48-3.06.13-2.91.5-4.98-.38s-3.7-1.72-5.05-3.57l-2.63,2.36c-.63.57-2,.53-2.43,1.67ZM48.99,24.99l2.23-.32,1.66-.12c1.46-1.98,3.4-2.02,2.67-4.44-.56-1.85.58-2.01-.8-5.19-.93-2.16-2.68-3.11-5.01-3.27-1.69-.11-5.93,1.54-6.49,2.92l-.73,1.79c-.5,1.22-.4,2.89.35,4.04.47.72.71,1.86,1.02,2.49.25.51,1.55.92,1.67,1.54,1.44-.5,1.12.88,3.44.55ZM69.62,24.2l1.2-3.01c.85-2.14.75-3.01-.07-5.45-.35-1.04-1.22-1.6-2.11-2.13-1.79-1.06-4.13-1.42-6.28-1.16-.82.1-1.45.69-2.08,1.09-.78.49-1.45.95-1.87,1.59-.94,1.44.37,2.31.11,4.2-.43,3.14,3.42,5.94,6.73,5.59,3.48-.37,1.1.34,4.38-.73Z"/>
    </g>
  </g>
</svg>