<?xml version="1.0" encoding="UTF-8"?>
<svg id="Layer_2" data-name="Layer 2" xmlns="http://www.w3.org/2000/svg" viewBox="0 0 50.57 99.33">
  <defs>
    <style>
      .cls-1 {
        fill: #f5f5dd;
      }

      .cls-2 {
        fill: #b74426;
      }

      .cls-3 {
        fill: #152a50;
      }
    </style>
  </defs>
  <g id="Address">
    <g>
      <path class="cls-3" d="M18.54,59.24l-1.4,8.01c-.15.88-.18,1.88-.43,2.66-.53,1.65-.99,3.21-1.42,4.91l-.69,2.74-1.95,6.69-1.23,4.28-.87,2.83-1.12,3.81,1.95-.02c.43,0,1.05-.07,1.46-.1.57-.59,1.22-.69,1.98-.43.46.16.96.52,1.08,1.02.09.37-.23,1.2-.63,1.2-.91-.31-1.8-.16-2.47.26h-1.04c-.92,0-3.74-.11-4.15-.78-.68-1.12-.07-2.55.23-3.54l.85-2.77.64-2.11.61-1.91c.1-.33.29-.82.35-1.12l.27-1.44,1.01-3.67c.44-1.6.95-3.14,1.29-4.76.42-2.03,1.23-3.83,1.73-5.8l1.24-4.91.62-2.63.47-1.85.04-.84c-1.58.18-2.84-.25-4.15-.92-.7-.36-1.73-.55-2.23-1.09-.94-1.02-1.84-1.97-2.62-2.95-.5-.63-1.23-1.02-1.55-2.03l-.8-2.48c-.57-1.78-.85-4.68-.91-6.57l-.12-3.53-.06-4.7c-.01-.96-.09-1.97.03-2.93.18-1.57.12-2.27.28-3.6l.24-1.86.5-2.95c.26-1.55.47-3.04,1.07-4.49-.11-.89.15-.95.53-2.54.48-2.05,1.37-4.05,1.4-6.04.02-1-1.04-1.89-1.82-1.94s-1.73-.26-2.42-.15l-2.78.42c-.48.07-1.59-.3-1.5-.85l.22-1.25,1.17-.97c1.1-.91,3.53-1.89,4.96-2.38,3.57-1.24,3.64-1.43,7.61-2.03l3.68-.56,2.09-.26c.28-.04.83.16,1,.28.13-.13.58-.44.81-.45l2.28-.04c.34,0,.64.03.98-.03,1.12-.18,2.2-.07,3.31-.05,1.98.03,3.85.33,5.83.46l2.29.16c1.33.09,2.63.53,3.91.82,1.92.44,3.91,1.83,5.55,3.13.5.39.84,1.02,1.21,1.44,1.45,1.68.77,1.6,1.04,4.37h.5s.58,2.58.58,2.58c.51,2.24-.17.21.47,3.09.54,2.41.69,6.88.57,9.34-.08,1.77-.07,3.47-.05,5.23l.04,3.44c.02,1.67-.33,3.3-.34,4.96l-.02,2.64c-.02,3.13-.54,6.42-1.24,9.41-.5,2.13-1.3,4.29-2.77,5.85s-4.74,2.73-6.56,2.88l-2.85.23c-.06.71.02,1.42.18,2.13l1.22,5.39,1.95,9.26.7,3.3.76,4.25.54,3.03.82,4.19.41,2.88c.01.08-.2.55-.27.5-.09-.05.21.14.4.25l.08,2.07c.04,1.14-1.16,1.76-2.26,1.52-.3-.06-.67.05-.87.19-.08-.05-.33-.33-.39-.26l-.41.48c-.5-.34-1.4.13-1.9.05-.72-.11-1.36-.25-2.09-.15v-.81c0-.23.17-.63.37-.86.16-.19.67-.02.93-.04l2.57-.17,1.96-.1c.03-.91-.05-1.74-.19-2.62l-.3-1.88c-.31-1.92-.7-3.73-1.08-5.62l-.81-4.01-1.18-5.85-.23-1.48c-.19-1.26-.61-2.53-.75-3.88-.12-1.19-.3-2.23-.61-3.34-.51-1.87-.6-2.83-.84-4.72-.1-.82-.65-2.44.09-3.16.33-.32-1.81-.7-2.88-.58-1.55.18-6.12-.06-7.8-.23l-5.86-.6ZM22.31,58.12l.08.54s.15-.1.21-.09.2.07.21.07c.05-.31.09-.7.27-.81.23-.14.64-.1.9-.09l2.94.14c.45.02.88.11,1.25-.03.92-.33,1.87.38,2.73.39.63,0,2-.43,4.33.02,2.08-.65.27.22,3.22.02.12-.35,1.99-.31,2.59-.55.72-.28,1.41-1,2.07-1.37,1.46-.82.64-.81,2.16-2.55l.42-1.18c.12-.52.08-1.07.52-1.43.07-.28.19-.78.23-1.06l.22-1.52.49-2.99.34-3.42-.08-2.52c-.01-.49-.05-1.03.02-1.55l.32-2.5.02-4.31v-2.62c.02-2.09.34-4.17.25-6.29-.03-.62-.07-.95.28-1.4l-.18-1.7c-.15-1.45-.42-2.8-.46-4.3-.03-.97-.13-1.95-.25-2.79l.52-.06c.07,0,.02-.27-.04-.32l-.36-.29.48-.31c.11-.07.03-.48-.1-.47-.23.01-.79,0-.95-.13-.34-.29-.49-1.35-.67-1.76l-.64-1.42c-1.11-.29-.23-.63-1.93-2-.09-.13-.16-.6-.31-.64l-.49-.12-1.27-.42-1.01-.32c-2.36-.75-4.2-1.13-6.82-1.33l-1.72-.13c-.13-.09-.3-.43-.43-.38-.1.04-.48.24-.59.24l-2.9-.23c-.89-.07-1.66-.17-2.47-.11l-2.44.18-.25-.29c-.06-.07-.36.09-.52.15-.47.16-1.22.06-1.73.14l-1.44.2c-.63.09-1.21.14-1.87.14-.33,0-1.02.12-1.38.18l-.64.44c-.14.1-.45-.15-.69-.19-.47-.09-1.21.57-1.68.63-.85.1-1.49.21-2.25.46l-1.8.59c-.59.2-4.1,1-3.72,1.57l.16.24.21-.45c.02-.05.18,0,.19.06l.05.23,1.48.2c.97.13,1.42.61,1.98,1.41.27.39.62.68.58,1.28l-.05.69c.09.14.38.37.36.54s-.17.61-.16.8c.12,1.62.05,2.73-.79,4.24-.09.34-.21,1-.3,1.35l-.42,1.78c-.11.45-.13,1.06-.29,1.54-.27.82-.39,1.5-.54,2.41-.39,2.34-.78,1.14-.62,3.12,0,.09-.15.13-.32.2.21.82.08,1.66-.09,2.58-.19,1.06-.08,2.23-.08,3.29l-.24.22s.04.4,0,.45c-.66,1.14.31.5.15,2.76l-.16,2.27c-.06.89-.19,1.68.18,2.58l-.16,1.17c-.26.19-.55.47-.45.59.09.1.6.24.61.37l.26,2.68c-.51.31-.8.56-1.12,1.09l1.3-.4c-.03.58-.02,1.15.09,1.65l.4,1.79c.14.64.28,1.68.57,2.16l.64,1.05.18.53c.22.63.51.87,1.02,1.27s1.05,1.01,1.61,1.31c1.14.6,2.24,1.01,3.5,1.27l1.64.34c.56.12,1.09-.02,1.4.62l1.38-.19c1.15-.16,2.83.69,2.85.8Z"/>
      <path class="cls-1" d="M22.31,58.12c-.02-.11-1.69-.96-2.85-.8l-1.38.19c-.31-.64-.84-.51-1.4-.62l-1.64-.34c-1.26-.26-2.36-.66-3.5-1.27-.56-.3-1.08-.9-1.61-1.31s-.81-.64-1.02-1.27l-.18-.53-.64-1.05c-.29-.48-.43-1.53-.57-2.16l-.4-1.79c-.11-.5-.12-1.06-.09-1.65l-1.3.4c.32-.53.61-.78,1.12-1.09l-.26-2.68c-.01-.13-.52-.27-.61-.37-.11-.12.18-.4.45-.59l.16-1.17c-.36-.91-.24-1.7-.18-2.58l.16-2.27c.16-2.26-.81-1.62-.15-2.76.03-.05-.05-.41,0-.45l.24-.22c0-1.06-.11-2.24.08-3.29.16-.92.29-1.76.09-2.58.17-.07.33-.11.32-.2-.16-1.98.24-.79.62-3.12.15-.91.27-1.58.54-2.41.16-.48.18-1.08.29-1.54l.42-1.78c.08-.36.21-1.02.3-1.35.85-1.52.91-2.63.79-4.24-.01-.19.13-.63.16-.8s-.27-.41-.36-.54l.05-.69c.04-.6-.3-.89-.58-1.28-.56-.8-1.01-1.28-1.98-1.41l-1.48-.2-.05-.23c-.01-.06-.17-.11-.19-.06l-.21.45-.16-.24c-.38-.57,3.12-1.38,3.72-1.57l1.8-.59c.75-.25,1.39-.35,2.25-.46.47-.06,1.21-.71,1.68-.63.24.04.55.29.69.19l.64-.44c.36-.05,1.04-.17,1.38-.18.66,0,1.24-.05,1.87-.14l1.44-.2c.52-.07,1.26.02,1.73-.14.16-.06.46-.22.52-.15l.25.29,2.44-.18c.81-.06,1.58.04,2.47.11l2.9.23c.11,0,.49-.19.59-.24.13-.05.3.29.43.38l1.72.13c2.62.2,4.46.58,6.82,1.33l1.01.32,1.27.42.49.12c.15.04.22.51.31.64,1.7,1.37.82,1.71,1.93,2l.64,1.42c.19.41.34,1.47.67,1.76.16.14.72.15.95.13.13,0,.21.41.1.47l-.48.31.36.29c.06.05.11.31.04.32l-.52.06c.12.84.22,1.82.25,2.79.04,1.5.31,2.85.46,4.3l.18,1.7c-.35.45-.31.77-.28,1.4.09,2.12-.24,4.2-.25,6.29v2.62s-.03,4.31-.03,4.31l-.32,2.5c-.07.51-.03,1.05-.02,1.55l.08,2.52-.34,3.42-.49,2.99-.22,1.52c-.04.28-.16.78-.23,1.06-.44.36-.4.91-.52,1.43l-.42,1.18c-1.52,1.74-.7,1.73-2.16,2.55-.65.37-1.35,1.09-2.07,1.37-.61.23-2.47.2-2.59.55-2.95.2-1.14-.67-3.22-.02-2.33-.45-3.69-.02-4.33-.02-.86,0-1.81-.72-2.73-.39-.37.14-.8.05-1.25.03l-2.94-.14c-.26-.01-.67-.05-.9.09-.18.11-.22.5-.27.81,0,0-.15-.05-.21-.07s-.17.07-.21.09l-.08-.54ZM35.94,16.57l.14-2.52c.03-.57-.33-1.27-.63-1.57l-1.23.58c-.32,1.29-.41,2.51-.3,3.86.78,0,1.5-.1,2.02-.35ZM29.95,16.94l1.12-.69c.11-.33.49-3.79-.35-3.48l-.6.22c-.38.14-.91.29-.92.79l-.04,1.94c0,.07.23.29.19.36l-.17.33c.08.22.59.55.76.54Z"/>
      <path class="cls-3" d="M36.17,17.19c-.6.29-1.43.41-2.33.4-.12-1.55-.02-2.96.35-4.44l1.41-.67c.35.35.77,1.15.73,1.81l-.17,2.9Z"/>
      <path class="cls-3" d="M29.91,17.45c-.2.01-.78-.37-.87-.62l.19-.38c.04-.07-.23-.33-.22-.41l.04-2.23c.01-.57.62-.74,1.06-.91l.69-.26c.96-.36.53,3.62.4,4l-1.29.79Z"/>
      <path class="cls-2" d="M28.06,21.9c-2.36.41-4.17-.14-6.08-1.49.2.14-1.63-1.47-1.19-1.86-.96-.22-1.04-1.01-1.14-1.85l-.17-1.43c-.08-.62-.14-1.22.21-1.63-.13-.22-.18-.73-.31-.07l-1.83-.4c-.67-.15-1.32-.51-1.82-.93l-.26.19c-.07.05-.33.1-.33.02l.03-.46s-.1-.2-.13-.15l-.26.5-3.66-.88c-.43-.1-1.14.19-1.76-.03-.75.55-.34.93-.97,1.73-.1.12-.65.04-.73-.1-.17-.32-.4-1.19-.23-1.52l.67-1.31c.27-.53,1.51-.64,2.09-.71,2.61-.3,4.22.79,5.22.97,1.14.21,3.84.73,4.52,1.68,1.67-1.79,1.87-3.26,5.08-3.98.9-.2,1.75-.77,3.49-.21s3.01,1.38,4,3.16c.55-.5,1.31-1.4,1.98-1.73l1.14-.56c2.55.4.6-1.1,5.62.1,1.5.36,2.87,1.73,3.45,3.15.12.3-.06,1.2.69,1.07.91-.16,1.93-.24,2.94-.24.76,0,1.33.06,1.92.78.36.45.42,1.61.03,1.98-2.57.47.31-1.25-4.76-.83l-.65,1.24c.64.2-.3,2.65-.67,2.69l-.2.93-1.3.99c-1.2.91-1.66,1.06-3.2,1.13-2.33.1-2.21.38-3.78-.29s-2.81-1.3-3.84-2.71l-2,1.79c-.48.43-1.52.4-1.84,1.26ZM26.09,19.96l1.69-.24,1.26-.09c1.11-1.5,2.58-1.54,2.03-3.37-.42-1.41.44-1.53-.61-3.94-.71-1.64-2.04-2.36-3.81-2.48-1.28-.09-4.5,1.17-4.93,2.21l-.56,1.36c-.38.93-.3,2.19.26,3.07.35.55.54,1.41.77,1.89.19.39,1.18.7,1.27,1.17,1.1-.38.85.67,2.61.42ZM41.75,19.35l.91-2.28c.65-1.62.57-2.29-.05-4.14-.26-.79-.92-1.21-1.6-1.62-1.36-.81-3.14-1.07-4.77-.88-.62.07-1.1.53-1.58.83-.59.37-1.1.72-1.42,1.21-.71,1.09.28,1.75.08,3.19-.33,2.38,2.6,4.51,5.11,4.25,2.64-.28.83.26,3.32-.55Z"/>
    </g>
  </g>
</svg>