<svg xmlns="http://www.w3.org/2000/svg" xmlns:xlink="http://www.w3.org/1999/xlink" width="1366" zoomAndPan="magnify" viewBox="0 0 1024.5 576" height="768" preserveAspectRatio="xMidYMid meet" version="1.0"><defs><clipPath id="f1420f8bcf"><path d="M 476 191 L 534 191 L 534 344 L 476 344 Z M 476 191 " clip-rule="nonzero"/></clipPath><clipPath id="d0c3c090ae"><path d="M 413.84375 237.886719 L 479.378906 186.609375 L 581.003906 316.496094 L 515.472656 367.769531 Z M 413.84375 237.886719 " clip-rule="nonzero"/></clipPath><clipPath id="4649115fce"><path d="M 413.84375 237.886719 L 479.378906 186.609375 L 581.003906 316.496094 L 515.472656 367.769531 Z M 413.84375 237.886719 " clip-rule="nonzero"/></clipPath><clipPath id="563cef6699"><path d="M 499 312 L 549 312 L 549 355 L 499 355 Z M 499 312 " clip-rule="nonzero"/></clipPath><clipPath id="2cdd1b38fc"><path d="M 413.84375 237.886719 L 479.378906 186.609375 L 581.003906 316.496094 L 515.472656 367.769531 Z M 413.84375 237.886719 " clip-rule="nonzero"/></clipPath><clipPath id="8b509a19b7"><path d="M 413.84375 237.886719 L 479.378906 186.609375 L 581.003906 316.496094 L 515.472656 367.769531 Z M 413.84375 237.886719 " clip-rule="nonzero"/></clipPath><clipPath id="b002ea0c08"><path d="M 548 336 L 553 336 L 553 340 L 548 340 Z M 548 336 " clip-rule="nonzero"/></clipPath><clipPath id="0c8fddfcee"><path d="M 413.84375 237.886719 L 479.378906 186.609375 L 581.003906 316.496094 L 515.472656 367.769531 Z M 413.84375 237.886719 " clip-rule="nonzero"/></clipPath><clipPath id="e1feb89e3a"><path d="M 413.84375 237.886719 L 479.378906 186.609375 L 581.003906 316.496094 L 515.472656 367.769531 Z M 413.84375 237.886719 " clip-rule="nonzero"/></clipPath><clipPath id="ee7506cdde"><path d="M 473 189 L 477 189 L 477 194 L 473 194 Z M 473 189 " clip-rule="nonzero"/></clipPath><clipPath id="9672322d8e"><path d="M 413.84375 237.886719 L 479.378906 186.609375 L 581.003906 316.496094 L 515.472656 367.769531 Z M 413.84375 237.886719 " clip-rule="nonzero"/></clipPath><clipPath id="6736b583b0"><path d="M 413.84375 237.886719 L 479.378906 186.609375 L 581.003906 316.496094 L 515.472656 367.769531 Z M 413.84375 237.886719 " clip-rule="nonzero"/></clipPath><clipPath id="141a966eb9"><path d="M 481 195 L 483 195 L 483 197 L 481 197 Z M 481 195 " clip-rule="nonzero"/></clipPath><clipPath id="5cdc7509c4"><path d="M 413.84375 237.886719 L 479.378906 186.609375 L 581.003906 316.496094 L 515.472656 367.769531 Z M 413.84375 237.886719 " clip-rule="nonzero"/></clipPath><clipPath id="a21c6ac305"><path d="M 413.84375 237.886719 L 479.378906 186.609375 L 581.003906 316.496094 L 515.472656 367.769531 Z M 413.84375 237.886719 " clip-rule="nonzero"/></clipPath><clipPath id="0307a7e4f6"><path d="M 475 193 L 477 193 L 477 195 L 475 195 Z M 475 193 " clip-rule="nonzero"/></clipPath><clipPath id="9c8d047699"><path d="M 413.84375 237.886719 L 479.378906 186.609375 L 581.003906 316.496094 L 515.472656 367.769531 Z M 413.84375 237.886719 " clip-rule="nonzero"/></clipPath><clipPath id="7153db96cb"><path d="M 413.84375 237.886719 L 479.378906 186.609375 L 581.003906 316.496094 L 515.472656 367.769531 Z M 413.84375 237.886719 " clip-rule="nonzero"/></clipPath></defs><g clip-path="url(#f1420f8bcf)"><g clip-path="url(#d0c3c090ae)"><g clip-path="url(#4649115fce)"><path fill="#142950" d="M 510.351562 226.558594 C 510.011719 226.0625 509.558594 225.683594 509.160156 225.25 C 508.902344 224.972656 508.675781 224.617188 508.210938 224.535156 C 507.996094 224.5 507.691406 224.589844 507.492188 224.324219 C 507.742188 224.25 508.128906 224.148438 507.96875 223.941406 C 507.664062 223.539062 507.316406 223.175781 507.027344 222.746094 C 506.921875 222.589844 506.664062 222.441406 506.515625 222.25 C 506.183594 221.824219 506.007812 221.253906 505.386719 221.109375 C 505.351562 221.097656 505.316406 221.050781 505.304688 221.007812 C 505.050781 220.132812 504.113281 219.617188 504.035156 218.640625 C 504.027344 218.589844 503.996094 218.527344 503.953125 218.492188 C 503.164062 217.75 502.550781 216.867188 501.929688 215.992188 C 501.808594 215.820312 501.691406 215.722656 501.453125 215.820312 C 501.277344 215.894531 501.066406 215.746094 501.128906 215.597656 C 501.328125 215.101562 501.011719 214.957031 500.679688 214.78125 C 500.589844 214.734375 500.507812 214.609375 500.476562 214.503906 C 500.394531 214.183594 500.199219 214.078125 499.871094 214.074219 C 499.492188 214.070312 499.203125 213.742188 499.210938 213.351562 C 499.214844 213.136719 499.121094 213.035156 498.9375 213.042969 C 498.757812 213.050781 498.679688 212.9375 498.589844 212.832031 C 498.773438 212.675781 498.683594 212.535156 498.574219 212.378906 C 498.441406 212.1875 498.238281 212.046875 498.179688 211.808594 C 498.109375 211.507812 497.871094 211.496094 497.636719 211.480469 C 497.554688 211.46875 497.457031 211.632812 497.382812 211.480469 C 497.339844 211.394531 497.402344 211.308594 497.476562 211.253906 C 497.761719 211.046875 497.621094 210.863281 497.453125 210.671875 C 497.09375 210.261719 496.722656 209.851562 496.378906 209.425781 C 496.035156 209.007812 495.570312 208.691406 495.300781 208.210938 C 495.253906 208.128906 495.171875 208.09375 495.082031 208.085938 C 494.929688 208.074219 494.808594 207.957031 494.804688 207.84375 C 494.796875 207.550781 494.546875 207.449219 494.417969 207.253906 C 494.230469 206.980469 493.882812 206.925781 493.695312 206.636719 C 493.40625 206.207031 493.058594 205.8125 492.746094 205.394531 C 492.589844 205.183594 492.4375 205.078125 492.15625 205.160156 C 491.90625 205.238281 491.816406 205.195312 491.890625 204.855469 C 492.015625 204.289062 491.335938 204.285156 491.101562 203.941406 C 491.011719 203.808594 490.84375 203.59375 490.589844 203.726562 C 490.5625 203.738281 490.535156 203.753906 490.515625 203.773438 C 490.097656 204.160156 489.648438 203.953125 489.1875 203.847656 C 489.210938 204.070312 489.316406 204.316406 489.039062 204.460938 C 488.710938 204.152344 488.582031 203.699219 488.464844 203.320312 C 488.332031 202.878906 488.28125 202.847656 487.984375 203.144531 C 487.914062 203.210938 487.835938 203.234375 487.746094 203.1875 C 487.679688 203.152344 487.644531 203.089844 487.648438 203.007812 C 487.65625 202.898438 487.738281 202.867188 487.824219 202.847656 C 487.925781 202.824219 488.023438 202.796875 488.117188 202.78125 C 488.363281 202.738281 488.585938 202.582031 488.648438 202.375 C 488.710938 202.167969 488.363281 202.101562 488.300781 201.878906 C 488.285156 201.8125 488.152344 201.847656 488.074219 201.90625 C 487.496094 202.347656 487.335938 202.308594 487.089844 201.667969 C 487.058594 201.613281 487.027344 201.5625 486.996094 201.511719 C 486.980469 201.355469 486.96875 201.210938 487.207031 201.246094 C 487.339844 201.261719 487.421875 201.175781 487.460938 201.054688 C 487.628906 200.546875 487.53125 200.328125 487.011719 200.085938 C 486.972656 200.070312 486.90625 200.039062 486.90625 200.023438 C 486.960938 199.648438 486.5625 199.671875 486.40625 199.476562 C 486.320312 199.363281 486.121094 199.230469 485.972656 199.472656 C 485.925781 199.550781 485.851562 199.617188 485.761719 199.546875 C 485.660156 199.476562 485.734375 199.402344 485.769531 199.320312 C 485.894531 199.058594 485.746094 198.953125 485.515625 198.890625 C 485.164062 198.789062 484.902344 199.121094 484.5625 199.070312 C 484.605469 199.320312 484.101562 199.335938 484.3125 199.65625 C 484.128906 199.832031 483.863281 199.917969 483.820312 200.230469 C 483.804688 200.351562 483.652344 200.429688 483.511719 200.421875 C 483.34375 200.414062 483.355469 200.277344 483.355469 200.164062 C 483.402344 200.089844 483.4375 200 483.347656 199.9375 C 483.007812 199.707031 482.949219 199.535156 483.4375 199.464844 C 483.542969 199.449219 483.621094 199.398438 483.617188 199.265625 C 483.59375 198.761719 483.621094 198.730469 484.085938 198.898438 C 484.339844 198.992188 484.46875 198.917969 484.628906 198.726562 C 484.816406 198.503906 484.710938 198.359375 484.589844 198.1875 C 484.484375 198.035156 484.382812 197.871094 484.285156 197.714844 C 484.054688 197.339844 483.761719 197.261719 483.324219 197.464844 C 483.15625 197.25 482.980469 197.035156 482.8125 196.816406 C 482.714844 196.6875 482.488281 196.585938 482.449219 196.667969 C 482.257812 197.054688 482 196.894531 481.722656 196.84375 C 481.601562 196.820312 481.464844 196.882812 481.390625 197.011719 C 481.390625 197.011719 481.359375 197.007812 481.359375 197.007812 C 481.265625 196.589844 480.816406 196.507812 480.554688 196.375 C 480.03125 196.109375 479.917969 195.757812 479.953125 195.257812 C 479.960938 195.148438 479.914062 195.015625 479.847656 194.929688 C 479.691406 194.734375 479.617188 194.539062 479.640625 194.289062 C 479.652344 194.136719 479.605469 193.898438 479.402344 193.9375 C 478.953125 194.03125 478.785156 193.710938 478.574219 193.449219 C 478.460938 193.308594 478.378906 193.238281 478.21875 193.355469 C 478.128906 193.425781 478.105469 193.65625 477.945312 193.53125 C 477.816406 193.433594 477.964844 193.292969 478.007812 193.175781 C 478.058594 193.039062 478.109375 192.898438 478.191406 192.78125 C 478.441406 192.425781 478.097656 192.191406 478.003906 191.917969 C 477.9375 191.710938 477.679688 191.679688 477.480469 191.714844 C 477.265625 191.746094 477.054688 191.816406 476.859375 191.914062 C 476.675781 192 476.515625 192.148438 476.535156 192.375 C 476.546875 192.613281 476.730469 192.644531 476.917969 192.621094 C 477.152344 192.589844 477.164062 192.769531 477.226562 192.914062 C 477.296875 193.082031 477.191406 193.109375 477.070312 193.152344 C 477.011719 193.175781 476.96875 193.246094 476.917969 193.296875 C 477.246094 193.511719 476.941406 193.902344 477.164062 194.15625 C 477.363281 194.378906 477.308594 194.550781 477.035156 194.664062 C 476.730469 194.792969 476.585938 195.074219 476.449219 195.339844 C 476.332031 195.566406 476.644531 195.585938 476.710938 195.734375 C 476.734375 195.785156 476.753906 195.847656 476.761719 195.902344 C 476.792969 196.175781 476.957031 196.265625 477.222656 196.328125 C 477.851562 196.472656 478.535156 196.589844 478.519531 197.484375 C 478.515625 197.613281 478.625 197.683594 478.726562 197.644531 C 479.292969 197.441406 479.4375 197.828125 479.597656 198.230469 C 479.683594 198.441406 479.734375 198.597656 479.410156 198.597656 C 479.261719 198.601562 479.25 198.683594 479.269531 198.835938 C 479.304688 199.207031 479.527344 199.191406 479.792969 199.09375 C 479.746094 199.429688 479.855469 199.675781 480.128906 199.832031 C 480.234375 199.894531 480.316406 199.984375 480.335938 200.101562 C 480.441406 200.761719 481.203125 200.808594 481.472656 201.320312 C 481.539062 201.449219 481.675781 201.296875 481.777344 201.261719 C 481.933594 201.203125 482.03125 201.285156 481.945312 201.421875 C 481.785156 201.679688 481.925781 201.78125 482.113281 201.914062 C 482.242188 202.003906 482.375 202.136719 482.378906 202.296875 C 482.386719 202.652344 482.621094 202.847656 482.851562 203.050781 C 482.941406 203.132812 482.996094 203.207031 483.03125 203.332031 C 483.136719 203.675781 483.363281 203.894531 483.753906 203.839844 C 484.003906 203.808594 484.097656 203.933594 484.039062 204.140625 C 483.9375 204.5 484.109375 204.53125 484.371094 204.445312 C 484.660156 204.355469 484.753906 204.460938 484.738281 204.734375 C 484.722656 204.972656 484.765625 205.152344 485.082031 205.058594 C 485.191406 205.023438 485.316406 205.070312 485.324219 205.179688 C 485.34375 205.554688 485.648438 205.792969 485.75 206.121094 C 485.808594 206.308594 485.855469 206.472656 486.140625 206.375 C 486.324219 206.316406 486.328125 206.496094 486.308594 206.636719 C 486.292969 206.742188 486.175781 206.878906 486.335938 206.945312 C 486.488281 207.011719 486.574219 206.878906 486.652344 206.777344 C 486.730469 206.675781 486.824219 206.484375 486.941406 206.660156 C 487.132812 206.960938 487.25 207.316406 487.691406 207.320312 C 487.757812 207.84375 488.21875 208.050781 488.507812 208.398438 C 488.660156 208.574219 488.738281 208.8125 488.953125 208.964844 C 489.066406 209.042969 489.152344 209.183594 489.203125 209.316406 C 489.371094 209.785156 489.667969 209.859375 489.984375 209.484375 C 490.140625 209.300781 490.347656 209.253906 490.558594 209.210938 C 490.625 209.199219 490.710938 209.214844 490.742188 209.292969 C 490.777344 209.382812 490.691406 209.414062 490.648438 209.472656 C 490.527344 209.632812 490.292969 209.546875 490.117188 209.714844 C 490.664062 209.957031 490.535156 210.691406 491.085938 210.914062 C 491.144531 210.9375 491.25 211.058594 491.273438 211.125 C 491.359375 211.410156 491.734375 211.59375 491.570312 211.96875 C 491.492188 212.136719 491.65625 212.175781 491.75 212.265625 C 491.953125 212.460938 492.324219 212.410156 492.433594 212.703125 C 492.554688 213.023438 492.773438 213.0625 493.050781 213.007812 C 493.261719 212.960938 493.480469 213.085938 493.691406 212.960938 C 493.765625 212.917969 493.84375 213.019531 493.890625 213.097656 C 493.925781 213.148438 493.9375 213.226562 493.882812 213.25 C 493.390625 213.46875 493.65625 213.929688 493.46875 214.285156 C 493.753906 214.222656 494.007812 214.300781 494.140625 214.015625 C 494.203125 213.875 494.339844 213.933594 494.421875 214.035156 C 494.484375 214.113281 494.707031 214.21875 494.574219 214.28125 C 494.214844 214.4375 494.554688 214.960938 494.113281 215.0625 C 494.023438 215.082031 494.105469 215.222656 494.246094 215.222656 C 494.71875 215.230469 494.886719 215.378906 494.769531 215.804688 C 494.695312 216.058594 494.816406 216.203125 494.949219 216.28125 C 495.324219 216.5 495.359375 216.796875 495.292969 217.179688 C 495.253906 217.398438 495.238281 217.613281 495.628906 217.542969 C 495.832031 217.503906 496.230469 217.609375 496.246094 217.863281 C 496.253906 218.050781 496.300781 218.167969 496.351562 218.328125 C 496.4375 218.621094 496.683594 218.832031 496.703125 219.144531 C 496.71875 219.359375 496.8125 219.496094 497.082031 219.410156 C 497.234375 219.359375 497.449219 219.371094 497.460938 219.578125 C 497.476562 219.859375 497.679688 220.050781 497.738281 220.308594 C 497.78125 220.511719 497.859375 220.65625 498.128906 220.574219 C 498.339844 220.515625 498.433594 220.695312 498.375 220.863281 C 498.292969 221.101562 498.316406 221.324219 498.5 221.449219 C 498.707031 221.59375 498.945312 221.523438 499.132812 221.332031 C 499.203125 221.257812 499.308594 221.1875 499.394531 221.296875 C 499.484375 221.414062 499.351562 221.464844 499.296875 221.546875 C 499.101562 221.824219 499.085938 222.132812 499.183594 222.453125 C 499.21875 222.5625 499.25 222.628906 499.398438 222.589844 C 499.761719 222.496094 500.035156 222.734375 499.980469 223.113281 C 499.960938 223.257812 499.996094 223.359375 500.082031 223.417969 C 500.308594 223.578125 500.652344 223.589844 500.675781 223.976562 C 500.679688 224.019531 500.835938 224.003906 500.910156 223.953125 C 501.03125 223.871094 501.175781 223.832031 501.253906 223.976562 C 501.324219 224.101562 501.449219 224.261719 501.300781 224.417969 C 501.117188 224.609375 501.238281 224.75 501.347656 224.914062 C 501.472656 225.097656 501.742188 225.238281 501.503906 225.550781 C 501.421875 225.65625 501.578125 225.898438 501.765625 225.824219 C 502.054688 225.707031 502.019531 225.832031 502.054688 226.042969 C 502.097656 226.296875 502.289062 226.6875 502.5 226.605469 C 502.960938 226.433594 502.847656 226.824219 502.976562 226.96875 C 503.035156 227.03125 503.070312 227.136719 503.140625 227.164062 C 503.429688 227.269531 503.550781 227.445312 503.507812 227.761719 C 503.492188 227.871094 503.5 228.101562 503.75 227.988281 C 504.109375 227.820312 504.066406 228.039062 504.046875 228.269531 C 504.027344 228.464844 504.023438 228.707031 504.300781 228.664062 C 504.695312 228.597656 504.738281 228.742188 504.652344 229.066406 C 504.601562 229.25 504.605469 229.554688 504.816406 229.527344 C 505.398438 229.457031 505.394531 229.730469 505.269531 230.136719 C 505.234375 230.257812 505.242188 230.425781 505.371094 230.421875 C 505.566406 230.417969 505.730469 230.605469 505.902344 230.527344 C 506.074219 230.449219 505.925781 230.296875 505.902344 230.179688 C 505.816406 229.765625 505.65625 229.339844 506.128906 229.039062 C 506.269531 229.035156 506.417969 229.03125 506.558594 229.023438 C 506.960938 229.480469 507.179688 229.964844 506.800781 230.550781 C 506.730469 230.660156 506.75 230.8125 506.800781 230.933594 C 506.910156 231.195312 506.863281 231.4375 506.785156 231.699219 C 506.71875 231.90625 506.601562 232.179688 506.863281 232.339844 C 507.097656 232.484375 507.128906 232.699219 507.183594 232.925781 C 507.238281 233.164062 507.296875 233.445312 507.546875 233.515625 C 507.894531 233.609375 508.003906 233.9375 508.121094 234.144531 C 508.269531 234.414062 508.488281 234.644531 508.585938 234.957031 C 508.636719 234.914062 508.675781 234.886719 508.675781 234.875 C 508.566406 234.523438 508.835938 234.46875 509.050781 234.460938 C 509.335938 234.453125 509.25 234.726562 509.28125 234.898438 C 509.3125 235.046875 509.25 235.171875 509.203125 235.3125 C 509.089844 235.667969 509.027344 236.082031 509.324219 236.359375 C 509.613281 236.628906 509.707031 236.921875 509.710938 237.28125 C 509.714844 237.445312 509.757812 237.613281 509.949219 237.554688 C 510.203125 237.472656 510.191406 237.605469 510.21875 237.777344 C 510.238281 237.902344 510.339844 238.011719 510.371094 238.136719 C 510.546875 238.757812 511.285156 239.039062 511.332031 239.738281 C 511.339844 239.832031 511.476562 239.808594 511.558594 239.816406 C 511.902344 239.851562 512.199219 240.207031 512.265625 240.546875 C 512.378906 241.128906 512.257812 241.871094 513.148438 241.992188 C 513.3125 242.015625 513.179688 242.128906 513.167969 242.195312 C 513.121094 242.496094 513.097656 242.742188 513.421875 242.953125 C 513.6875 243.125 513.871094 243.394531 513.621094 243.765625 C 513.539062 243.894531 513.460938 244.167969 513.828125 244.097656 C 514.007812 244.0625 514.023438 244.167969 514.019531 244.335938 C 514.015625 244.851562 514.203125 245.3125 514.476562 245.75 C 514.636719 246.011719 514.914062 245.921875 515.121094 246.039062 C 515.199219 246.082031 515.28125 246.113281 515.320312 246.199219 C 515.511719 246.664062 515.730469 247.121094 515.878906 247.601562 C 515.957031 247.859375 516.058594 248.066406 516.296875 248.164062 C 516.527344 248.257812 516.492188 248.347656 516.390625 248.523438 C 516.238281 248.777344 516.144531 249.003906 516.507812 249.238281 C 516.671875 249.34375 517.066406 249.542969 516.777344 249.925781 C 516.734375 249.980469 516.757812 250.15625 516.816406 250.210938 C 517.070312 250.457031 517 251.003906 517.539062 250.992188 C 517.636719 250.988281 517.671875 251.089844 517.652344 251.191406 C 517.617188 251.40625 517.738281 251.578125 517.808594 251.773438 C 517.886719 251.996094 517.996094 252.246094 517.964844 252.464844 C 517.894531 252.953125 518.09375 253.308594 518.347656 253.6875 C 518.535156 253.972656 518.832031 254.257812 518.613281 254.675781 C 518.542969 254.816406 518.480469 255.050781 518.707031 255.132812 C 518.9375 255.21875 519.015625 255.28125 518.796875 255.464844 C 518.6875 255.554688 518.808594 255.652344 518.808594 255.738281 C 518.820312 256.050781 519.179688 256.007812 519.269531 256.210938 C 519.460938 256.636719 519.507812 257.121094 519.835938 257.488281 C 519.910156 257.566406 519.828125 257.648438 519.761719 257.710938 C 519.683594 257.792969 519.625 257.910156 519.730469 257.976562 C 519.925781 258.097656 519.855469 258.234375 519.808594 258.390625 C 519.765625 258.523438 519.789062 258.675781 519.867188 258.769531 C 520.40625 259.417969 520.363281 260.363281 521.003906 260.957031 C 521.097656 261.039062 521.023438 261.148438 521.015625 261.246094 C 520.976562 261.894531 521.257812 262.367188 521.859375 262.65625 C 522.34375 262.890625 522.4375 263.089844 522.316406 263.582031 C 522.296875 263.667969 522.257812 263.804688 522.296875 263.835938 C 522.539062 264.046875 522.265625 264.484375 522.664062 264.617188 C 522.742188 264.640625 522.707031 264.753906 522.671875 264.808594 C 522.464844 265.113281 522.644531 265.425781 522.691406 265.714844 C 522.8125 266.398438 523.183594 267.003906 523.453125 267.632812 C 523.804688 268.445312 523.933594 269.21875 523.636719 270.0625 C 523.582031 270.21875 523.550781 270.4375 523.761719 270.574219 C 524.113281 270.804688 524.425781 271.039062 524.195312 271.558594 C 524.121094 271.734375 524.164062 271.984375 524.414062 272.121094 C 524.601562 272.222656 524.851562 272.445312 524.78125 272.617188 C 524.570312 273.097656 524.746094 273.546875 524.777344 274.011719 C 524.792969 274.226562 524.71875 274.449219 525.042969 274.511719 C 525.199219 274.542969 525.175781 274.714844 525.074219 274.789062 C 524.808594 274.980469 524.804688 275.167969 525.019531 275.394531 C 525.121094 275.503906 525.121094 275.632812 525.023438 275.753906 C 524.953125 275.839844 524.945312 275.933594 524.992188 276.039062 C 525.308594 276.726562 525.183594 277.449219 525.167969 278.164062 C 525.164062 278.414062 525.015625 278.679688 525.421875 278.78125 C 525.578125 278.820312 525.515625 279.035156 525.453125 279.171875 C 525.382812 279.316406 525.296875 279.453125 525.226562 279.597656 C 525.183594 279.6875 525.121094 279.792969 525.242188 279.867188 C 525.359375 279.929688 525.433594 279.867188 525.464844 279.746094 C 525.496094 279.632812 525.554688 279.542969 525.675781 279.652344 C 525.773438 279.738281 525.867188 279.855469 525.730469 279.984375 C 525.550781 280.15625 525.359375 280.328125 525.085938 280.304688 C 524.871094 280.292969 524.816406 280.382812 524.808594 280.589844 C 524.800781 280.832031 524.820312 281.003906 525.054688 281.140625 C 525.273438 281.265625 525.398438 281.582031 525.335938 281.742188 C 525.011719 282.558594 525.878906 283.109375 525.761719 283.863281 C 525.753906 283.902344 525.816406 283.976562 525.863281 283.996094 C 526.144531 284.15625 526.136719 284.285156 525.921875 284.535156 C 525.753906 284.726562 525.472656 285.042969 526 285.230469 C 526.144531 285.285156 526.242188 285.457031 526.160156 285.640625 C 526.039062 285.914062 526.167969 286.164062 526.230469 286.40625 C 526.289062 286.640625 526.585938 286.863281 526.164062 287.042969 C 526.136719 287.054688 526.140625 287.152344 526.144531 287.207031 C 526.128906 287.488281 526.207031 287.699219 526.421875 287.925781 C 526.84375 288.375 526.390625 288.996094 526.652344 289.519531 C 526.792969 289.804688 526.550781 290.15625 526.550781 290.476562 C 526.554688 290.9375 526.699219 291.414062 526.304688 291.800781 C 526.242188 291.859375 526.308594 291.941406 526.296875 292.003906 C 526.191406 292.5625 526.257812 293.128906 526.121094 293.695312 C 526.042969 294.015625 525.628906 294.375 526 294.78125 C 526.082031 294.875 525.941406 294.996094 525.851562 294.984375 C 525.527344 294.949219 525.410156 295.199219 525.394531 295.398438 C 525.375 295.667969 525.707031 295.507812 525.84375 295.644531 C 525.78125 295.792969 525.738281 295.976562 525.660156 296.101562 C 525.511719 296.351562 525.679688 296.664062 525.496094 296.847656 C 525.039062 297.300781 525.023438 297.476562 525.472656 297.890625 C 525.957031 298.332031 526.046875 298.675781 525.816406 299.289062 C 525.734375 299.507812 525.707031 299.703125 525.894531 299.890625 C 526.03125 300.027344 526.054688 300.167969 525.910156 300.351562 C 525.707031 300.601562 525.640625 300.867188 525.890625 301.171875 C 526.085938 301.410156 526.234375 301.710938 525.996094 302.039062 C 525.933594 302.125 525.867188 302.292969 525.90625 302.367188 C 526.195312 302.910156 525.691406 303.226562 525.507812 303.601562 C 525.417969 303.785156 525.460938 304.113281 525.179688 304.195312 C 524.949219 304.261719 524.917969 304.449219 524.855469 304.625 C 524.714844 305.003906 524.648438 305.414062 524.460938 305.777344 C 524.414062 305.859375 524.335938 305.925781 524.382812 306.054688 C 524.6875 306.886719 524.238281 307.664062 524.132812 308.464844 C 524.050781 309.066406 523.929688 309.628906 524.078125 310.226562 C 524.144531 310.503906 524.191406 310.761719 524.042969 311.078125 C 523.867188 311.441406 523.863281 311.878906 524.03125 312.304688 C 524.121094 312.535156 524.265625 312.820312 523.960938 313.054688 C 523.863281 313.128906 523.824219 313.273438 523.910156 313.414062 C 523.980469 313.519531 523.9375 313.609375 523.84375 313.679688 C 523.546875 313.902344 523.542969 314.214844 523.59375 314.535156 C 523.660156 314.902344 523.566406 315.113281 523.160156 315.179688 C 522.914062 315.222656 522.707031 315.453125 522.710938 315.695312 C 522.714844 315.886719 522.792969 316.164062 523.113281 316.175781 C 523.316406 316.183594 523.363281 316.304688 523.273438 316.480469 C 523.230469 316.566406 523.1875 316.734375 523.109375 316.710938 C 522.96875 316.664062 522.792969 316.554688 522.742188 316.425781 C 522.625 316.132812 522.457031 316.199219 522.253906 316.285156 C 522.132812 316.335938 522.011719 316.382812 521.894531 316.4375 C 521.621094 316.578125 521.5625 316.875 521.769531 317.105469 C 521.828125 317.167969 521.9375 317.214844 521.871094 317.308594 C 521.632812 317.660156 521.796875 318.152344 521.457031 318.460938 C 521.210938 318.691406 521.195312 319 521.1875 319.308594 C 521.179688 319.410156 521.210938 319.503906 521.175781 319.609375 C 521.054688 319.972656 520.957031 320.320312 521.257812 320.671875 C 521.347656 320.773438 521.648438 321.121094 521.265625 321.175781 C 520.90625 321.222656 520.8125 321.449219 520.75 321.660156 C 520.613281 322.171875 520.039062 322.496094 520.144531 323.105469 C 520.160156 323.191406 520.078125 323.277344 519.96875 323.1875 C 519.710938 322.972656 519.601562 323.179688 519.515625 323.363281 C 519.417969 323.566406 519.3125 323.75 519.375 324.019531 C 519.464844 324.414062 519.105469 324.761719 519.15625 325.160156 C 519.175781 325.328125 519.140625 325.425781 519.046875 325.546875 C 518.878906 325.765625 518.628906 325.976562 518.824219 326.316406 C 518.882812 326.417969 518.789062 326.496094 518.710938 326.570312 C 518.191406 327.070312 518.152344 327.285156 518.40625 327.953125 C 518.480469 328.144531 518.519531 328.355469 518.355469 328.53125 C 518.167969 328.726562 518.015625 328.636719 517.824219 328.496094 C 517.664062 328.371094 517.488281 328.453125 517.492188 328.667969 C 517.496094 329.003906 517.261719 329.304688 517.394531 329.675781 C 517.484375 329.921875 517.179688 330.167969 517.234375 330.464844 C 517.246094 330.527344 517.148438 330.554688 517.070312 330.578125 C 516.703125 330.6875 516.382812 330.953125 516.308594 331.285156 C 516.21875 331.671875 515.992188 331.863281 515.703125 332.019531 C 515.558594 332.097656 515.519531 332.222656 515.433594 332.324219 C 515.09375 332.726562 514.796875 333.144531 514.632812 333.652344 C 514.613281 333.710938 514.523438 333.746094 514.476562 333.804688 C 514.429688 333.851562 514.335938 333.941406 514.351562 333.964844 C 514.5625 334.371094 514.140625 334.46875 514 334.699219 C 513.949219 334.785156 513.867188 334.851562 513.839844 334.953125 C 513.683594 335.492188 513.628906 336.070312 513.136719 336.46875 C 513.023438 336.558594 512.90625 336.773438 512.917969 336.976562 C 512.925781 337.082031 512.898438 337.121094 512.792969 337.160156 C 512.300781 337.339844 512.304688 337.347656 511.933594 337.753906 C 511.894531 337.800781 511.765625 337.804688 511.691406 337.785156 C 511.464844 337.734375 511.304688 337.804688 511.242188 338.015625 C 511.148438 338.320312 511.140625 338.652344 510.84375 338.878906 C 510.769531 338.9375 510.90625 339.039062 510.972656 339.117188 C 511.164062 339.359375 511.128906 339.667969 510.894531 339.785156 C 510.644531 339.914062 510.457031 340.199219 510.121094 340.160156 C 510.050781 340.152344 509.980469 340.199219 509.964844 340.285156 C 509.953125 340.371094 510.007812 340.429688 510.078125 340.453125 C 510.460938 340.589844 510.421875 340.769531 510.207031 341.074219 C 510.039062 341.3125 509.828125 341.609375 509.902344 341.910156 C 509.957031 342.136719 510.261719 342.164062 510.484375 342.234375 C 510.574219 342.261719 510.679688 342.339844 510.71875 342.425781 C 510.921875 342.855469 511.28125 342.898438 511.695312 342.855469 C 511.820312 342.84375 511.949219 342.90625 512.082031 342.921875 C 512.394531 342.957031 512.722656 343.058594 513.015625 342.996094 C 513.84375 342.832031 514.703125 342.988281 515.511719 342.640625 C 515.960938 342.449219 516.371094 342.289062 516.707031 341.902344 C 517.101562 341.457031 517.269531 340.84375 517.773438 340.488281 C 518.1875 340.195312 518.558594 339.851562 518.917969 339.492188 C 519.195312 339.214844 519.578125 338.964844 519.734375 338.652344 C 520.003906 338.09375 520.453125 337.652344 520.675781 337.066406 C 520.800781 336.730469 521.019531 336.4375 520.890625 336.050781 C 520.820312 335.847656 520.980469 335.800781 521.121094 335.75 C 521.65625 335.5625 521.882812 335.070312 522.128906 334.632812 C 522.25 334.421875 522.328125 334.195312 522.496094 334.003906 C 522.667969 333.808594 522.742188 333.539062 522.886719 333.335938 C 523.15625 332.960938 523.105469 332.492188 523.328125 332.117188 C 523.464844 331.882812 523.683594 331.691406 523.6875 331.394531 C 523.734375 331.359375 523.785156 331.328125 523.832031 331.296875 C 523.933594 331.328125 523.992188 331.269531 524.050781 331.199219 C 524.472656 330.710938 524.472656 330.03125 524.871094 329.5 C 525.199219 329.0625 525.34375 328.453125 525.476562 327.902344 C 525.628906 327.246094 525.863281 326.625 526.042969 325.980469 C 526.207031 325.398438 526.59375 324.90625 526.679688 324.289062 C 526.761719 323.703125 526.933594 323.152344 527.5 322.828125 C 527.554688 322.800781 527.574219 322.707031 527.605469 322.644531 C 527.820312 322.175781 527.828125 321.648438 528.117188 321.171875 C 528.347656 320.792969 528.5 320.328125 528.4375 319.765625 C 528.378906 319.230469 528.566406 318.609375 528.792969 318.042969 C 528.980469 317.578125 529.226562 317.089844 529.171875 316.546875 C 529.1875 316.535156 529.203125 316.523438 529.207031 316.503906 C 529.46875 316.335938 529.640625 316.125 529.621094 315.789062 C 529.601562 315.367188 529.671875 314.980469 530.058594 314.722656 C 530.128906 314.675781 530.238281 314.597656 530.164062 314.519531 C 529.804688 314.128906 530.191406 313.839844 530.359375 313.625 C 530.585938 313.328125 530.648438 313.003906 530.75 312.679688 C 530.910156 312.160156 531.03125 311.625 531.183594 311.105469 C 531.28125 310.769531 531.550781 310.367188 531.28125 309.914062 C 531.183594 309.75 531.113281 309.382812 531.351562 309.101562 C 531.527344 308.886719 531.550781 308.5625 531.546875 308.265625 C 531.539062 307.691406 531.609375 307.125 531.71875 306.5625 C 531.921875 305.492188 532.222656 304.4375 532.085938 303.332031 C 532.082031 303.292969 532.085938 303.253906 532.089844 303.214844 C 532.625 302.886719 532.710938 302.363281 532.699219 301.796875 C 532.695312 301.519531 532.78125 301.253906 532.894531 300.996094 C 533.121094 300.476562 532.957031 299.929688 533.011719 299.402344 C 533.015625 299.386719 533.007812 299.367188 533 299.359375 C 532.792969 299.230469 532.894531 299.054688 532.945312 298.898438 C 532.988281 298.746094 532.914062 298.613281 532.902344 298.492188 C 532.863281 298.15625 532.679688 297.828125 532.820312 297.464844 C 532.90625 297.238281 533.105469 296.960938 532.890625 296.730469 C 532.671875 296.484375 532.691406 296.242188 532.738281 295.960938 C 532.765625 295.785156 532.886719 295.554688 532.554688 295.480469 C 532.464844 295.460938 532.449219 295.265625 532.519531 295.164062 C 532.777344 294.808594 532.644531 294.445312 532.550781 294.085938 C 532.511719 293.933594 532.507812 293.773438 532.621094 293.671875 C 533.023438 293.320312 532.902344 292.960938 532.691406 292.578125 C 532.53125 292.292969 532.480469 291.851562 532.644531 291.707031 C 533.015625 291.382812 533.046875 290.933594 533.140625 290.558594 C 533.375 289.644531 533.382812 288.683594 533.367188 287.734375 C 533.359375 287.300781 533.269531 286.867188 533.3125 286.441406 C 533.386719 285.726562 533.089844 285.050781 533.160156 284.332031 C 533.183594 284.046875 532.921875 283.746094 532.882812 283.4375 C 532.804688 282.84375 533.070312 282.1875 532.546875 281.679688 C 532.523438 281.65625 532.558594 281.59375 532.542969 281.550781 C 532.414062 281.085938 532.175781 280.683594 532.3125 280.105469 C 532.40625 279.703125 532.167969 279.136719 532.085938 278.644531 C 531.953125 277.875 532.058594 277.09375 532.1875 276.324219 C 532.207031 276.195312 532.167969 276.117188 532.078125 276.074219 C 531.835938 275.957031 531.863281 275.753906 531.902344 275.546875 C 531.957031 275.273438 531.972656 275.003906 531.722656 274.804688 C 531.640625 274.738281 531.628906 274.652344 531.667969 274.570312 C 531.78125 274.34375 531.703125 274.128906 531.667969 273.890625 C 531.605469 273.484375 531.445312 273.105469 531.414062 272.675781 C 531.378906 272.246094 531.410156 271.730469 531.039062 271.367188 C 530.949219 270.640625 530.78125 269.933594 530.417969 269.289062 C 530.546875 269.167969 530.546875 269.035156 530.4375 268.902344 C 530.355469 268.804688 530.300781 268.671875 530.4375 268.605469 C 530.722656 268.464844 530.613281 268.226562 530.574219 268.039062 C 530.460938 267.511719 530.351562 266.972656 530.015625 266.519531 C 529.9375 266.421875 529.925781 266.308594 529.910156 266.191406 C 529.871094 265.800781 529.699219 265.519531 529.296875 265.425781 C 529.222656 265.410156 529.109375 265.386719 529.132812 265.316406 C 529.253906 264.921875 528.75 264.449219 529.289062 264.101562 C 529.421875 264.015625 529.335938 263.871094 529.308594 263.738281 C 529.226562 263.324219 528.789062 263.089844 528.769531 262.644531 C 528.753906 262.289062 528.511719 262.046875 528.332031 261.765625 C 528.175781 261.523438 528.03125 261.277344 527.992188 260.976562 C 527.917969 260.339844 527.511719 259.816406 527.371094 259.1875 C 527.269531 258.746094 526.976562 258.332031 526.777344 257.902344 C 526.382812 257.03125 526.488281 255.992188 525.8125 255.234375 C 525.769531 255.1875 525.832031 255.0625 525.8125 254.980469 C 525.75 254.664062 525.753906 254.324219 525.578125 254.042969 C 525.28125 253.574219 525.238281 252.984375 524.871094 252.554688 C 524.84375 252.519531 524.859375 252.433594 524.878906 252.382812 C 525.035156 252.015625 524.578125 251.734375 524.738281 251.363281 C 524.746094 251.34375 524.671875 251.261719 524.625 251.25 C 524.144531 251.113281 524.210938 250.742188 524.273438 250.398438 C 524.304688 250.226562 524.253906 250.101562 524.21875 249.953125 C 524.152344 249.648438 523.839844 249.65625 523.703125 249.457031 C 524.003906 249.132812 523.949219 248.8125 523.640625 248.550781 C 523.449219 248.394531 523.371094 248.246094 523.394531 248 C 523.40625 247.878906 523.347656 247.734375 523.273438 247.628906 C 522.882812 247.074219 522.699219 246.410156 522.296875 245.851562 C 522.167969 245.675781 522.046875 245.449219 521.953125 245.234375 C 521.789062 244.863281 521.605469 244.496094 521.335938 244.195312 C 521.207031 244.050781 520.929688 244.046875 520.878906 243.828125 C 520.777344 243.390625 520.5 243.417969 520.175781 243.511719 C 520.101562 243.402344 520.117188 243.296875 520.167969 243.179688 C 520.25 242.976562 520.132812 242.796875 519.96875 242.757812 C 519.414062 242.632812 519.726562 242.460938 519.921875 242.277344 C 520.203125 242.011719 520.164062 241.808594 519.824219 241.683594 C 519.636719 241.617188 519.554688 241.480469 519.550781 241.28125 C 519.550781 241.179688 519.570312 241.035156 519.515625 240.988281 C 519.132812 240.671875 519.082031 240.167969 518.882812 239.769531 C 518.394531 238.800781 518.039062 237.761719 517.488281 236.828125 C 517.261719 236.445312 516.828125 236.082031 516.667969 235.71875 C 516.476562 235.28125 516.046875 235.058594 515.929688 234.703125 C 515.632812 233.800781 515.039062 233.214844 514.273438 232.746094 C 514.113281 232.648438 514.058594 232.613281 514.109375 232.394531 C 514.195312 232.03125 514.257812 231.640625 513.859375 231.347656 C 513.664062 231.207031 513.585938 230.945312 513.472656 230.722656 C 513.28125 230.339844 513.070312 229.933594 512.730469 229.675781 C 512.042969 229.148438 511.554688 228.464844 511.039062 227.796875 C 510.742188 227.414062 510.632812 226.945312 510.359375 226.546875 Z M 477.894531 192.191406 C 477.921875 192.175781 477.96875 192.207031 477.996094 192.214844 C 478.027344 192.277344 478.042969 192.335938 477.980469 192.367188 C 477.953125 192.378906 477.894531 192.351562 477.875 192.328125 C 477.839844 192.28125 477.828125 192.21875 477.898438 192.195312 Z M 509.773438 233.695312 C 509.738281 233.710938 509.695312 233.695312 509.660156 233.660156 C 509.628906 233.625 509.613281 233.585938 509.609375 233.546875 C 509.613281 233.585938 509.628906 233.628906 509.660156 233.660156 C 509.695312 233.695312 509.738281 233.710938 509.773438 233.695312 Z M 511.625 237.96875 C 511.628906 237.929688 511.628906 237.890625 511.636719 237.839844 C 511.628906 237.890625 511.628906 237.929688 511.625 237.96875 Z M 481.671875 197.269531 C 481.957031 197.4375 481.984375 197.636719 481.734375 197.800781 C 481.652344 197.855469 481.558594 197.886719 481.464844 197.929688 C 481.539062 197.992188 481.613281 198.046875 481.703125 198.085938 C 481.613281 198.046875 481.539062 197.992188 481.464844 197.929688 C 481.378906 197.960938 481.292969 197.984375 481.207031 198.011719 C 480.9375 197.707031 481.246094 197.578125 481.390625 197.398438 C 481.484375 197.355469 481.578125 197.3125 481.667969 197.269531 Z M 479.210938 195.304688 C 479.261719 195.226562 479.339844 195.242188 479.402344 195.234375 C 479.53125 195.21875 479.675781 195.066406 479.78125 195.25 C 479.839844 195.339844 479.734375 195.398438 479.667969 195.449219 C 479.519531 195.5625 479.378906 195.566406 479.257812 195.414062 C 479.230469 195.382812 479.222656 195.339844 479.207031 195.308594 Z M 477.550781 193.734375 C 477.640625 193.660156 477.769531 193.566406 477.851562 193.683594 C 477.933594 193.800781 477.792969 193.878906 477.707031 193.957031 C 477.628906 193.992188 477.550781 194.132812 477.457031 194.019531 C 477.371094 193.910156 477.460938 193.808594 477.550781 193.734375 Z M 477.246094 195.359375 C 477.148438 195.339844 477.429688 194.707031 477.597656 194.59375 C 477.726562 194.507812 477.808594 194.527344 477.847656 194.710938 C 478.027344 194.914062 478.199219 195.195312 477.921875 195.398438 C 477.777344 195.503906 477.472656 195.414062 477.246094 195.363281 Z M 489.121094 207.371094 C 488.863281 207.046875 488.550781 207.023438 488.160156 207.039062 C 487.828125 207.050781 487.761719 206.660156 487.660156 206.398438 C 487.570312 206.164062 487.808594 206.132812 487.953125 206.0625 C 488.097656 205.992188 488.257812 205.949219 488.386719 205.859375 C 488.566406 205.738281 488.617188 205.761719 488.78125 205.9375 C 489.007812 206.183594 489.378906 206.066406 489.6875 205.976562 C 489.777344 205.945312 489.847656 205.847656 489.925781 205.789062 C 490.027344 205.71875 490.144531 205.660156 490.230469 205.785156 C 490.3125 205.90625 490.214844 205.996094 490.132812 206.085938 C 489.988281 206.246094 489.683594 206.203125 489.640625 206.523438 C 489.617188 206.707031 489.558594 206.851562 489.730469 206.976562 C 489.871094 207.082031 489.972656 207.304688 489.90625 207.382812 C 489.820312 207.480469 489.601562 207.484375 489.441406 207.484375 C 489.332031 207.484375 489.183594 207.441406 489.121094 207.363281 Z M 492.875 212.265625 C 492.628906 212.460938 492.4375 212.25 492.269531 212.117188 C 492.144531 212.019531 492.136719 211.78125 492.257812 211.742188 C 492.484375 211.664062 492.738281 211.511719 493 211.707031 C 493.035156 211.910156 493.054688 212.125 492.875 212.265625 Z M 509.839844 235.035156 C 509.761719 235.140625 509.742188 235.25 509.785156 235.371094 C 509.742188 235.25 509.761719 235.140625 509.839844 235.035156 Z M 509.789062 235.8125 C 509.550781 235.75 509.867188 235.652344 509.886719 235.558594 C 510.597656 235.316406 510.910156 235.558594 510.78125 236.265625 C 510.679688 236.335938 510.660156 236.417969 510.738281 236.519531 C 510.773438 236.597656 510.855469 236.660156 510.824219 236.765625 C 510.605469 236.933594 510.496094 236.84375 510.402344 236.617188 C 510.277344 236.296875 510.246094 235.925781 509.785156 235.808594 Z M 509.789062 235.8125 " fill-opacity="1" fill-rule="nonzero"/></g></g></g><g clip-path="url(#563cef6699)"><g clip-path="url(#2cdd1b38fc)"><g clip-path="url(#8b509a19b7)"><path fill="#142950" d="M 547.96875 339.195312 C 547.636719 338.710938 547.1875 339.175781 546.804688 339.058594 C 546.738281 339.039062 546.378906 339.203125 546.199219 339.476562 C 545.96875 339.824219 545.539062 340.066406 545.085938 340.175781 C 544.996094 340.0625 544.90625 339.953125 544.816406 339.839844 C 544.980469 339.53125 544.742188 339.351562 544.597656 339.136719 C 544.617188 338.933594 544.636719 338.734375 544.65625 338.53125 C 544.824219 338.429688 544.914062 338.25 545.011719 338.09375 C 545.125 337.90625 544.996094 337.589844 545.28125 337.492188 C 545.550781 337.398438 545.695312 337.644531 545.886719 337.761719 C 545.945312 337.796875 546.058594 337.855469 546.078125 337.78125 C 546.136719 337.609375 546.1875 337.414062 546.167969 337.238281 C 546.152344 337.074219 546.007812 336.960938 545.824219 336.949219 C 544.800781 336.890625 543.769531 336.878906 542.800781 337.292969 C 542.535156 337.410156 542.164062 337.347656 542.003906 337.597656 C 541.753906 338 541.28125 337.941406 541.085938 337.84375 C 540.609375 337.609375 540.273438 337.925781 539.898438 338.007812 C 539.171875 338.167969 538.515625 338.558594 537.777344 338.738281 C 537.480469 338.808594 537.148438 338.597656 536.96875 338.765625 C 536.75 338.972656 536.566406 338.929688 536.34375 338.910156 C 536.203125 338.898438 536.035156 338.839844 535.945312 339 C 535.84375 339.171875 535.734375 339.128906 535.578125 339.089844 C 535.371094 339.039062 535.121094 338.964844 534.933594 339.027344 C 534.253906 339.257812 533.695312 339.390625 533.179688 339.351562 C 533.066406 339.34375 533.003906 339.382812 533.019531 339.492188 C 533.082031 340.007812 532.667969 339.839844 532.429688 339.894531 C 532.28125 339.925781 531.890625 339.363281 532.042969 340.070312 C 532.042969 340.078125 532.019531 340.105469 532.011719 340.101562 C 531.640625 339.992188 531.429688 340.503906 531.023438 340.332031 C 530.65625 340.183594 530.121094 340.289062 529.957031 340.484375 C 529.539062 340.988281 528.824219 340.503906 528.488281 341.042969 C 527.898438 340.957031 527.609375 341.453125 527.195312 341.707031 C 527.082031 341.78125 527.109375 341.941406 527.195312 342.019531 C 527.570312 342.351562 527.5 342.589844 527.070312 342.785156 C 527.023438 342.808594 526.980469 342.859375 526.949219 342.910156 C 526.75 343.253906 526.621094 343.144531 526.363281 342.914062 C 526.125 342.703125 525.691406 342.839844 525.394531 342.597656 C 525.292969 342.515625 525.273438 342.867188 525.078125 342.804688 C 524.957031 342.660156 525.15625 342.292969 524.921875 342.347656 C 524.734375 342.390625 524.445312 342.363281 524.351562 342.492188 C 524.0625 342.902344 523.574219 342.90625 523.199219 343.132812 C 522.972656 343.269531 522.640625 343.582031 522.492188 343.484375 C 522.109375 343.222656 521.824219 343.480469 521.507812 343.53125 C 521.304688 343.566406 521.144531 343.71875 520.917969 343.761719 C 520.476562 343.847656 520.003906 343.890625 519.597656 344.023438 C 519.046875 344.207031 518.523438 344.296875 517.945312 344.292969 C 517.597656 344.289062 517.210938 344.398438 517.09375 344.832031 C 517.015625 345.109375 516.964844 345.40625 516.554688 345.21875 C 516.484375 345.1875 516.410156 345.238281 516.378906 345.3125 C 516.285156 345.503906 516.109375 345.480469 515.941406 345.523438 C 515.679688 345.597656 515.222656 345.527344 515.367188 346.058594 C 515.382812 346.117188 515.339844 346.15625 515.296875 346.199219 C 515.007812 346.492188 514.496094 346.339844 514.242188 346.726562 C 514.214844 346.769531 513.996094 346.738281 513.886719 346.636719 C 513.554688 346.324219 513.21875 346.359375 513.007812 346.765625 C 512.867188 347.03125 512.695312 347.078125 512.414062 347.070312 C 512.019531 347.066406 511.625 347.148438 511.402344 347.546875 C 511.328125 347.6875 511.179688 347.722656 511.066406 347.804688 C 510.839844 347.96875 510.445312 347.925781 510.394531 348.292969 C 510.355469 348.617188 510.160156 348.585938 509.957031 348.519531 C 509.660156 348.425781 509.347656 348.40625 509.082031 348.527344 C 508.507812 348.785156 508.515625 348.804688 508.125 348.28125 C 508.1875 348.246094 508.277344 348.171875 508.308594 348.191406 C 508.816406 348.511719 508.652344 348.066406 508.667969 347.871094 C 508.675781 347.726562 508.628906 347.578125 508.449219 347.535156 C 508.214844 347.484375 508.1875 347.34375 508.261719 347.140625 C 508.332031 346.941406 508.226562 346.714844 508.066406 346.726562 C 507.683594 346.753906 507.730469 346.605469 507.800781 346.347656 C 507.859375 346.144531 507.757812 345.949219 507.699219 345.753906 C 507.628906 345.503906 507.492188 345.242188 507.515625 345 C 507.59375 344.195312 507.519531 343.382812 507.480469 342.585938 C 507.449219 341.890625 507.152344 341.199219 507.011719 340.496094 C 506.96875 340.292969 506.953125 340.164062 507.054688 339.992188 C 507.277344 339.625 507.46875 339.242188 507.09375 338.84375 C 506.992188 338.734375 506.984375 338.582031 507.054688 338.472656 C 507.441406 337.878906 507.179688 337.160156 507.453125 336.542969 C 507.492188 336.460938 507.503906 336.332031 507.367188 336.285156 C 507.253906 336.25 507.167969 336.308594 507.109375 336.398438 C 507.007812 336.542969 506.898438 336.671875 506.6875 336.71875 C 506.5625 336.28125 506.78125 335.980469 507.082031 335.742188 C 507.269531 335.589844 507.382812 335.371094 507.289062 335.214844 C 507.050781 334.8125 507.207031 334.496094 507.398438 334.160156 C 507.53125 333.933594 507.398438 333.769531 507.242188 333.628906 C 507.085938 333.480469 506.945312 333.582031 506.816406 333.6875 C 506.667969 333.804688 506.523438 333.925781 506.371094 334.039062 C 506.296875 334.097656 506.210938 334.128906 506.144531 334.027344 C 506.027344 333.84375 506.171875 333.363281 506.378906 333.253906 C 506.5 333.191406 506.59375 333.105469 506.660156 332.984375 C 506.722656 332.867188 506.828125 332.816406 506.953125 332.871094 C 507.320312 333.03125 507.351562 332.773438 507.371094 332.53125 C 507.382812 332.417969 507.386719 332.316406 507.449219 332.207031 C 507.695312 331.78125 507.738281 331.316406 507.753906 330.828125 C 507.773438 330.25 507.59375 329.683594 507.683594 329.101562 C 507.792969 328.453125 507.71875 328.378906 507.03125 328.421875 C 506.820312 328.433594 506.75 328.339844 506.746094 328.191406 C 506.742188 327.980469 506.722656 327.730469 506.929688 327.585938 C 507.277344 327.34375 507.023438 326.851562 507.351562 326.597656 C 507.359375 326.589844 507.316406 326.488281 507.277344 326.457031 C 507.101562 326.332031 507.167969 326.230469 507.277344 326.101562 C 507.453125 325.886719 507.46875 325.6875 507.183594 325.527344 C 507.074219 325.464844 506.992188 325.351562 506.898438 325.261719 C 506.828125 325.105469 506.835938 324.96875 506.976562 324.855469 C 507.214844 324.890625 507.308594 324.808594 507.207031 324.574219 C 507.152344 324.441406 507.085938 324.316406 507.023438 324.1875 C 507.042969 324.171875 507.050781 324.152344 507.058594 324.125 C 507.5 324.089844 507.660156 323.832031 507.703125 323.410156 C 507.765625 322.796875 507.378906 322.238281 507.511719 321.625 C 507.519531 321.597656 507.460938 321.558594 507.4375 321.523438 C 507.136719 321.078125 507.40625 320.53125 507.195312 320.066406 C 507.179688 320.039062 507.304688 319.964844 507.324219 319.902344 C 507.410156 319.605469 507.761719 319.359375 507.605469 319.027344 C 507.457031 318.707031 507.484375 318.40625 507.523438 318.085938 C 507.609375 317.375 507.101562 316.832031 506.980469 316.175781 C 506.972656 316.140625 506.933594 316.09375 506.894531 316.082031 C 506.609375 315.960938 506.527344 315.6875 506.410156 315.433594 C 506.273438 315.125 506.074219 314.90625 505.785156 314.695312 C 505.5 314.488281 505.183594 314.554688 504.96875 314.441406 C 504.445312 314.167969 503.785156 314.023438 503.535156 313.363281 C 503.492188 313.246094 503.382812 313.097656 503.238281 313.21875 C 502.910156 313.496094 502.742188 313.261719 502.582031 313.039062 C 502.507812 312.941406 502.433594 312.878906 502.332031 312.929688 C 502.050781 313.070312 501.886719 312.863281 501.722656 312.71875 C 501.566406 312.582031 501.414062 312.433594 501.246094 312.632812 C 501.105469 312.8125 501.203125 312.988281 501.382812 313.113281 C 501.558594 313.238281 501.613281 313.308594 501.367188 313.476562 C 501.015625 313.722656 500.828125 314.089844 501.019531 314.542969 C 501.085938 314.691406 501.164062 314.902344 501.003906 314.980469 C 500.644531 315.152344 500.84375 315.367188 500.921875 315.558594 C 501.144531 316.085938 501.152344 316.085938 501.117188 316.5 C 501.117188 316.527344 501.125 316.558594 501.140625 316.582031 C 501.414062 316.917969 501.148438 317.289062 501.203125 317.640625 C 501.21875 317.722656 501.171875 317.910156 500.996094 317.773438 C 500.921875 317.714844 500.957031 317.488281 500.777344 317.585938 C 500.625 317.667969 500.652344 317.839844 500.683594 317.980469 C 500.734375 318.203125 500.925781 318.492188 500.84375 318.636719 C 500.601562 319.066406 500.746094 319.277344 501.121094 319.460938 C 501.207031 319.5 501.253906 319.578125 501.234375 319.675781 C 501.207031 319.816406 501.09375 319.800781 500.992188 319.796875 C 500.859375 319.792969 500.695312 319.761719 500.6875 319.949219 C 500.65625 320.4375 500.496094 320.925781 500.46875 321.382812 C 500.429688 321.964844 500.433594 322.59375 500.550781 323.195312 C 500.613281 323.519531 500.683594 323.816406 500.566406 324.160156 C 500.488281 324.398438 500.484375 324.691406 500.449219 324.949219 C 500.402344 325.277344 500.714844 325.5 500.597656 325.777344 C 500.492188 326.039062 500.617188 326.191406 500.753906 326.367188 C 500.886719 326.253906 501.007812 326.21875 501.140625 326.277344 C 501.007812 326.214844 500.886719 326.25 500.753906 326.367188 C 500.953125 326.785156 501.175781 327.195312 501.390625 327.609375 C 501.175781 327.195312 500.953125 326.789062 500.753906 326.367188 C 500.496094 326.570312 500.375 326.972656 500.476562 327.136719 C 500.632812 327.394531 500.671875 327.617188 500.652344 327.886719 C 500.652344 327.902344 500.691406 327.929688 500.714844 327.941406 C 501.1875 328.152344 501.019531 328.527344 500.984375 328.886719 C 500.949219 329.21875 500.535156 329.4375 500.585938 329.652344 C 500.671875 330.019531 500.578125 330.347656 500.589844 330.6875 C 500.609375 331.078125 500.691406 331.480469 500.917969 331.832031 C 500.257812 332.628906 500.4375 333.601562 500.410156 334.511719 C 500.402344 334.882812 500.339844 335.367188 500.707031 335.699219 C 500.765625 335.753906 500.746094 335.871094 500.664062 335.933594 C 500.300781 336.214844 500.359375 336.515625 500.617188 336.820312 C 500.789062 337.027344 500.808594 337.199219 500.574219 337.378906 C 500.511719 337.429688 500.457031 337.511719 500.429688 337.589844 C 500.195312 338.332031 499.765625 339.03125 500.027344 339.878906 C 500.082031 340.0625 500.070312 340.3125 500.113281 340.515625 C 500.289062 341.285156 500.171875 342.101562 500.507812 342.847656 C 500.605469 343.070312 500.605469 343.402344 500.371094 343.523438 C 500.039062 343.699219 500.113281 343.945312 500.15625 344.1875 C 500.183594 344.339844 500.210938 344.476562 500.132812 344.609375 C 499.933594 344.933594 500.105469 345.183594 500.296875 345.421875 C 500.410156 345.558594 500.523438 345.667969 500.527344 345.867188 C 500.546875 346.605469 500.804688 347.296875 501.234375 347.863281 C 501.597656 348.34375 501.652344 348.847656 501.683594 349.386719 C 501.695312 349.539062 501.574219 349.71875 501.761719 349.824219 C 501.960938 349.9375 502.027344 349.734375 502.148438 349.644531 C 502.25 349.566406 502.421875 349.515625 502.511719 349.621094 C 502.625 349.753906 502.4375 349.808594 502.363281 349.878906 C 502.242188 349.988281 502.136719 350.179688 502.234375 350.253906 C 502.578125 350.515625 502.527344 350.972656 502.777344 351.25 C 503.058594 351.554688 503.320312 351.871094 503.527344 352.230469 C 503.582031 352.320312 503.671875 352.375 503.742188 352.328125 C 504.011719 352.144531 504.332031 352.367188 504.621094 352.1875 C 504.820312 352.058594 505.011719 352.242188 505.101562 352.445312 C 505.199219 352.660156 504.976562 352.703125 504.878906 352.8125 C 504.730469 352.972656 504.503906 352.804688 504.328125 352.953125 C 504.359375 353 504.378906 353.0625 504.421875 353.089844 C 504.617188 353.21875 504.960938 353.199219 504.917969 353.578125 C 504.914062 353.59375 504.984375 353.632812 505.023438 353.632812 C 505.28125 353.640625 505.539062 353.769531 505.800781 353.648438 C 505.878906 353.613281 505.964844 353.554688 506.027344 353.65625 C 506.097656 353.765625 506.003906 353.8125 505.917969 353.84375 C 505.847656 353.871094 505.765625 353.890625 505.789062 353.984375 C 505.804688 354.085938 505.894531 354.113281 505.984375 354.128906 C 506.292969 354.179688 506.597656 354.179688 506.882812 354.019531 C 507.1875 353.855469 507.457031 353.78125 507.621094 354.199219 C 507.667969 354.320312 507.804688 354.40625 507.898438 354.304688 C 508.171875 353.992188 508.617188 354.035156 508.910156 353.777344 C 509.101562 353.613281 509.3125 353.617188 509.527344 353.714844 C 509.6875 353.785156 509.398438 354.210938 509.828125 354.097656 C 509.878906 354.085938 509.949219 354.214844 509.90625 354.3125 C 509.886719 354.355469 509.851562 354.394531 509.851562 354.433594 C 509.855469 354.582031 509.992188 354.632812 510.042969 354.53125 C 510.230469 354.191406 510.40625 354.394531 510.589844 354.507812 C 510.8125 354.644531 511.054688 354.609375 511.273438 354.546875 C 511.742188 354.410156 512.199219 354.234375 512.589844 353.910156 C 512.898438 353.652344 513.238281 353.457031 513.691406 353.5 C 514.042969 353.53125 514.453125 353.476562 514.734375 353.277344 C 515.132812 352.996094 515.621094 352.898438 515.996094 352.578125 C 516.144531 352.449219 516.359375 352.429688 516.578125 352.445312 C 517.058594 352.484375 517.425781 352.285156 517.617188 351.828125 C 517.703125 351.632812 517.832031 351.496094 518.042969 351.511719 C 518.324219 351.535156 518.546875 351.394531 518.773438 351.273438 C 519.164062 351.0625 519.613281 351.042969 520.023438 351.039062 C 520.390625 351.039062 520.671875 350.96875 520.851562 350.699219 C 521.039062 350.421875 521.304688 350.394531 521.539062 350.453125 C 521.828125 350.53125 522.050781 350.460938 522.277344 350.3125 C 522.367188 350.257812 522.460938 350.234375 522.570312 350.238281 C 523.082031 350.273438 523.515625 350.117188 523.941406 349.808594 C 524.3125 349.542969 524.769531 349.375 525.207031 349.21875 C 525.757812 349.027344 526.328125 348.894531 526.890625 348.726562 C 527.105469 348.664062 527.332031 348.554688 527.398438 348.347656 C 527.515625 347.988281 527.820312 348.027344 527.996094 348.121094 C 528.363281 348.308594 528.597656 348.152344 528.777344 347.898438 C 529.089844 347.460938 529.621094 347.210938 529.828125 346.683594 C 529.890625 346.539062 530.023438 346.574219 530.132812 346.589844 C 530.296875 346.617188 530.4375 346.585938 530.589844 346.5 C 530.777344 346.394531 530.972656 346.332031 531.210938 346.378906 C 531.417969 346.421875 531.644531 346.355469 531.847656 346.257812 C 532.554688 345.921875 533.273438 345.609375 533.839844 345.039062 C 533.898438 344.980469 533.941406 344.863281 534.042969 344.925781 C 534.332031 345.097656 534.640625 344.777344 534.933594 344.96875 C 535.007812 345.019531 535.117188 344.964844 535.140625 344.867188 C 535.222656 344.554688 535.542969 344.476562 535.71875 344.257812 C 535.855469 344.085938 536.078125 343.988281 536.289062 344.207031 C 536.378906 344.296875 536.503906 344.28125 536.617188 344.3125 C 537.03125 344.425781 537.417969 344.207031 537.820312 344.222656 C 538.082031 344.234375 538.195312 344.078125 538.199219 343.898438 C 538.207031 343.488281 538.460938 343.460938 538.757812 343.476562 C 538.835938 343.484375 538.964844 343.558594 538.933594 343.410156 C 538.882812 343.148438 539.074219 343.304688 539.117188 343.265625 C 539.367188 343.050781 539.65625 343.148438 539.921875 343.113281 C 540.210938 343.082031 540.261719 342.75 540.402344 342.679688 C 540.828125 342.460938 541.09375 342.09375 541.417969 341.792969 C 541.972656 341.285156 542.566406 341.316406 542.914062 341.953125 C 542.988281 342.097656 543.039062 342.191406 543.195312 342.074219 C 543.570312 341.792969 543.960938 341.539062 544.433594 341.464844 C 544.667969 341.429688 544.777344 341.203125 545.015625 341.125 C 545.542969 340.945312 546.074219 341.160156 546.609375 340.949219 C 547.472656 340.613281 548.285156 340.304688 548.519531 339.25 C 548.292969 339.292969 548.074219 339.378906 547.949219 339.195312 Z M 506.203125 344.257812 C 506.128906 344.304688 506.0625 344.289062 506 344.25 C 505.941406 344.207031 505.90625 344.140625 505.917969 344.0625 C 505.933594 343.9375 506.085938 343.847656 506.019531 343.699219 C 506.070312 343.644531 506.128906 343.585938 506.179688 343.53125 C 506.433594 343.703125 506.445312 344.109375 506.207031 344.261719 Z M 501.46875 327.753906 C 501.671875 328.144531 501.867188 328.542969 502.03125 328.957031 C 501.871094 328.542969 501.671875 328.144531 501.46875 327.753906 Z M 501.46875 327.753906 " fill-opacity="1" fill-rule="nonzero"/></g></g></g><g clip-path="url(#b002ea0c08)"><g clip-path="url(#0c8fddfcee)"><g clip-path="url(#e1feb89e3a)"><path fill="#142950" d="M 551.730469 336.859375 C 551.234375 337.03125 550.730469 337.316406 550.222656 336.863281 C 550.152344 336.800781 550 336.710938 549.902344 336.800781 C 549.785156 336.910156 549.847656 337.078125 549.882812 337.214844 C 549.953125 337.46875 550.050781 337.710938 550.113281 337.960938 C 550.128906 338.015625 550.085938 338.101562 550.039062 338.152344 C 549.988281 338.207031 549.90625 338.148438 549.90625 338.101562 C 549.90625 337.730469 549.5 337.496094 549.589844 337.085938 C 549.648438 336.789062 549.386719 336.761719 549.179688 336.699219 C 549.183594 337.203125 548.652344 337.199219 548.425781 337.484375 C 548.417969 337.492188 548.421875 337.515625 548.414062 337.523438 C 548.277344 337.679688 548.277344 337.90625 548.117188 338.050781 C 548.019531 338.140625 547.996094 338.273438 548.109375 338.359375 C 548.699219 338.789062 549.203125 339.398438 550.046875 339.320312 C 550.101562 339.316406 550.164062 339.296875 550.203125 339.265625 C 550.261719 339.21875 550.238281 339.15625 550.1875 339.121094 C 549.722656 338.835938 550.09375 338.632812 550.277344 338.359375 C 550.332031 338.445312 550.355469 338.480469 550.375 338.515625 C 550.730469 339.160156 551.402344 339.226562 551.851562 338.660156 C 551.925781 338.566406 551.929688 338.480469 551.871094 338.378906 C 551.496094 337.75 551.679688 337.28125 552.359375 337.105469 C 552.433594 337.085938 552.507812 337.066406 552.511719 336.972656 C 552.515625 336.882812 552.449219 336.855469 552.371094 336.839844 C 552.15625 336.792969 551.949219 336.785156 551.730469 336.863281 Z M 551.730469 336.859375 " fill-opacity="1" fill-rule="nonzero"/></g></g></g><g clip-path="url(#ee7506cdde)"><g clip-path="url(#9672322d8e)"><g clip-path="url(#6736b583b0)"><path fill="#142950" d="M 475.03125 193.203125 C 475.132812 193.355469 475.316406 193.582031 475.511719 193.300781 C 475.621094 193.140625 475.6875 192.929688 475.65625 192.71875 C 475.558594 192.152344 475.554688 192.148438 476.109375 192.160156 C 476.3125 192.164062 476.550781 192.039062 476.46875 191.910156 C 476.277344 191.605469 476.496094 191.382812 476.523438 191.128906 C 476.546875 190.925781 476.535156 190.800781 476.292969 190.855469 C 476.175781 190.882812 476.050781 190.914062 476 190.765625 C 475.957031 190.636719 476.042969 190.519531 476.15625 190.488281 C 476.417969 190.410156 476.441406 190.167969 476.335938 190.046875 C 476.15625 189.839844 476.003906 189.566406 475.695312 189.5 C 475.671875 189.496094 475.621094 189.546875 475.609375 189.578125 C 475.503906 189.925781 475.160156 190.015625 474.925781 190.226562 C 474.816406 190.324219 474.714844 190.402344 474.644531 190.550781 C 474.535156 190.789062 474.957031 190.851562 474.800781 191.03125 C 474.683594 191.160156 474.402344 190.921875 474.308594 191.160156 C 473.84375 191.523438 473.746094 191.992188 474.117188 192.191406 C 474.5625 192.429688 474.777344 192.816406 475.03125 193.203125 Z M 474.816406 191.367188 C 474.941406 191.347656 475.066406 191.332031 475.125 191.449219 C 475.167969 191.539062 475.164062 191.675781 475.082031 191.726562 C 474.941406 191.816406 474.902344 191.648438 474.832031 191.574219 C 474.777344 191.511719 474.734375 191.4375 474.816406 191.363281 Z M 474.816406 191.367188 " fill-opacity="1" fill-rule="nonzero"/></g></g></g><g clip-path="url(#141a966eb9)"><g clip-path="url(#5cdc7509c4)"><g clip-path="url(#a21c6ac305)"><path fill="#142950" d="M 482.09375 196.1875 C 482.335938 196.023438 482.09375 195.804688 482 195.667969 C 481.886719 195.492188 481.675781 195.339844 481.476562 195.574219 C 481.296875 195.714844 481.132812 195.886719 481.339844 196.046875 C 481.546875 196.203125 481.839844 196.355469 482.09375 196.1875 Z M 482.09375 196.1875 " fill-opacity="1" fill-rule="nonzero"/></g></g></g><g clip-path="url(#0307a7e4f6)"><g clip-path="url(#9c8d047699)"><g clip-path="url(#7153db96cb)"><path fill="#142950" d="M 475.753906 194.175781 C 476.03125 194.164062 476.183594 194.191406 476.304688 194.144531 C 476.722656 193.984375 476.285156 193.835938 476.289062 193.679688 C 476.035156 193.726562 476.023438 193.988281 475.753906 194.175781 Z M 475.753906 194.175781 " fill-opacity="1" fill-rule="nonzero"/></g></g></g></svg>