<?xml version="1.0" encoding="UTF-8"?>
<svg id="Layer_2" data-name="Layer 2" xmlns="http://www.w3.org/2000/svg" viewBox="0 0 119.69 98.49">
  <defs>
    <style>
      .cls-1 {
        fill: #152a50;
      }
    </style>
  </defs>
  <g id="Address">
    <g>
      <path class="cls-1" d="M44.5,97.05l-20.25-.11c-2.61-.01-5.07-.26-7.7-.47-2.04-.16-5.1.27-6.78-.53-2.13-1.01-1.26-4.22-1.14-5.91l1.46-19.65c.09-1.17-.74-2.3-1.56-3.19l5.71-1.34-.88-8.91-10.59,1.09c-.9.09-2.24.36-2.77-.01l.36-9.17c.17-4.28.42-8.05.35-12.52l6.66.1.46-9.53,3.01.31-.76-5.33-3.97-.16-.31-11.78c-.03-1.09.42-3.52,1.4-3.8l3.59-1.04c1.72.6,4.12,1.08,6.25.98l12.89-.65,18.46-1.54,24.27-1.97,18.72-.24,6.9-.47c.41-.03,1.31-.95,1.64-1.19.39-.28,1.35.92,1.87.98l7.22.84-.54,11.39c-.06,1.17,1.21,3.71-1.15,4.09l-4.18.66.31,6.75,2.39-.2.45,7.89c3.04-.16,5.82-.04,9.01.85l.68,12.96c.08,1.5,1.14,3.99-.39,5.29-2.37,2.02-6.28,2.17-9.23,1.78-.23,1.81-.43,3.53-.76,5.2l-1.01,5.12c6.71,1.72,8.89-1.57,9.71,3.1l.92,5.27c.8,4.54,1.78,8.95,2.29,13.48,1.14,10.29,3.41,5.58,1.4,11.57l-9.48.59-9.91.73c-3.22.24-6.31.05-9.54-.05l-10.2-.3-20-.36c-3.62-.06-7.7.69-11.15-.33-1.8-.53-2.48-.29-4.09-.29ZM34.5,20.87l6.54-.48,8.63-.46,21.56-.89,16.31-.83c4.12-.21,8.76.52,12.48-1.07,1.86-.8,3.76-2.46,6.08-2.42l.72-10.45c-2.49-.25-4.9-.28-7.15-.19l-9.02.35c-2.87.11-5.71.08-8.63.04-8.73-.12-17.06.65-25.76,1.36l-27.18,2.24c-7.21.59-13.81.6-21.2.45l.03,11.26,2.49.35c4.18.59,8.24,1.15,12.41,1.04l11.71-.31ZM101.04,24.49l.33-4.03c-1.45-.48-3.14-.66-4.71-.42l-4.86.71.72,4.44,8.53-.7ZM27.93,26.77c.29-.84.57-1.71.74-1.47,1.66,2.35,3.16,2.06,6.61,1.9l13.41-.62,33.9-1.08c1.42-.05,2.41-2.01,2.03-3.04-.46-1.26-1.33-1.53-2.87-1.46l-28.7,1.43c-2.6.13-5.19-.16-7.61.1-6.54.69-10.69.56-16.27,1.47-.9-.19-2.37-.69-3.27-.19-.73.4-1.81,1.93-1.61,2.6.87.88,3.34,1.23,3.64.36ZM86.7,25.61c1.29-.12,2.47-.43,3.09-.97.66-.57.58-2.39.12-3.03-.6-.82-2.33-1.38-3.13-.92l-.07,4.92ZM21.9,27.22l1.19-3.17-11.06-1.25c-.22,1.29-.09,3.5.83,4.76l9.04-.34ZM100.69,32.34l.04-4.84-4.06-.12c.28,1.71.54,3.69.82,5.11.16.81,3.19.72,3.2-.15ZM102.36,27.32l-.07,5.19,1.63.02.07-5.19-1.63-.02ZM45.97,34.3l32.91-.72,16.13-.47-.06-5.38-5.99.36-36.9,1.14-18.7.66-13.93.09.93,5.72,25.62-1.4ZM13.66,35.99l.21-5.67-4.79-.56-.82,6.59c2.03,0,3.76-.09,5.4-.36ZM18.48,35.48l-.34-5.72-3.05.63.75,5.61,2.64-.52ZM28.21,53.94l2.74-.07,14.39-.45,7.2-.3c7.58-.31,14.81-1.11,22.35-1.08,6.06.03,11.83-.23,17.88-.59,2.84-.17,5.91.1,8.64-.43,1.44-.28,2.79-.94,4.35-.72,2.93.41,5.93.13,8.18-1.24-.56-4.69-.6-8.53-.52-13.3-3.14-.74-6.47-.19-9.77-.08l-27.08.91c-5.26.18-10.26.57-15.43.44l-3.31-.09c-8.3-.21-16.34.15-24.57.68l-9.98.65-20.03,1.19c.05,6.02-1.36,10.33-.89,16.1.02.28.99.33,1.27.3l8.64-.86c1.83-.18,3.55-.02,5.39-.17l10.57-.9ZM102.12,63.81c1.04-3.07,2.18-7.46,1.87-10.1l-6.98.42.73,6.13c.08.69-.12,1.88-.21,3.04l4.6.51ZM29.77,65.64l31.71-1.54c7.24-.35,14.28-.03,21.52-.18l7.4-.15c-.11-3.48.04-6.18.42-9.63l-5.66.47-15.26.17-23.61,1.3-13.11.29-4.23-.02.82,9.3ZM95.18,63.02l-.09-8.79h-1.98c-.31,0-.04.85-.06,1.23-.08,4.04-.62,4.66.89,8.27.07.16,1.24-.52,1.23-.7ZM23.27,65.9c-.68-5.33.63-5.9,0-9.01-2.96.51-4.79.64-7.69.81l.08,8.33c2.73.25,5.39.17,7.61-.13ZM27.22,62.52l-.06-4.59c0-.34-.11-1.18-.38-1.17l-1.22.03c-.53.01-.6,7.44.38,9.21,1.7-.61,1.3-1.98,1.28-3.48ZM50.78,95.3l13.27-.09,23.47.07,11.45.06c3.44.02,6.74-.35,10.2-.68l7.32-.69-1-7.54c-.35-2.6-.99-5.23-1.48-7.84l-2.33-12.34c-.91.09-2.39.21-3.46.1-4.4-.45-8.54-.43-13.02-.26l-7.7.29-4.74.11-16.32-.09c-1.99-.01-3.76.08-5.79.15l-36.57,1.35-11.56.36-1.12,14.18c-.32,4.05-.38,7.9-.53,11.95l3.32.05,27.31.23,9.29.63Z"/>
      <path class="cls-1" d="M73.76,91.11l-16.53.11-13.37.34-4.98.1c-2.64.05-5.09-.13-7.54.57-.37-1.72-1.37-4.48-3.16-4.31l-2.45.24c-.09-3.69-.2-6.84-.79-10.44-.22-1.36-.18-3.02.69-4.01,3.01.83,6.06.02,7.85-2.2,1.76.32,3.42.26,5.1.09l7.25-.74c1.91-.2,3.75-.27,5.58-.29l4.48-.04c4.71-.04,40.38-2,40.15.79-.07.8-.57,2.72-.11,3.34,1.86,2.56,5.99,1.56,6.94,2.77,1.02,1.3-1.26,3.06-.12,8,.42,1.84-.13,3.78-1.81,4.78l-1.53-1.56c-1.9-.71-4.07.6-5.27,2.33s-4.91.33-9.06.28l-11.31-.15ZM45.69,88.98l10.71-.52,10.99-.36c8.3-.28,16.23-.05,24.59.62l4.6-3.49,3.28-.75.16-4.76c-2.73-.19-4.82-1.07-6.23-3.23l-.54-3.55-12.93-.1-17.74.41-14.64-.06-14.14.42c-1.87,1.91-4.13,3.68-6.88,3.35,1.59,4.74-.43,7.83,2.34,8.48,2.43.57,3.48,2.6,3.88,4.46l3.75.19c3.67-.77,5.89-1.34,8.6.08.2.11.12-.48.2-1.19Z"/>
      <path class="cls-1" d="M19.12,93.08c0,1.01-2.76.49-2.75-.23l.18-9.53.97-11.89c.04-.45,1.93-.72,1.92-.28l-.34,9.76.02,12.17Z"/>
      <path class="cls-1" d="M111.85,89.42c.11.72-.07,1.68-.45,2-.48.41-1.91-.31-2-.9l-2.07-13.41-.63-5.25c-.04-.34-.04-1.28-.04-1.66,0-.42,1.29-.33,1.74-.34s.56.84.67,1.54l2.79,18.02Z"/>
      <path class="cls-1" d="M37.69,49.9c-1.75.21-3.58.37-5.31.34l-12.11-.22c-.83-2.13-.97-4.9.1-7l8.64-.78,9.15-.42,19.66-1.08,31.42-1.19,5.29-.56.82,6.5c.04.29-.17,1.49-.44,1.52l-1.48.19c-5.84.76-11.67,1.37-17.58.88-2.66-.22-5.21-.2-8.03-.07l-20.96.98c-.4.02-1.36-1.01-1.67-.8s-1.11.96-1.56,1.01l-5.95.7ZM36.62,48.08c4.04-.42,7.98-.91,12.12-1.1l19.85-.91,10.31.16,9.67-.35c1.3-.05,2.98-.62,4.46-.95l.02-3.67-12.76.59-21.16.67c-1.63.05-3.42.13-5.16.24l-8.67.53-8.09.49c-5.42.33-10.34.57-15.72,1.2l.32,3.81c5.24-.13,9.82-.17,14.81-.69Z"/>
      <path class="cls-1" d="M11.96,48.67l1.3,1.91c.26.38-.52,1.77-1.14,1.68-3.44-.5-2.89-9.32-.17-11.25,1.14,1.56-1.74,5.1,0,7.66Z"/>
      <path class="cls-1" d="M105.28,47.34c2.46-6.37-.43-7.64,1.26-9.47,2.28,3.09,2.39,8.08-.57,10.79-.17.16-.81-1.02-.69-1.33Z"/>
      <path class="cls-1" d="M8.65,49.1c.44.66.08,2.74-.57,2.48-2.25-.89-2.48-3.86-1.81-5.71l1.66-4.55c1.43,3.08-1.61,4.35.71,7.78Z"/>
      <path class="cls-1" d="M101.24,48.68c-.09-3.23.25-7.17-.55-9.78-.1-.33.11-1.15.2-1.36.7-1.65,4.17,7.7.35,11.14Z"/>
      <path class="cls-1" d="M43.01,16.91c-1.74-.4-4.43,1.58-6.24.62-1.99-1.18-1.75-6.14-6.18-5.15-3.61.81-1.62,6.34-2.75,5.29-1.89-1.75-1.04-4.08.2-5.57s3.42-2.37,5.07-1.33c.72.45,1.16.71,2.1,1.17l1.89,3.7c1.34-.07,3.82-.47,5.02-1.04l1.89-3.87c.24-.49,1.53-.9,2.04-.88.61.03,1.6,1.41,1.41,2.06-.35,1.19-.99,2.3-1.66,3.54.92.27,3.41.07,4.07-.65.42-2.12-.31-4.32,2.45-5.08.46-.13,1.55.73,1.7,1.22.41,1.37-.19,2.94-1.07,4.65,2.45.23,5.53-.23,7.53-1.76l1.43-3.59c.69,1.44,1.11,2.78,2.08,3.17,4.36-1.7,8.9-1.81,13.23-.68l1.31-.51c.34-.13.22,1.52-.13,1.69-1.24.62-4.26,1.06-5.67-.57l-5.72,1.24c-1.78.38-3.39.5-5.26.38-5.56,4.34-8.47,1.62-11.02,2.09-2.79.52-4.65.56-7.71-.14ZM51.88,11.62l-.79,1.85,1.13.49.79-1.85-1.13-.49Z"/>
      <path class="cls-1" d="M103.56,5.35c-.92,3.74,1.47,7.26-.94,9.67-2.17.4-4.52-.14-6.87-.75-.26-3.51.19-6.23,1.35-9.52,2.31.05,4.45.22,6.46.59ZM101.83,12.16l-.16-5.47c-1.24.18-2.64.43-3.74.71l-.15,4.98,4.05-.21Z"/>
      <path class="cls-1" d="M18.13,19.28c-1.98.59-4.05.63-5.63-.14-1.29-.62-1.77-7.48-1.41-9.2l7.05.47.52,5.71c.07.78.26,2.92-.53,3.16ZM16.39,16.46c.33-1.22.36-3,.25-3.86l-3.7-.32.55,4.32c.4.48,2.7.57,2.89-.14Z"/>
      <path class="cls-1" d="M93.46,13.7c.03.38-.7,1.4-.96,1.66-.33.32-1.53-.71-1.55-1.21l-.23-6.48c-.01-.36.66-1.23.87-1.51s1.4.62,1.42.98l.44,6.57Z"/>
      <path class="cls-1" d="M21.52,18.02l-.64-6.4c-.03-.26.31-1.13.39-1.36.1-.31,1.11.45,1.16.79l.98,5.99c.04.26-.48,1.25-.6,1.49-.17.32-1.24-.05-1.29-.51Z"/>
      <path class="cls-1" d="M62.15,60.97c-8.3.02-16.67,1.61-25.81.87-.33-.34.37-1.51.85-1.53l7.7-.33,11.11-.78c4.06-.29,7.81-.32,11.94-.44l11.36-.33c.48-.01.89,1.38.61,1.67-.35.36-1.35.84-1.93.84l-15.84.03Z"/>
      <path class="cls-1" d="M82.25,84.35l-12.46-1.91c-9.34-1.43-8.37-.09-18.08.96l-4.23.46c-1.33.14-2.8-.12-4.03-.48-1.07.02-2.67-.34-3.45-.99-.69-.57-.93-2.8-.1-3.31,4.08-2.53,8.65-2.17,13.03-1.56,2.3.32,4.54.74,6.83,1.59,1.6.59,2.73-.59,3.85-.62,2.25-.06,4.59.23,6.86-.16,4.86-.84,9.66-1.04,14.53-.74,2.15.13,3.86,2.55,3.18,4.31-1,2.58-3.57,2.84-5.92,2.48ZM55.89,80.42c-1.69-1.5-2.82-1.35-4.42-1.15-3.44.44-6.9-.34-10.04,1.56,4.38,2.47,10.58.44,14.45-.41ZM86.35,81.66c-1.27-2.95-3.55-.02-4.91-2.91-.08-.17-.57.16-.64.34l-.28.76-3.91.78c3.11,1.03,6.28,1.58,9.74,1.02Z"/>
    </g>
  </g>
</svg>