<?xml version="1.0" encoding="UTF-8"?>
<svg id="Layer_2" data-name="Layer 2" xmlns="http://www.w3.org/2000/svg" viewBox="0 0 51 76.45">
  <defs>
    <style>
      .cls-1 {
        fill: #f5f5dd;
      }

      .cls-2 {
        fill: #b74426;
      }

      .cls-3 {
        fill: #152a50;
      }
    </style>
  </defs>
  <g id="Address">
    <g>
      <path class="cls-3" d="M31.14,44.38l-1.29-9.73c-.02-.12.4-.3.47-.35.08-.06.11-.1.02-.12-1.25-.36-.81-2.26-.99-3.83l-5.16-.06c-.29.91-.57,2.12-1.49,2.58-.58.28-1.84.35-2.4.13-.49-.19-.91-.43-1.36-.27-2.51.88-3.69-.22-4.2.5-.78,1.1.11,2.47-.83,3.44.33.66.54,5.14,0,5.91.1.11.53.8.54,1.12l.1,3.23c.02.6.22,1.12-.02,1.42-1.14,1.49-4.54,1.11-6.34,1.14.56-.51.42-.46-.38-.56-.03-.39.08-1.22.33-1.54.83-1.02,2.34-.03,4.07-.34.49-2.82-.76-7.32.6-9.31-.6-.75-.82-1.96-.22-2.8-.12-.14-.37-.36-.33-.49l.2-.69c-.08-.61.08-1.25.54-1.66,1.32-1.18,2.8-1.23,4.2-.68l3.08-.04c.32,0,.93.21,1.21.12.36-.11.68-.66.84-1.25-2.41-.44-4.54-.13-6.37-.29l-6.48-.56c-1.63-.14-3.14-.4-4.78-.7-.16-.03-2.73-1.01-2.44-1.31l.41-.42c-1.41.06-1.59-1.27-2.04-2.19-.5-1.03-.72-1.8-.64-3l.14-2.23.2-1.76c.16-1.45.74-2.35,1.18-3.72.2-.61.57-1.55,1.13-1.59,1.96-.14.49-1.52,6.98-2.1,1.63-.14,3.21-.39,4.81-.33l3.28.13,11.75,1.04,4.23.53c3.02.38,5.89.94,8.83,1.84.74.23,1.18,1.09,1.65,1.39,1.19.76,1.63,1.97,1.83,3.39.11.77.37,1.67.35,2.52s-.38,4.58-.53,5.29l-.42,2.02c-.47,2.29-1.19,5.56-2.88,7.08-.59.53-2.31.28-2.56-.47-.45-1.37-.89-2.67-1.61-3.74-.86-.08-1.93-.49-2.58-.51l-6.17-.19c1.53.6,1.37,1.55,1.59,2.67l.36,1.9c.27,1.42.6,2.8.79,4.24l.46,3.36.78,5.55.26,1.85c.01.1-.18.47-.14.56l.19.5.46,2.03c.65,2.85.52,5.76,1.07,8.64l.51,2.68c-.19-1,1.2,10.77.82,10.14l2.94.27c.96.09,2.02.31,2.02,1.71l-6.58-.37-.15-1.43.69-.36c-.42-.18-.79-.34-.86-.48l.55-.04c.1,0,.13-.2.02-.27-.96-.55-1.26-4.43-1.41-5.8l-.8-7.51-.28-3.73c-.04-.58-.18-1.55-.32-2.07-.39-1.41-.38-3.19-.59-4.54l-.87-5.48ZM27.36,27.65l-.23.6c.04-.11,1.18-.87,2.39-.76l4.36.38c.45.04,1.26.21,1.69.31,1.86-.67,6.25.39,6,3.58l.65-.83c-.02-.72.35-1.44.67-2.11l.48-2.93c.41-2.5.71-5,.42-7.54-.13-1.12-1-1.95-1.97-2.28-2.34-.81-3.36-1.14-5.79-1.43-2.61-.31-5.1-.61-7.66-1.05-.51-.09-.97-.2-1.47-.2l-1.67.02-3.41-.39-7.93-.32c-1.51-.06-2.99.13-4.52.25-1,.08-2.03.05-2.9.46s-2.02.52-2.7,1.17-1.33,2.12-1.41,3l-.2,2.36c-.08.92.05,2.55.2,3.38.06.34.7,1,.71,1.35.02.78.49,1.41,1.23,1.52.48.07,1.15.35,1.6.45.51.11,2.98-.13,3.11.59.52-.51,4.09-.18,5.03.21.35-.12.95-.25,1.34-.21l1.93.18,1.63-.06,2.46.19c.52.04,1.23-.06,1.9-.12.54-.05,1.4.22,1.87.23h2.18Z"/>
      <path class="cls-1" d="M27.36,27.65h-2.18c-.46-.02-1.33-.29-1.87-.24-.67.06-1.38.16-1.9.12l-2.46-.19-1.63.06-1.93-.18c-.39-.04-.99.09-1.34.21-.95-.39-4.52-.72-5.03-.21-.13-.71-2.6-.47-3.11-.59-.46-.1-1.12-.38-1.6-.45-.74-.11-1.22-.74-1.23-1.52,0-.35-.65-1.01-.71-1.35-.15-.83-.28-2.46-.2-3.38l.2-2.36c.08-.88.73-2.35,1.41-3s1.86-.77,2.7-1.17,1.89-.37,2.9-.46c1.53-.13,3.01-.31,4.52-.25l7.93.32,3.41.39,1.67-.02c.49,0,.96.11,1.47.2,2.56.44,5.06.73,7.66,1.05,2.44.29,3.45.63,5.79,1.43.97.34,1.84,1.16,1.97,2.28.29,2.54,0,5.05-.42,7.54l-.48,2.93c-.32.67-.69,1.39-.67,2.11l-.65.83c.24-3.19-4.15-4.25-6-3.58-.43-.1-1.24-.27-1.69-.31l-4.36-.38c-1.21-.11-2.35.65-2.39.76l.23-.6ZM25.67,19.09l1.07,1.23c.16.18.71.41.86.25s.16-.62.12-.9l-.31-1.91c-.58-1.01-1.72-1.14-2.76-.67-.71.32-1.07,1.02-1.34,1.97l-.27.98c-.05.17.61.5.76.39l1.87-1.35ZM20.79,20.51l.05-2.03c.02-.7-.88-1.37-1.44-1.43-.67-.07-1.78.29-1.95.91-.18.66-.37,1.42-.43,1.93-.03.22.42.93.6.8s.52-.48.63-.67l.42-.75c.26-.46,1.06.94,2.12,1.23Z"/>
      <path class="cls-3" d="M25.67,19.09l-1.87,1.35c-.15.11-.8-.23-.76-.39l.27-.98c.26-.95.62-1.65,1.34-1.97,1.04-.47,2.18-.34,2.76.67l.31,1.91c.05.28.03.74-.12.9s-.7-.07-.86-.25l-1.07-1.23Z"/>
      <path class="cls-3" d="M20.79,20.51c-1.06-.29-1.86-1.7-2.12-1.23l-.42.75c-.11.19-.44.54-.63.67s-.63-.58-.6-.8c.06-.5.25-1.27.43-1.93.17-.62,1.28-.98,1.95-.91.56.05,1.45.73,1.44,1.43l-.05,2.03Z"/>
      <path class="cls-2" d="M42.69,14.37c-.52-.18-.99-.45-1.31-.76-1.6-.14-3.35-.46-4.7-1.26-.16.11-.56.24-.6.12l-.18-.6c-1.32.18-2.55-.05-3.82-.58l-1.85-.78c-.72-.3-2.4-.64-2.48-1.7-.07-.95,1.62-1.06,2.22-.64l1.34.96c.45-.04.94-.06,1.56,0,.4-.38.9-1.41,1.33-2.02.64-.93.99-1.71,1.38-2.77l.69-1.88c.13-.35.58-.86.81-1.2.3-.45.72-1.2,1.18-1.24.68-.06,1.38.58,1.54,1.11l.5,1.71c.1.33.72.85.97.91.45-1.18,2.75-2.84,3.34-2.86.45-.01,1.35.48,1.32.92l-.1,1.91c-.03.54-.1,1.29-.19,1.73l-.3,1.47c-.22,1.06-.39,2.08.13,3.19l-1.04,2.15,4.77,1.5c.66.21,1.45.77,1.79,1.29l-1.38,1.79-6.93-2.46ZM43.5,7.28c.19-1.13,1.09-3.09.74-4.4-.93.14-1.12.87-1.67,1.32l-1.36,1.11-1.44.35c-.75-1.26-1.14-2.36-1.57-3.85-.71,1.59-1.37,3.19-2.2,4.71l-.93,1.72-.75,1.39,3.69.95,4.75,1.04.73-4.33Z"/>
      <path class="cls-1" d="M43.5,7.28l-.73,4.33-4.75-1.04-3.69-.95.75-1.39.93-1.72c.83-1.52,1.49-3.13,2.2-4.71.42,1.49.82,2.59,1.57,3.85l1.44-.35,1.36-1.11c.55-.44.73-1.18,1.67-1.32.36,1.31-.55,3.27-.74,4.4Z"/>
    </g>
  </g>
</svg>