<?xml version="1.0" encoding="UTF-8"?>
<svg id="Layer_2" data-name="Layer 2" xmlns="http://www.w3.org/2000/svg" viewBox="0 0 58.19 41.73">
  <defs>
    <style>
      .cls-1 {
        fill: #f5f5dd;
      }

      .cls-2 {
        fill: #b74426;
      }

      .cls-3 {
        fill: #152a50;
      }
    </style>
  </defs>
  <g id="Address">
    <g>
      <path class="cls-3" d="M34.82,27.8c-.28,1.24-.43,2.57-.48,3.86l-.13,3.78c-.07,1.9-.43,3.62-.76,5.65l-5.34.64c-.17-.53-.41-.68-.95-.86-.35-.11-.23-1.01.07-1.41.22-.29.81-.24,1.38-.25l2.59-.07.75-5.69c.16-1.22-.15-2.61.24-3.82.07-.22.12-.61.02-.76-.12-.18-.56-.09-.86,0-1.68.54-3.4-.57-3.87-2.17l-1.08.78-1.77,1.14c-2.66,1.71-9.8.21-10.16-4.12-.09-1.12-.42-2.17-.11-3.19.48-1.54,1.03-2.78,1.92-4.12,1.18-1.78,1.9-1.28,3.56-2.38.4-.27-.33-.81-.56-2.72-.29-2.35.31-3.24,2.04-4.55,2.52-1.92,4.01-1.94,7.44-1.55,1.95-2.26,1.73-3.5,4.93-5.39l1.42-.34c1.17-.28,2.16-.38,3.34-.04,1.76.5,3.73,1.97,3.98,3.78.06.42-.22,1.58.16,1.7,1.02.34,2.16.11,3.24.1,2.51-.02,4.97,1.39,5.41,3.93.18,1.02.22,2.41-.03,3.33-.16.56-1.05,1.31-.9,1.87.81.76,2.02,1.58,2.15,2.69l.27,2.3c-.72,1.2-1.34,2.28-1.89,3.61s-2.88,2.24-2.87,2.24c-2.81,1.83-5.4,1.32-8.63.22l4.04,6.69c.32.53.51,1.3.83,1.8l1.85,2.86c.27.42,1.14-.51,1.54-.62l1.99-.55c.48-.13.94.54.91.92-.06.72-.31,1.07-1.1,1.26-.41.1-.92.75-1.26.95-1.77,1.04-3.55.07-3.33-.09l-.39.29c-.45-.6-1.07-1.31-1.46-2.05l-3.32-6.27-.81-1.36-1.42-2.45c-.06-.11-.18-.56-.28-.5l-.67.41c-.3.19-.92.32-1.61.52ZM34.81,25.42l1.6-1.28,1.13-2c0-.08-.36-.42-.25-.49s.57-.34.71-.39c.86-.29,1.45.76,1.72,1.49.37.97,1.63,1.24,2.52,1.51,1.26.38,2.33.24,3.47-.3,2.39-1.13.55-.66,2.8-1.47l1.23-1.43.58-1.36c-.35-.79-.77-1.86-1.33-2.36l-1.98-1.79,1.62-2.17c.93-1.25.7-2.95-.42-4.07-2.66-2.64-6.18.13-7.88-1.7l.37-2.69c.05-.4-.87-.95-1.22-1.15l-.23-.56c-.05-.13-.65-.04-.79-.1-2.55-1.15-6.11.16-7.05,2.33-.46,1.06-1.29,2.2-2.45,2.38-2.93.44-1.5-.94-6.58,1.33-1.17.52-1.65,1.57-1.14,2.81.43,1.07,1.12,1.99,1.87,2.87l1.02,1.18-.66.02c-.08,0-.02.36-.06.42-.16.22-.74.58-.99.46l-.96-.46-1.66.25c-2.41,1.61-3.05,2.12-3.94,5-.19.61.23,1.63.44,2.46,2.13,2.33,1.88,1.88,4.95,2.69,1,.26,1.88.1,2.8-.28,3.55-1.49,2.58-4.33,4.04-3.56.23.12.6.68.6.96-.02,1.34.95,2.65,2.36,2.54,1.74-.14,1.88.44,3.79-1.09Z"/>
      <path class="cls-3" d="M8.58,16.15c-1.54.06-2.24-1.05-3.09-1.94-2.58-.04-.36.72-4.18-.13C.57,13.92-.02,12.77,0,12.14c.07-1.95,1.56-2.1,2.62-3.8.02-1.06,1.15-2.95,1.83-3.5l.65-.52c.19-.15.81.17,1.06.18.48.02,1.02.07,1.51.32,2.14,1.11,1.69,2.03,2.57,3.71,1.52.28,2.79,1.4,2.91,2.94-.38.84-.83,1.79-1.36,2.68s-2.23,1.96-3.21,2ZM6.4,11.43c.18-.17.95-.18,1.01.07l.23.88.27,1.04c.06.23.72.25,1.02.29.9.14,1.45-.27,1.63-1.03.17-.7-.31-1.48-1.09-1.68-3.25-.85,0-4.6-4.6-4.62l-.44,1.39,1.23,1.4c-.84,1.97-3.42.72-3.72,2.19-.1.5.5,1.09.96,1.11l2.16.07c.39.01.9-.69,1.33-1.12Z"/>
      <path class="cls-1" d="M34.81,25.42c-1.91,1.53-2.05.95-3.79,1.09-1.41.11-2.38-1.2-2.36-2.54,0-.28-.37-.84-.6-.96-1.47-.77-.5,2.07-4.04,3.56-.91.38-1.79.55-2.8.28-3.07-.81-2.82-.35-4.95-2.69-.21-.83-.63-1.85-.44-2.46.9-2.88,1.54-3.38,3.94-5l1.66-.25.96.46c.25.12.83-.23.99-.46.04-.06-.02-.42.06-.42l.66-.02-1.02-1.18c-.76-.87-1.44-1.8-1.87-2.87-.5-1.24-.02-2.29,1.14-2.81,5.08-2.28,3.65-.89,6.58-1.33,1.17-.18,1.99-1.32,2.45-2.38.94-2.17,4.5-3.48,7.05-2.33.13.06.73-.03.79.1l.23.56c.35.19,1.27.74,1.22,1.15l-.37,2.69c1.7,1.83,5.21-.95,7.88,1.7,1.13,1.12,1.35,2.82.42,4.07l-1.62,2.17,1.98,1.79c.56.5.98,1.57,1.33,2.36l-.58,1.36-1.23,1.43c-2.24.81-.41.34-2.8,1.47-1.14.54-2.21.67-3.47.3-.89-.26-2.15-.54-2.52-1.51-.27-.72-.86-1.77-1.72-1.49-.14.05-.59.31-.71.39s.24.41.25.49l-1.13,2-1.6,1.28ZM31.57,20.32c.89-.88,1.77-2.4.84-3.71-.2-.27-.74-.61-1.02-.62-.24,0-.62.58-.62.82l-.06,2.69.86.82ZM35.41,16.03c-1.38.27-1.32,3.4-1.07,3.47.33.1.94.16,1.2.13.47-.05.46-3.05-.13-3.6Z"/>
      <path class="cls-1" d="M6.4,11.43c-.43.42-.94,1.13-1.33,1.12l-2.16-.07c-.46-.01-1.06-.6-.96-1.11.29-1.47,2.88-.22,3.72-2.19l-1.23-1.4.44-1.39c4.59.02,1.35,3.77,4.6,4.62.78.2,1.26.98,1.09,1.68-.19.76-.73,1.17-1.63,1.03-.3-.05-.96-.06-1.02-.29l-.27-1.04-.23-.88c-.06-.24-.84-.24-1.01-.07Z"/>
      <path class="cls-3" d="M31.57,20.32l-.86-.82.06-2.69c0-.24.39-.82.62-.82.28,0,.83.35,1.02.62.93,1.31.05,2.83-.84,3.71Z"/>
      <path class="cls-3" d="M35.41,16.03c.6.55.61,3.55.13,3.6-.26.03-.87-.03-1.2-.13-.25-.07-.32-3.2,1.07-3.47Z"/>
      <path class="cls-2" d="M22.68,10.08c-1.06-.12-2.14-.97-1.96-2.13.92.31,1.6.48,2.38.51l3.71.15c1.07.04,2.06.02,3.13-.05,3.01-.2,3.42.14,6.62-.32l2.93-.42c.09-.01.38.16.47.19.12.04.38-.2.55-.24l4.45-.92c1.07-.22,2.39-.97,3.44-.45.34,1.06-.65,2.22-1.59,2.43-6.24,1.34-12.7,2.32-19.04,1.65l.36-.75c-.5.35-1.1.83-1.51.79l-3.94-.45Z"/>
      <path class="cls-2" d="M38.97,5.93c-3.09.39-5.99.52-8.97.52-1.09,0-2.11.04-2.79-1.32,3.1-.71,3.35-.28,6.52-.7l3.33-.44c3.21-.42,3.63-.82,6.87-.34l.15.97-.49,1.17-2.01.04c-.82.02-1.73-.01-2.62.1Z"/>
      <path class="cls-2" d="M56.96,14.14c-1.29-.3-1.98-1.2-2.8-1.99l-2.51-2.41c-.2-.19-.72-.4-.91-.54-.43-.33-.24-1.72-.03-1.96.62-.74.52.81,3.85-2.15.39-.35,1.28-.61,1.52-.18.2.35.11,1.44-.23,1.68l-2.43,1.72c1.18,1.01,2.27,1.95,3.48,2.78.71.49,1.33.52,1.29,1.61-.01.31-.04.72-.09.98s-.83.53-1.14.46Z"/>
    </g>
  </g>
</svg>