<?xml version="1.0" encoding="UTF-8"?>
<svg id="Layer_2" data-name="Layer 2" xmlns="http://www.w3.org/2000/svg" viewBox="0 0 61.84 24.27">
  <defs>
    <style>
      .cls-1 {
        fill: #f5f5dd;
      }

      .cls-2 {
        fill: #152a50;
      }
    </style>
  </defs>
  <g id="Address">
    <g>
      <path class="cls-2" d="M20.86,24.06l-2.52-.03c-.59-.71-.96-.12-1.57-.15-3.34-.16-6.93-.71-9.89-2.12-1.82-.87-4.66-2.16-5.57-3.56-.53-.83-1.02-2.23-1.11-3.12l-.2-1.81c.14-.37.56-1.22.87-1.54,2.69-2.72,3.25-3.5,6.81-4.55,1.26-.37,4.17-1.08,5.38-1.16,3.87-.23,7.53-.58,11.35-1.17,1.34-.21,2.62-.31,3.96-.44.73-.07,1.21-.06,1.6.51.07-.17.11-.54.23-.52.16.02.64.09.8.09l1.97.02c.25-1.26,2.17-5.63,3.95-4.25.97.75.91,2.18,1.11,3.26l.33,1.72c4.13.12,8.19.25,12.23.7.96.11,1.93.47,2.8.75l3.43,1.1c2.53.81,5.91,3.69,4.78,6.28-1,2.31-3.14,4.61-5.35,5.78-1.54.82-6.16,2.53-7.64,2.77l-2.91.47c-1,.16-1.98.28-3.01.37l-3.06.26-3.73.15-2.39.18-6.3.2-6.36-.21ZM22.32,21.39l5.2-.26c.6.76,1.33.57,2.14.24l1.89.68.41-.95,5.29-.19,5.41-.33c2.08-.13,4.91-.61,7.05-1.12,1.23-.29,2.33-1.13,3.77-1.23.68-.04,1.51-.73,2.05-1.13l1.38-.3c.65-2.16,3.11-2.19,2.44-3.73s-2.12-2.23-3.62-2.87c-4.04-1.72-8.32-2.16-12.74-2.14h-3.7c-.85.02-1.66-.14-2.62-.39l-.99-4.62c-2.06.88.23,2.72-3.55,3.08l-6.9.66c-.78.07-1.64.04-2.37.14l-5.25.74-2.78.44c-.49.08-1.37.08-1.85.22l-2.33.69c-3.38,1-3.55.63-6.59,2.89-.57.42-.97,1.44-1.83,1.69-.66,1.49-.15,1.93.74,3.26l1.38,1.05c.97.3,1.83.98,2.54,1.54,2.79.35,1.4.6,4.32,1.1,2.03.35,6.95,1.03,8.75.94l2.34-.12Z"/>
      <path class="cls-1" d="M22.32,21.39l-2.34.12c-1.8.09-6.72-.59-8.75-.94-2.92-.51-1.53-.76-4.32-1.1-.71-.56-1.57-1.24-2.54-1.54l-1.38-1.05c-.89-1.33-1.4-1.77-.74-3.26.86-.25,1.26-1.27,1.83-1.69,3.04-2.26,3.21-1.9,6.59-2.89l2.33-.69c.47-.14,1.35-.14,1.85-.22l2.78-.44,5.25-.74c.73-.1,1.59-.06,2.37-.14l6.9-.66c3.78-.36,1.49-2.2,3.55-3.08l.99,4.62c.96.25,1.77.4,2.62.4h3.7c4.41-.03,8.7.41,12.74,2.13,1.5.64,2.96,1.34,3.62,2.87s-1.79,1.57-2.44,3.73l-1.38.3c-.55.4-1.38,1.09-2.05,1.13-1.45.09-2.55.93-3.77,1.23-2.14.51-4.97.99-7.05,1.12l-5.41.33-5.29.19-.41.95-1.89-.68c-.82.33-1.55.52-2.14-.24l-5.2.26ZM46.58,12.38l.05-1.55c.01-.38-.15-1.38-.52-1.43-.94-.19-1.45,2.23-1.34,3.34.04.44.71.94,1.13.84.35-.08.66-.73.68-1.2ZM48.59,13.41c.66-.64,1.04-2.31.69-3.36-1.31.27-1.91,1.33-1.77,2.6l.1.83c.02.18.85.05.98-.08Z"/>
      <path class="cls-2" d="M46.58,12.38c-.02.48-.33,1.12-.68,1.2-.42.1-1.08-.39-1.13-.84-.11-1.11.39-3.53,1.34-3.34.37.04.54,1.05.52,1.43l-.05,1.55Z"/>
      <path class="cls-2" d="M48.59,13.41c-.13.13-.96.25-.98.08l-.1-.83c-.15-1.28.46-2.33,1.77-2.6.35,1.05-.03,2.72-.69,3.36Z"/>
    </g>
  </g>
</svg>