<?xml version="1.0" encoding="UTF-8"?>
<svg id="Layer_2" data-name="Layer 2" xmlns="http://www.w3.org/2000/svg" viewBox="0 0 36.32 31.64">
  <defs>
    <style>
      .cls-1 {
        fill: #f5f5dd;
      }

      .cls-2 {
        fill: #b74426;
      }

      .cls-3 {
        fill: #152a50;
      }
    </style>
  </defs>
  <g id="Address">
    <g>
      <path class="cls-3" d="M33.13,24.63c-.08-.1.25.32.35.44.42.54-5.51,4.8-9.15,5.54l-2.46.5c-.94.19-1.92.52-2.97.52-1.66,0-3.2-.14-4.83-.29-3.08-.28-5.99-.94-8.46-2.81l-2.39-1.8c-.82-.62-1.17-1.6-1.67-2.49-.86-1.52-1.38-2.99-1.5-4.78-.28-4.11.85-4.88.92-5.29.14-.77.32-1.48.82-2.16l2.23-3.03c-1.03-3.78-.45-5.44,1.4-8.84.33-.24,1.33-.18,1.62.07.35.32.57.99.66,1.59.29,1.94,2.31,2.78,4.11,2.24.75-.23,1.64-.26,2.35-.12.35-.22,1-.52,1.55-.55,1.78-.08,3.37-.22,5.1-.46,1.26-.18,2.29-.07,3.46.26,3.4.99,3.25,1.11,6.15,2.71,1.05.58,1.29,1.2,1.86,2.11.46.74,1.65,1.3,2.09,2.22l.91,1.92c.45.95.8,1.55.88,2.57l.12,1.68c.07,1.01.12,1.96-.03,3.01-.19,1.35-.94,4.87-3.09,5.23ZM31.52,24.51c1.25-2.57,1.37-.92,2.18-4.43.54.19.89.24.23-.26l.16-1.97c.26-3.13.12-2.35-.71-4.67-.26-.74-.91-1.48-1.26-2.19-.53-1.07-1.13-1.98-2.16-2.73-1.26-.92-2.66-1.78-4.16-2.43-.05-.02-3.98-.85-4.7-.75l-4.89.66c-.19.03-.98-.55-.98-.41-.47,1.38-3.48,1.31-4.58,1.28-2.23-.06-2.88-.63-4.29-2.81-.12.49-.44,1.59-.35,2.11l.6,3.54c.06.47-1.14.99-1.44,1.41-1.71,2.39-1.96,3.05-3.04,5.53.3.67.14,1.67-.02,2.59-.36,2.12,1.57,4.82,2.91,6.4l.34,1.08,1.76.57c.54.17,1.07.35,1.61.59l1.93.85,1.91.28c1.64.24,2.88.6,4.49.35.89-.14,2.11.28,3,.21l.96-.07c2.84-1.15,3.71-.47,6.8-2.34,1.63-.12,1.34-1.07,3.7-2.37Z"/>
      <path class="cls-1" d="M31.52,24.51c-2.37,1.29-2.07,2.25-3.7,2.37-3.09,1.87-3.96,1.19-6.8,2.34l-.96.07c-.89.07-2.11-.35-3-.21-1.61.26-2.85-.11-4.49-.35l-1.91-.28-1.93-.85c-.54-.24-1.07-.42-1.61-.59l-1.76-.57-.34-1.08c-1.34-1.58-3.27-4.28-2.91-6.4.16-.92.32-1.92.02-2.59,1.08-2.47,1.33-3.14,3.04-5.53.3-.42,1.5-.94,1.44-1.41l-.6-3.54c-.09-.52.23-1.61.35-2.11,1.41,2.18,2.06,2.75,4.29,2.81,1.1.03,4.11.1,4.58-1.28,0-.14.79.43.98.41l4.89-.66c.73-.1,4.65.73,4.7.75,1.5.65,2.89,1.51,4.16,2.43,1.03.75,1.63,1.66,2.16,2.73.35.71,1,1.46,1.26,2.19.82,2.32.96,1.54.71,4.67l-.16,1.97c.66.5.31.45-.23.26-.81,3.51-.92,1.86-2.18,4.43ZM18.26,24.5c-.04-.73-.55-2.05-1.2-1.51-.78.65-.59,2.54.1,3.13.77.34,1.14-.75,1.1-1.62ZM22.5,24.7c.03-.43-.19-1.14-.45-1.54-.2-.3-.94-.45-1.34-.28-.48.91.04,2.45.65,3.12.17.19,1.05.12,1.07-.12l.08-1.18Z"/>
      <path class="cls-3" d="M22.5,24.7l-.08,1.18c-.02.24-.89.31-1.07.12-.6-.66-1.13-2.21-.65-3.12.41-.17,1.14-.02,1.34.28.27.4.48,1.1.45,1.54Z"/>
      <path class="cls-3" d="M18.26,24.5c.04.87-.33,1.96-1.1,1.62-.69-.59-.88-2.48-.1-3.13.65-.54,1.16.78,1.2,1.51Z"/>
      <path class="cls-2" d="M21.49,28.26c-.82-.24-1.57-1.08-2.11-1.48-.54.73-2.63,2.31-3.53,2.17-1.06-.17-2.33-1-2.76-1.89-.38-.78-.24-1.47-1.51-1.55l.63-.35c.26-.14-.68-1.83,2.83-4.83,1.38-1.18,3.63-.12,4.42,1.53.26-.83,1.77-2.66,2.76-2.75,1.23-.12,3.58,1.5,3.7,2.95.28.23.46.48.79,1.14l1.02-.58c1.45.18,4.07,1.6,4.35,3.02.08.41-.74,1.4-1.7,1.24-.18-.03-.11-.48-.07-.83-1.13-.81-2.6-1.5-3.98-1.9-.37,1.46-1.09,2.98-2.22,3.77-.51.36-1.97.54-2.64.34ZM20.48,25.82c1.55.4,2.39.8,3.33-.17.68-.71.97-1.89.12-2.92-.47-.56-1.64-1.34-2.33-1.32-.83.02-1.68,1.02-1.56,1.73l.44,2.68ZM17.62,26.7l.75-1.28c.32-1.02-1.54-3.54-1.98-3.72-.89-.36-2.24,1.61-2.27,2.12-.15,2.85,1.08,2.65,2.57,3.72.12-.45.19-.83.35-.83h.58Z"/>
      <path class="cls-2" d="M4.04,29.12l-1.32-.87c.4-.68.62-1.1.97-1.84,1.66-.89,4.06-2.46,6.1-1.69.32-.45.94-.97,1.27-.85l.25,1.79-1.01.42c-1.76.12-4.51,1.55-6.25,3.04Z"/>
    </g>
  </g>
</svg>