<?xml version="1.0" encoding="UTF-8"?>
<svg id="Layer_2" data-name="Layer 2" xmlns="http://www.w3.org/2000/svg" viewBox="0 0 33.67 21.88">
  <defs>
    <style>
      .cls-1 {
        fill: #f5f5dd;
      }

      .cls-2 {
        fill: #b74426;
      }

      .cls-3 {
        fill: #152a50;
      }
    </style>
  </defs>
  <g id="Address">
    <g>
      <path class="cls-3" d="M15.43,18.55c-1.3-.24-.13,2.72-3.87,3.34-.4-.64-.89-1.35-1.06-1.94l-.63-2.14c-1.62.78-2.92.35-4.35-.11s-2.65-1.02-3.78-2.12C0,13.87-.12,13.01.06,10.59c.06-.79.05-1.49.33-2.23.77-2.02,2.03-3.57,3.94-4.68C8.77,1.1,12.59.93,17.77,1.17c.52.02,1.4.06,1.83.17l2.77.68c3.02.74,5.27,2.9,7.25,5.17,1.24,1.42,1.98,3.46,1.49,5.25-.32,1.17-.62,2.5-1.51,3.32-.51.47-1.17,1.11-1.7,1.44-2.46,1.47-5.3,1.76-8.14,1.96-.66.04-1.54-.29-2.15-.31-.69-.02-1.25-.12-2.18-.29ZM11.72,18.27l.82.81c.46-.4.71-1.09.78-1.85.05-.48.97-1.25,1.47-1.2,1.33.12,2.79.85,4.09.78l3.14-.17c3.22-.18,2.25.04,5.56-1.88.99-.58,1.05-1.77,1.31-2.76.19-.7.24-1.29-.21-1.99-1.1-1.72-2.46-3.27-4.12-4.53-.84-.63-2.04-.87-2.99-1.3-1.14-.52-2.27-.96-3.62-.93s-2.88-.15-4.1.03l-4.57.67c-.6.09-1.52.46-2.22.71-2.26.8-.72-.09-2.91,1.79-.47.41-1.24,1-1.52,1.43-.67.99-1.16,2.54-.86,3.7.32,1.23,1.53,2.48,2.4,3.39.55-.04,1.63.09,2.02.88.13.26.89-.07,1.17,0l2.39.55c.17-.3.92-.91,1.17-.66.66.68.86,1.86.77,2.54Z"/>
      <path class="cls-1" d="M11.72,18.27c.09-.68-.11-1.86-.77-2.54-.25-.26-.99.36-1.17.66l-2.39-.55c-.28-.07-1.04.26-1.17,0-.39-.79-1.47-.92-2.02-.88-.87-.91-2.08-2.16-2.4-3.39-.3-1.16.19-2.7.86-3.7.29-.43,1.05-1.02,1.52-1.43,2.2-1.88.66-.99,2.91-1.79.7-.25,1.62-.62,2.22-.71l4.57-.67c1.22-.18,2.75,0,4.1-.03s2.48.41,3.62.93c.96.44,2.16.67,2.99,1.3,1.65,1.25,3.02,2.81,4.12,4.53.45.7.39,1.3.21,1.99-.27.99-.32,2.18-1.31,2.76-3.31,1.93-2.34,1.71-5.56,1.88l-3.14.17c-1.3.07-2.76-.66-4.09-.78-.5-.05-1.42.72-1.47,1.2-.08.76-.32,1.45-.78,1.85l-.82-.81ZM12.34,5.2c-.55-.58-1.23.24-1.34.66-.24.95-.55,2.41.53,2.88,1.05-.38,1.66-2.64.81-3.54ZM15.78,8.86c.62-1.37,1.38-2.63.63-3.51-.17-.2-.98-.28-1.14-.06-.56.74-.97,2.14-.66,3.04.1.29.96.76,1.18.53Z"/>
      <path class="cls-3" d="M15.78,8.86c-.22.23-1.07-.24-1.18-.53-.31-.9.1-2.3.66-3.04.17-.22.97-.14,1.14.06.76.88,0,2.14-.63,3.51Z"/>
      <path class="cls-3" d="M12.34,5.2c.86.9.24,3.16-.81,3.54-1.08-.47-.77-1.93-.53-2.88.11-.42.78-1.24,1.34-.66Z"/>
      <path class="cls-2" d="M32.26,10c-.62-.63-1.16-1.24-1.51-1.69l-4.28-4.45-1.12-.88c-.36-.29-1-.91-.91-1.29.07-.3.89-.7,1.13-.52l1.05.78,1.17.81c.21-.76.65-1.38,1.31-1.94l.97-.82,2.05.03c.28,0,.61.38.8.6,1.13,1.33.88,2.47-.13,3.93-.46.66-.54.95-1.64,1.22l2.15,2.6-1.04,1.62ZM30.03,4.78c.87-.11,1.66-.86,1.84-1.67.13-.6-.27-1.31-.84-1.39-1.17-.17-2.17.67-2.38,1.78.34.4.97,1,1.38,1.29Z"/>
      <path class="cls-1" d="M30.03,4.78c-.41-.28-1.04-.88-1.38-1.29.21-1.1,1.21-1.94,2.38-1.78.57.08.97.79.84,1.39-.18.81-.96,1.56-1.84,1.67Z"/>
    </g>
  </g>
</svg>