<?xml version="1.0" encoding="UTF-8"?>
<svg id="Layer_2" data-name="Layer 2" xmlns="http://www.w3.org/2000/svg" viewBox="0 0 28.86 22.9">
  <defs>
    <style>
      .cls-1 {
        fill: #f5f5dd;
      }

      .cls-2 {
        fill: #152a50;
      }
    </style>
  </defs>
  <g id="Address">
    <g>
      <path class="cls-2" d="M8.55,21.37c-.41-.2-1.02-.28-1.5-.82-1.77-1.97-2.18-4.12-1.99-6.68l.18-2.5c.05-.73.02-1.55.64-2.17-.79-1.41.43-3.27-2.56-3.96l-2.06-.48c-.32-.07-.96-.33-1.16-.64-.19-.28-.08-.79.06-1.22l.33-1.08,4.43-.83,3.69-.45c3.09-.37,6.07-.79,9.16-.38,2.51.33,5.79,1.05,7.84,2.74,1.07.89,2.24,1.78,2.67,3.1.84,2.55.63,5.12.25,7.66l-.26,1.73-.68,3.69c-.29,1.57-1.29,2.35-2.72,3.14-1.25.69-2.81.68-4.31.62-1.94-.07-3.91-.13-5.88.02-2.3.17-4.2-.58-6.12-1.51ZM25.55,17.72l.52-2.81c.34-1.85.83-5.45.43-7.2-.11-.47-.66-1.46-.95-1.83-2.89-1.42-.97-1.2-4.12-2.21-3.56-1.14-4.25-.82-7.97-.94-1.96-.06-5.48-.06-7.21.4l1.35,1.36c.22.97.32,2.03.28,3.05l-.21,6.1c-.06,1.74.08,3.27,1.07,4.74-.39.52-.31.57.23.35,1.89,1.39,4.95,1.79,7.28,1.76,1.42-.02,2.71-.27,4.15-.34l3.27-.16c.78-.04,1.69-1.27,1.88-2.27Z"/>
      <path class="cls-1" d="M25.55,17.72c-.18,1-1.1,2.23-1.88,2.27l-3.27.16c-1.44.07-2.72.32-4.15.34-2.33.03-5.4-.37-7.28-1.76-.54.23-.62.18-.23-.35-.98-1.47-1.13-3-1.07-4.74l.21-6.1c.03-1.02-.06-2.08-.28-3.05l-1.35-1.36c1.73-.46,5.25-.46,7.21-.4,3.73.12,4.42-.2,7.97.94,3.15,1.01,1.22.79,4.12,2.21.29.37.84,1.36.95,1.83.4,1.75-.09,5.35-.43,7.2l-.52,2.81ZM15.53,7.23l.54,1.35c.15.38,1.11.07,1.46-.3.89-.91.14-2.25-.63-3.1-.96-.5-1.94.45-2.52,1.03-.28.04-.67.1-.86.18s-.26.6-.25.8l.06.85,2.19-.81ZM20.55,8.06l1.07,1.56c.38-.11,1.09-.61,1.19-.99s0-1.36-.3-1.62l-1.05-.93c-1.03-.39-3.78,2.54-3.01,3.41.94.24,1.31-.64,2.1-1.43Z"/>
      <path class="cls-2" d="M15.53,7.23l-2.19.81-.06-.85c-.01-.2.07-.72.25-.8s.58-.14.86-.18c.57-.58,1.55-1.53,2.52-1.03.77.86,1.52,2.19.63,3.1-.35.36-1.31.68-1.46.3l-.54-1.35Z"/>
      <path class="cls-2" d="M20.55,8.06c-.79.79-1.15,1.67-2.1,1.43-.77-.88,1.98-3.8,3.01-3.41l1.05.93c.29.26.39,1.23.3,1.62s-.81.88-1.19.99l-1.07-1.56Z"/>
    </g>
  </g>
</svg>