<?xml version="1.0" encoding="UTF-8"?>
<svg id="Layer_2" data-name="Layer 2" xmlns="http://www.w3.org/2000/svg" viewBox="0 0 44.35 23.84">
  <defs>
    <style>
      .cls-1 {
        fill: #9dc282;
      }
    </style>
  </defs>
  <g id="Address">
    <path class="cls-1" d="M18.59,1.29c3.18-3.67,9.52,1.11,11.56,6.24.85,2.14-.15,4.55-.91,6.9,4.61-.27,7.82-2.88,10.25-6.48l1.92-2.84,2.94,1.7c-1.15,4.29-7.99,9.86-12.16,10.19l-4.31.33c-5.82,8.43-10.32,6.13-19.56,6.42-3.95-2.65-2.95-.59-5.57-4.58C.51,15.79-1.26,10.54,1.17,7.02s7.95.5,10.18,2.7c2.05,2.02,2.7,4.92,2.09,7.7l-.98,4.51c2.7-.01,5.9-.3,8.05-1.87,1.06-.77,1.91-1.55,3.07-2.07l.82-1.76c-2.28-1.08-3.75-2.27-4.88-4.17l-1.41-2.4c-1.49-2.53-1.56-6,.49-8.38ZM4.75,8.74c-3.04,1.22.23,11.58,3.93,12.23,3.93-6.74-1.8-13.08-3.93-12.23ZM24.26,3.99c-.55-.43-1.68-.8-2.12-.65-2.19.73-2.05,8.19,3.23,10.58,2.36-2.98,2.14-7.4-1.1-9.93Z"/>
  </g>
</svg>