<?xml version="1.0" encoding="UTF-8"?>
<svg id="Layer_2" data-name="Layer 2" xmlns="http://www.w3.org/2000/svg" viewBox="0 0 32.34 32.17">
  <defs>
    <style>
      .cls-1 {
        fill: #9dc282;
      }
    </style>
  </defs>
  <g id="Address">
    <path class="cls-1" d="M15.42,16.44c-.04-2.31,2.76-4.91,5.25-3.94,3.56,1.4,5.82,8.57,2.74,11.81-1.41,1.49-3.96,2.25-6.19,1.71-4.4-1.08-6.59-7.23-7.55-11.11-1.1-4.44-.24-8.36,4.6-10.48,3.32-1.46,6.75-1.66,10,.17,2.77,1.56,5.12,2.51,6.58,6.78l1.08,3.14c1.8,5.25-2.13,15.1-11.04,17.08-3.43.76-6.8,1.01-9.81-.93l-3.03-1.96c-2.85-1.84-4.72-4.38-6.02-7.42C.2,17.05-.29,14.93.15,10.42.49,7.04,1.28,3.92,3.76,1.35c.38-.39.78-1.2,1.22-1.33s1.55.22,2.13.52C3.9,3.7,3.23,7.51,2.7,11.52s.94,7.89,3.12,11.66,6.8,6.65,11.61,6.13c1.51-.16,3.92-.78,5.2-1.53,5.05-2.94,7.31-9.04,6.27-14.27-.57-2.87-1.74-4.62-4.08-6.01-2.63-1.57-5.1-1.69-7.99-.52-2.53,1.03-4.3,2.67-4.37,5.66-.03,1.19.04,2.72.5,3.83,1.54,3.75,2.67,8.32,6.49,6.71,1.61-.68,2.95-2.15,2.51-4.06-.3-1.29-.64-2.41-1.08-3.88-2.74.41-1.56,1.49-4.14,2.64-.42.19-1.31-.95-1.32-1.45Z"/>
  </g>
</svg>