<?xml version="1.0" encoding="UTF-8"?>
<svg id="Layer_2" data-name="Layer 2" xmlns="http://www.w3.org/2000/svg" viewBox="0 0 23.32 23.95">
  <defs>
    <style>
      .cls-1 {
        fill: #9dc282;
      }
    </style>
  </defs>
  <g id="Address">
    <path class="cls-1" d="M17.99,16.46c.85-1.06,1.36-3.88.57-4.87-.86-1.08-1.48-.64-2.64-.53-.7.07-2.37-.21-3.02.08-1.85.84-1.81,4.34-3.28,3.37-2.99-1.99-2.22-5.66-.3-7.6,2.26-2.28,5.36-1.25,7.99-.26,2.31.86,5.21,2.65,5.77,5.33,1.05,5.11-1.44,7.8-5.25,10.57-.8.59-1.91,1.32-2.68,1.38-1,.07-2.21-.74-2.81-1.34-.29.2-1.44.88-1.84.74s-.7-.64-1.02-1.05c-1.5,1.28-2.96-.58-4.17-1.24-1.95-1.05-3.2-2.35-4.39-4.2C-.45,14.73.03,8.93.34,8.2c.22-.51,1.35-.79,2.28-1.08l-.37-1.92,1.19-.26c.34-.07.32-1.18.47-1.49C4.92,1.5,7.84.05,10.09,0c.45,0,.86,1.09.7,1.49-.24.61-.78,1.27-1.23,1.45l-.33-.85c-.05-.12-.42-.13-.44,0l-.14.91c-.03.19-.04.72-.2.69l-1.07-.22-1.68,2.78c-3.4,5.61-1.8,4.15-2.05,6.98l-.2,2.28c-.04.48,1.07.97,1.35,1.39.85,1.29,1.29,1.32,2.47,1.76,2.73,1.02,5.67,2.33,8.53.54l2.2-2.74Z"/>
  </g>
</svg>