<?xml version="1.0" encoding="UTF-8"?>
<svg id="Layer_2" data-name="Layer 2" xmlns="http://www.w3.org/2000/svg" viewBox="0 0 48.16 30.3">
  <defs>
    <style>
      .cls-1 {
        fill: #9ec284;
      }
    </style>
  </defs>
  <g id="Address">
    <path class="cls-1" d="M0,19.1C.45,13.35,2.23,1.81,10.19,4.22c15.31,4.63,11.83,21.41,19.46,22.5s14.32-4.65,15.9-11.66c1.43-6.32-3.59-11.83-7.71-11.86-1.41,0-3.13,1.57-4.21,2.95-2.31,2.96-2.78,7.05.58,9.37l4.41-.64c0,.71-.29,2.23-.65,2.92-.43.81-3,1.4-3.86,1.05-1.59-.65-3.77-2.68-4.21-4.18-1.86-6.39,2.34-13.91,6.71-14.58,6.33-.97,11.14,5.39,11.51,10.67.64,8.95-4.82,16.95-13.21,19.02-12.96,3.18-11.51-8.99-17.78-17.6-1.11-1.53-9.4-8.09-12.22-2.97-2.16,3.92-2.81,7.77-2.81,12.29-.66.1-2.17-1.53-2.1-2.4Z"/>
  </g>
</svg>