<?xml version="1.0" encoding="UTF-8"?>
<svg id="Layer_2" data-name="Layer 2" xmlns="http://www.w3.org/2000/svg" viewBox="0 0 10.36 12.23">
  <defs>
    <style>
      .cls-1 {
        fill: #9dc282;
      }
    </style>
  </defs>
  <g id="Address">
    <path class="cls-1" d="M9.8,3.05c.9,1.56.52,2.93.25,4.49-.31,1.79-1.45,2.71-3.08,3.6-.9.49-1.62,1.46-3.01.96l-2.6-.92c.28-.68-.59-1.13-.66-1.53L.06,5.74C-.38,3.1,1.8,1.15,4.03.14c1.27-.58,4.95.78,4.6,1.82.61.26.89.62,1.16,1.09ZM8,5.81c-.94-.73-1-1.02-1.44-2.08-.38,1.23-1.44,1.3-2.39,1.14l-1.38.97-.37,1.29c.73-.38,1.45-.26,1.6.24.32,1.03-.01,1.42-.91,1.86.8.38,1.95.01,2.58-.73l2.3-2.71Z"/>
  </g>
</svg>