<?xml version="1.0" encoding="UTF-8"?>
<svg id="Layer_2" data-name="Layer 2" xmlns="http://www.w3.org/2000/svg" viewBox="0 0 29.17 30.88">
  <defs>
    <style>
      .cls-1 {
        fill: #9dc282;
      }
    </style>
  </defs>
  <g id="Address">
    <path class="cls-1" d="M12.61,17.9c-1.75,2.09-.76,5.62,1.45,7.94,3.47,3.65,8.96,2.7,8.99,3.58l.04.99c-5.55,1.97-10.98-2.72-14.12-6.71-1.21-2.68-.42-5.66.14-8.45-1.25-1.15-2.52-2.41-3.67-3.72l-2.29-2.62C2.41,5.04-.97,2.11.27.33c.34-.48,1.87-.41,2.67,0,.54.28.47.92.44,1.86,1.71,3.63,3.23,5.78,5.66,8.92l1.45,1.86c2.13-1.78,3.9-3.37,6.41-4.67,4.67-2.42,11.42-.4,12.24,5.08.42,2.83-3.28,5.09-5.57,6.03-3.73,1.54-7.33.53-10.95-1.52ZM25.44,12.7c.37-1.2-1.71-2.22-2.68-2.21-3.74.06-6.69,2.05-8.97,4.74,4.01,2.59,10.3,1.9,11.65-2.53Z"/>
  </g>
</svg>