<?xml version="1.0" encoding="UTF-8"?>
<svg id="Layer_2" data-name="Layer 2" xmlns="http://www.w3.org/2000/svg" viewBox="0 0 46.3 27.58">
  <defs>
    <style>
      .cls-1 {
        fill: #9ec284;
      }
    </style>
  </defs>
  <g id="Address">
    <path class="cls-1" d="M16.4,6.31c4.23,3.55,3.65,11.45-.29,14.38-.5.37-2.37.62-2.55.13l-.68-1.98c-.17-.49,1.21-.82,2.17-1.3,1.43-.71,2.13-3.38,1.74-5.18-.94-4.33-7.87-7.43-10.46-6.51-3.6,1.27-4.08,5.55-3.6,8.61.85,5.47,4.56,8.6,9.87,9.27,2.51.32,5.79,1.07,8.13.13,5.12-2.05,5.55-11.67,8.98-18.61C32.3-.04,37.96-1.26,42.24,1.27c4.74,2.81,5.53,9.23,1.31,13.35l.21-5.02c.14-3.32-2.21-5.49-5.18-6.22-2.51-.62-6.04.96-7.13,4.12l-4.74,13.72c-1.54,4.44-5,6.8-9.77,6.3-4.14-.44-8.97-.65-12.24-3.57C-1,18.87-2.22,8.22,5,2.59c4.14-.87,7.88.77,11.4,3.72Z"/>
  </g>
</svg>