<?xml version="1.0" encoding="UTF-8"?>
<svg id="Layer_2" data-name="Layer 2" xmlns="http://www.w3.org/2000/svg" viewBox="0 0 53.14 24.48">
  <defs>
    <style>
      .cls-1 {
        fill: #9dc282;
      }
    </style>
  </defs>
  <g id="Address">
    <path class="cls-1" d="M48.88.21c.97-.24,2.56-.24,3.75.15.86,2.16.52,4.3-.09,6.48-.72,2.56-2.47,4.59-4.29,6.57-2.64,2.86-5.97,5.02-10.06,5.09-1.15.02-1.56,1.13-2.34,1.89-1.78,1.74-4.21,2.86-6.5,4.04-1.1.2-5.22-.45-5.63-.62-2.2-.91-5.69-3.03-7.01-4.78l-1.54-2.04-4-5.15c-1.18-1.52-2.6-3.53-4.97-3.44-2.06.08-4.99,5.56-2.44,10.71.54,1.1,1.69,1.31,2.86,1.86.3.14.17,1.24-.25,1.35C2.85,23.21-.12,18.2,0,14.25c.09-2.91.98-5.97,3.63-7.78.85-.58,3.16-.81,4.09-.34,2.35,1.18,4.68,2.73,6.2,4.7,2.03,2.63,6.71,9.05,9.47,10.16,3.79,1.52,8.11-.37,10.64-3.62-3.46-1.21-6.74-2.98-9.08-5.93-.37-.18-1.05-.67-1.22-.99l-1.55-2.99c-1.22-2.35-.18-5.53,1.59-7.29,6.37-.51,6.85-.08,11.36,3.61,3.39,2.77,5.78,7.24,3.95,11.79,1.19-.44,2.59-.85,3.35-1.48,4.2-3.45,8.89-7.72,6.44-13.88ZM28.71,2.44c-1.14-.48-2.44-.28-2.99.89-2.31,4.86,5.66,11.94,9.76,11.62,2.94-4.85-2.84-10.83-6.77-12.51Z"/>
  </g>
</svg>