<?xml version="1.0" encoding="UTF-8"?>
<svg id="Layer_2" data-name="Layer 2" xmlns="http://www.w3.org/2000/svg" viewBox="0 0 45.11 32.63">
  <defs>
    <style>
      .cls-1 {
        fill: #9dc282;
      }
    </style>
  </defs>
  <g id="Address">
    <path class="cls-1" d="M30.31,11.33c4.15.12,4.78,5.85,7.61,4.47.51-.25,1.14-.94,1.52-1.59,1.3-2.27.15-4.76-2.4-5.6-1.56-.51-3.05-.96-4.74-1.65-.85-.35-.12-2.41.75-2.61,3.99-.94,5.62,1.94,7.42-.49.76-1.03.37-2.14-.47-3.86h4.52c1.2,2.02.39,3.93-.87,5.43l-1.54,1.83c1.89,1.44,2.68,3.46,2.11,5.77-1.14,4.6-2.15,5.15-6.86,6.42l.97,3.96c.51,2.09.72,4.55.04,6.51-.76,2.18-2.8,2.88-5.03,2.67-7.05-.68-3.93-.19-10.64-3.68-4.24,3.48-10.79,4.12-14.15-.94-2.12-3.19-1.71-6.88-.22-10.59-3.47-.04-6.49-1.69-7.65-4.37C-1.43,8.13,1.55,2.9,6.81,1.29c3.15-.96,6.31-2.03,9.53-.18-4.58,1.87-3.33-1.45-9.76,2.63-2.81,1.78-4.44,4.82-2.89,8.06.47.98,1.53,2.4,2.55,2.83,5.06,2.14,5.7-6.4,11.2-3.14.34,2.16-1.69,2.82-2.97,4-2.96,2.76-4.53,9.46-1.53,11.78,1.58,1.23,3.47,2.05,4.96,1.11,1.96-1.24,2.89-2.93,1.93-5-.83-1.78-.71-4.53.88-5.85.57-.48,2.37-.55,3.22-.43,2.12,3.31-.8,6.02,1.81,8.49,2.32,2.18,4.81,3.79,8.24,3.75.8-2.28.06-4.61-.56-7.04-.43-1.69-.91-3.62-2.37-4.6-1.66-1.11-4.45-2.87-3.69-5.06.33-.96,1.53-1.36,2.93-1.32Z"/>
  </g>
</svg>