<?xml version="1.0" encoding="UTF-8"?>
<svg id="Layer_2" data-name="Layer 2" xmlns="http://www.w3.org/2000/svg" viewBox="0 0 22.58 22.81">
  <defs>
    <style>
      .cls-1 {
        fill: #9dc282;
      }
    </style>
  </defs>
  <g id="Address">
    <path class="cls-1" d="M17.78,8.43c-.26-1.24-1.17-2.94-2.16-3.77-4.29-.94-3.97-2-8.61-.36-1.25.44-2.66,1.3-3.07,2.51-.08.22-.82.63-.74.8l.34.75c-.65,1.48-.49,3.19-.04,4.78.58,2.07.98,2.33,2.85,4.02l1.87,1.69c-.23.44-.16.46.46.13,1.71.44,3.58,1.13,5.31.55,3.97-1.34,3.35-1.04,6.33-3.74.6-.54.15-2.31,1.64-2.4l-.18.54c-.05.16.62.46.63.63l.17,2.27c.05.74-1.29,1.68-1.76,2.33-.82,1.11-1.75,1.51-2.74,1.98-2.38,1.13-2.24,1.2-5.22,1.58-2.65.34-4.73-.31-6.76-2.06-1.5-1.3-2.82-2.64-3.85-4.28-1.92-3.06-1.16-2.94-1.92-4.64-.59-1.32-.23-2.05-.19-3.03.06-1.68.16-2.71.98-3.97,1.16-1.79,1.98-3.29,4.53-3.71C6.86.83,8.47-.04,9.82,0c1.44.04,2.94.74,4.23.99,2.51.48,3.89,1.72,4.95,4.03,1.16,2.53,1.83,5.3.29,7.94-.33.48-1.22,1.25-1.63,1.74l-.77.93c-.18.22-.68.08-1.09.01-.48,1.42-2.22,1.15-3.52,1.03-.3-.03-1,.31-1.22.12-.97-.77-.12-.98-2.95-2.78l-.76-1.61c2.27-2.65-1.34-1.48.85-5.3l2.06-.84c.38-.16,1.25.46,1.8.55,1.13.17,2.64.97,2.98,2.58l.68,3.2,1.25-.52c-.1-.08-.68-.71-.53-.91l.67-.92.7-1.83ZM10.26,9.96l1.09,3.61c.68.22,2.26-1.81,2.36-1.42l-.24-.87c-.18-.68-.63-1.38-1.22-1.6-.55-.21-1.74-.07-2,.28Z"/>
  </g>
</svg>