<?xml version="1.0" encoding="UTF-8"?>
<svg id="Layer_2" data-name="Layer 2" xmlns="http://www.w3.org/2000/svg" viewBox="0 0 61.74 57.68">
  <defs>
    <style>
      .cls-1 {
        fill: #9dc282;
      }
    </style>
  </defs>
  <g id="Address">
    <path class="cls-1" d="M38.46,25.92c1.45.83,2.96.68,4.42.86l4.96.62,7.21.6,5.36.68,1.31,2.3c.22.38-.98,1.1-1.48,1.14-6.98.53-6.05,1.51-12.38,2.03-1.35.11-2.74.26-4.1.21l-2.85-.11c-1.1-.04-2.22-.34-3.38-.04l3.33,1.89c2.43,1.37,5.12,2.25,7.68,3.5,1.55.76,2.57,2.65,4.35,3.24.87.29,2.2.92,2.68,1.47.18.21.14,1.33-.14,1.3l-1.4-.17-1.41.93-3.53-.61c-.85.28-1.83.76-2.61.27-2.28-1.45-4.57-2.32-6.91-3.59l-5.72-3.1c.04.34.18,1.06.38,1.37,2.36,3.71,4.26,7.72,5.64,11.93.32.98,1.11,4.17.31,4.88-.36.32-2.15.39-3.36-1.27l-1.3-1.79-1.38-1.64-2.69-3.86c-.45-.64-.74-1.42-.99-2.24l-.91-1.24-1.31-4.42c-1.85,1.89-3.19,3.6-5.06,5.26-3.96,3.53-6.22,5.66-9.35,10.12-.77-.29-1.67-.67-2.53-1.1.81-4.24,5.15-11.27,7.53-15.1.78-1.25,1.49-2.1,1.89-3.63l-3.95.59c-3.34.5-6.72.62-10.1.67-1.12.01-2.3-.16-3.35-.2-1.13-.04-2.21-.12-2.94-1.05-.21-.27-.42-.91-.36-1.19s.62-.75.94-.82l7.53-1.8c4.17-1,8.15-1.8,12.2-3.22-2.25-.24-3.9-.42-5.79-.84-2.08-.46-4.12-.8-6.24-1.14l-3.72-.61c-.92-.15-1.93-1.09-1.58-2.09l4.54-1.46c-.4-.48-.72-.89-.87-1.18-.47-.96,2.33-1.36,4.55.57,3.34.32,6.8.65,10.05,1.65.82.25,1.55.54,2.07.08-1.55-1.27-2.49-2.52-3.51-4.12l-1.85-2.9-1.05-1.44-3.94-5.44c-.59-.82-3.56-4.98-2.53-5.62,2.04-1.26,8.49,4.11,9.84,5.84l3.82,4.9,1.55,1.97.42-2.95c.28-1.96-.17-4.43.59-6.19l2.1-4.83.78-2.43c.16-.49.77-1.27,1.24-1.32s1.58.75,1.56,1.3l-.15,4.26-.13,2.32c.24,1.37.41,2.87.34,4.39l-.18,4.09c-.07,1.69-.19,3.09-.41,4.98.05.04,1.09-.11,1.42-.32,1.99-1.28,4.7-1.7,6.92-2.46l8.95-3.05c1.92-.66,3.76-1.23,5.81-1.74.7.73,1.3,1.45,1.8,2.22-1.49,1.58-3.03,2.59-4.85,3.54l-3.6,1.87c-.17.09-.66.45-.82.55s-.48-.31-.49-.3c-.72.7-1.48,1.21-2.37,1.58l-6.47,2.69ZM17.57,10.7l-2.15-1.53.71,1.95c.09.24.88.58,1.08.41.16-.14.53-.7.36-.83Z"/>
  </g>
</svg>