<?xml version="1.0" encoding="UTF-8"?>
<svg id="Layer_2" data-name="Layer 2" xmlns="http://www.w3.org/2000/svg" viewBox="0 0 65.6 66.14">
  <defs>
    <style>
      .cls-1 {
        fill: #9dc282;
      }
    </style>
  </defs>
  <g id="Address">
    <path class="cls-1" d="M63.66,17.18c.56.96,1.26,2.68,1.22,3.54-.21,5.21-3.56,9.16-7.84,11.89-2.92,1.86-4.29,1.93-5.75,2.76l-2.8,1.58,1.59.25c.35.06.15.9.12,1.27,2.75.7.61.07,3.98,3.33l1.95,1.89c4.01,3.88,4.07,5.72,6.27,7.77,2.91,2.71,2.7,3.57,3.18,7.06.06.45-.23,1.64-.69,1.7-2.42.33-6.95-.77-8.62-3.23-3.77-2.73-2.3-.46-4.76-3.32-.37-.43-1.28-1.2-1.83-1.51-1.63-.95-2.78-2.06-4.16-3.31-.77-.7-2.42-1.09-3.34-2.15l.48,2.72c.24,1.38.17,7.21-.22,7.04l-.81-.36,1.01,1.86-.67.83c-.11,2.09-1.07,4.51-2.93,5.58.04.42-.05,1.35-.43,1.64-.4.31-1.37.05-1.93-.08l-1.08-.23c-.25-.05-.4-.62-.54-.95l-2.71-6.35-1.46-3.58-.91-2.56c-.42-1.19-1.13-2.79-1.57-3.84l-.02-6.08c0-2.86-.16-.12-3.3-1.93,0-.02-.02.45-.03.62,0,.14-.43-.05-.86-.3.3-1.16,0-.27-.27.46l-13.59,2.42c-3.04.54-5.93.6-9.06.32l-1.3-3.16c.64-.55,1.71-1.16,2.54-1.55l3.56-1.67,2.18-.82c1.92-.72,3.67-1.39,5.52-2.18,4.51-1.93,6.44-1.86,10.48-3.77.22-.11.64-.35.76-.26l.89.73c.08-.69-.27-2.35-.92-2.9l-2.7-2.26c-.83-.69-1.54-1.43-2.37-2.19l-1.87-1.69c-2.39-2.16-.22-.72-3.8-4.03-1.54-1.42-2.79-2.76-3.22-4.82l.73.59c.17.14.18.19.19.05,0-.13.15-1.02.25-1.11.85-.83,3.31-.08,4.53.49,1.65.77,3.02,1.07,4.2,2.42l2.31.98c2.71,4.16,2.55.85,7.94,5.81.59.55,1.07.9,1.78,1.2-1.1-4.09-.41-3.42-1.11-6.57-.36-1.59-.96-3.03-1.37-4.47-.34-1.18-.41-2.86-.84-3.99.1-.33.29-1.2.22-1.62l-.73-4.09c-.21-1.2.23-2.43,1.09-2.82,1.42-.65,2.71.34,3.37,1.56l3.1,5.78c1.16,2.17,2.19,4.19,3.04,6.52,1.58,4.27,2,3.93,2.51,7.5.06.43,1.54,6.29,2.21,6.7.97-1.63,1.82-2.57,2.98-3.87l2.73-3.05c.83-.93,1.7-1.5,2.87-2.23s2.26-1.84,3.42-2.43l2.2-1.11c1.37-.69,4.08.06,4.99,1.61ZM59.59,53.49l-1.71-2.76c-2.28-3.67-2.1-1.6-6.39-6.76-.15-.19-.09-.97-.3-1.07s-.81-.2-1.02-.36l-3.72-2.83-2.09-1.4c-1.02-.68-1.98-1.64-2.42-2.9l-.44-1.25c-.1-.29,1.09-.87,1.16-1.18.24-1.15-.78-3.29-1.17-4.49l-1.58-4.82-1.03-3.14-1.05-2.94c-.69-1.95-1.3-3.94-2.4-5.68-.48-.75-.71-1.09-.29-1.95l-1.91-2.47c-1.11,2.12.36,3.81.72,5.68l1.58,8.11c.96,4.95,3.24,7.74.85,9.13-.57.33-1.72-.7-1.85-1.13-.73.67-1.92,1.22-2.94,2.13l-1.47,1.31c-.37.33-1.8-.25-2.29-.08-1.34.46-3.49,1.47-4.97,1.83-6.7,1.62-4.33,1.37-10.3,4.03l-2.76,1.23,14.58-2.34c-1.4.23,4.87,0,4.34.02l3.27-.16c.38-.02,1.42.47,1.37.82l-.15,1.25.68.64c.16.15-.29.98-.42,1.16l-1.96,2.71c.05,1.63.11,3.21.36,4.87.67,4.44.32.95,1.43,4.82.33,1.16,1.32,2.4,1.72,3.44l1.66,4.28c1.57-3.03,2.44-6.05,2.4-9.19l-.02-1.72c-.08-1.35-1-4.24-1.47-5.3l-1-2.26c-.75-1.7-1.28-3.56-1.62-5.48.82-.41,2.07-.55,2.6-.21.62.4,1.14,1.22,1.54,1.98.27.36,1.54.67,1.08,1.1.69.75,1.86,1.98,2.78,2.55,1.04.31,2.22.55,2.96,1.22l5.3,4.86,1.9,1.74c2.21,2.02.77-.23,5.09,3.06l2.68,2.04-1.34-2.15ZM29.73,25.83c-1.25-.54-2.41-1.33-3.54-2.41l-2.72-2.58c-.45-.43-1.96-.49-2.36-1.09l1.37,2.45c2.04.45,3.33,1.85,4.29,3.56-.08.27,4.79,4.66,5.15,3.07.08-.35-.13-1.19-.41-1.43l-1.77-1.56ZM57.05,19.86c-.34.09-.74.63-.97.88-1.19,1.31-3.05,2.31-4.02,3.66-2.83,3.9-2.28,1.32-4.23,4.61l-1.88,3.16c-.11.19-.41.94-.21.98s.79.13.98.05c8.64-3.56,9.21-2.37,14.82-10.2l.16-2.92c.02-.33-.36-1.14-.67-1.17-.23-.02-.79.05-1.05.12l-2.92.81Z"/>
  </g>
</svg>