<?xml version="1.0" encoding="UTF-8"?>
<svg id="Layer_2" data-name="Layer 2" xmlns="http://www.w3.org/2000/svg" viewBox="0 0 86.09 73.65">
  <defs>
    <style>
      .cls-1 {
        fill: #9dc282;
      }
    </style>
  </defs>
  <g id="Address">
    <g>
      <path class="cls-1" d="M61.7,26.33l4.68-.95,5.67-.81,1.87,1.23c.32.21.56,1.12.46,1.47s-.62.85-.98,1.04l-2.87,1.51c-1.8.95-3.52,1.71-5.35,2.43-1.37.54-2.81,1.38-4.22,1.83-3.75,1.21-7.35,1.86-11.21,2.73l7.63,4.25c1.88,1.05,8.08,4.44,7.99,6.42-.02.48-.89,1.28-1.43,1.37-1.14.19-2.09-.23-3.06-.36s-2.19-.18-3.22-.37l-4.12-.78-3.49-.48-6.42-1.13-2.2-.4,3.03,5.55c1.21,2.21,2.67,4.37,4.06,6.54l4,6.27c-.83.69-2.26,1.27-3.24.86-.69-.29-1.49-1.61-2.07-2.05-.94-.71-1.51-1.24-2.27-2.04-2.69-2.84-3.38-2.97-5.83-6.23l-3.45-4.6-3.65-5.01c-1.15,3.5-2.36,7.34-4.6,10.57l-3.76,5.42c-.48.69-3.13.19-3.07-.64.45-6.35,2.12-12.12,3.73-18.4l-11.72-1.83-4.13-.8L.18,37.06c-.18-.56-.28-1.42-.03-1.73.29-.38,1.12-.97,1.58-1.14l2.65-.95,4.52-1.6c1.9-.67,3.73-1.51,5.67-1.87.67-.13,1.2-.3,1.84-.52l6.45-2.28c-.91-.82-1.77-1.51-2.48-2.27l-2.06-2.2c-.66-.7-1.21-1.28-1.96-1.97-1.48-1.38-2.35-3.31-3.58-5-.89-1.22-3.02-2.82-1.89-4.62,1.46-2.5,15.11,6.36,17.68,7.36.32-1.48,1.7-14.72,4.4-12.13.39-1.99.7-4.19,1.46-5.8,1.3-1.12,2.94.84,3.16,2.05l.71,3.98c.16.89.27,1.84.34,2.73.15.36.68,1.31.76,1.75l1.4,7.46c1.09-.5,1.67-1,2.57-1.67,1.78-1.33,4-2.15,5.9-3.27l10.08-5.98c.65-.38,1.96-.9,2.72-.76.69.12,1.4,1.67,1.56,2.41l-6.77,7.83c-1.66,1.92-3.44,3.58-5.19,5.39l-5.12,5.28c2.1.35,7.71-.07,9.67-.37l5.48-.83ZM57.15,30.27c-5.66.55-7.3-.41-12.94-.19l-2.39-1.04c.35-1.09,1.1-2.47,2.06-3.44l7.64-7.65c1.17-1.17,2.11-2.29,3.3-3.81l-2.26.72c-.99,1-2.02,1.43-3.33,2.05l-4.09,1.95-3.77,3.2c-.45.38-2.01-.17-2.3-.64-.42-.7-1.23-2.92-1.46-3.99l-2.31-10.85c-1.64,4.26-2.65,8.44-2.78,12.92-.03,1.09.93,2.3-.44,3.14l-2.61-.36c-1.79-1.67-3.69-2.56-5.79-3.61l-3.27-1.63c-3.8-1.9-2.12-1.74-4.42-2.47,3.22,4.47,6.45,8.19,10.61,11.39.44.33.97.96.99,1.37.11,1.7-3.03,2.49-3.94,2.84-4.41,1.72-4.9,1.47-8.64,2.72l-8.36,2.81c1.63.45,3.23.79,4.9,1.16l2.75.61c3.39.74,6.74,1.47,10.26,1.86.55.06,1.65-.31,1.99.01.41.38,1.03,1.21.93,1.56l-1.92,1.69c.49,1.04.42,1.69.19,2.7-.74,3.17-1.31,6.17-1.84,9.53,2.96-3.7,4.23-7.9,5.34-12.35.18-.72,1.35-1.49,2.03-1.28,2.16.68,3.47,2.02,4.64,3.68l5.23,7.4c-.99-3.82-3.76-6.46-4.68-10.07.78-.38,1.99-.51,2.68-.24,3.51,1.36,6.84,1.86,10.49,2.25,3.29.35,6.37,1.13,8.82,1.11l-4.45-3.04-3.19-2.08c-.84-.55-2.14-1.06-2.92-1.67-2.52-2-4.19-2.39-3.59-3.58.67-1.31,3.51-.3,5.6-.68,5.01-.93,8.86-2.28,13.26-4.14.17-.07-.05-.9-.24-.87-2.9.49-1.91.68-5.78,1.06Z"/>
      <path class="cls-1" d="M12.04,51.8c.09.39-.52,1.39-.71,1.73l-2.16,3.8c-1.33,2.32-2.46,4.51-4.33,6.49l-2.9-1.11c-1.1-1.54.81-2.01,1.49-2.88l6.21-7.93c.39-.5,2.26-.72,2.41-.1Z"/>
      <path class="cls-1" d="M36.71,71.88c.11.53.08,1.28-.12,1.51s-.97.33-1.25.21l-2.26-.95c-.85-2.55-1.42-9.41-1.24-11.86.03-.39,1.29-.76,1.59-.58.36.22.96.82,1.05,1.23l2.23,10.43Z"/>
      <path class="cls-1" d="M84.94,41.82c.53.16,1.14.99,1.14,1.44s-.91,1.47-1.41,1.26l-7.63-3.17c-1.08-.45-1.9-.78-2.44-2.16,1.75.08,3.04.45,4.56.9l5.78,1.72Z"/>
    </g>
  </g>
</svg>