<?xml version="1.0" encoding="UTF-8"?>
<svg id="Layer_2" data-name="Layer 2" xmlns="http://www.w3.org/2000/svg" viewBox="0 0 30.22 24.96">
  <defs>
    <style>
      .cls-1 {
        fill: #152a50;
      }
    </style>
  </defs>
  <g id="Address">
    <path class="cls-1" d="M2.42,23.48L.17,15.27c-.24-.86-.33-3,.45-3.34,2.17-.96,4.11-1.99,6.12-3.09,4.14-2.28,8.35-4.23,12.71-6.14,1.44-.63,2.22-1.1,3.38-2.7,5.43,6.79,8.15,11.61,7.22,20.38-.16,1.53-.27,3.39-1.44,4.41-6.79.5-13.19-.19-19.96-.78l-6.21-.54ZM25,6.62l-2.99.7-2.39.56c-.53.12-1.35-.76-1.84-1.33l1.64-.5,4.13-1.73-.79-1.33-5.15,2.73c-4.26,2.25-8.43,3.84-12.27,6.69,7.12,1.11,9.11.31,17.08.96,1.39.11,2.91-.29,4.55-.71-.33-2.21-.86-4.34-1.97-6.01ZM27.26,22.07l.69-6.34c-4.37.58-8.28.2-12.56.02l-12.87-.55c.16,1.66.67,3.96,1.47,5.32l6.78.7c5.58.58,10.82,1.1,16.5.84Z"/>
  </g>
</svg>