<?xml version="1.0" encoding="UTF-8"?>
<svg id="Layer_2" data-name="Layer 2" xmlns="http://www.w3.org/2000/svg" viewBox="0 0 39.46 31.05">
  <defs>
    <style>
      .cls-1 {
        fill: #152a50;
      }
    </style>
  </defs>
  <g id="Address">
    <g>
      <path class="cls-1" d="M6.01,29.85c-2.02-.85-3.31-1.29-4.2-3.32C-1.01,20.08-.65,14.53,3.71,8.84c2.39-3.11,6.91-6.47,10.86-7.51,6.23-1.64,9.99-1.91,16-.02,3.21,1.01,5.81,2.8,7.67,5.79s1.54,6.58-.39,9.54c-1.92,10.06-10.17,5.96-17.27,9.04-5.11,2.22-5.88,7.8-14.56,4.17ZM27.89,16.87c2.18,1.37,4.25,1.02,7,.23,1.23-1.56,3.1-4.03,2.48-6.48C35,1.21,18.86-.02,9.8,6.3c-4.01,2.8-7.35,7.3-7.86,12.38-.24,2.39,1.02,6.25,3.13,7.47,2,1.16,5.21-.4,6.74-1.48,6.02-4.26,7.28-8.29,16.08-7.8ZM16.34,25.56c7-5.39,10.88-2.15,16.53-4.64l-5.92-1.18c-5.77-1.15-11.25,5.1-15.11,8.42,1.96-.24,3.06-1.48,4.5-2.59Z"/>
      <path class="cls-1" d="M8.91,21.71c-1.46.76-3.61,1.55-4.91.44s-1.51-3.13-1.39-4.67c.16-2.16,4.91-7.2,8.33-5.03,1.55.98,2.02,2.69,1.18,4.71,1.67,1.71,1.04,4.28-.84,5.36l-2.37-.81ZM10.54,19.06l-1.64-2.62,1.43-1.91c-2.11-1.31-6.46,2.8-5.43,5.22,2.16,1.1,2.31-2,3.9-1.37l1.75.69Z"/>
      <path class="cls-1" d="M26.7,16.32l-.72-2.39c-1.72,1.03-3.79,2.5-5.84,1.53s-3.6-3.54-3.55-5.92c.02-1.03,1.28-2.93,2.14-3.49,2.15-1.38,5.61-1.16,7.27.59,1.97,2.08.98,4.8.33,6.93.75-.17,2.49-.44,2.8-.98.35-.61.77-1.73,1.25-2.79,1.79.75,1.33,3.27.38,4.66-.72,1.05-2.56,1.75-4.06,1.86ZM22.95,8.74c-.37.47-.86,1.07-.92.88l-.29-.98-.29-.93c-.06-.2-1.1-.13-1.28-.03-.76.48-1.87,2.17-1.61,3.03.34,1.1,1.68,2.26,2.57,2.3,2.1.08,4.87-2.22,4.13-3.73-.39-.8-1.86-1.14-2.32-.54Z"/>
      <path class="cls-1" d="M15.79,13.26c-1.41,1.11-2.18-.06-2.76-1.19-1.76-3.45-4.59.05-4.91-3.93l4.14.14c1.7.85,3,2.6,3.53,4.98Z"/>
      <path class="cls-1" d="M29.41,8.59c-.73-.07-1.64-.8-1.85-1.36-.27-.74-.23-2.56.41-2.84,1.04-.45,3.29-.07,3.43,1.13s-.21,3.24-1.98,3.06Z"/>
      <path class="cls-1" d="M36.45,12.35c-.49.96-1.43,1.64-1.98,1.59s-1.53-.75-1.63-1.3.39-1.76.9-2.13c.41-.29,1.5-.43,1.92-.26.51.2,1.03,1.61.78,2.1Z"/>
      <rect class="cls-1" x="14.74" y="16.3" width="1.36" height="2.01" transform="translate(-1.27 1.22) rotate(-4.36)"/>
      <path class="cls-1" d="M19.42,9.39c-.05-.17.84-.34.94-.21.15.2.47.76.29.94-.12.12-.35.29-.57.45-.2.15-.55-.78-.66-1.18Z"/>
      <path class="cls-1" d="M20.35,11.21l1.13-.23c.19-.04.45.71.28.78l-.76.29c-.27.1-.95-.78-.64-.84Z"/>
    </g>
  </g>
</svg>