<?xml version="1.0" encoding="UTF-8"?>
<svg id="Layer_2" data-name="Layer 2" xmlns="http://www.w3.org/2000/svg" viewBox="0 0 250.01 56.71">
  <defs>
    <style>
      .cls-1 {
        fill: #b54326;
      }

      .cls-2 {
        fill: #152a50;
      }
    </style>
  </defs>
  <g id="Logos">
    <g>
      <g>
        <path class="cls-1" d="M39.67,46.29l-.31-.22.22-.31c.04-.06-.22-.18-.37-.28.27-.27.17-.57-.09-.91-.24-.3-.5-.48-.79-.44-.02-.18-.03-.63-.15-.67l-.45-.15.18-.35c.04-.08-.19-.36-.27-.32l-.35.17-.46-.56-.85-.76c-.52.46.1.13-.7-.23-.08-.04-.19.12-.33.28-.08-.33-.5-.44-.87-.37-.07.01-.25-.04-.25-.1-.01-.11-.02-.14.03-.17l.3-.17c-1.08-.12-.6.59-1.62.24l.28-.2c.05-.04-.14-.17-.2-.17l-.44.03c.06-.17.26-.49.43-.74l.74-1.04c.16-.22.21-.88.37-1.1l.72-1.04c.16-.23.23-.57.32-.83l.36-1.01c.2-.56-.01-1.09-.22-1.58l.05-.83c.03-.58.05-1.14.05-1.75v-1.74c-.19.31-.22.36-.33,0,.73-.31.35-1.02.4-1.38.12-.81.72-1.96.32-2.98.65-.73-.03.08.48-1.41.35-1.02.32-2.14.51-3.16.08-.41.24-.66.01-1.11l.2-1.17-.32-.72c.47-.54.54-1.34.16-1.88.07-.1.18-.21.16-.26l-.1-.2.14-.52c.03-.12-.26-.22-.44-.22.13-.51-.02-1.18-.49-1.52l-.17.77c-.14-.47-.11-.89-.08-1.39l.05-.93c0-.17-.06-.44.05-.5l.55-.28-.39-.35c.25-.27.14-.77.06-1.27-.32-2.04-.3-1.16-1.01-2.39l.36.02c.06,0,.1-.14.06-.18-.04-.04-.21-.15-.27-.15l-.38-.02c.1,0-.71-.83-.64-1.07-.6-.2-1.55-.51-2.23-.51-.7,0-1.08-.07-1.34-.66-1.14.14-2.36-.02-3.45-.18l-1-.16c-.37-.06-.87.07-1.2-.19-.39-.31-.76-.02-1.08-.05-1.47-.16-2.15-.32-3.8-.02l-.69-.14c-.17.19-.56.54-.77.49-.22-.05-.53-.26-.82-.44-.23-.15-.82.22-1.1.2-.43-.04-.91-.03-1.29-.01l-1.06.05c-.38.02-.72.06-1.07.13l-1.65.31c-.38.07-.64.05-1,.34-.21.18-.81.09-1.06.19l-1.2.46-1.51.55c-.28.1-.81-.19-1.15.13-1.19,1.12-2.43.39-3.57,2.03-.14.2-.38.53-.37.73s.22.6.39.75l1.13,1.07.49-.25v.23c0,.06.2,0,.23-.05l.17-.29c.49.39,1.18.19,1.73-.21.33-.23.77-.21,1.14-.26.61-.08,1.29-.07,1.86.3l-.71,3.08c.24.16.5.3.43.39-.87,1.09.06.19-.55,1.12-.09.14-.29.32-.21.36l.34.19c-.21.14-.46.48-.47.76l-.05,1.45c-.02.53-.24,3.25-.31,3.28l-.35.15c.16.24.46.64.41.85l-.2.99c-.32,1.63.42,1.39.05,2.41-.38,1.03-.36,2.15-.45,3.24-.04.46-.14,1.04-.1,1.44.02.19-.05.66-.12.83-.5.6-.29,1.8-.15,2.53l.15.78c0,.06-.11.43-.08.56l.48,2.14c.04.2.72,1.88,1.11,2.1l.03.63c.36-.22.43-.23.14.17l.88.42c-.38.41-.81.48-1.31.53-1.15.13-1.16.49-1.91.94l-1.26.76c-.13.08-.14.52-.28.57l-.62.22c-.86,1.19-.9-.07-1.53,1.28-.67.43-1.15,1.25-1.52,1.87-.51.83-.64,1.58-.28,2.58.22.59.38,1.32.73,1.86.69,1.07,1.79,1.74,3.07,1.62l-.21.38c-.16.28,1.04,0,1.9.59.13.09.46.26.56.18l.34-.25c.69.21,1.57.28,2.31.25.12.09.34.35.46.31l.55-.23.44.32c.2-.58.78-.28,1.25-.28l1.37-.45c.62.37,1.3.2,1.91-.15l.68-.16c-.11.03,2.29-.23,2.39-.13l.99-.05c-.45.6-.8,1.09-1.1,1.61l-.73,1.25.62.53c.21.18.82-.01,1.07-.15.11,0,.54.05.53-.08l-.04-.6.45-.09c.1-.02.15-.3.2-.43.41-.05.55-.36.77-.77l.5-.95c.13-.25.48-.64.68-.93-.19-.5-.69-.99-1.17-.92-2.67.42-.65.11-2.62,0-.41-.02-.86-.07-1.29.03l-.74.18c-.5-.41-1.42-.44-1.83,0l-.2.62c-.23-.18-.33-.28-.45-.34-.09-.05-.38.16-.48.16l-.83-.03c-.42-.01-.89.07-1.28.2l-.61-.24c-.13-.05-.43.36-.57.33l-1.35-.3c-.07-.02-.22-.3-.27-.26-.04.03-.14.13-.24.22l-.99-.62-.55.38c-.43-.48-.88-.73-1.37-.64l.08-.43c0-.05-1.42-.24-1.68-.85l-.64-1.5c-.12-.29-.21-1.12.03-1.4.02-.14-.06-.39.06-.46l.48-.27c.18-.28.39-.52.73-.53l.6-.9c.15.27.26.35.21-.06l.94-1.09c.26.15.45.22.53.1.1-.14.14-.25.11-.39-.03-.2.19-.56.4-.57.22,0,.57.02.94.04l-.4-.35,1.99-.68c.31-.11.73-.31,1.07-.45l.85.39c1.49-.2,2.27.7,2.97.17.1.1.42.47.63.44l.79-.11c.42.18,1,.35,1.51.37,1.71.07,2.06.44,4.76.34.9-.04,2.2-.05,2.89.35.39.22,1.09-.1,1.5-.05,2.03.24.47.12,2.68.13.52-.34,1.13-.56,1.82-.62,1.73-.16.86.64,2.25.24l.44.68.38-.5c-.1.26-.2.7-.06.69l.55-.06c.38.45,1.13.97,1.73.85-.04.16-.14.63,0,.62l.43-.02c.05.09.08.43.19.46l.39.13c-.08,1.24-.08.19.42,1.74.02.07.27-.01.4-.02l-.3,1c-.09.31-.76.6-1.02.82-.32.27-.87.3-1.25.47-.67.3-1.31.65-2.11.76l-.9.12-.69.09-.18-.4c-.04-.09-.29-.03-.4-.04-.45-.35-.93-.47-1.45-.16l-1.12-.31c-.07-.02-.28-.31-.34-.26l-.18.16-.44-.55-.27.52-1.51-.19c-.18-.02-.58.19-.7.29.04.05.27.2.22.22l-.28.14c-.06.03-.12-.06-.27-.22-.5.47-.77,1.2-.23,1.84.35.41.72.92.88,1.42l.42,1.29.34-.28c.04.15.12.52.25.51l.48-.03.53.64.32-.31s.22.09.28.1l.35.06c-.17-.03.48.86,1.74.65.26-.26.42-.37.78-.5l-.19-.59.25-.14s.04-.06,0-.07c-.81-.21-1.08-.9-2.13-1.27-.11-.09-.16-.47-.31-.48l-.78-.08-.14-1.03c-.02-.13.2-.34.33-.49l.23.49c.06-.07.42-.3.51-.19l.37.47.62-.19c.07.12.17.35.26.33l.29-.07.89.03c1.46.04,1.88.44,3.34-.13.8-.31,1.6-.62,2.29-.97.1.06.34.15.35.07,0-.06-.01-.28.04-.32l.92-.63c.06-.04.23.08.27.11l.53-.82.18.28s.14-.08.14-.12v-.24c-.01-.13.18-.36.26-.47-.15-.96.47-1.11.17-1.33ZM31.01,39.04c-.04.1-.37.04-.47-.01-.98-.52-.42.73-3.65.31l-1.18-.15c-.55-.07-.97.28-1.46-.09-.65-.49-1.58.08-2.24-.17-.38-.14-.79-.26-1.21-.31l-1.22-.13c-.56-.06-2.01.17-1.98.69-1.23-.13-2.76-.2-3.89-.84-.34-.19-.57-.5-1.01-.65-.34-.12-.74-.53-1.05-.78-.74-.59-1.45-1.22-1.86-2.09-.14-.29-.22-.4-.58-.45l.11-.83c-.51-.59-.67-1.32-.37-2.05l-.24-1.14c.22-.54.27-.96.29-1.5l.02-.73c0-.2.22-.6.21-.82l-.06-1.03-.05-.71c-.06.06.36-.22.35-.35l-.17-1.37.06-3.45c0-.09-.19-.31-.16-.39-.14.47.55-2.31.41-1.53l.34-1.87c.02-.12.91-3.15.89-3.52-.03-.89.18-1.53.68-2.25,1.05-1.52-.3-2.06-1.36-3.37l-1.3-.47.22-.51c.12-.29.12.46,1.34-.39,2.01-1.41,3.94-1.02,6.74-1.02.5,0,.94.32,1.29.6,1.51-.23,6.1-.13,7.22.29.19.07.2.56.34.72.36.42,1.26.1,1.43-.47l.34.63.48-.74s.27-.1.29-.06c.02.05.09.22.09.2,0-.02-.14.11-.26.21-.07.06.17.27.27.28.13.02.33-.09.53-.21.03.04.36.42.49.35s.36-.21.52-.32c.39.19.89.35,1.38.4l1.78.2c-.21.64.23,1.28.77,1.62-.11.44-1,3.27-.51,3.54-.12.44-.23.94-.24,1.41v1.13s.12,2.1.12,2.1c.04.57-.14,1.1-.21,1.65-.06.48-.08,1.04-.1,1.53,0,.16.14.53.02.63-.14.12-.39.46-.28.53l.52.32s-.11.12-.15.16c-.05.05.14.25.1.31l-.25.42c-.07.12.3.45.27.58-.6,2.78.07.92-.33,3.23-.21,1.2-.35,2.44-.43,3.68-.03.45.04.72-.28,1.12.07.37.16.95.27,1.35l.36,1.34c.14.5.02.86-.25,1.28-.05.27.11.83-.14.97-.49.27-.45,1.09-.65,1.72-.23.72-.47.14-.92,1.27Z"/>
        <path class="cls-1" d="M70.11,26.79c.08-.55.09-1.36-.04-1.85.01-.2.06-.33,0-.42l-.29-.42c-.02-.32-.14-.84-.27-1.17l-.42-1.04c.09-.14.31-.38.36-.56.15-.54-.81-.65-.82-1.57,0-.13-.1-.53-.22-.56l-.44-.1c.01-.23-.05-.65-.22-.77-.18-.13-.55-.13-.69-.08.04-.16.11-.48.14-.68.03-.18-.36-.47-.47-.63-.28-.42-.64-.87-1.04-1.26l-.56-.75c-1.28-.39-.34-1.57-2.42-1.8.46.09-1.28-.69-1.37-.73-.77-.35-3.05-.93-3.94-1.11-.1-.02-.36-.25-.42-.16l-.3.4-.43-.3c-.09-.06-.38.34-.49.33-.34-.03-.98-.21-1.4-.32-.46-.12-1.12.25-1.55.26-2.7.06-.74.23-2.9.56-.32-.53-2.56.47-3,.66-1.06.45-1.03.23-2.17.92-.07-.03-.3-.18-.34-.11l-.16.34c-.14.3-.31.47-.59.64l-.16.41c-.05.12-.74-.03-.83.19-.32.74.29.54-.91,1.23-.63.36-.97.37-.88.55l.18.36-1.7,1.93-.35.98c-.23.64.16,1.57-.31,2.23-.2.28-.2.53-.04.91l-.22.09c-.06.02.02.17.09.32.17.38-.17,1.02-.15,1.45.04.81.52,1.69.37,2.46l-.22,1.14c.27.19.33.63.48.8,1.06,1.2-.11,1.55.36,1.84l.34.2c1.07,2.1,4.43,3.77,6.71,4.24l1.94.4c-.31.7-.33,1.38-.27,1.93-1.33,1.21-.52,2.34-.93,2.49l-.43.16.39.29c.07.05.14.21.06.23l-.46.15c-.05.52-.25,1.29-.47,1.79l.33.24s0-.14.02-.18l.06-.2c.06-.09.13.36.07.47s-.38.1-.46.16c-.04.15-.09.53-.15.68-.72,1.65.49,1.63-.42,2.39.61.98-.54.82.04,1.88l.1.17s-.11.18-.13.14l-.2-.28c-.05.21-.07.69.05.88l.48.72c-.23.2-.52.41-.52.56l.2,1.04-.34-.45v.89s.07.22.09.18l.09-.18s-.02-.01.2-.17c.3.12-.65,1.79-.84,1.88-.63-.44-1.23-.17-1.76.1l-.41-.14c-.09-.03-.25.17-.33.23l-.78.53.39,1.2-.28.29c-.06.07.15.35.21.4.38-.53.73-.53,1.19-.65.57-.15,1.23-.25,1.88-.3.35-.03.84-.46,1.31-.21l1.06-.47c.61-.59.68-1.65.32-2.26-.19-.33-.35-.67-.5-.97l.52-.07s.5-.99-.34-1.47c.11-.04.43-.29.43-.42l.04-2.6-.72-.94c.37-.19.78-.38.96-.52.09-.07-.23-.43-.19-.54l.18-.49c-.19-.3-.37-.78-.03-1.09l-.22-.51.3-.2s-.1-.18-.1-.2c.17-.37.3-.75.34-1.15l.18-1.55c.06-.52.57-1.1.54-1.72-.07.04-.23.25-.27.2l-.21-.28c-.04-.06.15-.12.2-.17l.39-.36c.08-.07-.07-.21-.34-.36.23-.22.73-.92,1.1-.91l1.46.03h2.52c.59.01,1.12.23,1.77.08.57-.14,1.25-.12,1.85-.16l1.15-.08.96-.08-.2-.51.78.53c.07.05.18.25.24.21l.22-.14.31.33c.18.19.12-.34,1.25,0,1.2.36,1.53.85,1.88,1.92.04.11.44.33.4.44l-.13.39c.52,1.17-.34.46.45,1.68.16.25.36.65.6.77.18.09.61.09.71,0,.09-1.33,1.62-2.06,1.54-3.94-.03-.65.28-1.31.36-1.99l.21-1.64c.05-.39.43-1.02.53-1.45-.1-.13-.26-.27-.19-.3l.17-.09c.22-.12.37.66.67.43.28-.22.35-1.08.15-1.37l-.61-.13c.49-.18.76-.42,1.04-.83-.42-.27-.38-.3.13-.17v-1.65s.16-1.31.16-1.31c.02-.15-.29-.52-.26-.68ZM66.93,29.55c-.04.07.16.18.26.29.07.45-.13.92-.28,1.42-.46,1.49,0,1.12-.79,3.43-.13.39.03,1.09-.32,1.43-.17-.01-.53-.06-.57-.19-.04-.13-.12-.41-.18-.66-.36-.25-1.06-.77-1.48-.86l-1.33-.29c-.73-.16-.7.03-1.96-.29-.58-.15-1.32-.06-1.98-.11-.28-.02-.51.1-.88.1l-1.5-.02c.52,0-2.72.23-2.68.48l-.39-.34h-.65c-1.68.02-2.67-.38-4.65-.62-.39-.05-.94-.17-1.3-.31l-1.58-.62c-.58-.23-1.18-.6-1.69-.89-.32-.18-.64-.8-1.07-.99l-.63-1.2c-.03-.05-.19-.24-.23-.29-.04-.07.09-.2.11-.22-.64-.31-.61-1.31-.64-1.66-.02-.25-.14-.62-.1-.9.2-1.33-.42-.45-.09-2.59l.32-2.04c.03-.17.18-.44.16-.64-.06-.52.53-1,.66-1.43.17-.57.28-.91.82-1.2,1-1.02,1.21-1.61,2.4-2.12.67-.29,1.66-1.49,2.11-1.29l.68-.41c.55,0,.96-.26,1.48-.43.58-.19,1.35-.18,1.96-.32,1.28-.3,3.5-.37,4.92-.36.7,0,1.38.44,2.06.67.5.17.93.31,1.39.51.92.39,2.12.45,2.87,1.11.45.4.68,1.24,1.46,1.28,0,.82,1.05,1.1.94,1.24l-.17.22c.56.16,1.21.89,1.21.86v.62s.18-.44.18-.44l.3.91c.17.5.27,1.31.85,1.51.75.26.19,1.41.44,1.47l.41.08c-.35.61-.4,1.29-.18,2l.34,1.07c-.7.95-.2,1.65-1,3.04Z"/>
        <path class="cls-1" d="M58.02,53.16c-.52.09-.89.11-1.22.52l-1.32-.11c-1.14.49-1.08-.54-1.89-.03-.91-.8,0-3.92,0-4.15l.02-1.39.29-1.43.11-.54-.77-.68c1.04-.36.93-1.17,1.07-1.88.13-.64.61-1.31.25-2.06l.35-.85c.05-.13.09-.49-.02-.56l-.45-.27c.81,0,.55-1.37.31-1.88l-.4.54-.17-.48-.53,2.06c-.07.27,0,.88-.15,1.1-.61.87-.55,1.72-.5,2.69l-.39,1.46c-.08.31-.15.56-.2.83l-.53,2.71c-.11.58-.29.92-.47,1.54l-.46,1.57c-.07.24.01.81-.05,1.05-.08.34-.18.75.06.93.13-.45.17-.46.31-.14-.21.53-.41,1.23-.14,1.7.23.02.38,0,.41.09l.12.34c.27-.05.53-.07.81-.08l1.48-.06.21.29c.05.07.29-.04.37-.07l.94-.42,1.69-.19c1-.11,1.97-.82,1.97-1.6,0-.52-.76-.63-1.1-.57Z"/>
        <path class="cls-1" d="M37.93,4.44s.02.05-.05.08l-.36.17c.27.25.67.53,1.06.77l.57.36c.13.08.51-.27.64-.36l.61-.44c-.07-1.05-.44-2.11-.7-3.16-.15-.61-.12-1.43-.73-1.82l-.51.26c-.95.09-1.18.79-1.35,1.69-.11.56,0,2.32.82,2.45Z"/>
        <path class="cls-1" d="M45.14,5.39l1.11-.55c.09.28.07-.09.01-.14l-.29-.24.55-.9h.35s0-.16-.04-.18l-.29-.14.66-.08.55-1.64c.2-.61.18-1.13-.35-1.54l-.08.58-.38-.44-1.76,1.85c-.05.05-.05.4-.11.41l-.27.03c-.2.88-.67,1.67-1.36,2.25l.18,1.25c.47-.11,1.02-.3,1.51-.55Z"/>
        <path class="cls-1" d="M47.19,8.87c-.08.14.26.48.41.42l.64-.25c1.59-.63,3.02-1.51,4.31-2.66l.08-1.12c-.17.16-.22.33-.27.29l-.37-.27-1.28.54c-.4.17-.68.35-1.01.63-.27.23-1,.31-1.29.49-.15.09-.4.47-.6.56-.66.28-.03.37-.62,1.37Z"/>
        <path class="cls-1" d="M21.21,10.8c-1.76,1.14-.95.81-1.41,1.37-.37.44-.61.86-.77,1.51.02.05.34.2.49.24.5.13.43-.64,1.34-1.13.39-.08.68-.22.82-.42l.46.27c.07.04.2-.1.3-.16l.69,1.88c.04.12.42.37.49.27l.21-.32c.21-.2.59-.58.59-.86,0-.9-.29-1.67-.89-2.17-.59-.5-1.56-.76-2.32-.48Z"/>
        <path class="cls-1" d="M27.61,11.36c-.61.02-1.12.66-1.52,1.07-.65.66-.91,1.76-.69,2,.11.12.58-.01.7-.15l.85-.98.88-.2c.45-.11,1.22,1.4,1.83,1.65.7-.46.65-1.11.36-1.81-.37-.88-1.35-1.62-2.4-1.58Z"/>
        <path class="cls-1" d="M45.5,17.48c-.27-.08-.82-.02-.92.2-.21.48-.88,2.25-.63,2.87l.4.99.73-.26.44-.97c.22-.48.45-1.08.62-1.59.12-.33-.31-1.13-.65-1.24Z"/>
        <path class="cls-1" d="M47.17,18.75l-.39,1.66c-.06.26-.14.7-.04.92.1.2.56.2,1,.21.32-.56.64-1.17.76-1.8l.36-1.88c-.78-.29-1.52.13-1.7.89Z"/>
      </g>
      <g>
        <path class="cls-2" d="M95.06,34.42c0,.17-.05.31-.14.43-.09.12-.17.24-.21.36-.12.02-.24.04-.36.05-.12.01-.24,0-.36-.02-.09,0-.18-.02-.27-.05-.08-.04-.17-.08-.27-.12-.12-.02-.22-.04-.3-.05s-.16-.05-.23-.12c-.14.07-.27.09-.39.07s-.25-.01-.39.04c-.07.05-.15.08-.23.11-.08.02-.16.06-.23.11-.12.02-.2.06-.23.11-.04.05-.11.07-.23.07-.31,0-.54-.1-.68-.29s-.36-.32-.64-.39c-.12-.14-.25-.28-.39-.41s-.31-.26-.5-.37c-.05-.05-.08-.11-.09-.18s-.04-.13-.09-.18c-.36-.33-.67-.62-.93-.87s-.51-.48-.75-.7c-.17-.19-.33-.37-.48-.54s-.3-.37-.45-.61c-.07-.07-.15-.13-.23-.18s-.1-.13-.05-.25c-.12,0-.21-.04-.27-.12-.06-.08-.14-.16-.23-.23-.12-.14-.23-.24-.32-.3-.1-.06-.13-.15-.11-.27-.26-.09-.46-.24-.59-.45-.13-.2-.31-.36-.55-.48-.02-.09-.05-.17-.09-.21-.04-.05-.08-.13-.12-.25-.12-.02-.21-.07-.27-.14-.06-.07-.17-.12-.34-.14,0-.12-.04-.2-.12-.25-.08-.05-.15-.09-.2-.14-.05-.05-.11-.11-.18-.18-.07-.07-.14-.12-.21-.14-.1.07-.13.17-.11.29.02.12.04.24.04.36-.05.31-.06.55-.04.71.02.17-.04.29-.18.36.05.33.09.7.12,1.11.04.4.04.84.02,1.32-.05.21-.05.38-.02.48.04.11.05.2.05.27-.05.19-.05.32-.02.39.04.07.05.12.05.14,0,.17.02.29.05.36.04.07.05.12.05.14,0,.17.02.29.05.38s.07.16.09.23c-.05.12-.11.21-.18.27-.07.06-.13.15-.18.27,0,.14.04.24.11.29.07.05.13.09.18.14.1.26.1.49,0,.7-.09.2-.24.36-.43.48-.4,0-.73-.07-.96-.21-.24-.14-.5-.26-.79-.36h-1.11c-.33,0-.69-.04-1.07-.11-.05-.12-.11-.22-.18-.3-.07-.08-.08-.22-.04-.41.02-.07.03-.14.02-.21-.01-.07-.02-.17-.02-.29.05-.17.05-.28.02-.34s-.05-.11-.05-.16c-.07-.4-.08-.77-.04-1.09.05-.32.1-.68.14-1.09.02-.26.02-.46,0-.59s-.05-.25-.07-.38c0-.12,0-.24.02-.36s.02-.24.02-.36c-.02-.14-.02-.26.02-.34.04-.08.05-.15.05-.2,0-.1-.03-.19-.07-.29-.05-.09-.08-.2-.11-.32,0-.09,0-.2-.02-.32s-.02-.23-.02-.32c0-.19,0-.38-.02-.55-.01-.18-.02-.35-.02-.52,0-.29.01-.62.04-1,.02-.38.02-.75,0-1.11-.05-.17-.07-.29-.05-.36.01-.07.02-.14.02-.21,0-.14-.02-.33-.05-.57-.04-.24,0-.42.12-.54.02-.07.02-.14-.02-.21-.04-.07-.05-.14-.05-.21-.02-.09-.02-.21,0-.34s.05-.25.07-.38c0-.07,0-.15-.02-.23s0-.16.02-.23c-.02-.19-.01-.34.04-.46.05-.12.08-.26.11-.43,0-.12-.01-.23-.04-.32-.02-.09-.04-.2-.04-.32,0-.07.01-.15.04-.25.02-.09.04-.18.04-.25.05-.24.07-.43.07-.57,0-.12-.02-.23-.05-.34-.04-.11-.05-.22-.05-.34.05-.19.07-.33.07-.43-.05-.26-.07-.44-.07-.54v-.25s-.06-.11-.11-.2c-.05-.08-.07-.17-.07-.27.05-.12.06-.29.05-.52-.01-.23-.04-.36-.09-.41v-.66c0-.15,0-.3.02-.43.01-.13.02-.22.02-.27,0-.24,0-.47.02-.7.01-.23.02-.46.02-.7-.02-.24-.07-.47-.12-.7-.06-.23-.09-.46-.09-.7,0-.14.02-.29.05-.45.04-.15.06-.3.09-.45,0-.21-.02-.36-.05-.45-.04-.08-.05-.15-.05-.2-.03-.09-.04-.2-.04-.3v-.34c-.02-.12-.05-.22-.07-.3s-.04-.17-.04-.27c.05-.21.06-.4.04-.55-.02-.15-.01-.29.04-.41-.05-.09-.11-.11-.2-.04-.08.07-.15.06-.2-.04-.12-.31-.14-.51-.05-.61.08-.09.1-.25.05-.46.19-.05.38-.08.55-.11.18-.02.36.02.55.14.19-.07.38-.14.57-.2.19-.06.42-.07.68-.02.05-.02.1-.05.16-.07.06-.02.12-.06.2-.11.33.05.63.08.89.09.26.01.6.02,1,.02.09.05.17.12.21.21.05.09.11.18.18.25-.05.17-.06.32-.04.45.02.13.05.29.07.48.05.19.07.38.07.57-.1.26-.14.48-.14.66v.41c-.05.55-.05,1-.02,1.36.04.36.08.71.12,1.07.05.12.08.29.09.52.01.23.02.43.02.62,0,.14-.02.28-.05.41s-.04.26-.02.38c.02.24.09.48.2.71.11.24.1.45-.02.64.07.17.14.37.21.61.07.24.05.45-.07.64.12.26.16.41.12.45-.04.04-.05.08-.05.12.12.14.15.36.11.64-.05.29-.08.55-.11.79.05.19.06.32.04.38s-.04.11-.04.16c0,.12.03.24.09.38.06.13.07.27.02.41.17-.07.31-.2.43-.39.24-.19.45-.39.62-.59.18-.2.35-.41.52-.62.19-.12.33-.22.41-.3.08-.08.15-.15.2-.2.14-.17.24-.26.3-.29s.11-.06.16-.11c.07-.05.12-.09.16-.12.04-.04.12-.05.27-.05.24-.14.4-.27.48-.38s.21-.16.38-.16c.05-.19.12-.32.23-.39s.18-.18.23-.32c.05-.05.09-.09.14-.12.05-.04.12-.05.21-.05.1-.12.22-.25.38-.39s.31-.31.48-.5c.19-.19.32-.34.39-.45.07-.11.15-.2.25-.27.17-.12.26-.2.29-.25.02-.05.06-.09.11-.14.12-.12.29-.24.5-.38.21-.13.45-.08.71.16.19-.05.4-.04.62.04s.43.13.62.18c.17.05.33.08.48.11.15.02.27.11.34.25.4-.17.84-.15,1.32.04.05.12.1.24.16.38.06.13.07.33.02.59-.07.05-.14.11-.2.2-.06.08-.17.12-.34.12-.07.05-.13.11-.18.2-.05.08-.11.15-.18.2-.14.07-.25.15-.32.23-.07.08-.14.16-.21.23-.05.05-.12.09-.21.12s-.19.09-.29.16c-.14.14-.23.24-.27.29s-.07.08-.09.11c-.12.14-.21.22-.29.23-.07.01-.11.03-.11.05-.12.24-.25.45-.39.62s-.32.3-.54.38c-.09.12-.19.24-.29.37-.1.13-.2.23-.32.3-.05.05-.11.09-.18.12s-.13.11-.18.23c-.21.26-.41.44-.59.54-.18.1-.3.24-.38.43-.17.19-.33.32-.48.39s-.29.17-.41.29c-.12.26-.29.48-.5.64-.21.17-.4.34-.57.54-.26.09-.4.2-.43.3-.02.11-.07.22-.14.34-.05.07-.12.14-.21.2-.1.06-.18.12-.25.2-.07.05-.12.11-.16.18s-.09.13-.16.18c.09.29.24.51.43.68.19.17.34.38.46.64.21.19.44.36.68.5.24.14.47.32.71.54.19.1.36.21.5.36.09.09.17.2.23.32.06.12.14.23.23.32.07.12.15.22.23.3.08.08.15.18.2.3.19.12.36.25.5.39.14.14.29.3.43.46.12.1.24.21.36.34.12.13.21.28.29.45.21.1.4.22.55.38.15.16.3.32.45.48.14.17.29.33.43.5s.32.3.54.39c.05.24.14.42.29.54s.3.25.46.39c.02.17.07.32.14.45.07.13.13.27.18.41.26.17.44.33.54.48s.23.26.39.3c.02.17.11.29.25.36-.02.12-.03.21-.02.27.01.06.03.12.05.2.05.12.1.21.16.29.06.07.1.17.12.29Z"/>
        <path class="cls-2" d="M116.87,13.76c0,.07-.03.17-.09.29-.06.12-.09.23-.09.32.02.17.03.27.02.32-.01.05-.02.09-.02.14.02.12.02.2,0,.25-.03.05-.03.09,0,.14.02.14.02.25-.02.32-.04.07-.05.13-.05.18-.02.07-.02.15,0,.23.02.08.04.16.04.23-.05.19-.08.34-.09.45-.01.11-.03.18-.05.23,0,.12,0,.25-.02.39-.01.14,0,.3.02.46,0,.05.02.11.05.18.04.07.05.14.05.21.02.26.02.54-.02.82s-.04.56-.02.82c0,.12.01.23.04.32.02.1.02.2,0,.32,0,.17-.02.32-.07.46-.05.14-.08.31-.11.5.02.14.02.3,0,.48-.03.18,0,.33.07.45-.05.17-.11.31-.18.43.05.33.04.65-.02.96-.06.31-.09.63-.09.96.02.12.05.23.07.34.02.11.04.22.04.34,0,.05-.01.11-.04.18-.03.07-.04.14-.04.21.05.21.05.37.02.46-.04.1-.06.17-.09.21-.03.26-.04.47-.04.62s-.06.33-.18.52c-.07.12-.08.3-.04.55.05.25.01.46-.11.62.05.14.06.27.05.39-.01.12-.02.27-.02.46.02.33.02.57-.02.7s-.05.26-.05.37c-.02.29-.01.55.04.8.05.25.08.49.11.73-.1.24-.07.44.07.61.14.17.21.34.21.54-.05.12-.08.22-.11.3s-.04.14-.04.16c-.12.05-.23.1-.32.16-.1.06-.19.1-.29.12-.07,0-.14-.01-.21-.04-.07-.02-.16-.04-.25-.04-.1-.02-.21-.02-.34.02-.13.04-.26.05-.38.05-.12.02-.26.03-.41.02s-.29,0-.41.05c-.14.02-.28.07-.41.14s-.26.11-.38.11c-.17.17-.31.24-.43.23s-.2,0-.25.02c-.14-.12-.26-.31-.36-.57-.1-.26-.07-.46.07-.61-.12-.31-.14-.65-.07-1.04.07-.38.07-.76,0-1.14-.19.07-.36.17-.52.29-.16.12-.3.25-.45.39-.07.05-.13.11-.18.2-.05.08-.12.15-.21.2-.09.05-.2.1-.32.14-.12.05-.2.11-.25.18-.12.05-.24.07-.38.07s-.26.02-.38.07c-.17.05-.33.09-.5.12-.17.04-.36.08-.57.12-.14.05-.33.11-.57.18-.24.07-.49.08-.75.04-.19-.05-.31-.05-.37-.02-.06.04-.12.05-.2.05-.19.05-.39.02-.61-.07-.05.09-.16.12-.34.07s-.32-.09-.41-.14c-.19.07-.37.08-.54.04s-.35-.08-.54-.11c-.12,0-.19-.04-.2-.11s-.06-.12-.16-.14c-.52.02-1.08-.04-1.68-.18-.05-.09-.11-.17-.2-.21s-.14-.13-.16-.25c-.12.02-.2,0-.23-.07s-.11-.11-.23-.11c-.05-.12-.11-.21-.2-.27-.08-.06-.15-.12-.2-.2-.12,0-.21-.02-.27-.07-.06-.05-.15-.07-.27-.07-.14-.19-.23-.3-.25-.32-.02-.02-.05-.05-.07-.07-.12-.09-.21-.14-.27-.14s-.1-.01-.12-.04c-.12-.12-.21-.21-.29-.29-.07-.07-.14-.15-.21-.25-.14-.19-.26-.31-.36-.37-.09-.06-.13-.17-.11-.34-.21-.14-.35-.24-.41-.3-.06-.06-.11-.12-.16-.2-.09-.12-.15-.24-.18-.36s-.08-.2-.18-.25c-.17-.26-.3-.47-.39-.62-.1-.16-.23-.26-.39-.3.05-.12.05-.19,0-.21-.05-.02-.06-.08-.04-.18-.19-.17-.33-.37-.43-.61-.1-.24-.18-.49-.25-.77-.07-.27-.13-.55-.18-.82-.05-.27-.12-.54-.21-.8.02-.33.04-.68.04-1.05s.06-.7.18-.98c.07-.17.11-.31.11-.43s.01-.24.04-.36c.02-.12.04-.23.05-.34.01-.11.03-.22.05-.34.07-.38.14-.67.2-.86.06-.19.15-.36.27-.5-.05-.17-.05-.32,0-.45.05-.13.11-.25.18-.36.07-.11.14-.22.21-.34.07-.12.11-.25.11-.39.12-.09.21-.21.27-.34s.14-.26.23-.38c.05-.09.11-.2.18-.32.07-.12.14-.24.21-.36.05-.07.11-.14.2-.21.08-.07.11-.17.09-.29.07-.05.13-.09.18-.14.05-.05.13-.09.25-.14.19-.29.35-.54.46-.77.12-.23.26-.43.43-.62.1-.09.18-.17.27-.23.08-.06.17-.12.27-.2.05-.12.14-.2.27-.23.13-.04.21-.11.23-.23.24-.05.47-.1.71-.16s.45-.16.64-.3c.14-.02.29-.04.45-.05s.29-.07.41-.16c.24.05.43.03.57-.05.14-.08.27-.17.39-.27.38,0,.74,0,1.09-.02.34-.01.72,0,1.12.02.19,0,.38-.01.55-.04.18-.02.34-.02.48,0h.32c.09,0,.18.04.25.11.21-.09.41-.08.61.04.05.02.11.03.18.02.07-.01.17,0,.29.05.24.07.4.11.48.11h.2l.36.18s.13.08.25.18c.31.19.55.33.73.41.18.08.35.18.52.3.12.14.2.23.25.25.05.02.09.06.14.11.05.05.09.1.14.16.05.06.11.12.18.2.05.09.12.18.21.25.09.07.19.16.29.25.05.05.09.11.12.18.04.07.09.13.16.18.05.05.12.11.23.2.11.08.16.18.16.3.09-.33.12-.68.07-1.05-.05-.37-.12-.68-.21-.95-.07-.14-.14-.26-.21-.34-.07-.08-.07-.23,0-.45.02-.09.08-.2.16-.32.08-.12.15-.2.2-.25,0,.02.08.04.25.05.17.01.31.02.43.02.12.02.22.04.3.05.08.01.17.02.27.02.26,0,.58.01.96.04.38.02.7.08.96.18.19-.05.34-.04.46.02.12.06.25.11.39.16.02.1.03.17.02.23s0,.14.02.23l.04.36ZM111.7,22.32c-.05-.07-.08-.17-.09-.3-.01-.13-.02-.25-.02-.37-.05-.07-.1-.12-.16-.16-.06-.04-.11-.08-.16-.12,0-.19-.03-.34-.09-.46-.06-.12-.1-.24-.12-.36.05-.19.04-.33-.02-.41-.06-.08-.1-.17-.12-.27-.05-.12-.07-.24-.07-.38s-.01-.27-.04-.41c-.12-.07-.19-.14-.21-.21-.03-.07-.06-.13-.11-.18-.19-.19-.33-.33-.43-.43-.09-.09-.19-.19-.29-.29-.21-.21-.44-.37-.68-.46-.19-.12-.37-.22-.54-.3s-.32-.16-.46-.23-.29-.11-.43-.11-.31-.02-.5-.07c-.12-.05-.21-.09-.29-.12s-.14-.07-.21-.09c-.05,0-.12,0-.21.02-.09.01-.19,0-.29-.02-.07,0-.15-.02-.23-.05-.08-.04-.15-.05-.2-.05-.24.05-.42.04-.54-.02-.12-.06-.2-.06-.25-.02-.24.02-.4.07-.48.14-.08.07-.21.16-.37.25-.21.1-.35.16-.41.2-.06.04-.11.07-.16.09-.24.12-.4.21-.5.29-.1.07-.18.13-.25.18-.17.07-.26.12-.29.16-.02.04-.06.05-.11.05-.05.07-.1.13-.14.18-.05.05-.1.11-.14.18-.14.12-.26.22-.36.3-.1.08-.17.15-.21.2-.14.14-.31.25-.5.32-.02.26-.11.46-.25.59-.14.13-.21.33-.21.59-.1.12-.17.23-.21.34-.05.11-.09.22-.14.34-.05.14-.08.29-.09.45-.01.16-.04.33-.09.52-.05.14-.1.26-.14.36-.05.1-.08.2-.11.32.05.33.04.58-.02.73-.06.16-.1.33-.12.52,0,.1.02.19.05.29.04.1.05.2.05.32,0,.19-.01.33-.04.41-.03.08-.04.15-.04.2.02.17.08.32.16.46.08.14.1.31.05.5.17.12.32.24.46.36.14.12.31.23.5.32.17.29.37.52.61.71.24.19.46.38.68.57.21.24.45.41.71.5.21.12.39.2.52.23.13.04.26.07.38.09.07.02.16.05.27.09s.18.07.23.09c.4.05.77.11,1.11.2.33.08.63.12.89.12.07.02.15.03.25.02.09-.01.18-.03.25-.05h.3c.11,0,.2-.01.27-.04.19-.09.31-.14.36-.14s.1-.01.14-.04c.07-.02.15-.06.25-.11.1-.05.19-.02.29.07.07-.14.17-.26.3-.36.13-.1.26-.18.38-.27.12-.08.23-.18.34-.3s.17-.27.2-.46c.12-.19.22-.33.32-.41s.18-.17.25-.27c.05-.07.09-.16.12-.27.04-.11.08-.18.12-.23.12-.19.21-.35.27-.48.06-.13.15-.26.27-.38-.05-.12-.04-.23.02-.34.06-.11.11-.21.16-.3.12-.33.2-.65.25-.95.05-.3.07-.65.07-1.05.12-.17.21-.33.29-.5Z"/>
        <path class="cls-2" d="M139.82,6.7c.02.07,0,.15-.05.23-.06.08-.08.15-.05.2-.1.36-.11.71-.05,1.07.06.36,0,.64-.2.86.09.12.11.26.05.41-.06.16-.1.32-.12.48-.05.26-.05.53,0,.8.05.27.01.51-.11.7.05.07.08.16.09.25s.04.17.09.21c-.05.24-.07.47-.05.7.01.23,0,.48-.05.77-.02.14-.03.28-.02.41.01.13.02.28.02.45-.05.26-.05.45-.02.57.04.12.05.23.05.32-.05.33-.05.59-.02.77s.05.34.05.48c0,.17,0,.35-.02.54-.01.19-.02.35-.02.46-.02.19-.02.36.02.5.04.14.07.27.09.39,0,.12,0,.27.02.45.01.18.02.33.02.45-.05.29-.06.53-.04.73s.06.39.11.55c0,.1-.02.17-.05.23-.04.06-.05.12-.05.2.1.26.15.47.16.62.01.16.02.28.02.38-.03.19-.03.31,0,.36.02.05.04.11.04.18.05.45.05.89.02,1.3s-.08.84-.12,1.27c0,.12-.02.22-.05.3-.04.08-.05.16-.05.23,0,.21.04.47.11.77.07.3.05.58-.07.84-.05.1-.06.18-.04.25s.04.18.04.32c-.02.12-.04.21-.05.27s0,.16.02.3c.05.02.06.1.04.21-.02.12-.04.21-.04.29,0,.09.02.18.07.27.05.08.07.17.07.27,0,.12-.02.25-.07.39-.05.14-.08.27-.11.39.05.19.05.31.02.36-.04.05-.04.1-.02.14.02.12.02.33,0,.62-.02.3-.04.5-.04.62-.03.29,0,.58.07.87.07.3.06.59-.04.87-.17.12-.32.2-.46.25s-.34.02-.61-.07c-.07-.05-.17-.1-.3-.16-.13-.06-.27-.09-.41-.09-.19-.02-.39,0-.61.07-.21.07-.38.09-.5.07-.07-.02-.14-.07-.21-.14-.07-.07-.14-.08-.21-.04.05-.19.04-.32-.04-.38-.07-.06-.13-.15-.18-.27-.02-.12-.02-.21.02-.27.04-.06.05-.11.05-.16-.1-.17-.12-.33-.09-.48.04-.15,0-.3-.12-.45-.12-.02-.21-.02-.27.02-.06.04-.12.08-.2.12-.29.09-.54.22-.75.37-.21.16-.42.33-.61.52-.14.05-.26.07-.36.07s-.2.06-.32.18c-.14.05-.28.08-.41.09-.13.01-.23.05-.3.12-.21-.02-.45.01-.7.11s-.49.13-.73.11c-.07,0-.16,0-.27-.02-.11-.01-.18-.07-.23-.16-.26.19-.59.3-1,.32s-.75.11-1.04.25c-.12,0-.2-.02-.25-.05-.05-.04-.12-.05-.21-.05-.12,0-.19.02-.21.05-.02.04-.13.05-.32.05-.14-.02-.29-.05-.43-.09s-.27-.08-.39-.12c-.12-.02-.24-.04-.37-.05-.13-.01-.26-.02-.38-.02s-.22.01-.3.04c-.08.02-.17.04-.27.04-.09-.02-.2-.05-.32-.07-.12-.02-.24-.05-.36-.07-.14.02-.29.02-.45,0-.15-.02-.27-.05-.34-.07-.07-.05-.13-.09-.18-.12s-.1-.08-.14-.12c-.26-.12-.48-.23-.64-.34s-.34-.18-.54-.23c-.05-.07-.1-.13-.14-.18s-.1-.11-.14-.18c-.07-.05-.11-.11-.12-.18-.01-.07-.04-.13-.09-.18-.09-.09-.2-.18-.3-.25s-.22-.18-.34-.32c-.12-.19-.22-.31-.3-.37s-.16-.12-.23-.2c-.05-.05-.1-.11-.14-.2-.05-.08-.09-.16-.14-.23-.05-.05-.12-.09-.21-.12-.1-.04-.18-.09-.25-.16-.05-.12-.09-.2-.12-.25-.04-.05-.11-.09-.23-.14-.05-.19-.14-.34-.27-.46s-.23-.27-.3-.46c-.02-.07-.03-.15-.02-.25.01-.09,0-.19-.02-.29-.05-.29-.14-.55-.29-.8-.14-.25-.22-.52-.25-.8,0-.12.02-.25.07-.39s.07-.26.07-.36c-.05-.31-.07-.54-.07-.68s.01-.27.04-.39v-.75c.02-.12.05-.23.07-.34.02-.11.05-.22.07-.34.05-.24.09-.46.12-.68.04-.21.11-.42.23-.61-.02-.14-.03-.3-.02-.46.01-.17.03-.32.05-.46.02-.14.07-.27.14-.39.07-.12.14-.25.21-.39.05-.07.08-.16.11-.25s.06-.18.11-.25c.12-.26.22-.5.3-.73.08-.23.18-.41.3-.55.07-.09.15-.25.25-.46.05-.19.15-.38.3-.55.16-.18.32-.33.48-.45,0-.07,0-.14.02-.21s.02-.13.02-.18c.1-.05.18-.1.25-.16.07-.06.14-.12.21-.2.12-.14.2-.23.25-.25.05-.02.09-.06.14-.11.17-.19.3-.32.39-.38.09-.06.18-.14.25-.23.07-.14.13-.22.18-.23.05-.01.08-.03.11-.05.21-.19.31-.29.29-.29.14-.12.24-.18.29-.2.05-.01.1-.03.14-.05.1-.12.19-.18.29-.18s.18-.02.25-.07c.12-.05.21-.07.27-.07s.11-.01.16-.04c.19-.07.31-.11.36-.11s.1-.01.14-.04c.12-.07.28-.13.48-.18.2-.05.39-.09.55-.14.07-.02.13-.05.18-.09.05-.04.11-.07.18-.09.17-.05.34-.07.52-.07s.33-.06.45-.18c.17-.07.3-.09.41-.05.11.04.22,0,.34-.09.29.05.49.07.61.07h.36c.36-.09.67-.09.95,0,.27.1.54.2.8.32.19.05.36.11.52.2.15.08.29.2.41.34.26,0,.48.05.66.14s.36.2.55.32c.14.07.26.14.34.21.08.07.15.13.2.18.14.07.25.14.32.2.07.06.13.11.18.16.07.05.15.12.23.21.08.1.18.13.3.11.14-.1.21-.21.2-.34-.01-.13,0-.27.02-.41.02-.09.05-.18.07-.25.02-.07.05-.15.07-.25v-.23c0-.08.01-.16.04-.23.05-.07.09-.15.12-.25.04-.09.06-.18.09-.25.02-.17,0-.33-.05-.48-.06-.15-.02-.29.12-.41-.07-.21-.1-.41-.07-.59.02-.18.05-.4.07-.66.02-.09.05-.2.07-.3.02-.11.02-.2,0-.27,0-.07-.01-.14-.04-.2-.02-.06-.05-.14-.07-.23.02-.05.02-.15,0-.3-.02-.15-.01-.29.04-.41.07-.12.1-.22.07-.3-.03-.08-.03-.15,0-.2.07-.29.09-.52.05-.71s0-.36.12-.5c-.1-.19-.12-.41-.07-.66.05-.25.14-.43.29-.55.33-.05.68-.08,1.03-.09.36-.01.71-.03,1.07-.05.07-.05.23-.07.46-.05.24.01.4.04.5.09.09.02.21.08.34.18.13.1.23.19.3.29ZM135.14,21.58c-.05-.12-.1-.22-.16-.3-.06-.08-.09-.2-.09-.34-.12-.07-.19-.18-.21-.32s-.06-.26-.11-.36c-.12-.17-.2-.27-.25-.3-.05-.04-.08-.07-.11-.09-.09-.19-.14-.33-.14-.43-.19-.07-.33-.19-.43-.36-.1-.17-.21-.31-.36-.43-.17.02-.29-.02-.37-.12-.08-.11-.19-.18-.3-.23-.12-.07-.26-.12-.41-.14-.15-.02-.28-.09-.38-.21-.33-.05-.61-.14-.84-.29-.23-.14-.53-.23-.91-.25-.14-.02-.25-.07-.32-.14-.05-.02-.07-.05-.07-.07-.21-.05-.37-.05-.46-.02-.1.04-.24.07-.43.09-.12,0-.23,0-.34-.02-.11-.01-.19-.02-.23-.02-.19.07-.33.11-.43.12-.1.01-.17.03-.21.05-.07.02-.15.07-.25.12-.09.06-.17.1-.21.12-.17.02-.28.05-.34.09-.06.04-.11.08-.16.12-.36.21-.74.38-1.14.5-.07.14-.17.26-.29.34-.12.08-.2.22-.25.41-.17.05-.3.14-.39.27-.09.13-.25.21-.46.23-.05.19-.12.36-.23.52-.11.16-.2.33-.27.52-.07.26-.14.47-.2.62-.06.16-.09.33-.09.52-.19.26-.3.47-.32.62-.03.16-.1.26-.21.3.12.17.16.3.12.41s-.08.24-.12.41c-.07.31-.1.54-.07.68.02.14.04.31.04.5,0,.17-.02.32-.05.46-.04.14-.03.27.02.39.02.29.09.51.21.68.12.17.15.36.11.57.17.17.25.38.25.64.26.14.45.31.57.5.19.05.35.13.48.25s.3.19.52.21c.12.1.21.21.29.36.17.02.31.07.43.14.12.07.24.13.36.18.14.1.24.14.3.14s.11.01.16.04c.1.07.17.09.23.07.06-.02.11-.02.16,0,.17.07.35.11.54.11h.46c.19.02.36.05.52.07.15.02.31.04.48.04.21-.02.45-.08.71-.18.24-.05.4-.08.5-.11.1-.02.17-.04.21-.04.17-.02.31-.02.43,0,.12.02.24.01.36-.04s.2-.11.25-.18c.05-.07.12-.13.21-.18.17-.05.26-.09.29-.12.02-.04.05-.06.07-.09.17-.07.28-.14.34-.2.06-.06.11-.1.16-.12.17-.07.26-.14.27-.2.01-.06.04-.1.09-.12.07-.07.13-.12.18-.16.05-.04.09-.08.14-.12.07-.09.14-.18.2-.27.06-.08.11-.15.16-.2.09-.05.17-.11.21-.18.05-.07.1-.14.14-.21.17-.21.32-.43.46-.66.14-.23.26-.45.36-.66.12-.33.21-.56.27-.68.06-.12.11-.24.16-.36-.03-.12-.01-.23.04-.32.02-.05.05-.08.07-.11.05-.07.07-.15.07-.25v-.32c0-.33,0-.62.02-.87.01-.25.02-.47.02-.66,0-.12.01-.2.04-.23.02-.04.01-.09-.04-.16Z"/>
        <path class="cls-2" d="M160.66,24.29c.02.52.04.98.05,1.37s-.02.76-.09,1.09c-.07.26-.11.45-.11.55s-.01.2-.04.27c-.1.38-.14.69-.12.93.01.24,0,.45-.02.64-.03.19-.05.39-.09.59s-.05.4-.05.59c0,.12,0,.23.02.32.01.1.02.2.02.32.02.31,0,.61-.07.89-.07.29-.08.56-.04.82.05.19.13.37.25.54.12.17.15.34.11.54-.05.17-.19.32-.43.45-.24.13-.49.2-.75.2-.05,0-.1,0-.16-.02-.06-.01-.14-.03-.23-.05-.55.02-1.05-.03-1.5-.16-.45-.13-.89-.26-1.32-.37-.07-.12-.15-.23-.23-.32-.08-.09-.17-.19-.27-.29.02-.21.02-.42-.02-.62-.04-.2-.02-.45.05-.73.14-.4.18-.67.11-.79,0-.09.04-.23.11-.39.07-.17.14-.27.21-.32-.14-.17-.17-.34-.07-.54.09-.19.14-.37.14-.54.02-.17.02-.31,0-.43s-.01-.27.04-.46.07-.32.07-.38v-.16c.05-.31.08-.54.09-.7.01-.15.03-.29.05-.41,0-.09.02-.18.05-.25s.05-.14.05-.21c-.03-.31-.01-.55.04-.73.05-.18.02-.34-.07-.48.07-.07.11-.17.11-.3s.02-.25.07-.37c.05-.07.09-.17.12-.3.04-.13.05-.25.05-.38,0-.5.01-.96.04-1.39.02-.43.01-.83-.04-1.21,0-.09-.02-.18-.05-.27-.04-.08-.07-.17-.09-.27-.02-.19-.02-.31,0-.36s.02-.09,0-.14c0-.07-.01-.16-.04-.25-.03-.09-.04-.18-.04-.25-.02-.09-.04-.2-.04-.3s-.01-.2-.04-.27c-.02-.12-.07-.22-.12-.3-.06-.08-.1-.17-.12-.27-.05-.14-.07-.27-.05-.38.01-.11,0-.22-.05-.34-.05-.05-.11-.09-.18-.14-.07-.05-.14-.11-.21-.18-.07-.05-.13-.09-.18-.14-.05-.05-.11-.09-.18-.14-.19-.14-.36-.28-.52-.41-.16-.13-.41-.17-.77-.12-.4.07-.74.11-1.02.12s-.54.03-.8.05c-.43.02-.77.07-1.04.14-.33.09-.55.2-.66.3-.11.11-.22.22-.34.34-.07.05-.14.1-.2.14-.06.05-.11.1-.16.14-.07.05-.13.1-.18.16-.05.06-.11.1-.18.12-.05.1-.09.2-.12.3-.04.11-.11.16-.23.16-.05.26-.13.49-.25.7-.12.2-.23.4-.32.59-.12.26-.21.46-.27.61-.06.14-.11.27-.16.39-.05.12-.09.28-.12.48-.04.2-.08.4-.12.59-.1.36-.15.62-.16.8-.01.18-.08.33-.2.45.07.71.06,1.34-.04,1.89-.05.19-.09.38-.12.57-.04.19-.06.37-.09.54-.05.26-.08.54-.11.84-.02.3-.01.55.04.77.02.24.02.49,0,.75s-.1.52-.21.79c.05.07.07.17.07.3s.02.24.07.34c.05.14.02.23-.07.25-.1.02-.13.1-.11.21.05.05.07.11.05.2-.01.08.03.14.12.16.07.12.1.25.09.39s0,.31.05.5c.14.43.18.74.11.93.05.17.13.31.27.43.13.12.2.26.2.43,0,.07-.03.15-.09.23-.06.08-.09.17-.09.27-.05.02-.12.07-.21.12-.1.06-.18.1-.25.12-.1,0-.18-.02-.27-.05-.08-.04-.18-.07-.3-.09-.19-.05-.38-.07-.57-.07-.26,0-.51.02-.75.05-.24.04-.48.07-.71.09-.17,0-.35,0-.55-.02-.2-.01-.4,0-.59.05-.07-.07-.12-.16-.16-.25-.04-.09-.11-.17-.23-.21.05-.43.06-.83.05-1.2-.01-.37.04-.7.16-.98-.1-.24-.12-.43-.07-.59.05-.15.06-.33.04-.52-.05-.19-.07-.33-.07-.41v-.2c-.02-.12-.05-.21-.07-.29s-.04-.15-.04-.25c-.05-.4-.06-.85-.04-1.34.02-.49.04-1.03.04-1.62.02-.21,0-.38-.05-.5-.06-.12-.09-.24-.09-.36.05-.26.05-.45.02-.55-.04-.11-.05-.21-.05-.3,0-.17.01-.33.04-.48.02-.16.04-.32.04-.48v-.2c0-.08.02-.18.07-.3.02-.21.04-.45.05-.7.01-.25.02-.5.02-.77,0-.19,0-.37-.02-.54s0-.39.05-.68c0-.14.01-.31.04-.52s.04-.41.05-.62.03-.42.05-.62c.02-.2.05-.36.07-.48.05-.19.07-.43.05-.73-.01-.3-.02-.59-.02-.88v-.5c.02-.24.02-.46,0-.66s-.04-.4-.04-.59c0-.07.01-.15.04-.23.02-.08.04-.17.04-.27,0-.14-.02-.29-.05-.43-.04-.14-.06-.29-.09-.43,0-.09,0-.18.02-.27.01-.08,0-.17-.02-.27,0-.09-.01-.18-.04-.25s-.05-.13-.07-.18c-.02-.31-.02-.62,0-.95s-.05-.61-.21-.87c.05-.43.07-.85.05-1.27-.01-.42,0-.85.05-1.3.02-.33.04-.68.05-1.04.01-.36.02-.72.02-1.11.21-.19.47-.29.77-.29s.61-.01.95-.04c.17-.02.32-.05.46-.07s.29-.04.43-.04c.17.05.38.05.62.02.25-.04.4-.03.45.02.14-.05.21-.02.21.09s.06.16.18.16c.07.26.14.5.2.71.06.21.06.43.02.64-.07.17-.1.26-.09.29.01.02.02.06.02.11-.05.24-.1.58-.14,1.03-.05.45-.08.84-.11,1.18,0,.36,0,.71-.02,1.07-.01.36-.02.64-.02.86,0,.36-.02.73-.05,1.11-.04.38-.03.75.02,1.11.02.12.05.23.07.32.02.1.01.21-.04.36-.02.07-.06.17-.11.29-.05.12-.05.24,0,.36.12.05.21,0,.29-.14.07-.14.17-.27.29-.39.19-.09.33-.2.43-.32.09-.12.18-.2.25-.25.17-.09.28-.17.34-.23.06-.06.12-.11.2-.16.09-.05.21-.11.34-.18s.22-.13.27-.18c.05-.05.1-.09.14-.14.05-.05.1-.09.14-.14.17-.05.27-.08.3-.09.04-.01.08-.03.12-.05.19-.09.39-.17.61-.23.21-.06.45-.12.71-.2.19-.07.35-.11.48-.12s.27-.04.41-.09c.14-.02.3-.05.46-.07.17-.02.32-.05.46-.07.14,0,.31.01.5.04s.38.04.57.04c.26.02.54.04.82.04s.56.02.82.07c.05.02.11.05.18.07.07.02.14.05.21.07.19.02.38.08.57.18.14.09.28.22.41.37.13.16.26.32.38.48.12.12.19.21.21.27.02.06.04.1.04.12.12.14.2.28.25.41.05.13.15.21.32.23.05.12.11.21.18.29.07.07.14.17.21.29.05.12.09.24.12.36.04.12.08.24.12.36.05.12.1.24.14.36s.1.24.14.36c.02.07.03.15.02.23s0,.16.02.23c.12.26.21.47.29.62.07.15.13.29.18.41,0,.17.01.27.04.32s.05.07.07.07c.02.05.04.11.04.2s.01.15.04.2c.05.26.11.53.2.8.08.27.14.54.16.8.05.29.05.57,0,.86-.05.29-.06.58-.04.89.02.12.05.23.09.32.04.1.05.2.05.32-.05.14-.05.39,0,.73.05.34.06.58.04.7Z"/>
        <path class="cls-2" d="M183.97,13.76c0,.07-.03.17-.09.29-.06.12-.09.23-.09.32.02.17.03.27.02.32s-.02.09-.02.14c.02.12.02.2,0,.25s-.02.09,0,.14c.02.14.02.25-.02.32s-.05.13-.05.18c-.02.07-.02.15,0,.23.02.08.04.16.04.23-.05.19-.08.34-.09.45-.01.11-.03.18-.05.23,0,.12,0,.25-.02.39-.01.14,0,.3.02.46,0,.05.02.11.05.18s.05.14.05.21c.02.26.02.54-.02.82-.04.29-.04.56-.02.82,0,.12.01.23.04.32.02.1.02.2,0,.32,0,.17-.02.32-.07.46-.05.14-.08.31-.11.5.02.14.02.3,0,.48-.02.18,0,.33.07.45-.05.17-.11.31-.18.43.05.33.04.65-.02.96-.06.31-.09.63-.09.96.02.12.05.23.07.34s.04.22.04.34c0,.05-.01.11-.04.18s-.04.14-.04.21c.05.21.05.37.02.46-.04.1-.07.17-.09.21-.02.26-.04.47-.04.62s-.06.33-.18.52c-.07.12-.08.3-.04.55.05.25.01.46-.11.62.05.14.06.27.05.39-.01.12-.02.27-.02.46.02.33.02.57-.02.7-.04.13-.05.26-.05.37-.02.29-.01.55.04.8.05.25.08.49.11.73-.09.24-.07.44.07.61.14.17.21.34.21.54-.05.12-.08.22-.11.3-.03.08-.04.14-.04.16-.12.05-.22.1-.32.16s-.19.1-.29.12c-.07,0-.14-.01-.21-.04-.07-.02-.15-.04-.25-.04-.09-.02-.21-.02-.34.02-.13.04-.26.05-.38.05-.12.02-.26.03-.41.02s-.29,0-.41.05c-.14.02-.28.07-.41.14s-.26.11-.38.11c-.17.17-.31.24-.43.23-.12-.01-.2,0-.25.02-.14-.12-.26-.31-.36-.57s-.07-.46.07-.61c-.12-.31-.14-.65-.07-1.04.07-.38.07-.76,0-1.14-.19.07-.36.17-.52.29-.15.12-.3.25-.45.39-.07.05-.13.11-.18.2-.05.08-.12.15-.21.2s-.2.1-.32.14c-.12.05-.2.11-.25.18-.12.05-.24.07-.38.07s-.26.02-.38.07c-.17.05-.33.09-.5.12-.17.04-.36.08-.57.12-.14.05-.33.11-.57.18-.24.07-.49.08-.75.04-.19-.05-.32-.05-.38-.02-.06.04-.12.05-.2.05-.19.05-.39.02-.61-.07-.05.09-.16.12-.34.07-.18-.05-.31-.09-.41-.14-.19.07-.37.08-.54.04s-.34-.08-.54-.11c-.12,0-.18-.04-.2-.11s-.07-.12-.16-.14c-.52.02-1.08-.04-1.68-.18-.05-.09-.11-.17-.2-.21-.08-.05-.14-.13-.16-.25-.12.02-.2,0-.23-.07-.04-.07-.11-.11-.23-.11-.05-.12-.11-.21-.2-.27-.08-.06-.15-.12-.2-.2-.12,0-.21-.02-.27-.07-.06-.05-.15-.07-.27-.07-.14-.19-.23-.3-.25-.32-.02-.02-.05-.05-.07-.07-.12-.09-.21-.14-.27-.14s-.1-.01-.12-.04c-.12-.12-.21-.21-.29-.29-.07-.07-.14-.15-.21-.25-.14-.19-.26-.31-.36-.37s-.13-.17-.11-.34c-.21-.14-.35-.24-.41-.3-.06-.06-.11-.12-.16-.2-.1-.12-.15-.24-.18-.36-.03-.12-.08-.2-.18-.25-.17-.26-.3-.47-.39-.62-.1-.16-.23-.26-.39-.3.05-.12.05-.19,0-.21-.05-.02-.06-.08-.04-.18-.19-.17-.33-.37-.43-.61-.1-.24-.18-.49-.25-.77-.07-.27-.13-.55-.18-.82-.05-.27-.12-.54-.21-.8.02-.33.04-.68.04-1.05s.06-.7.18-.98c.07-.17.11-.31.11-.43s.01-.24.04-.36c.02-.12.04-.23.05-.34.01-.11.03-.22.05-.34.07-.38.14-.67.2-.86.06-.19.15-.36.27-.5-.05-.17-.05-.32,0-.45.05-.13.11-.25.18-.36.07-.11.14-.22.21-.34.07-.12.11-.25.11-.39.12-.09.21-.21.27-.34.06-.13.14-.26.23-.38.05-.09.11-.2.18-.32.07-.12.14-.24.21-.36.05-.07.11-.14.2-.21.08-.07.11-.17.09-.29.07-.05.13-.09.18-.14.05-.05.13-.09.25-.14.19-.29.34-.54.46-.77.12-.23.26-.43.43-.62.09-.09.18-.17.27-.23.08-.06.17-.12.27-.2.05-.12.13-.2.27-.23.13-.04.21-.11.23-.23.24-.05.48-.1.71-.16.24-.06.45-.16.64-.3.14-.02.29-.04.45-.05s.29-.07.41-.16c.24.05.43.03.57-.05.14-.08.27-.17.39-.27.38,0,.74,0,1.09-.02.35-.01.72,0,1.12.02.19,0,.38-.01.55-.04s.34-.02.48,0h.32c.1,0,.18.04.25.11.21-.09.42-.08.61.04.05.02.11.03.18.02.07-.01.17,0,.29.05.24.07.4.11.48.11h.2c.19.09.31.15.36.18.05.02.13.08.25.18.31.19.55.33.73.41.18.08.35.18.52.3.12.14.2.23.25.25s.1.06.14.11c.05.05.1.1.14.16s.11.12.18.2c.05.09.12.18.21.25s.19.16.29.25c.05.05.09.11.12.18.04.07.09.13.16.18.05.05.12.11.23.2.11.08.16.18.16.3.1-.33.12-.68.07-1.05-.05-.37-.12-.68-.21-.95-.07-.14-.14-.26-.21-.34-.07-.08-.07-.23,0-.45.02-.09.08-.2.16-.32.08-.12.15-.2.2-.25,0,.02.08.04.25.05.17.01.31.02.43.02.12.02.22.04.3.05.08.01.17.02.27.02.26,0,.58.01.96.04.38.02.7.08.96.18.19-.05.35-.04.46.02.12.06.25.11.39.16.02.1.03.17.02.23s0,.14.02.23l.04.36ZM178.8,22.32c-.05-.07-.08-.17-.09-.3-.01-.13-.02-.25-.02-.37-.05-.07-.1-.12-.16-.16-.06-.04-.11-.08-.16-.12,0-.19-.03-.34-.09-.46-.06-.12-.1-.24-.12-.36.05-.19.04-.33-.02-.41-.06-.08-.1-.17-.12-.27-.05-.12-.07-.24-.07-.38s-.01-.27-.04-.41c-.12-.07-.19-.14-.21-.21s-.06-.13-.11-.18c-.19-.19-.33-.33-.43-.43s-.19-.19-.29-.29c-.21-.21-.44-.37-.68-.46-.19-.12-.37-.22-.54-.3-.17-.08-.32-.16-.46-.23s-.29-.11-.43-.11-.31-.02-.5-.07c-.12-.05-.21-.09-.29-.12-.07-.04-.14-.07-.21-.09-.05,0-.12,0-.21.02-.1.01-.19,0-.29-.02-.07,0-.15-.02-.23-.05-.08-.04-.15-.05-.2-.05-.24.05-.42.04-.54-.02-.12-.06-.2-.06-.25-.02-.24.02-.4.07-.48.14-.08.07-.21.16-.38.25-.21.1-.35.16-.41.2-.06.04-.11.07-.16.09-.24.12-.4.21-.5.29s-.18.13-.25.18c-.17.07-.26.12-.29.16-.02.04-.06.05-.11.05-.05.07-.1.13-.14.18-.05.05-.1.11-.14.18-.14.12-.26.22-.36.3-.09.08-.17.15-.21.2-.14.14-.31.25-.5.32-.02.26-.11.46-.25.59-.14.13-.21.33-.21.59-.09.12-.17.23-.21.34-.05.11-.1.22-.14.34-.05.14-.08.29-.09.45-.01.16-.04.33-.09.52-.05.14-.09.26-.14.36-.05.1-.08.2-.11.32.05.33.04.58-.02.73-.06.16-.1.33-.12.52,0,.1.02.19.05.29.04.1.05.2.05.32,0,.19-.01.33-.04.41-.02.08-.04.15-.04.2.02.17.08.32.16.46.08.14.1.31.05.5.17.12.32.24.46.36.14.12.31.23.5.32.17.29.37.52.61.71s.46.38.68.57c.21.24.45.41.71.5.21.12.38.2.52.23.13.04.25.07.37.09.07.02.16.05.27.09.11.04.19.07.23.09.4.05.77.11,1.11.2.33.08.63.12.89.12.07.02.15.03.25.02.1-.01.18-.03.25-.05h.3c.11,0,.2-.01.27-.04.19-.09.31-.14.36-.14s.1-.01.14-.04c.07-.02.15-.06.25-.11.09-.05.19-.02.29.07.07-.14.17-.26.3-.36.13-.1.26-.18.38-.27.12-.08.23-.18.34-.3s.17-.27.2-.46c.12-.19.23-.33.32-.41.09-.08.18-.17.25-.27.05-.07.09-.16.12-.27.04-.11.08-.18.12-.23.12-.19.21-.35.27-.48.06-.13.15-.26.27-.38-.05-.12-.04-.23.02-.34.06-.11.11-.21.16-.3.12-.33.2-.65.25-.95.05-.3.07-.65.07-1.05.12-.17.21-.33.29-.5Z"/>
        <path class="cls-2" d="M192.33,7.95s.06.21.04.5c-.02.29-.06.49-.11.61-.03.07-.06.14-.11.2-.05.06-.1.11-.14.16-.05.29-.12.51-.21.68-.1.17-.17.31-.21.43-.12.05-.23.11-.34.2-.11.08-.22.15-.34.2-.29.09-.52.18-.71.27-.19.08-.38.12-.57.12-.1,0-.18-.02-.25-.05s-.14-.07-.21-.09c-.12-.02-.24-.04-.36-.04s-.24-.01-.36-.04c-.12-.21-.26-.41-.41-.59-.16-.18-.27-.4-.34-.66-.07-.09-.18-.21-.32-.36,0-.19-.04-.36-.11-.52-.07-.16-.11-.33-.11-.52,0-.14.05-.33.14-.57.02-.12.04-.24.05-.36.01-.12.03-.2.05-.25.17-.19.29-.3.36-.34.07-.04.13-.09.18-.16.1-.17.14-.27.14-.32s.01-.09.04-.14c.07-.09.17-.18.3-.27.13-.08.25-.16.37-.23.12-.09.27-.14.46-.12.19.01.42,0,.68-.02.1.19.25.32.46.39.21.07.38.2.5.39.19.05.31.08.36.09.05.01.1.04.14.09.4.29.7.67.89,1.14l.04.18ZM192.44,14.12c-.05.24-.09.47-.12.7-.04.23-.04.48-.02.77,0,.12.02.23.05.32.04.1.05.2.05.32,0,.17-.03.34-.07.52-.05.18-.07.36-.07.55v.52c0,.16.01.33.04.52,0,.09.01.16.04.2.02.04.01.1-.04.2-.14.33-.18.76-.11,1.28s.11.99.11,1.39c-.02.24-.06.48-.11.71-.05.24-.08.49-.11.75-.05.55-.08,1.09-.09,1.62-.01.54-.04,1.07-.09,1.59-.02.14-.03.29-.02.45.01.16,0,.29-.02.41-.03.33-.05.66-.09.96-.04.31-.08.61-.12.89-.02.21-.02.42,0,.62s.04.41.04.62c0,.12,0,.23.02.32.01.1.02.2.02.32.02.09.05.18.07.27s.04.18.04.3c-.02.1-.04.17-.04.23v.16s.01.08.04.11c-.05.19-.06.32-.04.38s.04.11.04.16c-.02.07-.05.15-.09.23-.04.08-.05.18-.05.3,0,.19.02.38.05.55.04.18.03.36-.02.55-.17.07-.32.15-.46.23s-.35.09-.61.02c-.12-.05-.19-.14-.21-.29s-.08-.26-.18-.36c-.19-.02-.35-.06-.48-.11-.13-.05-.26-.11-.38-.18-.1.05-.22.05-.38.02-.15-.04-.31-.07-.48-.09-.19-.05-.37-.07-.54-.07s-.3-.02-.39-.07c-.14-.19-.22-.36-.23-.52-.01-.15-.07-.27-.16-.34.09-.21.15-.4.18-.57.05-.24.05-.46,0-.66-.05-.2-.06-.42-.04-.66,0-.07.02-.2.07-.39.02-.17.04-.31.04-.43s.01-.24.04-.36c.02-.19.05-.3.07-.34s.05-.08.07-.12c.02-.4.04-.82.05-1.25.01-.43.03-.74.05-.93,0-.12,0-.21.02-.27.01-.06.02-.15.02-.27,0-.48.02-.89.05-1.23.04-.34.04-.71.02-1.09-.02-.26-.02-.5.02-.71.04-.21.05-.43.05-.64.02-.26.02-.49-.02-.7-.04-.2,0-.41.12-.62-.1-.24-.12-.48-.09-.71.04-.24.05-.46.05-.68v-.54c0-.17.01-.34.04-.54,0-.12-.01-.24-.04-.38-.03-.13-.01-.25.04-.37.02-.26.04-.45.05-.55.01-.11.02-.18.02-.23,0-.09-.02-.18-.05-.25s-.05-.14-.05-.21c0-.09,0-.18.02-.25.01-.07,0-.14-.02-.21-.05-.29-.08-.48-.09-.59-.01-.11,0-.2.02-.27-.02-.12-.1-.19-.21-.21s-.2-.08-.25-.18c-.05-.19-.1-.4-.14-.62-.05-.23.01-.4.18-.52.12-.05.23-.07.34-.05.11.01.24.03.41.05.14.05.24.06.29.04s.09-.02.14,0c.07.02.15.05.23.09.08.04.17.07.27.09.24.02.51.02.82,0,.31-.02.61-.05.91-.09.3-.04.57-.06.8-.07.24-.01.4.02.5.09.07.05.11.11.11.2s.04.14.11.16Z"/>
        <path class="cls-2" d="M217.53,13.26c.05.26.07.52.07.77s-.04.52-.11.8c-.05.24-.07.4-.07.48s-.02.16-.07.23c-.07.31-.1.58-.09.8.01.23,0,.42-.05.59,0,.4-.04.69-.11.86-.05.21-.1.43-.16.64-.06.21-.15.45-.27.71.07.31.07.67,0,1.07-.03.1-.05.19-.09.29-.04.09-.07.19-.09.29-.02.05-.03.11-.02.18.01.07,0,.14-.02.21-.05.21-.07.37-.07.48v.27c-.02.41-.05.71-.09.93s-.08.42-.12.61c-.05.41-.13.77-.25,1.11.02.09.05.18.09.25.04.07.06.14.09.21,0,.24-.02.38-.07.43.07.12.12.21.14.29s.02.19,0,.36c0,.19-.02.36-.05.5-.04.14-.05.27-.05.39,0,.1.02.18.05.27.04.08.07.17.09.27.05.19.07.39.05.61-.01.21-.05.4-.12.57.07.29.11.67.12,1.16.01.49,0,.93-.05,1.34-.07.21-.1.42-.09.61s0,.37-.02.54c0,.1,0,.18-.02.25s-.03.16-.05.25c0,.09.01.18.04.27s.04.17.04.27c-.05.19-.13.39-.25.61-.02.12-.06.23-.11.32-.05.09-.08.19-.11.29-.05.14-.07.3-.07.48s-.02.35-.07.52c-.05.05-.09.11-.12.2-.04.08-.09.14-.16.16,0,.17-.03.34-.07.54-.14.12-.28.25-.41.39-.13.14-.3.25-.52.32,0,.12-.05.2-.14.25s-.17.11-.21.18c-.05.05-.08.11-.09.18-.01.07-.04.13-.09.18-.1.02-.15.08-.18.18-.03.09-.06.17-.11.21-.45.24-.89.46-1.3.66s-.8.46-1.16.77c-.12-.02-.3.01-.54.11-.12.02-.23.04-.34.05s-.23.04-.38.09c-.21.05-.38.09-.5.12-.12.04-.2.07-.25.09-.12.05-.25.07-.39.07h-.46c-.12,0-.24,0-.38.02s-.26.02-.38.02c-.07,0-.14-.02-.21-.05s-.13-.05-.18-.05c-.4.09-.74.14-1,.14s-.54.01-.82.04c-.07,0-.15.02-.23.05-.08.04-.16.05-.23.05-.05,0-.11-.01-.2-.04-.08-.02-.15-.04-.2-.04h-.46c-.1-.02-.18-.05-.25-.07-.07-.02-.13-.05-.18-.07-.12,0-.24.01-.36.04-.12.02-.24.04-.36.04-.19-.05-.37-.07-.54-.07-.07-.05-.15-.07-.25-.07s-.17-.01-.21-.04c-.05-.02-.12-.07-.23-.14-.11-.07-.2-.13-.27-.18-.1-.02-.19-.03-.27-.02-.08.01-.19,0-.3-.05-.19-.05-.33-.09-.43-.14l-.43-.21c-.14-.07-.27-.14-.38-.21-.11-.07-.23-.16-.38-.25-.05-.05-.1-.1-.14-.16s-.1-.11-.14-.16c-.14-.12-.24-.2-.3-.25-.06-.05-.11-.08-.16-.11-.12-.14-.2-.22-.23-.23-.04-.01-.07-.04-.09-.09-.07-.07-.15-.16-.23-.25-.08-.1-.15-.2-.2-.32-.12-.26-.22-.43-.3-.5-.08-.07-.15-.15-.2-.25-.19-.5-.3-1.01-.32-1.52-.03-.51-.06-1.01-.11-1.48.14-.19.33-.3.55-.32s.47-.06.73-.11c.12-.05.23-.1.34-.16s.22-.07.34-.02c.07-.05.15-.08.25-.11.09-.02.19-.06.29-.11.12-.02.22-.05.32-.07.1-.02.19-.04.29-.04.14.02.25.07.32.14.07.07.15.17.25.29.12.19.21.33.29.43.07.09.15.2.25.32.14.19.24.32.3.39.06.07.12.13.2.18.19.14.34.24.45.3s.21.11.3.16c.14.09.23.15.27.16s.09.04.16.09c.14.12.3.24.48.37s.4.2.66.2c.09.12.2.2.3.25s.22.11.34.18c.09.05.18.08.25.09.07.01.14.04.21.09.12.12.2.19.25.21.05.02.1.05.14.07.14.09.35.18.62.27.27.08.54.1.8.05.26-.05.45-.06.57-.04.12.02.2.02.25,0,.17,0,.34-.02.52-.07.18-.05.35-.1.52-.14.07-.02.15-.05.23-.07.08-.02.16-.07.23-.14.17-.05.26-.1.29-.14.02-.05.05-.07.07-.07.33-.17.58-.33.73-.48.15-.16.31-.28.48-.38.05-.19.13-.35.25-.48s.23-.28.32-.45c.07-.14.13-.24.18-.29.02-.02.05-.04.07-.04.02-.14.07-.23.12-.27.06-.04.11-.08.16-.12.07-.14.15-.4.25-.79.05-.05.09-.11.14-.18.05-.07.09-.14.14-.21-.05-.17-.04-.37.02-.61.06-.24.14-.42.23-.54-.05-.05-.07-.11-.05-.2s.02-.18.02-.3c-.14-.05-.26,0-.36.12-.1.13-.19.23-.29.3-.12.07-.23.15-.34.23-.11.08-.22.15-.34.2-.19.07-.34.14-.45.21s-.22.13-.34.18c-.05.05-.11.08-.18.09-.07.01-.15.04-.25.09s-.2.11-.3.18-.22.13-.34.18c-.12.05-.24.08-.36.09-.12.01-.25.04-.39.09-.14.02-.29.05-.43.07-.14.02-.32.05-.54.07-.09,0-.18,0-.27-.02-.08-.01-.18-.02-.3-.02-.29.02-.54.04-.75.04s-.42-.09-.61-.29c-.14-.02-.21.02-.2.12.01.11-.06.14-.23.09-.41,0-.77-.05-1.09-.14-.32-.09-.62-.2-.91-.32-.17-.07-.32-.13-.46-.18-.1-.05-.19-.07-.29-.07s-.18-.02-.25-.07c-.1-.07-.21-.13-.36-.18-.14-.05-.19-.14-.14-.29-.19-.09-.34-.15-.45-.16s-.21-.04-.3-.09c-.17-.12-.3-.21-.39-.29-.1-.07-.19-.14-.29-.21l-.43-.43c-.07-.07-.14-.15-.2-.23-.06-.08-.15-.14-.27-.16,0-.12-.04-.2-.11-.25-.07-.05-.11-.12-.11-.21-.1-.09-.18-.18-.25-.27-.07-.08-.15-.17-.25-.27-.07-.12-.14-.2-.21-.23s-.13-.08-.18-.12c-.12-.12-.23-.21-.34-.29s-.17-.13-.2-.18c-.07-.24-.14-.39-.2-.45-.06-.06-.1-.11-.12-.16-.07-.12-.14-.22-.2-.3-.06-.08-.11-.17-.16-.27-.05-.14-.08-.24-.11-.3-.03-.06-.06-.11-.11-.16-.05-.12-.11-.24-.2-.37s-.12-.28-.12-.45c-.05-.05-.09-.1-.14-.16-.05-.06-.11-.14-.18-.23-.1-.14-.15-.28-.18-.41-.03-.13-.06-.26-.11-.38-.03-.09-.05-.18-.09-.27-.04-.08-.08-.17-.12-.27-.02-.07-.03-.15-.02-.23.01-.08,0-.17-.02-.27-.05-.26-.08-.44-.11-.54-.02-.09-.04-.19-.04-.29-.05-.24-.08-.36-.09-.38-.01-.01.02-.08.09-.2.05-.07.07-.23.07-.48s.02-.45.07-.59c.02-.07.06-.14.11-.2.05-.06.09-.14.14-.23.05-.12.06-.23.05-.34-.01-.11,0-.2.05-.27.12-.14.18-.24.2-.29.01-.05.04-.09.09-.14.05-.09.13-.2.25-.32,0-.21.03-.44.09-.68.06-.24.15-.44.27-.61v-.43c.07-.07.13-.15.18-.25.05-.09.09-.19.14-.29.09-.19.2-.4.3-.62.11-.23.23-.43.38-.62.09-.17.16-.26.2-.27.04-.01.07-.03.09-.05.19-.17.34-.33.46-.5.12-.17.23-.29.32-.36.07-.05.16-.09.27-.12.11-.04.21-.08.3-.12.07-.09.14-.18.2-.27.06-.08.15-.12.27-.12.12-.21.31-.42.57-.61.1-.07.22-.13.38-.18.15-.05.29-.09.41-.14.17-.09.3-.15.39-.16.09-.01.18-.03.25-.05.29-.17.57-.28.86-.34s.52-.16.71-.3c.29.02.55-.02.8-.14.25-.12.5-.2.77-.25.07,0,.14,0,.21.02s.15.02.25.02c.17-.02.33-.04.48-.05.15-.01.29.07.41.23.05-.09.12-.15.21-.18.1-.02.19-.06.29-.11.26.05.52.07.79.05.26-.01.51,0,.75.05.24.05.45.12.62.21.18.1.37.14.59.14.17.12.33.21.48.29.15.07.33.17.52.29.17.1.3.18.41.25s.24.17.41.29c.17.17.29.27.36.3s.13.05.18.05c.05.19.13.35.25.46.12.12.24.24.36.36.05-.09.08-.21.09-.36.01-.14.04-.27.09-.39-.05-.09-.09-.17-.12-.23-.04-.06-.04-.18-.02-.38,0-.29.06-.46.18-.54s.27-.1.46-.09c.19.01.4.06.64.14.24.08.5.14.79.16.21.02.46.04.75.04s.55-.01.79-.04c.12-.02.23-.06.34-.11.11-.05.21-.06.3-.04.17.05.3.12.41.21s.21.15.3.18ZM212.64,23.4c.02-.19.03-.34.02-.45-.01-.11-.03-.23-.05-.37-.02-.09-.05-.18-.07-.27s-.02-.18,0-.3c-.09-.07-.15-.18-.16-.34-.01-.15-.04-.27-.09-.34-.07-.19-.11-.32-.12-.39-.01-.07-.03-.12-.05-.14-.07-.12-.16-.2-.27-.25-.11-.05-.16-.15-.16-.32-.14-.07-.29-.15-.43-.25-.14-.09-.24-.2-.29-.32-.19-.29-.37-.51-.54-.68-.17-.17-.33-.31-.5-.43-.19-.14-.36-.24-.5-.29s-.27-.09-.39-.14c-.07-.07-.13-.17-.18-.29-.05-.12-.1-.25-.14-.39-.17-.02-.36-.08-.59-.16s-.42-.15-.59-.2c-.21-.02-.37-.05-.46-.07s-.19-.05-.29-.07c-.12,0-.24,0-.36.02-.12.01-.24,0-.36-.02s-.24-.05-.36-.07-.24-.05-.36-.07c-.26.05-.49.06-.7.04-.2-.02-.36-.02-.48,0-.17.02-.33.08-.48.18s-.32.14-.48.14c-.05.12-.11.2-.2.25-.08.05-.17.11-.27.18-.19.12-.37.21-.54.29-.17.07-.3.2-.39.39-.17.14-.28.23-.34.25-.06.02-.1.06-.12.11-.07.17-.14.29-.21.36-.07.07-.13.13-.18.18.05.12.01.23-.11.34-.12.11-.2.18-.25.23-.03.26-.06.45-.11.57-.12.12-.19.23-.21.32-.02.1-.06.19-.11.29-.17.33-.24.67-.23,1,.01.33.02.66.02.96-.05.19-.06.33-.04.41.02.08.04.15.04.2-.03.21-.04.4-.05.55-.01.16.02.33.09.52.02.05.06.14.11.29.05.14.08.21.11.21.09.19.18.32.25.39.07.07.14.17.21.29.1.14.17.29.23.45.06.15.11.32.16.48.1.1.18.19.27.29.08.1.15.21.2.36.29.14.49.26.62.36.13.1.26.18.38.25.26.14.46.27.61.37.14.11.27.18.39.23.45.17.87.25,1.25.25.07.02.14.02.2,0,.06-.02.12-.04.2-.04.62.05,1.08.06,1.39.04.31-.02.62-.06.93-.11.26-.05.5-.09.73-.12.23-.04.42-.1.59-.2.21-.17.37-.25.46-.27.09-.01.18-.04.25-.09.24-.12.39-.21.46-.27.07-.06.14-.11.21-.16.14-.12.28-.21.41-.29s.22-.19.27-.36c.07-.05.15-.09.23-.12.08-.04.16-.1.23-.2.12-.19.18-.33.18-.43s.02-.18.07-.25c.05-.07.1-.14.14-.2.05-.06.09-.12.14-.2.05-.07.08-.14.11-.2s.05-.12.07-.2c.05-.21.11-.35.18-.41.07-.06.1-.15.07-.27.05-.19.1-.36.16-.52.06-.15.11-.33.16-.52Z"/>
        <path class="cls-2" d="M240.48,13.76c0,.07-.03.17-.09.29-.06.12-.09.23-.09.32.02.17.03.27.02.32-.01.05-.02.09-.02.14.02.12.02.2,0,.25-.03.05-.03.09,0,.14.02.14.02.25-.02.32-.04.07-.05.13-.05.18-.02.07-.02.15,0,.23.02.08.04.16.04.23-.05.19-.08.34-.09.45-.01.11-.03.18-.05.23,0,.12,0,.25-.02.39-.01.14,0,.3.02.46,0,.05.02.11.05.18.04.07.05.14.05.21.02.26.02.54-.02.82s-.04.56-.02.82c0,.12.01.23.04.32.02.1.02.2,0,.32,0,.17-.02.32-.07.46-.05.14-.08.31-.11.5.02.14.02.3,0,.48-.03.18,0,.33.07.45-.05.17-.11.31-.18.43.05.33.04.65-.02.96-.06.31-.09.63-.09.96.02.12.05.23.07.34.02.11.04.22.04.34,0,.05-.01.11-.04.18-.03.07-.04.14-.04.21.05.21.05.37.02.46-.04.1-.06.17-.09.21-.03.26-.04.47-.04.62s-.06.33-.18.52c-.07.12-.08.3-.04.55.05.25.01.46-.11.62.05.14.06.27.05.39-.01.12-.02.27-.02.46.02.33.02.57-.02.7s-.05.26-.05.37c-.02.29-.01.55.04.8.05.25.08.49.11.73-.1.24-.07.44.07.61.14.17.21.34.21.54-.05.12-.08.22-.11.3s-.04.14-.04.16c-.12.05-.23.1-.32.16-.1.06-.19.1-.29.12-.07,0-.14-.01-.21-.04-.07-.02-.16-.04-.25-.04-.1-.02-.21-.02-.34.02-.13.04-.26.05-.38.05-.12.02-.26.03-.41.02s-.29,0-.41.05c-.14.02-.28.07-.41.14s-.26.11-.38.11c-.17.17-.31.24-.43.23s-.2,0-.25.02c-.14-.12-.26-.31-.36-.57-.1-.26-.07-.46.07-.61-.12-.31-.14-.65-.07-1.04.07-.38.07-.76,0-1.14-.19.07-.36.17-.52.29-.16.12-.3.25-.45.39-.07.05-.13.11-.18.2-.05.08-.12.15-.21.2-.09.05-.2.1-.32.14-.12.05-.2.11-.25.18-.12.05-.24.07-.38.07s-.26.02-.38.07c-.17.05-.33.09-.5.12-.17.04-.36.08-.57.12-.14.05-.33.11-.57.18-.24.07-.49.08-.75.04-.19-.05-.31-.05-.37-.02-.06.04-.12.05-.2.05-.19.05-.39.02-.61-.07-.05.09-.16.12-.34.07s-.32-.09-.41-.14c-.19.07-.37.08-.54.04s-.35-.08-.54-.11c-.12,0-.19-.04-.2-.11s-.06-.12-.16-.14c-.52.02-1.08-.04-1.68-.18-.05-.09-.11-.17-.2-.21s-.14-.13-.16-.25c-.12.02-.2,0-.23-.07s-.11-.11-.23-.11c-.05-.12-.11-.21-.2-.27-.08-.06-.15-.12-.2-.2-.12,0-.21-.02-.27-.07-.06-.05-.15-.07-.27-.07-.14-.19-.23-.3-.25-.32-.02-.02-.05-.05-.07-.07-.12-.09-.21-.14-.27-.14s-.1-.01-.12-.04c-.12-.12-.21-.21-.29-.29-.07-.07-.14-.15-.21-.25-.14-.19-.26-.31-.36-.37-.09-.06-.13-.17-.11-.34-.21-.14-.35-.24-.41-.3-.06-.06-.11-.12-.16-.2-.09-.12-.15-.24-.18-.36s-.08-.2-.18-.25c-.17-.26-.3-.47-.39-.62-.1-.16-.23-.26-.39-.3.05-.12.05-.19,0-.21-.05-.02-.06-.08-.04-.18-.19-.17-.33-.37-.43-.61-.1-.24-.18-.49-.25-.77-.07-.27-.13-.55-.18-.82-.05-.27-.12-.54-.21-.8.02-.33.04-.68.04-1.05s.06-.7.18-.98c.07-.17.11-.31.11-.43s.01-.24.04-.36c.02-.12.04-.23.05-.34.01-.11.03-.22.05-.34.07-.38.14-.67.2-.86.06-.19.15-.36.27-.5-.05-.17-.05-.32,0-.45.05-.13.11-.25.18-.36.07-.11.14-.22.21-.34.07-.12.11-.25.11-.39.12-.09.21-.21.27-.34s.14-.26.23-.38c.05-.09.11-.2.18-.32.07-.12.14-.24.21-.36.05-.07.11-.14.2-.21.08-.07.11-.17.09-.29.07-.05.13-.09.18-.14.05-.05.13-.09.25-.14.19-.29.35-.54.46-.77.12-.23.26-.43.43-.62.1-.09.18-.17.27-.23.08-.06.17-.12.27-.2.05-.12.14-.2.27-.23.13-.04.21-.11.23-.23.24-.05.47-.1.71-.16s.45-.16.64-.3c.14-.02.29-.04.45-.05s.29-.07.41-.16c.24.05.43.03.57-.05.14-.08.27-.17.39-.27.38,0,.74,0,1.09-.02.34-.01.72,0,1.12.02.19,0,.38-.01.55-.04.18-.02.34-.02.48,0h.32c.09,0,.18.04.25.11.21-.09.41-.08.61.04.05.02.11.03.18.02.07-.01.17,0,.29.05.24.07.4.11.48.11h.2l.36.18s.13.08.25.18c.31.19.55.33.73.41.18.08.35.18.52.3.12.14.2.23.25.25.05.02.09.06.14.11.05.05.09.1.14.16.05.06.11.12.18.2.05.09.12.18.21.25.09.07.19.16.29.25.05.05.09.11.12.18.04.07.09.13.16.18.05.05.12.11.23.2.11.08.16.18.16.3.09-.33.12-.68.07-1.05-.05-.37-.12-.68-.21-.95-.07-.14-.14-.26-.21-.34-.07-.08-.07-.23,0-.45.02-.09.08-.2.16-.32.08-.12.15-.2.2-.25,0,.02.08.04.25.05.17.01.31.02.43.02.12.02.22.04.3.05.08.01.17.02.27.02.26,0,.58.01.96.04.38.02.7.08.96.18.19-.05.34-.04.46.02.12.06.25.11.39.16.02.1.03.17.02.23s0,.14.02.23l.04.36ZM235.3,22.32c-.05-.07-.08-.17-.09-.3-.01-.13-.02-.25-.02-.37-.05-.07-.1-.12-.16-.16-.06-.04-.11-.08-.16-.12,0-.19-.03-.34-.09-.46-.06-.12-.1-.24-.12-.36.05-.19.04-.33-.02-.41-.06-.08-.1-.17-.12-.27-.05-.12-.07-.24-.07-.38s-.01-.27-.04-.41c-.12-.07-.19-.14-.21-.21-.03-.07-.06-.13-.11-.18-.19-.19-.33-.33-.43-.43-.09-.09-.19-.19-.29-.29-.21-.21-.44-.37-.68-.46-.19-.12-.37-.22-.54-.3s-.32-.16-.46-.23-.29-.11-.43-.11-.31-.02-.5-.07c-.12-.05-.21-.09-.29-.12s-.14-.07-.21-.09c-.05,0-.12,0-.21.02-.09.01-.19,0-.29-.02-.07,0-.15-.02-.23-.05-.08-.04-.15-.05-.2-.05-.24.05-.42.04-.54-.02-.12-.06-.2-.06-.25-.02-.24.02-.4.07-.48.14-.08.07-.21.16-.37.25-.21.1-.35.16-.41.2-.06.04-.11.07-.16.09-.24.12-.4.21-.5.29-.1.07-.18.13-.25.18-.17.07-.26.12-.29.16-.02.04-.06.05-.11.05-.05.07-.1.13-.14.18-.05.05-.1.11-.14.18-.14.12-.26.22-.36.3-.1.08-.17.15-.21.2-.14.14-.31.25-.5.32-.02.26-.11.46-.25.59-.14.13-.21.33-.21.59-.1.12-.17.23-.21.34-.05.11-.09.22-.14.34-.05.14-.08.29-.09.45-.01.16-.04.33-.09.52-.05.14-.1.26-.14.36-.05.1-.08.2-.11.32.05.33.04.58-.02.73-.06.16-.1.33-.12.52,0,.1.02.19.05.29.04.1.05.2.05.32,0,.19-.01.33-.04.41-.03.08-.04.15-.04.2.02.17.08.32.16.46.08.14.1.31.05.5.17.12.32.24.46.36.14.12.31.23.5.32.17.29.37.52.61.71.24.19.46.38.68.57.21.24.45.41.71.5.21.12.39.2.52.23.13.04.26.07.38.09.07.02.16.05.27.09s.18.07.23.09c.4.05.77.11,1.11.2.33.08.63.12.89.12.07.02.15.03.25.02.09-.01.18-.03.25-.05h.3c.11,0,.2-.01.27-.04.19-.09.31-.14.36-.14s.1-.01.14-.04c.07-.02.15-.06.25-.11.1-.05.19-.02.29.07.07-.14.17-.26.3-.36.13-.1.26-.18.38-.27.12-.08.23-.18.34-.3s.17-.27.2-.46c.12-.19.22-.33.32-.41s.18-.17.25-.27c.05-.07.09-.16.12-.27.04-.11.08-.18.12-.23.12-.19.21-.35.27-.48.06-.13.15-.26.27-.38-.05-.12-.04-.23.02-.34.06-.11.11-.21.16-.3.12-.33.2-.65.25-.95.05-.3.07-.65.07-1.05.12-.17.21-.33.29-.5Z"/>
        <path class="cls-2" d="M250.01,34.28c0,.24-.13.33-.39.29-.05.05-.06.12-.04.23s-.02.18-.14.23c-.19.07-.4.08-.62.04-.22-.05-.4-.12-.52-.21-.57-.12-1.17-.14-1.79-.05-.62.08-1.22.09-1.82.02-.17-.17-.24-.22-.23-.16.01.06-.04.08-.16.05-.14-.12-.22-.25-.25-.39-.03-.14-.04-.3-.04-.46v-.64c.02-.19.04-.38.04-.55v-.59c0-.4-.03-.88-.07-1.43-.05-.55.04-1.01.25-1.39-.12-.14-.15-.32-.09-.54.06-.21.1-.43.12-.64,0-.12-.02-.26-.05-.41-.04-.15,0-.29.12-.41-.12-.12-.16-.26-.12-.43s.06-.34.09-.54c0-.09-.01-.18-.04-.27s.01-.16.11-.23c-.02-.19-.07-.37-.12-.54-.06-.17-.07-.38-.02-.64,0-.07,0-.14.02-.2.01-.06,0-.15-.02-.27-.05-.17-.07-.29-.05-.36.01-.07.02-.13.02-.18,0-.12-.01-.24-.04-.36s-.04-.26-.04-.43c.05-.19.07-.32.07-.39,0-.12-.02-.23-.05-.34-.04-.11-.06-.22-.09-.34.02-.38.02-.69-.02-.93-.04-.24-.08-.5-.12-.78-.02-.17-.05-.36-.07-.59-.02-.23-.02-.46,0-.7.02-.26.02-.46-.02-.59-.04-.13-.07-.27-.09-.41-.02-.12-.04-.24-.04-.36v-.36c-.05-.21-.06-.36-.04-.45.02-.08.04-.15.04-.2,0-.12-.02-.26-.05-.43-.04-.17-.06-.34-.09-.54-.05-.24-.07-.49-.07-.75v-.79c-.02-.09-.04-.18-.04-.27s-.01-.16-.04-.23c.05-.14.05-.24,0-.29-.05-.05-.07-.09-.07-.14.05-.17.06-.28.04-.34s-.04-.11-.04-.16c.05-.24.05-.4.02-.5-.04-.09-.05-.18-.05-.25,0-.14.01-.29.04-.45.02-.15,0-.3-.07-.45.14-.09.19-.22.14-.38-.05-.15-.07-.29-.07-.41,0-.14.04-.28.11-.41s.07-.26,0-.38c.07-.05.12-.12.14-.21s.06-.18.11-.25c-.05-.19-.02-.42.07-.7.1-.27.18-.53.25-.77.02-.12,0-.2-.05-.23-.06-.04-.11-.08-.16-.12.05-.19.09-.38.14-.57.05-.19.15-.32.32-.39.48.07.92.11,1.32.12.4.01.81.03,1.21.05.12-.05.22-.1.3-.16.08-.06.18-.1.3-.12.12,0,.27.05.46.16.19.11.35.18.46.23.07.1.12.21.16.34s.08.26.12.37c0,.12-.05.18-.14.2-.1.01-.17.07-.21.16v.46c-.05.26-.05.45,0,.55.05.11.07.2.07.27.02.17.02.32-.02.46-.04.14-.05.3-.05.46,0,.07.01.15.04.23.02.08.05.17.07.27-.02.07-.02.14,0,.21s.05.13.07.18c0,.24-.02.47-.05.7-.04.23-.05.45-.05.66.05.24.05.4.02.5-.04.1-.04.17-.02.21.07.26.12.43.16.52.04.08.05.15.05.2-.02.26-.02.47,0,.62s.05.29.07.41c.05.33.07.66.07.98s.06.64.18.95c-.1.19-.11.38-.05.57.06.19.09.4.09.64,0,.17-.01.32-.04.46s-.04.31-.04.5c.05.09.04.2-.02.3-.06.11-.1.22-.12.34,0,.29.02.57.07.86.05.29.07.57.07.86,0,.31-.01.64-.04,1-.02.36-.02.69,0,1-.05.19-.06.33-.04.41s.04.16.04.23c-.02.19-.05.36-.09.5-.04.14-.05.3-.05.46-.02.12-.02.24,0,.37.02.13.04.27.04.41s0,.29-.02.43-.02.29-.02.43c.02.33.05.66.09.96.04.31.05.63.05.96,0,.26-.02.52-.05.77s-.03.51.02.77c.02.17.05.34.07.52.02.18.05.36.07.55.02.09.05.18.07.27.02.08.04.17.04.27.02.4-.01.81-.11,1.21s-.07.81.07,1.21c.09.12.24.19.45.21.2.02.36.09.48.21l.11.36Z"/>
      </g>
      <g>
        <path class="cls-2" d="M82.72,51.1c0,1.66-1.17,2.79-2.73,2.79-.91,0-1.67-.4-2.11-1.13v1.08h-.71v-7.72h.74v3.29c.46-.71,1.21-1.08,2.08-1.08,1.56,0,2.73,1.12,2.73,2.78ZM81.98,51.1c0-1.28-.88-2.13-2.04-2.13s-2.04.85-2.04,2.13.87,2.13,2.04,2.13,2.04-.85,2.04-2.13Z"/>
        <path class="cls-2" d="M83.33,51.1c0-1.62,1.19-2.78,2.79-2.78s2.78,1.16,2.78,2.78-1.18,2.79-2.78,2.79-2.79-1.17-2.79-2.79ZM88.15,51.1c0-1.28-.86-2.13-2.03-2.13s-2.04.85-2.04,2.13.88,2.13,2.04,2.13,2.03-.85,2.03-2.13Z"/>
        <path class="cls-2" d="M89.5,51.1c0-1.62,1.19-2.78,2.79-2.78s2.78,1.16,2.78,2.78-1.18,2.79-2.78,2.79-2.79-1.17-2.79-2.79ZM94.32,51.1c0-1.28-.86-2.13-2.03-2.13s-2.04.85-2.04,2.13.88,2.13,2.04,2.13,2.03-.85,2.03-2.13Z"/>
        <path class="cls-2" d="M98.26,51.09l-1.29,1.19v1.56h-.74v-7.72h.74v5.23l3.27-2.99h.92l-2.34,2.24,2.56,3.24h-.91l-2.21-2.75Z"/>
        <path class="cls-2" d="M101.21,53.22l.33-.58c.44.34,1.18.61,1.95.61,1.04,0,1.47-.35,1.47-.9,0-1.43-3.55-.3-3.55-2.47,0-.9.77-1.56,2.16-1.56.71,0,1.48.2,1.94.51l-.32.59c-.48-.33-1.05-.47-1.61-.47-.99,0-1.43.38-1.43.91,0,1.48,3.55.36,3.55,2.47,0,.95-.83,1.56-2.26,1.56-.91,0-1.78-.29-2.23-.68Z"/>
        <path class="cls-2" d="M109.6,53.51c-.29.26-.73.38-1.16.38-1.03,0-1.6-.58-1.6-1.59v-3.31h-.98v-.62h.98v-1.2h.74v1.2h1.67v.62h-1.67v3.27c0,.65.33,1,.95,1,.3,0,.6-.09.81-.28l.26.53Z"/>
        <path class="cls-2" d="M109.85,51.1c0-1.62,1.19-2.78,2.79-2.78s2.78,1.16,2.78,2.78-1.18,2.79-2.78,2.79-2.79-1.17-2.79-2.79ZM114.66,51.1c0-1.28-.86-2.13-2.03-2.13s-2.04.85-2.04,2.13.88,2.13,2.04,2.13,2.03-.85,2.03-2.13Z"/>
        <path class="cls-2" d="M119.33,48.32v.72c-.06,0-.12,0-.18,0-1.14,0-1.84.73-1.84,2.02v2.79h-.74v-5.47h.71v1.07c.34-.73,1.04-1.11,2.05-1.11Z"/>
        <path class="cls-2" d="M125.04,51.33h-4.58c.08,1.14.96,1.9,2.15,1.9.67,0,1.26-.24,1.67-.72l.42.48c-.49.58-1.25.89-2.11.89-1.71,0-2.87-1.17-2.87-2.79s1.13-2.78,2.67-2.78,2.65,1.13,2.65,2.78c0,.06,0,.15,0,.23ZM120.46,50.78h3.88c-.09-1.07-.88-1.82-1.95-1.82s-1.84.75-1.94,1.82Z"/>
        <path class="cls-2" d="M128.12,50.91c0-.61.43-1.01,1.01-1.01s1.01.4,1.01,1.01-.42,1.02-1.01,1.02-1.01-.41-1.01-1.02Z"/>
        <path class="cls-2" d="M133.43,51.1c0-1.63,1.19-2.78,2.82-2.78.93,0,1.71.36,2.14,1.08l-.55.38c-.37-.55-.96-.81-1.59-.81-1.2,0-2.07.85-2.07,2.13s.88,2.13,2.07,2.13c.63,0,1.22-.25,1.59-.8l.55.38c-.44.71-1.22,1.08-2.14,1.08-1.63,0-2.82-1.16-2.82-2.79Z"/>
        <path class="cls-2" d="M138.85,51.1c0-1.62,1.19-2.78,2.79-2.78s2.78,1.16,2.78,2.78-1.18,2.79-2.78,2.79-2.79-1.17-2.79-2.79ZM143.67,51.1c0-1.28-.86-2.13-2.03-2.13s-2.04.85-2.04,2.13.88,2.13,2.04,2.13,2.03-.85,2.03-2.13Z"/>
        <path class="cls-2" d="M154.61,50.67v3.17h-.74v-3.1c0-1.15-.58-1.75-1.57-1.75-1.12,0-1.83.73-1.83,1.98v2.87h-.74v-3.1c0-1.15-.58-1.75-1.58-1.75-1.11,0-1.83.73-1.83,1.98v2.87h-.74v-5.47h.71v1c.38-.66,1.09-1.04,2.01-1.04s1.61.38,1.95,1.16c.4-.71,1.18-1.16,2.16-1.16,1.33,0,2.21.77,2.21,2.34Z"/>
        <path class="cls-2" d="M165.31,50.67v3.17h-.74v-3.1c0-1.15-.58-1.75-1.57-1.75-1.12,0-1.83.73-1.83,1.98v2.87h-.74v-3.1c0-1.15-.58-1.75-1.58-1.75-1.11,0-1.83.73-1.83,1.98v2.87h-.74v-5.47h.71v1c.38-.66,1.09-1.04,2.01-1.04s1.61.38,1.95,1.16c.4-.71,1.18-1.16,2.16-1.16,1.33,0,2.21.77,2.21,2.34Z"/>
        <path class="cls-2" d="M171.9,48.37v5.47h-.71v-1c-.38.67-1.09,1.05-1.97,1.05-1.39,0-2.31-.78-2.31-2.35v-3.17h.74v3.1c0,1.17.6,1.76,1.64,1.76,1.14,0,1.86-.74,1.86-1.99v-2.87h.74Z"/>
        <path class="cls-2" d="M178.66,50.67v3.17h-.74v-3.1c0-1.15-.6-1.75-1.64-1.75-1.18,0-1.91.73-1.91,1.98v2.87h-.74v-5.47h.71v1.01c.4-.67,1.13-1.05,2.08-1.05,1.33,0,2.25.77,2.25,2.34Z"/>
        <path class="cls-2" d="M180.15,46.64c0-.28.24-.52.54-.52s.54.23.54.51c0,.3-.23.54-.54.54s-.54-.24-.54-.53ZM180.32,48.37h.74v5.47h-.74v-5.47Z"/>
        <path class="cls-2" d="M185.65,53.51c-.29.26-.73.38-1.16.38-1.03,0-1.6-.58-1.6-1.59v-3.31h-.98v-.62h.98v-1.2h.74v1.2h1.67v.62h-1.67v3.27c0,.65.33,1,.95,1,.3,0,.6-.09.81-.28l.26.53Z"/>
        <path class="cls-2" d="M191.15,48.37l-2.74,6.13c-.46,1.07-1.04,1.42-1.82,1.42-.51,0-1-.17-1.33-.5l.34-.55c.27.27.6.42,1,.42.49,0,.82-.23,1.13-.92l.24-.53-2.45-5.46h.77l2.06,4.65,2.06-4.65h.73Z"/>
        <path class="cls-2" d="M193.46,53.22l.33-.58c.44.34,1.18.61,1.95.61,1.04,0,1.47-.35,1.47-.9,0-1.43-3.55-.3-3.55-2.47,0-.9.77-1.56,2.16-1.56.71,0,1.48.2,1.94.51l-.32.59c-.48-.33-1.05-.47-1.61-.47-.99,0-1.43.38-1.43.91,0,1.48,3.55.36,3.55,2.47,0,.95-.83,1.56-2.26,1.56-.91,0-1.78-.29-2.23-.68Z"/>
        <path class="cls-2" d="M204.51,51.1c0,1.67-1.17,2.79-2.73,2.79-.87,0-1.62-.37-2.08-1.08v3.05h-.74v-7.49h.71v1.08c.45-.73,1.21-1.12,2.11-1.12,1.56,0,2.73,1.12,2.73,2.78ZM203.77,51.1c0-1.27-.88-2.13-2.04-2.13s-2.04.86-2.04,2.13.87,2.13,2.04,2.13,2.04-.85,2.04-2.13Z"/>
        <path class="cls-2" d="M209.77,50.45v3.39h-.71v-.85c-.33.56-.98.91-1.88.91-1.24,0-2-.64-2-1.59,0-.84.54-1.55,2.11-1.55h1.74v-.33c0-.94-.53-1.45-1.55-1.45-.71,0-1.37.25-1.82.65l-.33-.55c.55-.47,1.36-.74,2.23-.74,1.42,0,2.22.71,2.22,2.12ZM209.03,52.2v-.89h-1.72c-1.06,0-1.41.42-1.41.98,0,.63.51,1.03,1.38,1.03s1.45-.4,1.74-1.11Z"/>
        <path class="cls-2" d="M210.9,51.1c0-1.63,1.19-2.78,2.82-2.78.93,0,1.71.36,2.14,1.08l-.55.38c-.37-.55-.96-.81-1.59-.81-1.2,0-2.07.85-2.07,2.13s.88,2.13,2.07,2.13c.63,0,1.22-.25,1.59-.8l.55.38c-.44.71-1.22,1.08-2.14,1.08-1.63,0-2.82-1.16-2.82-2.79Z"/>
        <path class="cls-2" d="M221.64,51.33h-4.58c.08,1.14.96,1.9,2.15,1.9.67,0,1.26-.24,1.67-.72l.42.48c-.49.58-1.25.89-2.11.89-1.71,0-2.87-1.17-2.87-2.79s1.13-2.78,2.67-2.78,2.65,1.13,2.65,2.78c0,.06,0,.15,0,.23ZM217.06,50.78h3.88c-.09-1.07-.88-1.82-1.95-1.82s-1.84.75-1.94,1.82Z"/>
        <path class="cls-2" d="M224.72,50.91c0-.61.43-1.01,1.01-1.01s1.01.4,1.01,1.01-.42,1.02-1.01,1.02-1.01-.41-1.01-1.02Z"/>
        <path class="cls-2" d="M230.04,51.1c0-1.63,1.19-2.78,2.82-2.78.93,0,1.71.36,2.14,1.08l-.55.38c-.37-.55-.96-.81-1.59-.81-1.2,0-2.07.85-2.07,2.13s.88,2.13,2.07,2.13c.63,0,1.22-.25,1.59-.8l.55.38c-.44.71-1.22,1.08-2.14,1.08-1.63,0-2.82-1.16-2.82-2.79Z"/>
        <path class="cls-2" d="M240.23,50.45v3.39h-.71v-.85c-.33.56-.98.91-1.88.91-1.24,0-2-.64-2-1.59,0-.84.54-1.55,2.11-1.55h1.74v-.33c0-.94-.53-1.45-1.55-1.45-.71,0-1.37.25-1.82.65l-.33-.55c.55-.47,1.36-.74,2.23-.74,1.42,0,2.22.71,2.22,2.12ZM239.49,52.2v-.89h-1.72c-1.06,0-1.41.42-1.41.98,0,.63.51,1.03,1.38,1.03s1.45-.4,1.74-1.11Z"/>
        <path class="cls-2" d="M242.74,47.72v.65h1.69v.62h-1.67v4.85h-.74v-4.85h-.98v-.62h.98v-.68c0-.98.58-1.62,1.65-1.62.41,0,.82.11,1.09.34l-.25.55c-.21-.18-.5-.27-.81-.27-.63,0-.97.35-.97,1.03Z"/>
        <path class="cls-2" d="M249.75,51.33h-4.58c.08,1.14.96,1.9,2.15,1.9.67,0,1.26-.24,1.67-.72l.42.48c-.49.58-1.25.89-2.11.89-1.71,0-2.87-1.17-2.87-2.79s1.13-2.78,2.67-2.78,2.65,1.13,2.65,2.78c0,.06,0,.15,0,.23ZM245.17,50.78h3.88c-.09-1.07-.88-1.82-1.95-1.82s-1.84.75-1.94,1.82Z"/>
      </g>
    </g>
  </g>
</svg>